<svg width="61" height="53" viewBox="0 0 61 53" fill="none" xmlns="http://www.w3.org/2000/svg">
<path fill-rule="evenodd" clip-rule="evenodd" d="M1.678 50.7202C1.83541 50.7202 1.96303 50.5924 1.96303 50.4349C1.96303 50.2778 1.83541 50.15 1.678 50.15C1.52063 50.15 1.39301 50.2778 1.39301 50.4349C1.39301 50.5924 1.52063 50.7202 1.678 50.7202ZM28.3747 0.487121C28.386 0.515021 28.3963 0.54382 28.4049 0.57397C28.44 0.69457 28.4526 0.833173 28.4418 0.992923C28.4197 1.31152 28.3032 1.71202 28.0845 2.21332C28.057 2.27632 28.0282 2.34022 27.9976 2.40592C27.967 2.47207 27.9351 2.53957 27.9013 2.60842L27.9011 2.60875C27.8841 2.64329 27.8671 2.67783 27.8491 2.71327C27.8316 2.74837 27.8136 2.78437 27.7951 2.82082C27.7582 2.89327 27.7195 2.96707 27.6795 3.04267C27.5193 3.34732 27.3316 3.67672 27.1192 4.03942L27.0915 4.08625C26.9932 4.25224 26.8901 4.42618 26.7804 4.60462C26.76 4.63805 26.7395 4.67179 26.7188 4.7058C26.6788 4.77158 26.6383 4.83833 26.5968 4.90567C26.5556 4.97235 26.5137 5.03998 26.4713 5.10845C26.4488 5.14488 26.4261 5.18154 26.4033 5.21842C26.3371 5.32507 26.2692 5.43352 26.1994 5.54377C26.1301 5.65492 26.0595 5.76787 25.987 5.88262L25.8763 6.05632C25.8471 6.10304 25.8175 6.14976 25.7877 6.19693L25.7643 6.23407C25.6887 6.35332 25.6113 6.47482 25.5321 6.59902C25.1752 7.15882 24.7356 7.65157 24.2253 8.06062C24.0984 8.16367 23.9665 8.26132 23.8306 8.35267C23.7622 8.39812 23.6938 8.44357 23.6241 8.48722C23.5543 8.53087 23.4837 8.57272 23.4117 8.61322C23.1237 8.77477 22.8231 8.91697 22.5063 9.03217C22.4447 9.05466 22.3826 9.07715 22.32 9.09981C22.2962 9.10844 22.2723 9.11709 22.2484 9.12577C22.162 9.15727 22.0743 9.18832 21.9856 9.21937C21.897 9.25042 21.8074 9.28147 21.717 9.31207C21.6627 9.33008 21.6084 9.34825 21.5539 9.36649C21.5171 9.37878 21.4803 9.3911 21.4434 9.40342C21.4276 9.40882 21.4308 9.43177 21.4474 9.43267C21.5113 9.43582 21.6126 9.44032 21.7462 9.44617C21.8794 9.45202 22.045 9.45832 22.2367 9.46462C22.4289 9.47137 22.6467 9.47722 22.8861 9.48262C23.1264 9.48937 23.3874 9.49477 23.6637 9.49837C23.6754 9.49882 23.683 9.51187 23.6767 9.52132C23.2699 10.1666 22.8424 10.8596 22.3929 11.599C22.3258 11.7052 22.2597 11.8078 22.1953 11.9059C22.1732 11.9389 22.1519 11.972 22.1308 12.0046C22.1206 12.0204 22.1105 12.0361 22.1004 12.0517C22.0747 12.0901 22.0497 12.1282 22.025 12.1658C22.0194 12.1745 22.0137 12.1831 22.0081 12.1916C21.9469 12.283 21.8875 12.3707 21.829 12.4549C21.7964 12.5021 21.7639 12.5482 21.7321 12.5933C21.7072 12.6285 21.6828 12.6631 21.6589 12.6974C21.5496 12.8527 21.4447 12.9944 21.3453 13.1236C21.3048 13.1762 21.2647 13.2266 21.2258 13.2755C21.2171 13.2864 21.2085 13.2973 21.1999 13.3081C21.1536 13.367 21.1081 13.4228 21.064 13.4759C20.9758 13.5821 20.8921 13.6771 20.8138 13.7617C20.7355 13.8463 20.6613 13.9201 20.5938 13.9867C20.4583 14.1194 20.3417 14.2162 20.245 14.2864C20.1851 14.3188 20.1239 14.3516 20.0614 14.3849C19.9988 14.4178 19.9352 14.4511 19.8707 14.4853C19.7419 14.5532 19.6083 14.6221 19.4703 14.6909C19.3323 14.7598 19.19 14.8282 19.0439 14.8966C18.8991 14.9654 18.7506 15.0338 18.5989 15.1009C18.4472 15.1679 18.2921 15.2332 18.1344 15.2966C18.1043 15.3086 18.0744 15.3206 18.0445 15.3326C17.9957 15.3523 17.9469 15.3719 17.8975 15.3911C17.8181 15.4222 17.7381 15.4528 17.6576 15.4825C17.3358 15.6013 17.003 15.707 16.6721 15.7988L17.0063 15.7111C17.2201 15.6562 17.5246 15.5774 17.8867 15.4825L18.1686 15.4082C18.2664 15.383 18.3675 15.3569 18.4715 15.3304C18.5493 15.3102 18.6287 15.2896 18.7095 15.2687C18.8433 15.2341 18.9808 15.1985 19.1212 15.1621C19.1446 15.1559 19.1682 15.1497 19.1918 15.1436C19.2245 15.135 19.2575 15.1264 19.2905 15.1175C19.3359 15.1061 19.3815 15.0944 19.4274 15.0826C19.4393 15.0795 19.4511 15.0765 19.463 15.0734C19.4987 15.0642 19.5345 15.055 19.5705 15.0458C19.6508 15.0251 19.7318 15.0043 19.8132 14.9834C19.9313 14.9523 20.0503 14.9211 20.1698 14.8897C20.287 14.859 20.4046 14.8281 20.5222 14.7971C20.5348 14.794 20.5461 14.8075 20.5398 14.8187L20.5146 14.866C20.5132 14.8687 20.5105 14.8709 20.5078 14.8723C20.2512 14.9825 19.9656 15.0995 19.6565 15.2165C19.6141 15.2323 19.5715 15.2484 19.5285 15.2645C19.493 15.2779 19.4573 15.2913 19.4215 15.3047C19.3422 15.3344 19.2615 15.3641 19.1796 15.3934C19.0159 15.4519 18.8472 15.5099 18.6744 15.5657L18.6693 15.5673C18.4975 15.6226 18.3244 15.6783 18.1476 15.7304C17.969 15.7835 17.7871 15.8335 17.6029 15.8803C17.5108 15.9037 17.4181 15.9262 17.325 15.9478C17.2325 15.9698 17.1396 15.9905 17.0463 16.0108C16.8597 16.0504 16.6716 16.0855 16.4828 16.1152C16.4828 16.1152 18.2532 15.8551 20.1111 15.5815C20.1233 15.5797 20.1329 15.5927 20.1272 15.6031C20.0909 15.6706 20.0561 15.7399 20.0211 15.8105C19.986 15.8812 19.9508 15.9532 19.9152 16.0265C19.8441 16.1737 19.7715 16.3267 19.695 16.4878C19.678 16.5245 19.6608 16.5616 19.6434 16.5992C19.5842 16.7274 19.5226 16.8606 19.4572 16.9994C19.415 17.089 19.3712 17.1808 19.3257 17.2753C19.3197 17.2879 19.3136 17.3005 19.3075 17.3131C19.3021 17.3244 19.2967 17.3356 19.2912 17.3468L19.2568 17.4197L19.186 17.5687C19.0896 17.7703 18.9846 17.9822 18.8699 18.2072C18.7575 18.434 18.6347 18.673 18.4993 18.9268C18.4824 18.9587 18.4652 18.9902 18.448 19.0226L18.3965 19.1207L18.2903 19.321C18.2178 19.4564 18.1419 19.5955 18.0623 19.7386C18.0179 19.8173 17.9736 19.898 17.9284 19.9803C17.8918 20.0472 17.8545 20.115 17.8163 20.1836C17.7311 20.3362 17.6421 20.4937 17.5488 20.6552C17.535 20.6791 17.521 20.7029 17.5067 20.7263C17.4924 20.7502 17.4784 20.7736 17.4638 20.797C17.4348 20.8438 17.4048 20.8897 17.3738 20.9347C17.3117 21.0247 17.2454 21.1111 17.1751 21.1939C17.0351 21.3599 16.8768 21.5089 16.7089 21.643C16.5397 21.7757 16.3554 21.89 16.1568 21.9818C16.0575 22.0277 15.9544 22.0682 15.8484 22.1024C15.7432 22.1375 15.6344 22.1663 15.5223 22.1888C15.1106 22.2703 14.743 22.3657 14.4201 22.4642C14.1004 22.5646 13.8253 22.6676 13.595 22.7644C13.4798 22.8125 13.3759 22.8593 13.2832 22.903C13.2369 22.9246 13.1933 22.9457 13.1526 22.966C13.1142 22.9851 13.0789 23.0038 13.0458 23.0214L13.0401 23.0245C12.9014 23.0987 12.8073 23.1563 12.7575 23.1883C12.7449 23.1964 12.751 23.2162 12.7661 23.2157C12.912 23.2144 13.0626 23.2081 13.2167 23.1968C13.2937 23.191 13.3716 23.1842 13.4502 23.1766C13.5288 23.1689 13.6092 23.1608 13.6896 23.1514C14.0118 23.114 14.3434 23.0623 14.675 23.0011C14.8407 22.9709 15.0066 22.9381 15.1713 22.9034C15.3373 22.8697 15.5025 22.8346 15.6653 22.7986C15.9909 22.7261 16.3075 22.6496 16.6063 22.574C16.6185 22.5709 16.6294 22.5835 16.6243 22.5943C16.5124 22.8395 16.4007 23.1028 16.2881 23.3786C16.2417 23.4901 16.1982 23.6051 16.154 23.7218C16.1436 23.7492 16.1331 23.7767 16.1226 23.8043L15.957 24.2462L15.8732 24.4721C15.8535 24.5265 15.8342 24.5812 15.8148 24.6363C15.8071 24.6581 15.7994 24.6801 15.7916 24.7021L15.6259 25.1674L15.5412 25.4018C15.5361 25.4161 15.5309 25.4303 15.5257 25.4445C15.5165 25.4693 15.5074 25.4941 15.4988 25.5193L15.4574 25.6381C15.4019 25.796 15.3455 25.9544 15.2879 26.1119C15.259 26.1907 15.2299 26.2694 15.2005 26.3482C15.1895 26.3778 15.1783 26.4073 15.1671 26.4368C15.1486 26.4857 15.1301 26.5344 15.1124 26.5835C15.0546 26.741 14.9955 26.8972 14.9347 27.052C14.8739 27.2063 14.8115 27.3593 14.7473 27.5101C14.6853 27.6622 14.6218 27.8116 14.5561 27.9587C14.4904 28.1054 14.4226 28.2494 14.3525 28.3903L14.2471 28.5995C14.2121 28.6688 14.1764 28.7372 14.1401 28.8047C14.0675 28.9393 13.9923 29.0702 13.9144 29.1962C13.8753 29.2597 13.8356 29.3218 13.7952 29.3825C13.7749 29.4131 13.7545 29.4433 13.7339 29.473C13.7138 29.5031 13.6936 29.5328 13.6732 29.5625C13.6728 29.563 13.6727 29.5634 13.6725 29.5639C13.5569 29.7862 13.4425 29.9896 13.3303 30.175C13.2741 30.2681 13.2186 30.3563 13.1637 30.4409C13.1098 30.5255 13.0575 30.6065 13.0055 30.683C12.798 30.9904 12.6018 31.2329 12.4285 31.4246C12.0878 31.8103 11.8286 31.9871 11.7253 32.0488C11.7411 32.0402 11.757 32.0614 11.7431 32.0726C11.6709 32.1298 11.5976 32.1869 11.5231 32.2441C11.5028 32.2593 11.4829 32.2748 11.4631 32.2903C11.446 32.3036 11.4289 32.3169 11.4117 32.33C11.39 32.3468 11.3682 32.3634 11.3464 32.38C11.3307 32.392 11.315 32.4039 11.2993 32.416C11.1483 32.5298 10.9929 32.6428 10.8334 32.753C10.674 32.8628 10.5106 32.9704 10.3438 33.0739L10.2194 33.1513C10.1779 33.1769 10.1362 33.2021 10.0943 33.2269C10.0105 33.2773 9.92592 33.3259 9.84051 33.3736C9.84051 33.3736 9.92637 33.3268 10.079 33.244L10.0798 33.2435C10.1557 33.2022 10.2479 33.1519 10.3543 33.0937C10.4419 33.0468 10.5391 32.9945 10.6444 32.9378L10.7177 32.8984C10.9846 32.7548 11.2973 32.5856 11.6349 32.4016C11.6911 32.3705 11.7493 32.3396 11.808 32.3084C11.8369 32.293 11.866 32.2776 11.895 32.2621L12.1638 32.1181C12.3451 32.0204 12.5301 31.9205 12.7162 31.8193C12.7289 31.8125 12.7441 31.826 12.7377 31.8386C12.6202 32.0708 12.4938 32.2981 12.3588 32.5208L12.3078 32.6041L12.2575 32.6873C12.2238 32.7431 12.1895 32.798 12.1546 32.8529C12.0849 32.9627 12.0131 33.0712 11.9391 33.1787C11.6394 33.6062 11.3227 34.0207 10.9678 34.4122C10.9236 34.4608 10.8788 34.5094 10.8336 34.558C10.8162 34.5766 10.7989 34.5952 10.7817 34.6139C10.7543 34.6435 10.7269 34.6731 10.699 34.7024C10.6086 34.7987 10.5162 34.8932 10.4217 34.9864C10.2329 35.1731 10.0362 35.354 9.83173 35.5295C9.6313 35.7064 9.42313 35.8774 9.20749 36.0421C9.09963 36.1244 8.98996 36.2054 8.87841 36.2851C8.82261 36.3247 8.7664 36.3643 8.7097 36.403L8.53992 36.5191C8.18595 36.7594 7.82032 36.9799 7.45047 37.1648C7.34224 37.2188 7.23523 37.2751 7.12993 37.3345C7.02594 37.3939 6.92347 37.456 6.82254 37.5203C6.62062 37.649 6.42487 37.7876 6.23574 37.9348C6.14115 38.0086 6.04822 38.0846 5.95701 38.1625C5.86588 38.2408 5.77575 38.3209 5.69061 38.4037C5.51875 38.5697 5.35419 38.7439 5.19732 38.9257C5.11888 39.0166 5.04238 39.1093 4.96791 39.2042C4.93064 39.2515 4.89388 39.2992 4.85766 39.3473C4.83138 39.3824 4.80532 39.418 4.77981 39.4535C3.90775 42.3259 2.7278 46.2467 2.20958 48.1259H2.2094L2.16058 48.3037L2.10131 48.5188C2.05946 48.6713 2.01766 48.8243 1.97581 48.9778L1.90394 49.2401C1.82888 49.5137 1.95884 49.8022 2.21354 49.9273L2.40088 50.0191C2.51199 50.1014 2.63186 50.1748 2.76142 50.2346C2.81825 50.2612 2.82856 50.3372 2.77924 50.3759C2.36222 50.7022 0.884873 51.8879 0.171578 52.8388C0.108848 52.9225 -0.0231356 52.8581 0.0035044 52.7569L1.19897 48.2186C1.24087 48.0341 1.28348 47.8483 1.32731 47.6611C1.3814 47.4302 1.43693 47.1971 1.49399 46.9627L1.58062 46.6094L1.67224 46.2548C1.79612 45.7801 1.92581 45.2995 2.06122 44.8139L2.22965 44.2186L2.22565 44.2172L2.27663 44.0345L2.32915 43.8523L2.43422 43.4878L2.64437 42.7592L2.85452 42.0302C2.89156 41.902 3.27955 40.6519 3.64778 39.4666C3.93124 38.3893 4.23697 37.3178 4.56642 36.2536L4.87926 35.2595L5.20893 34.2713L5.29141 34.0243C5.30366 33.9867 5.31683 33.9495 5.32999 33.9123L5.33402 33.901L5.37741 33.7781L5.55084 33.2867L5.72431 32.7953L5.74609 32.7341L5.76882 32.6729L5.81427 32.551L5.90512 32.3066L6.08688 31.8184L6.17777 31.5745C6.19263 31.5335 6.2086 31.493 6.22449 31.453L6.27192 31.3315L6.65176 30.3613L7.04718 29.3969L7.1464 29.1562L7.24927 28.9168L7.45501 28.438C8.00716 27.1631 8.59266 25.9027 9.21186 24.6589L9.68301 23.7292L10.1678 22.8071L10.2285 22.6915C10.2407 22.6684 10.2532 22.6455 10.2657 22.6226C10.274 22.6075 10.2823 22.5924 10.2906 22.5772L10.4153 22.3486L10.6649 21.8909L10.7898 21.6623L10.9179 21.4355L11.1742 20.9819C12.5486 18.5672 14.0541 16.2268 15.6832 13.9759C17.3113 11.7241 19.0658 9.56362 20.9376 7.50892C20.8415 7.60784 20.7475 7.7082 20.6534 7.80861C20.6298 7.83382 20.6062 7.85903 20.5825 7.88422L20.4057 8.07277L20.3172 8.16727L20.2729 8.21452L20.2293 8.26177L19.8798 8.64292C19.8546 8.67064 19.8293 8.69819 19.804 8.72572C19.7709 8.76165 19.738 8.79754 19.7053 8.83372L19.5327 9.02632L19.1874 9.41152L18.8464 9.80032C18.67 9.99959 18.4971 10.2018 18.3242 10.4041C18.273 10.464 18.2218 10.5239 18.1705 10.5838C17.2756 11.6341 16.4119 12.7114 15.5766 13.8116C13.9062 16.0117 12.3536 18.3053 10.9266 20.6786L10.6613 21.125L10.5286 21.3482L10.4624 21.4598C10.4464 21.4862 10.4311 21.5131 10.4157 21.5402C10.4096 21.5509 10.4035 21.5616 10.3973 21.5723L9.87979 22.4732L9.3757 23.3818L9.3127 23.4952L9.25137 23.6099L9.12888 23.839L8.88372 24.2975C8.23572 25.5229 7.62012 26.7662 7.03669 28.0258L6.60505 28.973L6.18849 29.9275L6.13642 30.0467C6.11896 30.0863 6.10159 30.1264 6.08517 30.1664L5.985 30.4067L5.78452 30.8873L5.68435 31.1281L5.63427 31.2482L5.60925 31.3085L5.58517 31.3688L5.39275 31.853C5.17217 32.3973 4.96561 32.9471 4.75893 33.4972C4.7211 33.5979 4.68327 33.6986 4.64534 33.7993L4.29354 34.7807L4.20565 35.0264L4.12195 35.2735L3.95451 35.7671L3.95419 35.7685C3.93811 35.8326 3.92195 35.8968 3.90579 35.9609C3.87346 36.0892 3.84112 36.2175 3.80947 36.3463L3.67438 36.9259C3.67164 36.938 3.65715 36.9421 3.64882 36.9335C3.44501 36.7229 3.25205 36.4646 3.07259 36.1514C3.02723 36.0731 2.98511 35.9921 2.9429 35.9071C2.90087 35.822 2.85983 35.7338 2.81978 35.642C2.73964 35.458 2.6635 35.26 2.59168 35.0462C2.55577 34.9391 2.52099 34.8289 2.48733 34.7141C2.47049 34.657 2.45393 34.5985 2.43764 34.5395L2.41348 34.4495C2.40745 34.4264 2.40176 34.4033 2.39607 34.3803C2.39433 34.3732 2.39259 34.3661 2.39084 34.3591C2.33153 34.1147 2.27722 33.8546 2.22835 33.5779C2.20387 33.4393 2.18078 33.2962 2.15909 33.149C2.14829 33.0757 2.13776 33.001 2.12764 32.9254C2.11912 32.8616 2.11217 32.7979 2.10511 32.7331C2.10375 32.7206 2.10238 32.708 2.101 32.6954C2.06774 32.3849 2.04056 32.0569 2.02 31.7099C2.01644 31.6492 2.01329 31.5889 2.01059 31.5281L2.0069 31.4372C2.00573 31.4071 2.00479 31.3765 2.00447 31.3468C2.00258 31.2257 2.00249 31.1047 2.0042 30.9836C2.00762 30.7415 2.01811 30.4985 2.03566 30.2555C2.03998 30.1948 2.04484 30.134 2.0501 30.0733L2.05149 30.0575C2.05637 30.0019 2.06128 29.9461 2.06806 29.891C2.08205 29.7704 2.0978 29.6494 2.11526 29.5283C2.15023 29.2871 2.19208 29.0455 2.24077 28.8052C2.2436 28.7912 2.2607 28.7867 2.26831 28.798C2.67691 29.3978 3.06463 29.9122 3.37499 30.305L3.48767 30.4468C3.52385 30.4922 3.55896 30.5354 3.59302 30.5768C3.66088 30.6596 3.72293 30.7343 3.77833 30.8005C3.88907 30.9323 3.97313 31.0295 4.0234 31.0871C4.03456 31.0997 4.05477 31.0867 4.04892 31.0705C4.01391 30.9733 3.97984 30.8765 3.94676 30.7802L3.9412 30.764C3.92653 30.7213 3.91185 30.6785 3.89803 30.6358L3.85222 30.4927C3.79205 30.3014 3.73558 30.112 3.68252 29.9243C3.62951 29.7371 3.57993 29.5513 3.53358 29.3681C3.5104 29.2763 3.48803 29.1854 3.46643 29.095C3.44667 29.0117 3.42901 28.9299 3.41137 28.8483L3.40681 28.8272C3.33094 28.4731 3.26699 28.1311 3.21308 27.8057C3.19963 27.7243 3.18676 27.6437 3.17452 27.5645L3.16543 27.5051L3.15733 27.4466L3.14172 27.331C3.12142 27.1775 3.10337 27.029 3.08731 26.8855C3.06647 26.6992 3.0685 26.5102 3.09267 26.3225C3.10486 26.2289 3.12209 26.1353 3.14558 26.0431C3.16993 25.9513 3.19972 25.8608 3.23486 25.7713L3.23707 25.7659C3.38759 25.9436 3.53123 26.1101 3.66664 26.264C3.80254 26.4184 3.93124 26.5615 4.0495 26.6911C4.28629 26.9507 4.48397 27.1595 4.63144 27.3125C4.64507 27.3269 4.66663 27.3058 4.65399 27.2905C4.41216 27.0007 4.18005 26.7109 3.95725 26.4229C3.7368 26.1358 3.52592 25.8496 3.32392 25.5656C3.32077 25.5611 3.32054 25.5553 3.3223 25.5499C3.35959 25.4349 3.39572 25.3224 3.43105 25.2124C3.51493 24.9512 3.59428 24.7041 3.67388 24.4717L3.98065 23.5523L4.02772 23.4165C4.10715 23.1873 4.18116 22.9738 4.25033 22.7738L4.36931 22.43C4.38574 22.3814 4.40294 22.3343 4.41973 22.2881L4.42674 22.2689L4.43779 22.2383C4.453 22.1962 4.46796 22.1548 4.48272 22.1146C4.55598 21.9125 4.62366 21.7271 4.68738 21.5552L4.78008 21.3064C4.79515 21.2668 4.81 21.2276 4.82454 21.1889C4.82827 21.1795 4.83199 21.1702 4.8357 21.1609C4.84707 21.1323 4.85829 21.1041 4.86936 21.076C4.98789 20.7808 5.09606 20.5256 5.2069 20.2862C5.31643 20.0459 5.43456 19.8245 5.56695 19.5937C5.63332 19.478 5.70366 19.3601 5.77966 19.2373C5.85585 19.114 5.93649 18.9853 6.02833 18.8498C6.11937 18.7144 6.21787 18.5704 6.32565 18.4156C6.36878 18.3534 6.41326 18.2899 6.45923 18.2242C6.47086 18.2076 6.48258 18.1908 6.4944 18.1739L6.58435 18.0457C6.59974 18.0241 6.61522 18.0025 6.63093 17.98C6.63901 17.969 6.64714 17.9579 6.65531 17.9467C6.66328 17.9357 6.6713 17.9247 6.67935 17.9138C6.75181 17.8146 6.82756 17.7112 6.90694 17.6028C6.97092 17.5154 7.03725 17.4248 7.10613 17.3306C7.12388 17.3065 7.14177 17.2821 7.15983 17.2575C7.22051 17.1749 7.283 17.0899 7.34827 17.0021C7.3827 16.9567 7.41769 16.9104 7.45327 16.8634C7.50613 16.7936 7.56028 16.722 7.6158 16.6489C7.62367 16.6381 7.63785 16.6376 7.64293 16.6484C7.7197 16.8172 7.7962 16.9801 7.87149 17.1367C7.94695 17.2933 8.02066 17.4436 8.09437 17.5876C8.24103 17.8756 8.37976 18.1352 8.50405 18.3607C8.75263 18.8116 8.94325 19.1266 9.02421 19.2584C9.03303 19.2728 9.05535 19.2629 9.05233 19.2463C9.00805 18.9961 8.96944 18.7477 8.93583 18.5029C8.91904 18.3805 8.90352 18.2585 8.88921 18.1379L8.8686 17.9575C8.8623 17.8976 8.85676 17.8382 8.85127 17.7793C8.82949 17.5426 8.81221 17.3104 8.79885 17.0827C8.7921 16.9693 8.78638 16.8568 8.78157 16.7456L8.775 16.58C8.7735 16.5375 8.77265 16.4958 8.7718 16.454C8.77155 16.4419 8.7713 16.4297 8.77104 16.4176C8.76586 16.1498 8.77072 15.8717 8.79322 15.5927C8.79885 15.523 8.80551 15.4532 8.81347 15.3835C8.82144 15.3137 8.83035 15.244 8.84182 15.1756C8.86423 15.0374 8.89195 14.9006 8.92597 14.7661C8.95999 14.6311 9.00022 14.4988 9.04765 14.3696C9.09517 14.2405 9.14913 14.1145 9.21375 13.9952C9.34182 13.7554 9.50197 13.5344 9.70087 13.3432L9.82836 13.2203C9.85338 13.1965 9.87819 13.1727 9.90281 13.1491C9.91963 13.133 9.93637 13.117 9.95301 13.1011C10.0347 13.0223 10.1136 12.9449 10.1897 12.8693C10.3422 12.7186 10.4832 12.5732 10.6158 12.4346C10.8833 12.1592 11.1115 11.9063 11.3088 11.6728C11.5091 11.4415 11.678 11.2291 11.8238 11.0324C11.8603 10.9834 11.8953 10.9352 11.929 10.888L12.0276 10.7498C12.0909 10.6598 12.1495 10.5734 12.2042 10.4902C12.3137 10.3237 12.4078 10.1698 12.4945 10.0262L12.4989 10.0191C12.5851 9.87876 12.6649 9.74875 12.7448 9.62527C12.8262 9.50017 12.9081 9.38227 12.9984 9.26932C13.021 9.24097 13.0442 9.21307 13.0679 9.18517C13.092 9.15772 13.1168 9.13072 13.1423 9.10372C13.1934 9.04972 13.2476 8.99707 13.3059 8.94487C13.3139 8.93767 13.3257 8.93947 13.3299 8.94892C13.445 9.20542 13.566 9.45652 13.6945 9.70087C13.8236 9.94612 13.9592 10.1842 14.1014 10.4141C14.3857 10.874 14.6965 11.3006 15.0339 11.684C15.0455 11.6971 15.067 11.6827 15.0596 11.6665C14.9806 11.4964 14.8083 11.1134 14.5995 10.5554C14.4943 10.2755 14.3837 9.95467 14.2703 9.59377C14.2137 9.41332 14.1568 9.22297 14.1004 9.02362C14.0722 8.92372 14.0442 8.82202 14.0164 8.71762C13.9888 8.61322 13.9622 8.50747 13.9356 8.39902C13.9342 8.39317 13.9362 8.38687 13.9409 8.38282C13.9708 8.35582 14.0458 8.27257 14.1614 8.14252C14.1871 8.11367 14.2147 8.08247 14.2442 8.04909C14.3479 7.93201 14.4752 7.7881 14.6273 7.62457C14.7246 7.51882 14.8311 7.40452 14.9459 7.28212C14.9634 7.26345 14.9812 7.24478 14.9991 7.22591C15.0105 7.21385 15.0221 7.2017 15.0337 7.18942C15.039 7.18381 15.0443 7.17814 15.0496 7.17246C15.0593 7.16219 15.069 7.15186 15.0787 7.14172C15.0837 7.13658 15.0887 7.1314 15.0938 7.1262C15.1041 7.11545 15.1146 7.10464 15.1251 7.09402C15.1473 7.07133 15.1698 7.04835 15.1924 7.02513C15.2337 6.98297 15.2757 6.94 15.3184 6.89647C15.4514 6.76147 15.5919 6.62017 15.7406 6.47437C15.8906 6.32947 16.0479 6.17962 16.2121 6.02617C16.8709 5.41507 17.6496 4.75492 18.5107 4.13752C19.3712 3.52012 20.3138 2.94547 21.2863 2.49772C21.2994 2.49142 21.3133 2.50042 21.3093 2.51437C21.082 3.26407 20.9079 3.95032 20.7882 4.44622C20.7664 4.53419 20.7476 4.61671 20.7303 4.69264C20.7233 4.72351 20.7165 4.7533 20.7099 4.78192L20.7006 4.82337C20.6825 4.90484 20.6667 4.9759 20.6532 5.03572C20.623 5.17477 20.6059 5.25217 20.6059 5.25217C20.6401 5.10232 20.6779 4.95247 20.7198 4.80352C20.7405 4.72882 20.7625 4.65412 20.785 4.57942C20.808 4.50562 20.8318 4.43182 20.8566 4.35802C20.9061 4.21042 20.9583 4.06417 21.0136 3.91882C21.0406 3.84592 21.0694 3.77392 21.0987 3.70237C21.1279 3.63082 21.1576 3.55972 21.1882 3.48907C21.2337 3.38242 21.2836 3.27757 21.3376 3.17497C21.3925 3.07327 21.4515 2.97382 21.5145 2.87662C21.5775 2.77942 21.6441 2.68447 21.7147 2.59267C21.7863 2.50177 21.8614 2.41312 21.9397 2.32762C21.9789 2.28487 22.0189 2.24302 22.0599 2.20207C22.1008 2.16067 22.1422 2.12017 22.1854 2.08147C22.2709 2.00272 22.36 1.92757 22.4518 1.85602C22.4977 1.82047 22.5445 1.78582 22.5918 1.75162C22.6395 1.71787 22.6881 1.68547 22.7371 1.65352C22.8352 1.59007 22.936 1.53067 23.0391 1.47532C23.6304 1.15987 24.2068 0.88402 24.7509 0.65947C25.2945 0.43492 25.8057 0.261671 26.2647 0.149621C26.7232 0.0371211 27.13 -0.0141788 27.4644 0.00337115C27.7987 0.0209212 28.0602 0.107769 28.2298 0.269319C28.2721 0.309369 28.3077 0.355269 28.3365 0.406569C28.3504 0.432219 28.3635 0.458771 28.3747 0.487121ZM22.835 48V23.15H37.64V26.615H26.755V48H22.835ZM41.3604 48V23.15H60.9954V48H57.0404V26.615H45.2804V48H41.3604ZM2.30055 52.8108H40.7905V51.3759L2.30055 52.8108Z" fill="black"/>
</svg>
