<svg width="697" height="455" viewBox="0 0 697 455" fill="none" xmlns="http://www.w3.org/2000/svg">
<path d="M486.822 74.0324C434.094 77.8296 477.748 196.064 548.539 210.861C619.337 225.652 615.098 64.7893 486.822 74.0324Z" fill="#D4E4F3"/>
<path d="M438.379 124.931C438.027 124.931 437.676 124.924 437.324 124.917C437.072 124.91 436.866 124.694 436.873 124.437C436.88 124.181 437.105 123.978 437.344 123.978C439.155 124.025 440.999 123.951 442.797 123.755C443.049 123.728 443.274 123.917 443.301 124.174C443.327 124.431 443.142 124.66 442.889 124.687C441.41 124.85 439.891 124.931 438.379 124.931ZM431.838 124.417C431.812 124.417 431.792 124.417 431.765 124.41C429.928 124.12 428.097 123.701 426.319 123.167C426.074 123.093 425.935 122.836 426.008 122.586C426.081 122.336 426.333 122.194 426.578 122.268C428.316 122.789 430.107 123.201 431.905 123.485C432.157 123.525 432.329 123.762 432.289 124.018C432.256 124.248 432.064 124.417 431.838 124.417ZM448.289 123.735C448.083 123.735 447.891 123.593 447.845 123.377C447.785 123.127 447.937 122.87 448.183 122.809C449.947 122.377 451.699 121.823 453.39 121.154C453.629 121.059 453.894 121.181 453.987 121.424C454.08 121.667 453.961 121.937 453.722 122.032C451.99 122.714 450.199 123.282 448.395 123.721C448.362 123.735 448.322 123.735 448.289 123.735ZM421.271 121.248C421.212 121.248 421.145 121.235 421.086 121.208C419.394 120.437 417.729 119.552 416.144 118.559C415.925 118.424 415.859 118.133 415.991 117.917C416.124 117.694 416.409 117.627 416.621 117.762C418.174 118.728 419.799 119.6 421.457 120.35C421.689 120.458 421.795 120.735 421.689 120.971C421.616 121.14 421.444 121.248 421.271 121.248ZM458.564 119.694C458.398 119.694 458.246 119.606 458.159 119.451C458.04 119.221 458.12 118.937 458.345 118.816C459.937 117.931 461.489 116.931 462.955 115.836C463.161 115.681 463.446 115.728 463.599 115.937C463.751 116.147 463.705 116.437 463.499 116.593C462 117.708 460.415 118.735 458.79 119.64C458.71 119.681 458.637 119.694 458.564 119.694ZM411.878 115.383C411.779 115.383 411.673 115.35 411.587 115.282C410.147 114.093 408.767 112.796 407.487 111.424C407.315 111.235 407.321 110.938 407.507 110.762C407.693 110.586 407.985 110.593 408.157 110.782C409.404 112.12 410.757 113.39 412.17 114.552C412.369 114.715 412.396 115.012 412.237 115.215C412.144 115.323 412.011 115.383 411.878 115.383ZM467.459 113.079C467.34 113.079 467.214 113.032 467.128 112.931C466.955 112.742 466.962 112.444 467.141 112.269C468.454 110.992 469.701 109.613 470.842 108.181C471.002 107.978 471.294 107.951 471.493 108.113C471.692 108.275 471.718 108.573 471.559 108.775C470.391 110.242 469.124 111.654 467.778 112.958C467.685 113.039 467.572 113.079 467.459 113.079ZM404.29 107.248C404.151 107.248 404.005 107.181 403.918 107.052C402.824 105.525 401.822 103.911 400.933 102.255C400.814 102.026 400.894 101.742 401.119 101.62C401.345 101.499 401.623 101.58 401.743 101.809C402.612 103.431 403.593 105.012 404.661 106.505C404.814 106.715 404.768 107.005 404.562 107.161C404.476 107.221 404.383 107.248 404.29 107.248ZM474.378 104.35C474.298 104.35 474.212 104.33 474.139 104.282C473.92 104.147 473.854 103.857 473.987 103.64C474.935 102.059 475.784 100.404 476.521 98.7148C476.62 98.4783 476.899 98.3702 477.131 98.4783C477.363 98.5864 477.469 98.8634 477.363 99.0999C476.613 100.83 475.738 102.519 474.769 104.134C474.683 104.269 474.531 104.35 474.378 104.35ZM399.023 97.404C398.837 97.404 398.665 97.2891 398.592 97.0999C397.929 95.3364 397.371 93.5121 396.934 91.6743C396.874 91.4243 397.026 91.1676 397.272 91.1068C397.517 91.046 397.769 91.2014 397.829 91.4514C398.254 93.2486 398.798 95.0391 399.448 96.7621C399.54 97.0053 399.421 97.2756 399.182 97.3702C399.136 97.3905 399.076 97.404 399.023 97.404ZM396.456 86.492C396.224 86.492 396.025 86.3096 395.998 86.0731C395.846 84.5731 395.766 83.0393 395.766 81.5191C395.766 81.1407 395.773 80.7691 395.779 80.3907C395.786 80.134 395.998 79.9178 396.25 79.9313C396.502 79.938 396.708 80.1542 396.701 80.411C396.695 80.7759 396.688 81.1475 396.688 81.5123C396.688 82.9988 396.761 84.4988 396.914 85.965C396.94 86.2217 396.754 86.4514 396.502 86.4785C396.489 86.492 396.469 86.492 396.456 86.492ZM396.741 75.2827C396.715 75.2827 396.695 75.2827 396.668 75.2759C396.416 75.2354 396.244 74.9989 396.284 74.7422C396.569 72.8706 396.987 71.0057 397.511 69.1949C397.584 68.945 397.836 68.8031 398.081 68.8774C398.327 68.9517 398.466 69.2085 398.393 69.4585C397.875 71.2287 397.478 73.053 397.192 74.8841C397.159 75.1138 396.96 75.2827 396.741 75.2827ZM399.865 64.5193C399.806 64.5193 399.74 64.5058 399.68 64.4788C399.448 64.3707 399.341 64.0937 399.448 63.8572C400.204 62.1342 401.079 60.4383 402.055 58.8302C402.187 58.6073 402.472 58.5397 402.685 58.6748C402.904 58.81 402.97 59.1005 402.837 59.3167C401.889 60.891 401.026 62.5464 400.29 64.2356C400.21 64.418 400.038 64.5193 399.865 64.5193ZM475.473 61.5734C475.307 61.5734 475.147 61.4856 475.068 61.3302C474.206 59.7086 473.224 58.1208 472.162 56.6208C472.01 56.4114 472.056 56.1208 472.262 55.9654C472.468 55.81 472.753 55.8573 472.905 56.0668C473.993 57.6005 474.995 59.2154 475.877 60.8775C475.997 61.1072 475.917 61.391 475.691 61.5126C475.625 61.5599 475.546 61.5734 475.473 61.5734ZM405.63 54.9587C405.53 54.9587 405.424 54.9249 405.338 54.8506C405.139 54.6884 405.112 54.3911 405.272 54.1884C406.439 52.7222 407.713 51.3168 409.059 50.0196C409.245 49.8439 409.537 49.8506 409.709 50.0398C409.882 50.229 409.875 50.5263 409.69 50.702C408.369 51.9722 407.122 53.3506 405.982 54.783C405.895 54.8979 405.763 54.9587 405.63 54.9587ZM469.005 52.4925C468.886 52.4925 468.76 52.4452 468.673 52.3439C467.426 50.9993 466.08 49.729 464.673 48.5601C464.474 48.398 464.448 48.1007 464.607 47.898C464.766 47.6953 465.058 47.6683 465.257 47.8304C466.697 49.0263 468.07 50.3236 469.35 51.6952C469.522 51.8844 469.516 52.1817 469.33 52.3574C469.237 52.4452 469.118 52.4925 469.005 52.4925ZM413.623 47.2358C413.484 47.2358 413.338 47.1682 413.252 47.0399C413.099 46.8304 413.146 46.5399 413.351 46.3845C414.85 45.2764 416.436 44.2561 418.067 43.3507C418.293 43.2291 418.572 43.3102 418.691 43.5399C418.81 43.7697 418.731 44.0534 418.505 44.1751C416.913 45.0534 415.361 46.0534 413.888 47.1412C413.815 47.2088 413.716 47.2358 413.623 47.2358ZM460.461 45.4115C460.382 45.4115 460.295 45.3913 460.222 45.344C458.677 44.371 457.052 43.4994 455.393 42.7427C455.161 42.6345 455.055 42.3575 455.161 42.121C455.267 41.8845 455.539 41.7764 455.771 41.8845C457.463 42.6548 459.121 43.5535 460.707 44.5399C460.926 44.6751 460.992 44.9656 460.859 45.1818C460.766 45.3304 460.614 45.4115 460.461 45.4115ZM423.295 41.8845C423.109 41.8845 422.936 41.7697 422.863 41.5805C422.77 41.3373 422.89 41.067 423.129 40.9724C424.86 40.2967 426.651 39.7292 428.462 39.29C428.707 39.2292 428.959 39.3846 429.019 39.6346C429.079 39.8846 428.926 40.1413 428.681 40.2021C426.916 40.6278 425.159 41.1819 423.467 41.844C423.407 41.8778 423.354 41.8845 423.295 41.8845ZM450.405 40.8305C450.359 40.8305 450.319 40.8237 450.272 40.8102C448.534 40.2832 446.743 39.8711 444.946 39.5805C444.694 39.54 444.521 39.2968 444.561 39.0468C444.601 38.79 444.84 38.6211 445.085 38.6549C446.923 38.9522 448.753 39.3711 450.531 39.9116C450.777 39.9859 450.916 40.2494 450.843 40.4927C450.79 40.6954 450.604 40.8305 450.405 40.8305ZM434.007 39.2832C433.775 39.2832 433.576 39.1008 433.55 38.8643C433.523 38.6076 433.709 38.3779 433.961 38.3508C435.798 38.1549 437.682 38.0873 439.533 38.1346C439.785 38.1414 439.991 38.3576 439.984 38.6143C439.977 38.8711 439.759 39.0805 439.513 39.0738C437.702 39.0265 435.858 39.0941 434.06 39.2832C434.041 39.2832 434.027 39.2832 434.007 39.2832Z" fill="black"/>
<path d="M635.031 351.813C634.68 351.813 634.328 351.806 633.976 351.799C633.724 351.792 633.519 351.576 633.525 351.319C633.532 351.063 633.758 350.86 633.996 350.86C635.807 350.907 637.651 350.833 639.449 350.637C639.701 350.61 639.927 350.799 639.953 351.056C639.98 351.313 639.794 351.542 639.542 351.569C638.063 351.731 636.544 351.813 635.031 351.813ZM628.491 351.299C628.464 351.299 628.444 351.299 628.418 351.292C626.58 351.002 624.749 350.583 622.972 350.049C622.726 349.975 622.587 349.718 622.66 349.468C622.733 349.218 622.985 349.076 623.23 349.15C624.968 349.671 626.759 350.083 628.557 350.367C628.809 350.407 628.982 350.644 628.942 350.9C628.909 351.137 628.716 351.299 628.491 351.299ZM644.941 350.623C644.736 350.623 644.543 350.481 644.497 350.265C644.437 350.015 644.59 349.758 644.835 349.698C646.6 349.265 648.351 348.711 650.042 348.042C650.281 347.948 650.547 348.069 650.639 348.313C650.732 348.556 650.613 348.826 650.374 348.921C648.643 349.603 646.852 350.171 645.047 350.61C645.014 350.617 644.975 350.623 644.941 350.623ZM617.924 348.13C617.864 348.13 617.798 348.117 617.738 348.09C616.047 347.319 614.381 346.434 612.796 345.441C612.577 345.306 612.511 345.015 612.644 344.799C612.776 344.583 613.062 344.509 613.274 344.644C614.826 345.61 616.451 346.482 618.109 347.232C618.342 347.34 618.448 347.617 618.342 347.853C618.269 348.029 618.096 348.13 617.924 348.13ZM655.216 346.583C655.051 346.583 654.898 346.495 654.812 346.34C654.692 346.11 654.772 345.826 654.998 345.705C656.59 344.819 658.142 343.819 659.608 342.725C659.813 342.569 660.099 342.617 660.251 342.826C660.404 343.036 660.357 343.326 660.152 343.482C658.653 344.596 657.067 345.623 655.442 346.529C655.362 346.563 655.289 346.583 655.216 346.583ZM608.531 342.265C608.431 342.265 608.325 342.232 608.239 342.164C606.8 340.975 605.42 339.678 604.14 338.306C603.967 338.117 603.974 337.82 604.16 337.644C604.345 337.468 604.637 337.475 604.81 337.664C606.057 339.002 607.41 340.272 608.823 341.434C609.022 341.596 609.048 341.894 608.889 342.096C608.796 342.211 608.664 342.265 608.531 342.265ZM664.112 339.968C663.992 339.968 663.866 339.921 663.78 339.819C663.608 339.63 663.614 339.333 663.793 339.157C665.107 337.88 666.354 336.502 667.495 335.07C667.654 334.867 667.946 334.84 668.145 335.002C668.344 335.164 668.377 335.461 668.211 335.664C667.044 337.13 665.777 338.542 664.43 339.846C664.337 339.921 664.225 339.968 664.112 339.968ZM600.942 334.137C600.803 334.137 600.657 334.07 600.571 333.941C599.476 332.414 598.475 330.799 597.586 329.144C597.466 328.914 597.546 328.63 597.772 328.509C597.997 328.387 598.276 328.468 598.395 328.698C599.264 330.32 600.246 331.901 601.314 333.394C601.466 333.603 601.42 333.894 601.214 334.049C601.128 334.103 601.035 334.137 600.942 334.137ZM671.03 331.232C670.951 331.232 670.865 331.211 670.792 331.164C670.573 331.029 670.506 330.739 670.639 330.522C671.588 328.941 672.437 327.286 673.173 325.597C673.272 325.36 673.551 325.252 673.783 325.36C674.015 325.468 674.122 325.745 674.015 325.982C673.266 327.712 672.39 329.401 671.422 331.016C671.336 331.151 671.183 331.232 671.03 331.232ZM595.675 324.293C595.49 324.293 595.317 324.178 595.244 323.989C594.581 322.225 594.024 320.401 593.586 318.563C593.526 318.313 593.679 318.056 593.924 317.995C594.17 317.935 594.422 318.09 594.481 318.34C594.906 320.137 595.45 321.928 596.1 323.651C596.193 323.894 596.073 324.164 595.835 324.259C595.788 324.279 595.729 324.293 595.675 324.293ZM593.108 313.381C592.876 313.381 592.677 313.198 592.651 312.962C592.498 311.462 592.418 309.928 592.418 308.408C592.418 308.029 592.425 307.658 592.432 307.279C592.438 307.023 592.651 306.806 592.903 306.82C593.155 306.827 593.36 307.043 593.354 307.3C593.347 307.665 593.341 308.036 593.341 308.401C593.341 309.887 593.413 311.387 593.566 312.854C593.593 313.11 593.407 313.34 593.155 313.367C593.141 313.381 593.122 313.381 593.108 313.381ZM593.394 302.165C593.367 302.165 593.347 302.165 593.321 302.158C593.069 302.117 592.896 301.881 592.936 301.624C593.221 299.753 593.639 297.888 594.163 296.077C594.236 295.827 594.488 295.685 594.733 295.759C594.979 295.834 595.118 296.09 595.045 296.34C594.528 298.111 594.13 299.935 593.845 301.766C593.811 302.002 593.612 302.165 593.394 302.165ZM596.518 291.408C596.458 291.408 596.392 291.394 596.332 291.367C596.1 291.259 595.994 290.982 596.1 290.746C596.856 289.023 597.732 287.327 598.707 285.719C598.84 285.496 599.125 285.428 599.337 285.564C599.556 285.699 599.622 285.989 599.49 286.205C598.541 287.78 597.679 289.435 596.942 291.124C596.863 291.3 596.69 291.408 596.518 291.408ZM672.125 288.462C671.959 288.462 671.8 288.374 671.72 288.219C670.858 286.597 669.876 285.009 668.815 283.509C668.669 283.3 668.709 283.01 668.914 282.854C669.12 282.705 669.405 282.746 669.558 282.955C670.646 284.489 671.647 286.104 672.53 287.766C672.649 287.996 672.569 288.28 672.344 288.401C672.277 288.442 672.198 288.462 672.125 288.462ZM602.282 281.841C602.183 281.841 602.077 281.807 601.99 281.733C601.791 281.57 601.765 281.273 601.924 281.07C603.092 279.604 604.365 278.199 605.712 276.901C605.897 276.726 606.189 276.733 606.362 276.922C606.534 277.111 606.528 277.408 606.342 277.584C605.022 278.854 603.775 280.233 602.634 281.665C602.548 281.78 602.415 281.841 602.282 281.841ZM665.657 279.374C665.538 279.374 665.412 279.327 665.326 279.226C664.079 277.881 662.732 276.611 661.326 275.442C661.127 275.28 661.1 274.983 661.259 274.78C661.419 274.577 661.711 274.55 661.91 274.712C663.349 275.908 664.722 277.206 666.002 278.577C666.175 278.766 666.168 279.064 665.982 279.239C665.89 279.334 665.777 279.374 665.657 279.374ZM610.275 274.125C610.136 274.125 609.99 274.057 609.904 273.929C609.751 273.719 609.798 273.429 610.003 273.273C611.503 272.165 613.088 271.145 614.72 270.239C614.945 270.118 615.224 270.199 615.343 270.429C615.463 270.658 615.383 270.942 615.158 271.064C613.566 271.942 612.013 272.942 610.541 274.03C610.468 274.091 610.368 274.125 610.275 274.125ZM657.114 272.293C657.034 272.293 656.948 272.273 656.875 272.226C655.329 271.253 653.704 270.381 652.046 269.625C651.814 269.516 651.707 269.239 651.814 269.003C651.92 268.766 652.192 268.658 652.424 268.766C654.115 269.537 655.774 270.435 657.359 271.422C657.578 271.557 657.644 271.847 657.512 272.07C657.419 272.219 657.266 272.293 657.114 272.293ZM619.947 268.773C619.761 268.773 619.589 268.658 619.516 268.469C619.423 268.226 619.542 267.956 619.781 267.861C621.512 267.185 623.303 266.618 625.114 266.179C625.36 266.118 625.612 266.273 625.671 266.523C625.731 266.773 625.579 267.03 625.333 267.091C623.569 267.516 621.811 268.071 620.119 268.733C620.06 268.76 620.007 268.773 619.947 268.773ZM647.057 267.712C647.011 267.712 646.971 267.706 646.925 267.692C645.187 267.165 643.396 266.753 641.598 266.462C641.346 266.422 641.174 266.179 641.213 265.929C641.253 265.672 641.492 265.503 641.737 265.537C643.575 265.834 645.406 266.253 647.183 266.794C647.429 266.868 647.568 267.131 647.495 267.375C647.442 267.584 647.256 267.712 647.057 267.712ZM630.66 266.172C630.428 266.172 630.229 265.989 630.202 265.753C630.176 265.496 630.361 265.267 630.613 265.239C632.451 265.044 634.335 264.976 636.185 265.023C636.437 265.03 636.643 265.246 636.636 265.503C636.63 265.76 636.411 265.969 636.166 265.962C634.355 265.915 632.51 265.983 630.713 266.172C630.693 266.172 630.68 266.172 630.66 266.172Z" fill="black"/>
<path d="M508.898 87.0733H463.95L463.884 86.5057C463.665 84.7152 464.302 83.1274 465.675 82.0463C467.36 80.722 469.907 80.3369 472.249 80.9923C472.315 76.7018 473.628 73.1208 476.076 70.6073C478.61 67.9992 482.285 66.5871 486.437 66.6547C490.57 66.5939 494.245 67.9992 496.779 70.6073C499.227 73.1208 500.54 76.7018 500.606 80.9923C502.948 80.3369 505.495 80.722 507.18 82.0463C508.56 83.1274 509.197 84.7152 508.971 86.5057L508.898 87.0733ZM465.105 85.7828H507.744C507.731 84.4247 507.027 83.5666 506.397 83.0733C504.865 81.8707 502.318 81.6342 500.202 82.499L499.306 82.8639L499.333 81.8842C499.439 77.5464 498.245 73.9586 495.877 71.5262C493.588 69.1682 490.232 67.8979 486.437 67.9587C482.617 67.8911 479.273 69.1682 476.978 71.5262C474.61 73.9654 473.416 77.5464 473.522 81.8842L473.549 82.8639L472.653 82.499C470.531 81.6342 467.983 81.8707 466.458 83.0733C465.821 83.5666 465.118 84.4247 465.105 85.7828Z" fill="black"/>
<path d="M276.857 49.9924C84.7346 26.3509 -57.7566 245.375 117.716 440.75H547.332C690.738 369.873 615.708 244.753 531.597 227.497C447.486 210.24 457.171 72.1813 276.857 49.9924Z" fill="#D4E4F3"/>
<path d="M61.0868 44.8843C60.9872 44.8843 60.8811 44.8573 60.7882 44.7897C60.5427 44.6208 60.483 44.2897 60.6422 44.0397C61.2394 43.1411 61.8564 42.2425 62.4933 41.3776C62.6658 41.1411 62.9976 41.0871 63.2364 41.2695C63.4686 41.4452 63.5217 41.783 63.3426 42.0263C62.7189 42.8844 62.1019 43.7627 61.518 44.6479C61.4252 44.7965 61.2593 44.8843 61.0868 44.8843Z" fill="#568584"/>
<path d="M66.5261 37.7085C66.4001 37.7085 66.274 37.6613 66.1745 37.5734C65.9556 37.3775 65.9357 37.0329 66.1281 36.8099C67.3951 35.3505 68.7416 33.9248 70.1214 32.5735C70.3336 32.3708 70.6719 32.3776 70.8709 32.587C71.0766 32.8032 71.0633 33.1411 70.8577 33.3505C69.4979 34.6816 68.1711 36.087 66.9241 37.5194C66.8246 37.6477 66.6787 37.7085 66.5261 37.7085ZM74.7846 29.6546C74.6321 29.6546 74.4795 29.587 74.3734 29.4519C74.1876 29.2222 74.2274 28.8776 74.453 28.6952C75.9455 27.4655 77.5043 26.2898 79.083 25.1952C79.3218 25.0263 79.6535 25.0939 79.8193 25.3371C79.9852 25.5871 79.9188 25.9182 79.68 26.0871C78.1212 27.1614 76.5889 28.3235 75.1229 29.533C75.0234 29.6141 74.904 29.6546 74.7846 29.6546ZM84.2504 23.1142C84.0647 23.1142 83.8856 23.0128 83.7861 22.8372C83.6402 22.5804 83.733 22.2493 83.9851 22.1007C85.6567 21.1412 87.388 20.2494 89.1259 19.4386C89.3913 19.3169 89.7097 19.4318 89.8291 19.7088C89.9485 19.9791 89.8357 20.3034 89.5637 20.425C87.8523 21.2223 86.1475 22.1007 84.5025 23.0466C84.4229 23.0872 84.3367 23.1142 84.2504 23.1142ZM94.6515 18.2832C94.4326 18.2832 94.227 18.148 94.154 17.9251C94.0545 17.6413 94.2005 17.3372 94.4724 17.2359C96.2767 16.5805 98.134 15.9927 99.9781 15.4994C100.263 15.4251 100.549 15.594 100.628 15.8846C100.701 16.1751 100.535 16.4656 100.25 16.5467C98.4326 17.0332 96.6017 17.6143 94.8306 18.2561C94.7709 18.2697 94.7112 18.2832 94.6515 18.2832Z" fill="#568584"/>
<path d="M105.716 15.3037C105.464 15.3037 105.238 15.1212 105.192 14.8577C105.139 14.5672 105.331 14.2834 105.623 14.2361C106.671 14.0469 107.733 13.8848 108.795 13.7496C109.08 13.7091 109.352 13.9186 109.385 14.2159C109.425 14.5132 109.219 14.7834 108.927 14.8172C107.886 14.9523 106.837 15.1145 105.809 15.2969C105.776 15.3037 105.749 15.3037 105.716 15.3037Z" fill="#568584"/>
<path d="M136.104 16.8778C136.058 16.8778 136.004 16.871 135.958 16.8575C134.95 16.567 133.921 16.2967 132.906 16.0535C132.621 15.9859 132.442 15.6953 132.508 15.4048C132.574 15.1143 132.86 14.9319 133.145 14.9994C134.18 15.2427 135.222 15.5197 136.25 15.817C136.529 15.898 136.694 16.1953 136.615 16.4859C136.549 16.7224 136.336 16.8778 136.104 16.8778Z" fill="#568584"/>
<path d="M118.477 152.815C118.186 152.815 117.953 152.578 117.947 152.281C117.94 151.984 118.179 151.741 118.471 151.734C120.607 151.707 122.756 151.572 124.872 151.342C125.164 151.308 125.423 151.524 125.456 151.822C125.489 152.119 125.277 152.382 124.985 152.416C122.842 152.653 120.653 152.788 118.484 152.815H118.477ZM112.023 152.599C112.01 152.599 111.997 152.599 111.983 152.599C109.821 152.423 107.652 152.139 105.523 151.754C105.237 151.7 105.045 151.423 105.091 151.126C105.144 150.835 105.416 150.639 105.708 150.687C107.798 151.065 109.94 151.342 112.07 151.518C112.362 151.545 112.58 151.801 112.554 152.099C112.527 152.382 112.295 152.599 112.023 152.599ZM131.313 151.403C131.068 151.403 130.849 151.227 130.796 150.97C130.736 150.68 130.922 150.396 131.207 150.335C133.296 149.896 135.386 149.355 137.416 148.714C137.694 148.626 137.993 148.788 138.079 149.072C138.165 149.355 138.006 149.659 137.727 149.747C135.658 150.396 133.535 150.95 131.419 151.396C131.379 151.396 131.346 151.403 131.313 151.403ZM99.3071 150.308C99.2606 150.308 99.2142 150.301 99.1678 150.288C97.0849 149.7 95.002 148.997 92.9855 148.207C92.7135 148.099 92.5742 147.788 92.6803 147.511C92.7865 147.234 93.0916 147.092 93.3636 147.2C95.3536 147.977 97.3967 148.666 99.453 149.247C99.7316 149.328 99.8974 149.626 99.8245 149.909C99.7515 150.153 99.5392 150.308 99.3071 150.308ZM143.651 147.531C143.445 147.531 143.246 147.403 143.16 147.2C143.047 146.923 143.173 146.612 143.445 146.497C145.409 145.666 147.359 144.727 149.243 143.7C149.502 143.558 149.82 143.66 149.959 143.923C150.099 144.187 149.999 144.511 149.74 144.653C147.83 145.693 145.847 146.646 143.857 147.491C143.79 147.518 143.717 147.531 143.651 147.531ZM87.2543 145.592C87.1747 145.592 87.0951 145.572 87.0155 145.538C85.0785 144.558 83.1681 143.47 81.3307 142.301C81.0852 142.146 81.0056 141.808 81.1582 141.558C81.3108 141.308 81.6424 141.227 81.8879 141.383C83.6988 142.531 85.5826 143.606 87.4864 144.572C87.7451 144.707 87.8579 145.031 87.7252 145.295C87.6324 145.484 87.4466 145.592 87.2543 145.592ZM155.041 141.349C154.868 141.349 154.702 141.261 154.596 141.106C154.437 140.856 154.503 140.524 154.742 140.356C156.52 139.16 158.258 137.856 159.916 136.498C160.142 136.308 160.48 136.349 160.659 136.579C160.845 136.808 160.805 137.153 160.579 137.335C158.895 138.72 157.13 140.038 155.326 141.254C155.246 141.315 155.147 141.349 155.041 141.349ZM76.2959 138.639C76.1832 138.639 76.0704 138.606 75.9776 138.531C74.2595 137.193 72.5813 135.761 70.9959 134.261C70.7836 134.058 70.7704 133.714 70.9694 133.498C71.1684 133.281 71.5 133.268 71.7189 133.471C73.2844 134.944 74.9361 136.362 76.6276 137.673C76.8598 137.856 76.9062 138.193 76.7271 138.43C76.6144 138.565 76.4551 138.639 76.2959 138.639ZM165.083 133.079C164.944 133.079 164.811 133.025 164.705 132.916C164.5 132.7 164.506 132.362 164.712 132.153C166.238 130.633 167.704 129.025 169.083 127.369C169.276 127.14 169.607 127.113 169.833 127.308C170.058 127.504 170.085 127.842 169.893 128.072C168.493 129.754 167 131.389 165.455 132.93C165.355 133.031 165.223 133.079 165.083 133.079ZM66.8169 129.707C66.671 129.707 66.525 129.646 66.4189 129.525C64.9728 127.883 63.5931 126.146 62.3129 124.376C62.1404 124.133 62.1868 123.795 62.4256 123.619C62.6644 123.444 62.9961 123.491 63.1685 123.734C64.4289 125.477 65.7887 127.187 67.2149 128.802C67.4072 129.025 67.394 129.363 67.1751 129.565C67.0689 129.66 66.9429 129.707 66.8169 129.707ZM173.422 123.038C173.315 123.038 173.209 123.004 173.116 122.944C172.878 122.775 172.818 122.437 172.984 122.194C174.198 120.41 175.345 118.552 176.393 116.66C176.539 116.403 176.858 116.309 177.116 116.457C177.368 116.606 177.461 116.93 177.315 117.194C176.254 119.113 175.093 121.005 173.853 122.815C173.76 122.957 173.594 123.038 173.422 123.038ZM59.162 119.119C58.9829 119.119 58.8038 119.025 58.7043 118.856C57.5899 116.964 56.5551 114.998 55.6264 113.011C55.5004 112.741 55.6132 112.417 55.8785 112.288C56.1438 112.16 56.4556 112.275 56.5816 112.545C57.497 114.505 58.5186 116.437 59.6131 118.302C59.7656 118.559 59.6794 118.89 59.434 119.045C59.3477 119.092 59.2549 119.119 59.162 119.119ZM179.756 111.572C179.683 111.572 179.611 111.559 179.544 111.525C179.279 111.403 179.153 111.086 179.272 110.815C180.135 108.829 180.911 106.782 181.587 104.721C181.68 104.437 181.979 104.282 182.257 104.376C182.536 104.471 182.682 104.775 182.595 105.059C181.912 107.147 181.123 109.234 180.247 111.248C180.154 111.457 179.955 111.572 179.756 111.572ZM53.6033 107.248C53.3843 107.248 53.1853 107.113 53.1057 106.89C52.3628 104.822 51.7127 102.687 51.1754 100.552C51.1025 100.262 51.2749 99.9711 51.5535 99.8967C51.8388 99.8224 52.124 99.9981 52.197 100.282C52.7277 102.383 53.3711 104.478 54.1008 106.518C54.2003 106.795 54.0609 107.106 53.7823 107.207C53.7226 107.234 53.663 107.248 53.6033 107.248ZM183.829 99.0927C183.79 99.0927 183.75 99.0859 183.71 99.0792C183.425 99.0116 183.246 98.7211 183.312 98.4305C183.79 96.3157 184.168 94.1536 184.446 92.005C184.486 91.7077 184.751 91.505 185.043 91.5388C185.335 91.5793 185.541 91.8496 185.501 92.1469C185.222 94.336 184.831 96.5319 184.347 98.6738C184.294 98.9238 184.075 99.0927 183.829 99.0927ZM50.3662 94.5184C50.1075 94.5184 49.8819 94.3293 49.8421 94.0657C49.5038 91.8901 49.2584 89.6739 49.1257 87.4712C49.1058 87.174 49.3314 86.9172 49.6232 86.8969C49.9151 86.8767 50.1672 87.1064 50.1871 87.4037C50.3197 89.5726 50.5585 91.755 50.8902 93.8968C50.9366 94.1941 50.7376 94.4711 50.4524 94.5117C50.4259 94.5117 50.3927 94.5184 50.3662 94.5184ZM185.508 86.0591C185.501 86.0591 185.494 86.0591 185.488 86.0591C185.196 86.0456 184.964 85.7956 184.977 85.4983C185.003 84.674 185.023 83.8294 185.023 83.0051C185.023 81.6605 184.984 80.3024 184.911 78.9714C184.891 78.6741 185.116 78.4173 185.408 78.4038C185.707 78.3971 185.952 78.6133 185.965 78.9106C186.045 80.2687 186.085 81.647 186.078 83.0119C186.078 83.8564 186.065 84.7078 186.032 85.5456C186.025 85.8294 185.793 86.0591 185.508 86.0591ZM184.758 72.9309C184.499 72.9309 184.274 72.7417 184.234 72.4715C183.909 70.3229 183.478 68.1742 182.96 66.0729C182.887 65.7824 183.06 65.4919 183.345 65.4175C183.63 65.3432 183.916 65.5189 183.989 65.8094C184.519 67.9445 184.957 70.1337 185.282 72.3093C185.328 72.6066 185.129 72.8769 184.838 72.9242C184.811 72.9242 184.785 72.9309 184.758 72.9309ZM181.587 60.1811C181.368 60.1811 181.163 60.046 181.09 59.823C180.373 57.7825 179.551 55.7555 178.642 53.7893C178.516 53.5191 178.629 53.1948 178.894 53.0731C179.159 52.9448 179.478 53.0596 179.597 53.3299C180.519 55.3231 181.355 57.3839 182.085 59.4582C182.184 59.7419 182.038 60.046 181.766 60.1474C181.707 60.1676 181.647 60.1811 181.587 60.1811ZM176.095 48.2826C175.916 48.2826 175.737 48.1881 175.637 48.0191C174.556 46.1543 173.368 44.3165 172.108 42.5665C171.936 42.3233 171.989 41.9855 172.228 41.8098C172.466 41.6341 172.798 41.6882 172.971 41.9314C174.244 43.7152 175.451 45.58 176.553 47.4719C176.705 47.7286 176.619 48.0597 176.367 48.2083C176.281 48.2556 176.188 48.2826 176.095 48.2826ZM168.493 37.6544C168.347 37.6544 168.201 37.5936 168.095 37.472C166.682 35.8504 165.176 34.2693 163.624 32.7896C163.412 32.5869 163.399 32.2423 163.598 32.0261C163.797 31.8099 164.135 31.7964 164.347 31.9991C165.926 33.5059 167.458 35.1072 168.891 36.7558C169.083 36.9788 169.063 37.3234 168.845 37.5193C168.745 37.6071 168.619 37.6544 168.493 37.6544ZM159.06 28.6681C158.948 28.6681 158.835 28.6343 158.735 28.5532C157.05 27.2289 155.279 25.9654 153.475 24.81C153.23 24.6479 153.15 24.3168 153.309 24.0668C153.462 23.8168 153.793 23.7357 154.039 23.8979C155.87 25.0735 157.667 26.3505 159.379 27.7019C159.611 27.8843 159.651 28.2221 159.472 28.4586C159.379 28.6005 159.22 28.6681 159.06 28.6681ZM148.135 21.6547C148.056 21.6547 147.976 21.6344 147.896 21.5939C145.993 20.6141 144.023 19.7223 142.039 18.9317C141.767 18.8236 141.635 18.5128 141.741 18.2358C141.847 17.9588 142.152 17.8237 142.424 17.9318C144.44 18.7358 146.444 19.6412 148.374 20.6344C148.633 20.7696 148.739 21.0939 148.606 21.3574C148.52 21.5466 148.334 21.6547 148.135 21.6547Z" fill="black"/>
<path d="M49.5577 81.2887C49.5511 81.2887 49.5444 81.2887 49.5378 81.2887C49.2459 81.2819 49.0136 81.0319 49.0269 80.7346C49.0601 79.6536 49.1198 78.559 49.2061 77.478C49.226 77.1807 49.4781 76.9644 49.7766 76.9847C50.0686 77.005 50.2875 77.2685 50.261 77.5658C50.1814 78.6266 50.1217 79.7077 50.0885 80.7752C50.0752 81.059 49.843 81.2887 49.5577 81.2887Z" fill="black"/>
<path d="M61.0868 44.8843C60.9872 44.8843 60.8811 44.8573 60.7882 44.7897C60.5427 44.6208 60.483 44.2897 60.6422 44.0397C61.2394 43.1411 61.8564 42.2425 62.4933 41.3776C62.6658 41.1411 62.9976 41.0871 63.2364 41.2695C63.4686 41.4452 63.5217 41.783 63.3426 42.0263C62.7189 42.8844 62.1019 43.7627 61.518 44.6479C61.4252 44.7965 61.2593 44.8843 61.0868 44.8843Z" fill="black"/>
<path d="M66.5261 37.7085C66.4001 37.7085 66.274 37.6613 66.1745 37.5734C65.9556 37.3775 65.9357 37.0329 66.1281 36.8099C67.3951 35.3505 68.7416 33.9248 70.1214 32.5735C70.3336 32.3708 70.6719 32.3776 70.8709 32.587C71.0766 32.8032 71.0633 33.1411 70.8577 33.3505C69.4979 34.6816 68.1711 36.087 66.9241 37.5194C66.8246 37.6477 66.6787 37.7085 66.5261 37.7085ZM74.7846 29.6546C74.6321 29.6546 74.4795 29.587 74.3734 29.4519C74.1876 29.2222 74.2274 28.8776 74.453 28.6952C75.9455 27.4655 77.5043 26.2898 79.083 25.1952C79.3218 25.0263 79.6535 25.0939 79.8193 25.3371C79.9852 25.5871 79.9188 25.9182 79.68 26.0871C78.1212 27.1614 76.5889 28.3235 75.1229 29.533C75.0234 29.6141 74.904 29.6546 74.7846 29.6546ZM84.2504 23.1142C84.0647 23.1142 83.8856 23.0128 83.7861 22.8372C83.6402 22.5804 83.733 22.2493 83.9851 22.1007C85.6567 21.1412 87.388 20.2494 89.1259 19.4386C89.3913 19.3169 89.7097 19.4318 89.8291 19.7088C89.9485 19.9791 89.8357 20.3034 89.5637 20.425C87.8523 21.2223 86.1475 22.1007 84.5025 23.0466C84.4229 23.0872 84.3367 23.1142 84.2504 23.1142ZM94.6515 18.2832C94.4326 18.2832 94.227 18.148 94.154 17.9251C94.0545 17.6413 94.2005 17.3372 94.4724 17.2359C96.2767 16.5805 98.134 15.9927 99.9781 15.4994C100.263 15.4251 100.549 15.594 100.628 15.8846C100.701 16.1751 100.535 16.4656 100.25 16.5467C98.4326 17.0332 96.6017 17.6143 94.8306 18.2561C94.7709 18.2697 94.7112 18.2832 94.6515 18.2832Z" fill="black"/>
<path d="M105.716 15.3037C105.464 15.3037 105.238 15.1212 105.192 14.8577C105.139 14.5672 105.331 14.2834 105.623 14.2361C106.671 14.0469 107.733 13.8848 108.795 13.7496C109.08 13.7091 109.352 13.9186 109.385 14.2159C109.425 14.5132 109.219 14.7834 108.927 14.8172C107.886 14.9523 106.837 15.1145 105.809 15.2969C105.776 15.3037 105.749 15.3037 105.716 15.3037Z" fill="black"/>
<path d="M127.606 26.3577L119.195 20.1348L110.784 26.3577L113.994 16.2903L105.583 10.0674H115.977L119.188 0L122.399 10.0674H132.793L124.382 16.2903L127.606 26.3577ZM119.195 18.797L125.589 23.5267L123.148 15.8714L129.543 11.1417H121.642L119.201 3.48644L116.76 11.1417H108.86L115.254 15.8714L112.813 23.5267L119.195 18.797Z" fill="black"/>
<path d="M50.725 71.7892C48.788 71.7892 47.2159 70.1879 47.2159 68.2149V67.3163C47.2159 65.7285 46.6455 64.1812 45.5576 62.8502C44.483 61.5326 43.9457 59.8637 44.0319 58.1408C44.2044 54.6746 47.0103 51.8368 50.4066 51.6747C52.2639 51.5868 54.0151 52.2557 55.355 53.553C56.695 54.857 57.4313 56.607 57.4313 58.4921C57.4313 60.1137 56.8608 61.688 55.826 62.9245C54.8045 64.1407 54.2406 65.6272 54.2406 67.1069V68.2082C54.234 70.1879 52.6619 71.7892 50.725 71.7892ZM50.725 52.4179C50.6321 52.4179 50.5326 52.4179 50.4331 52.4246C47.4016 52.5665 44.9075 55.1003 44.7549 58.1813C44.6753 59.7083 45.1596 61.2015 46.1148 62.3772C47.2955 63.8231 47.9389 65.5799 47.9389 67.3163V68.2149C47.9389 69.7757 49.186 71.046 50.7183 71.046C52.2506 71.046 53.4977 69.7757 53.4977 68.2149V67.1136C53.4977 65.4582 54.1213 63.8029 55.2622 62.4448C56.1842 61.3434 56.695 59.9448 56.695 58.4989C56.695 56.8165 56.0383 55.2557 54.8443 54.0935C53.7233 53.0057 52.2705 52.4179 50.725 52.4179Z" fill="black"/>
<path d="M51.0902 45.3574H50.3604V50.1276H51.0902V45.3574Z" fill="black"/>
<path d="M59.6198 49.0196L56.3076 52.3926L56.8237 52.9181L60.1359 49.5451L59.6198 49.0196Z" fill="black"/>
<path d="M63.6338 58.2827H58.9507V59.026H63.6338V58.2827Z" fill="black"/>
<path d="M41.7801 48.9197L41.2637 49.4448L44.5782 52.8155L45.0946 52.2903L41.7801 48.9197Z" fill="black"/>
<path d="M42.3472 58.1274H37.6641V58.8707H42.3472V58.1274Z" fill="black"/>
<path d="M53.3651 65.7422H48.0054V66.4854H53.3651V65.7422Z" fill="black"/>
<path d="M53.0601 67.9717H48.231V68.7149H53.0601V67.9717Z" fill="black"/>
<path d="M676.875 319.948H663.004C659.608 319.948 656.842 317.131 656.842 313.671V296.543C656.842 295.8 657.439 295.192 658.168 295.192V295.712C657.717 295.712 657.346 296.084 657.346 296.55V313.678C657.346 316.854 659.88 319.435 662.998 319.435H676.868C677.319 319.435 677.69 319.063 677.69 318.597V317.502H678.201V318.597C678.201 319.34 677.604 319.948 676.875 319.948Z" fill="black"/>
<path d="M677.127 317.759H667.336C662.142 317.759 657.91 313.455 657.91 308.157V295.185H667.701C672.894 295.185 677.127 299.489 677.127 304.786V317.759ZM658.42 295.705V308.157C658.42 313.164 662.42 317.238 667.336 317.238H676.622V304.786C676.622 299.779 672.622 295.705 667.707 295.705H658.42Z" fill="black"/>
<path d="M690.838 319.948H676.967C676.238 319.948 675.641 319.34 675.641 318.596V317.428H676.151V318.596C676.151 319.056 676.516 319.434 676.974 319.434H690.844C693.962 319.434 696.496 316.853 696.496 313.678V296.55C696.496 296.09 696.131 295.712 695.673 295.712V295.191C696.403 295.191 697 295.8 697 296.543V313.671C697 317.13 694.241 319.948 690.838 319.948Z" fill="black"/>
<path d="M686.506 317.759H676.715V304.786C676.715 299.495 680.941 295.185 686.141 295.185H695.932V308.157C695.932 313.455 691.7 317.759 686.506 317.759ZM677.219 317.238H686.506C691.421 317.238 695.421 313.164 695.421 308.157V295.705H686.135C681.219 295.705 677.219 299.779 677.219 304.786V317.238Z" fill="black"/>
<path d="M212.274 61.6815L208.904 64.3909L196.208 48.0263L199.578 45.3169L212.274 61.6815ZM208.991 63.6612L211.558 61.5937L199.492 46.0399L196.924 48.1074L208.991 63.6612Z" fill="black"/>
<path d="M200.056 45.5941L196.374 48.5535L195.83 43.9995L200.056 45.5941ZM196.772 47.5806L199.028 45.763L196.44 44.79L196.772 47.5806Z" fill="black"/>
<path d="M212.274 61.6819L208.904 64.3913L206.244 60.9589L209.614 58.2495L212.274 61.6819ZM208.99 63.6616L211.557 61.5941L209.528 58.9792L206.961 61.0468L208.99 63.6616Z" fill="black"/>
<path d="M518.133 162.058L514.763 164.768L502.067 148.403L505.437 145.694L518.133 162.058ZM514.849 164.038L517.416 161.971L505.35 146.417L502.783 148.484L514.849 164.038Z" fill="black"/>
<path d="M505.908 145.971L502.225 148.93L501.681 144.376L505.908 145.971ZM502.623 147.95L504.879 146.133L502.292 145.16L502.623 147.95Z" fill="#568584"/>
<path d="M518.132 162.058L514.762 164.768L512.102 161.335L515.472 158.626L518.132 162.058ZM514.848 164.038L517.415 161.971L515.386 159.356L512.818 161.423L514.848 164.038Z" fill="black"/>
<path d="M299.304 62.4113H274.873V33.655L279.881 28.5537H299.304V62.4113ZM275.742 61.5329H298.441V29.4388H280.239L275.742 34.0198V61.5329Z" fill="black"/>
<path d="M282.031 35.959H276.598V35.0739H281.169V30.4253H282.031V35.959Z" fill="black"/>
<path d="M34.3746 306.111C34.3547 305.996 32.4372 294.55 33.7177 269.922L34.766 269.976C33.4922 294.455 35.3897 305.806 35.4096 305.921L34.3746 306.111Z" fill="black"/>
<path d="M34.1353 297.935L33.7904 297.624C33.4322 297.306 25.0874 289.671 25.0874 280.07C25.0874 278.489 25.3262 276.84 25.7971 275.178L25.9431 274.672L29.7241 275.732C28.9148 274.895 27.8668 273.814 26.9447 272.895L26.686 272.638L26.8319 272.3C29.3393 266.577 33.6112 262.679 33.797 262.516L34.1419 262.206L34.4869 262.516C34.7257 262.733 40.4237 267.928 42.4734 275.138L42.5398 275.374L42.4071 275.577C40.3972 278.719 38.7853 281.259 37.7505 282.921C38.7521 282.178 40.2114 281.077 42.354 279.476L43.1765 278.861L43.1898 280.063C43.1898 289.665 34.8384 297.293 34.4869 297.617L34.1353 297.935ZM26.6595 275.982C26.3079 277.374 26.1288 278.746 26.1288 280.07C26.1288 288.111 32.5565 294.935 34.1353 296.496C35.6543 294.996 41.6575 288.624 42.1152 280.982C36.51 285.185 36.3243 285.307 36.2646 285.354L35.9064 285.597L35.5946 285.293C35.2033 284.894 35.1966 284.894 41.3988 275.212C39.6675 269.415 35.389 264.881 34.1353 263.652C33.0938 264.679 29.9496 267.983 27.9331 272.401C29.7108 274.178 31.7937 276.381 31.8136 276.401L33.1403 277.8L26.6595 275.982Z" fill="black"/>
<path d="M239.55 117.059C239.597 116.984 244.034 109.363 256.731 95.6875L257.308 96.2483C244.684 109.843 240.28 117.397 240.24 117.471L239.55 117.059Z" fill="black"/>
<path d="M243.379 112.181L243.326 111.822C243.273 111.458 242.119 102.816 246.782 97.2348C247.552 96.3159 248.487 95.4781 249.568 94.7484L249.9 94.5254L251.585 97.0456C251.525 96.1537 251.439 94.9983 251.346 93.9984L251.319 93.7146L251.571 93.593C255.804 91.5254 260.182 91.4106 260.367 91.4106L260.719 91.4038L260.772 91.7619C260.805 92.0119 261.594 97.897 259.293 103.127L259.22 103.296L259.047 103.35C256.354 104.167 254.185 104.829 252.772 105.275C253.714 105.343 255.1 105.444 257.117 105.586L257.893 105.64L257.316 106.35C252.653 111.931 244.096 112.167 243.737 112.174L243.379 112.181ZM249.681 95.6538C248.799 96.2889 248.029 96.9916 247.392 97.7618C243.492 102.437 243.917 109.64 244.076 111.343C245.688 111.235 252.268 110.552 256.241 106.343C250.941 105.964 250.775 105.944 250.716 105.937L250.391 105.897L250.358 105.566C250.324 105.14 250.324 105.133 258.623 102.627C260.434 98.3834 260.142 93.593 260.009 92.2484C258.908 92.3227 255.472 92.6605 252.155 94.2146C252.321 96.1402 252.467 98.4713 252.467 98.4983L252.56 99.978L249.681 95.6538Z" fill="black"/>
<path d="M549.381 198.855C546.496 198.855 544.154 196.463 544.154 193.531V192.186C544.154 189.821 543.298 187.524 541.687 185.538C540.088 183.578 539.285 181.085 539.411 178.531C539.67 173.376 543.842 169.146 548.904 168.909C551.663 168.781 554.283 169.774 556.273 171.714C558.27 173.653 559.365 176.267 559.365 179.072C559.365 181.49 558.515 183.835 556.97 185.666C555.444 187.484 554.608 189.693 554.608 191.896V193.531C554.608 196.47 552.26 198.855 549.381 198.855ZM549.381 170.011C549.235 170.011 549.096 170.018 548.95 170.024C544.439 170.241 540.725 174.004 540.493 178.599C540.38 180.876 541.096 183.092 542.516 184.842C544.267 186.997 545.235 189.612 545.235 192.2V193.544C545.235 195.869 547.093 197.76 549.375 197.76C551.656 197.76 553.514 195.869 553.514 193.544V191.909C553.514 189.443 554.449 186.977 556.141 184.957C557.514 183.321 558.27 181.234 558.27 179.078C558.27 176.578 557.295 174.247 555.517 172.524C553.846 170.889 551.683 170.011 549.381 170.011Z" fill="black"/>
<path d="M549.918 159.498H548.83V166.592H549.918V159.498Z" fill="black"/>
<path d="M562.603 164.919L557.677 169.935L558.447 170.719L563.373 165.702L562.603 164.919Z" fill="black"/>
<path d="M568.591 178.747H561.626V179.855H568.591V178.747Z" fill="black"/>
<path d="M536.056 164.807L535.286 165.59L540.215 170.603L540.985 169.82L536.056 164.807Z" fill="black"/>
<path d="M536.904 178.518H529.939V179.626H536.904V178.518Z" fill="black"/>
<path d="M553.314 189.848H545.334V190.956H553.314V189.848Z" fill="black"/>
<path d="M552.857 193.166H545.667V194.274H552.857V193.166Z" fill="black"/>
<path d="M5.87076 267.077H4.71631V271.037H5.87076V267.077Z" fill="black"/>
<path d="M5.87076 273.901H4.71631V277.861H5.87076V273.901Z" fill="black"/>
<path d="M10.5809 271.881H6.69287V273.057H10.5809V271.881Z" fill="black"/>
<path d="M3.88799 271.881H0V273.057H3.88799V271.881Z" fill="black"/>
<path d="M87.196 52.668H86.0415V56.6274H87.196V52.668Z" fill="black"/>
<path d="M87.196 59.4854H86.0415V63.4447H87.196V59.4854Z" fill="black"/>
<path d="M91.9124 57.4722H88.0244V58.6478H91.9124V57.4722Z" fill="black"/>
<path d="M85.2195 57.4722H81.3315V58.6478H85.2195V57.4722Z" fill="black"/>
<path d="M614.641 222.003H613.486V225.963H614.641V222.003Z" fill="#568584"/>
<path d="M614.64 228.821H613.485V232.78H614.64V228.821Z" fill="#568584"/>
<path d="M619.357 226.807H615.469V227.983H619.357V226.807Z" fill="#568584"/>
<path d="M612.658 226.807H608.77V227.983H612.658V226.807Z" fill="#568584"/>
<path d="M544.446 308.387H543.292V312.347H544.446V308.387Z" fill="black"/>
<path d="M544.446 315.205H543.292V319.164H544.446V315.205Z" fill="black"/>
<path d="M549.163 313.191H545.275V314.367H549.163V313.191Z" fill="black"/>
<path d="M542.463 313.191H538.575V314.367H542.463V313.191Z" fill="black"/>
<path d="M73.1461 168.403H71.9917V172.362H73.1461V168.403Z" fill="black"/>
<path d="M73.1471 175.22H71.9927V179.18H73.1471V175.22Z" fill="black"/>
<path d="M77.8631 173.207H73.9751V174.382H77.8631V173.207Z" fill="black"/>
<path d="M71.1634 173.207H67.2754V174.382H71.1634V173.207Z" fill="black"/>
<path d="M526.139 48.1548H524.984V52.1142H526.139V48.1548Z" fill="black"/>
<path d="M526.138 54.979H524.984V58.9384H526.138V54.979Z" fill="black"/>
<path d="M530.849 52.959H526.961V54.1346H530.849V52.959Z" fill="black"/>
<path d="M524.156 52.959H520.268V54.1346H524.156V52.959Z" fill="black"/>
<path d="M321.209 68.4585H320.054V72.4179H321.209V68.4585Z" fill="black"/>
<path d="M321.209 75.2827H320.054V79.2421H321.209V75.2827Z" fill="black"/>
<path d="M325.918 73.2622H322.03V74.4379H325.918V73.2622Z" fill="black"/>
<path d="M319.224 73.2622H315.336V74.4379H319.224V73.2622Z" fill="black"/>
<path d="M216.864 103.87C210.563 116.539 196.918 122.41 196.918 122.41C196.918 122.41 193.488 107.735 199.79 95.0595C206.092 82.3908 215.027 74.0869 219.737 76.5193C224.453 78.9517 223.166 91.1947 216.864 103.87Z" fill="#59A1F2"/>
<path d="M178.013 274.137C177.244 274.137 176.587 273.549 176.494 272.752C170.491 218.165 178.113 175.578 185.568 149.457C193.661 121.092 203.041 105.883 203.439 105.248C203.89 104.525 204.838 104.309 205.548 104.768C206.258 105.228 206.47 106.194 206.019 106.917C205.926 107.072 196.434 122.477 188.467 150.464C181.117 176.287 173.602 218.402 179.539 272.408C179.632 273.259 179.028 274.029 178.192 274.131C178.132 274.131 178.073 274.137 178.013 274.137Z" fill="#1C4A8D"/>
<path d="M600.352 111.606C600.352 138.836 576.452 160.917 576.452 160.917C576.452 160.917 552.545 138.836 552.545 111.606C552.545 84.3771 563.245 62.2964 576.445 62.2964C589.646 62.3031 600.352 84.3771 600.352 111.606Z" fill="#59A1F2"/>
<path d="M576.445 342.015C575.165 342.015 574.124 340.954 574.124 339.65V78.0191C574.124 76.7151 575.165 75.6543 576.445 75.6543C577.725 75.6543 578.767 76.7151 578.767 78.0191V339.657C578.767 340.954 577.732 342.015 576.445 342.015Z" fill="black"/>
<path d="M611.39 439.96C611.39 439.96 658.586 375.244 617.745 333.644H537.567C496.726 375.244 543.922 439.96 543.922 439.96H611.39Z" fill="#FFE9BD"/>
<path d="M622.282 351.927H531.067C530.423 351.927 529.906 351.4 529.906 350.745C529.906 350.09 530.423 349.562 531.067 349.562H622.282C622.925 349.562 623.443 350.09 623.443 350.745C623.443 351.4 622.925 351.927 622.282 351.927Z" fill="black"/>
<path d="M635.874 189.923C618.481 204.098 591.941 199.76 591.941 199.76C591.941 199.76 593.593 172.43 610.986 158.254C628.378 144.079 648.046 139.673 654.918 148.417C661.784 157.16 653.26 175.74 635.874 189.923Z" fill="#59A1F2"/>
<path d="M576.081 212.111C575.411 211.26 575.55 210.023 576.379 209.341L638.076 159.038C638.912 158.355 640.126 158.497 640.796 159.342C641.466 160.193 641.326 161.43 640.497 162.112L578.8 212.415C577.964 213.098 576.751 212.956 576.081 212.111Z" fill="black"/>
<path d="M526.841 261.172C544.234 275.347 570.774 271.009 570.774 271.009C570.774 271.009 569.122 243.679 551.73 229.503C534.337 215.328 514.669 210.922 507.797 219.666C500.925 228.409 509.455 246.989 526.841 261.172Z" fill="#59A1F2"/>
<path d="M599.768 249.796C581.555 262.86 578.249 290.031 578.249 290.031C578.249 290.031 604.478 296.032 622.69 282.968C640.903 269.904 650.538 251.892 644.209 242.733C637.881 233.574 617.985 236.741 599.768 249.796Z" fill="#59A1F2"/>
<path d="M577.454 277.752C578.123 276.901 577.984 275.664 577.155 274.982L524.639 230.287C523.803 229.604 522.589 229.746 521.919 230.591C521.249 231.442 521.388 232.679 522.218 233.361L574.734 278.056C575.57 278.732 576.784 278.597 577.454 277.752Z" fill="black"/>
<path d="M640.577 242.909C639.913 242.057 638.699 241.909 637.864 242.584L576.24 289.969C575.404 290.644 575.258 291.881 575.921 292.732C576.585 293.584 577.799 293.732 578.634 293.056L640.258 245.672C641.094 244.996 641.24 243.76 640.577 242.909Z" fill="black"/>
<path d="M551.438 333.644H537.567C496.726 375.244 543.922 439.96 543.922 439.96H611.39C611.39 439.96 626.812 418.811 632.398 392.926C605.334 381.352 562.688 359.596 551.438 333.644Z" fill="#E3E3E3"/>
<path d="M616.592 367.784C621.936 362.341 621.936 353.515 616.592 348.071C611.248 342.628 602.584 342.628 597.239 348.071C591.895 353.515 591.895 362.341 597.239 367.784C602.584 373.227 611.248 373.227 616.592 367.784Z" fill="#1C4A8D"/>
<path d="M151.824 251.82V208.084H119.606V251.82C98.6713 258.739 83.5273 278.752 83.5273 302.387C83.5273 331.745 106.89 355.548 135.719 355.548C164.541 355.548 187.91 331.745 187.91 302.387C187.903 278.752 172.766 258.732 151.824 251.82Z" fill="#314A66"/>
<path d="M115.6 262.32H134.81C109.397 277.577 106.671 304.076 106.671 304.076C102.737 283.279 113.935 263.861 115.6 262.32Z" fill="#242424"/>
<path d="M133.218 134.585H123.235V208.078H133.218V134.585Z" fill="#A3A3A3"/>
<path d="M135.639 109.626H120.813V158.937H135.639V109.626Z" fill="#C7C7C7"/>
<path d="M131.407 96.8364H125.052V109.627H131.407V96.8364Z" fill="#A3A3A3"/>
<path d="M109.165 170.903C108.522 170.903 108.004 170.376 108.004 169.72V114.863C108.004 106.904 114.359 100.431 122.173 100.431C122.817 100.431 123.334 100.958 123.334 101.613C123.334 102.268 122.817 102.795 122.173 102.795C115.639 102.795 110.326 108.208 110.326 114.863V169.72C110.326 170.369 109.809 170.903 109.165 170.903Z" fill="#A3A3A3"/>
<path d="M117.22 176.465C117.877 172.351 115.136 168.473 111.097 167.804C107.058 167.134 103.251 169.926 102.593 174.04C101.936 178.154 104.677 182.032 108.716 182.702C112.754 183.372 116.562 180.579 117.22 176.465Z" fill="#A3A3A3"/>
<path d="M150.087 86.9717H139.798V208.058H150.087V86.9717Z" fill="#004059"/>
<path d="M150.087 74.6475H139.798V112.552H150.087V74.6475Z" fill="#1C4A8D"/>
<path d="M145.026 37.0532H144.641C144.641 37.0532 129.815 69.7217 139.798 74.6473H149.861C159.851 69.7149 145.026 37.0532 145.026 37.0532Z" fill="#59A1F2"/>
<path d="M145.987 52.6208C146.1 49.1209 144.86 42.8169 144.86 42.8169H144.807C144.807 42.8169 143.546 49.2087 143.679 52.6884C142.133 53.2289 141.012 54.7019 141.012 56.4653C141.012 58.6748 142.777 60.472 144.946 60.472C147.115 60.472 148.879 58.6815 148.879 56.4653C148.879 54.6275 147.652 53.087 145.987 52.6208Z" fill="#BFBFBF"/>
<path d="M479.141 143.261C487.818 143.68 511.373 138.214 488.647 100.33H275.344C298.07 138.207 274.515 143.68 265.839 143.261H479.141Z" fill="#FFE9BD"/>
<path d="M449.477 143.261H265.845C240.227 127.268 207.531 150.835 231.73 221.125H445.032C430.366 178.551 436.601 153.146 449.477 143.261Z" fill="#FFE9BD"/>
<path d="M437.092 187.369C434.717 164.693 440.468 150.18 449.477 143.261H269.766L437.092 187.369Z" fill="#E3E3E3"/>
<path d="M419.547 194.375H247.385C246.217 194.375 245.275 193.409 245.275 192.227C245.275 191.038 246.224 190.078 247.385 190.078H419.547C420.714 190.078 421.656 191.044 421.656 192.227C421.663 193.409 420.714 194.375 419.547 194.375Z" fill="black"/>
<path d="M247.385 199.24C251.188 199.24 254.27 196.1 254.27 192.227C254.27 188.353 251.188 185.213 247.385 185.213C243.582 185.213 240.5 188.353 240.5 192.227C240.5 196.1 243.582 199.24 247.385 199.24Z" fill="#59A1F2"/>
<path d="M247.385 228.889C246.218 228.889 245.275 227.922 245.275 226.74V191.666C245.275 190.477 246.224 189.518 247.385 189.518C248.546 189.518 249.495 190.484 249.495 191.666V226.74C249.502 227.922 248.553 228.889 247.385 228.889Z" fill="black"/>
<path d="M418.446 199.24C422.249 199.24 425.331 196.1 425.331 192.227C425.331 188.353 422.249 185.213 418.446 185.213C414.643 185.213 411.561 188.353 411.561 192.227C411.561 196.1 414.643 199.24 418.446 199.24Z" fill="#59A1F2"/>
<path d="M418.446 228.889C417.279 228.889 416.336 227.922 416.336 226.74V191.666C416.336 190.477 417.285 189.518 418.446 189.518C419.607 189.518 420.556 190.484 420.556 191.666V226.74C420.563 227.922 419.614 228.889 418.446 228.889Z" fill="black"/>
<path d="M336.909 221.125H432.913C460.13 221.125 483.466 240.902 488.414 268.165L497.403 317.664C500.222 333.184 512.978 344.806 528.434 345.927C546.237 347.224 560.035 362.312 560.035 380.494V439.973H104.608V380.494C104.608 362.312 118.406 347.224 136.21 345.927C151.665 344.806 164.421 333.184 167.241 317.664L176.229 268.165C181.177 240.908 204.52 221.125 231.73 221.125H327.735H336.909Z" fill="#59A1F2"/>
<path d="M346.003 255.638H440.621C448.608 255.638 455.082 262.233 455.082 270.368V306.854C455.082 319.853 460.243 332.299 469.397 341.36L514.583 386.109H147.486L192.673 341.36C201.82 332.299 206.988 319.853 206.988 306.854V270.368C206.988 262.233 213.462 255.638 221.448 255.638H316.067H346.003Z" fill="#1C4A8D"/>
<path d="M455.082 306.137V270.361C455.082 262.226 448.608 255.631 440.621 255.631H346.003H316.067H221.449C213.462 255.631 206.988 262.226 206.988 270.361V306.137H455.082Z" fill="#D4E4F3"/>
<path d="M560.035 386.109H147.486H104.602V439.98H560.035V386.109Z" fill="#D4E4F3"/>
<path d="M234.377 356.13H229.727V370.758H234.377V356.13Z" fill="black"/>
<path d="M232.055 359.353C241.639 359.353 249.408 354.957 249.408 349.535C249.408 344.113 241.639 339.718 232.055 339.718C222.471 339.718 214.702 344.113 214.702 349.535C214.702 354.957 222.471 359.353 232.055 359.353Z" fill="#59A1F2"/>
<path d="M234.377 317.407H229.727V332.035H234.377V317.407Z" fill="black"/>
<path d="M232.055 320.637C241.639 320.637 249.408 316.241 249.408 310.819C249.408 305.397 241.639 301.002 232.055 301.002C222.471 301.002 214.702 305.397 214.702 310.819C214.702 316.241 222.471 320.637 232.055 320.637Z" fill="#59A1F2"/>
<path d="M299.848 356.13H295.198V370.758H299.848V356.13Z" fill="black"/>
<path d="M297.519 359.353C307.103 359.353 314.872 354.957 314.872 349.535C314.872 344.113 307.103 339.718 297.519 339.718C287.936 339.718 280.167 344.113 280.167 349.535C280.167 354.957 287.936 359.353 297.519 359.353Z" fill="#59A1F2"/>
<path d="M299.848 317.407H295.198V332.035H299.848V317.407Z" fill="black"/>
<path d="M297.519 320.637C307.103 320.637 314.872 316.241 314.872 310.819C314.872 305.397 307.103 301.002 297.519 301.002C287.936 301.002 280.167 305.397 280.167 310.819C280.167 316.241 287.936 320.637 297.519 320.637Z" fill="#59A1F2"/>
<path d="M365.313 356.13H360.663V370.758H365.313V356.13Z" fill="black"/>
<path d="M362.991 359.353C372.575 359.353 380.344 354.957 380.344 349.535C380.344 344.113 372.575 339.718 362.991 339.718C353.407 339.718 345.638 344.113 345.638 349.535C345.638 354.957 353.407 359.353 362.991 359.353Z" fill="#59A1F2"/>
<path d="M365.313 317.407H360.663V332.035H365.313V317.407Z" fill="black"/>
<path d="M362.991 320.637C372.575 320.637 380.344 316.241 380.344 310.819C380.344 305.397 372.575 301.002 362.991 301.002C353.407 301.002 345.638 305.397 345.638 310.819C345.638 316.241 353.407 320.637 362.991 320.637Z" fill="#59A1F2"/>
<path d="M430.784 356.13H426.134V370.758H430.784V356.13Z" fill="black"/>
<path d="M428.455 359.353C438.039 359.353 445.808 354.957 445.808 349.535C445.808 344.113 438.039 339.718 428.455 339.718C418.872 339.718 411.103 344.113 411.103 349.535C411.103 354.957 418.872 359.353 428.455 359.353Z" fill="#59A1F2"/>
<path d="M430.784 317.407H426.134V332.035H430.784V317.407Z" fill="black"/>
<path d="M428.455 320.637C438.039 320.637 445.808 316.241 445.808 310.819C445.808 305.397 438.039 301.002 428.455 301.002C418.872 301.002 411.103 305.397 411.103 310.819C411.103 316.241 418.872 320.637 428.455 320.637Z" fill="#59A1F2"/>
<path d="M395.494 365.907H266.575V386.109H395.494V365.907Z" fill="#59A1F2"/>
<path d="M439.148 242.53H350.241C345.837 242.53 342.268 238.895 342.268 234.409C342.268 229.922 345.837 226.287 350.241 226.287H439.148C443.553 226.287 447.122 229.922 447.122 234.409C447.122 238.895 443.553 242.53 439.148 242.53Z" fill="black"/>
<path d="M326.567 242.53H324.265C319.861 242.53 316.292 238.895 316.292 234.409C316.292 229.922 319.861 226.287 324.265 226.287H326.567C330.972 226.287 334.54 229.922 334.54 234.409C334.54 238.895 330.972 242.53 326.567 242.53Z" fill="black"/>
<path d="M74.3533 440.743H69.9487L77.7098 372.258H89.8687L74.3533 440.743Z" fill="#1C4A8D"/>
<path d="M98.8236 382.872C122.464 382.872 141.629 361.092 141.629 334.225C141.629 307.357 122.464 285.577 98.8236 285.577C75.1831 285.577 56.0186 307.357 56.0186 334.225C56.0186 361.092 75.1831 382.872 98.8236 382.872Z" fill="#1C4A8D"/>
<path d="M79.0898 336.076C77.8759 347.826 78.2805 367.406 86.7779 370.501C95.2752 373.596 126.24 371.947 126.24 371.947C126.24 371.947 133.118 353.191 132.515 350.718C131.905 348.245 127.858 334.846 127.858 334.846L79.0898 336.076Z" fill="black"/>
<path d="M100.694 429.304C100.542 431.622 98.5718 440.899 98.5718 440.899H115.421C115.421 437.189 111.931 423.271 111.931 423.271L100.694 429.304Z" fill="#2B1710"/>
<path d="M82.7843 277.178C68.6685 279.807 68.0583 319.542 74.7381 325.259C77.1659 337.319 82.7843 335.15 87.7925 335.772C92.8007 336.394 140.614 333.61 140.614 333.61L151.997 325.259C151.386 317.374 135.148 293.252 126.498 288.928C117.848 284.597 112.688 283.442 112.688 283.442L82.7843 277.178Z" fill="#59A1F2"/>
<path d="M129.231 314.9C144.561 311.961 149.721 322.164 150.783 322.63C152.607 324.637 155.187 332.062 145.012 333.143C134.843 334.225 124.674 332.833 124.674 332.833L129.231 314.9Z" fill="#FFE9BD"/>
<path d="M94.1672 272.692C93.5569 277.948 91.2154 278.442 91.4011 279.083C92.1971 283.435 101.152 293.333 112.688 283.435C110.18 280.34 110.333 271.219 110.333 271.219L94.1672 272.692Z" fill="#FFE9BD"/>
<path d="M85.8687 273.969L76.0182 275.104C75.5737 275.158 75.1691 274.827 75.116 274.374C75.063 273.922 75.388 273.509 75.8324 273.455L85.683 272.32C86.1274 272.266 86.532 272.597 86.5851 273.05C86.6382 273.509 86.3131 273.922 85.8687 273.969Z" fill="#2B1710"/>
<path d="M92.6484 270.942C93.4577 275.685 96.0911 280.117 101.856 280.117C107.62 280.117 110.99 274.962 110.976 270.942C112.86 267.773 111.971 265.273 111.971 265.273V254.037C115.514 245.584 100.635 241.361 93.9618 249.706C87.4876 250.841 90.8972 266.273 90.8972 266.273L92.6484 270.942Z" fill="#2B1710"/>
<path d="M102.413 272.564C100.628 272.746 97.922 271.841 98.0745 273.462C98.2271 275.084 101.491 275.82 104.297 275.32C105.663 275.077 106.685 274.395 106.685 273.773C106.685 273.118 106.207 272.178 102.413 272.564Z" fill="#EB5757"/>
<path d="M115.686 264.597C115.633 262.28 112.953 261.347 111.686 264.955C110.068 265.422 110.572 259.956 111.282 258.253C111.282 258.253 109.65 257.53 109.902 254.591C109.597 254.949 100.038 257.989 95.2818 251.084C96.4426 255.929 92.0912 257.733 92.3499 258.246C93.0596 259.949 93.5638 265.408 91.9452 264.949C90.6783 261.341 87.9984 262.266 87.9453 264.591C87.8922 266.908 88.9072 271.394 92.6484 270.928C92.1907 269.28 92.4958 266.395 92.8009 267.631C93.1061 268.867 96.3432 272.53 98.6715 271.597C98.6847 271.59 98.7047 271.584 98.7179 271.577C100.708 270.793 102.917 270.793 104.907 271.577C104.92 271.584 104.94 271.59 104.953 271.597C107.282 272.523 110.519 268.867 110.824 267.631C111.129 266.395 111.434 269.28 110.976 270.928C114.724 271.401 115.732 266.922 115.686 264.597Z" fill="#FFE9BD"/>
<path d="M99.3416 264.179C99.3416 264.922 98.9966 265.523 98.5653 265.523C98.1341 265.523 97.7891 264.922 97.7891 264.179C97.7891 263.435 98.1341 262.834 98.5653 262.834C98.9966 262.834 99.3416 263.435 99.3416 264.179Z" fill="#2B1710"/>
<path d="M106.353 264.097C106.353 264.841 106.008 265.442 105.577 265.442C105.145 265.442 104.8 264.841 104.8 264.097C104.8 263.354 105.145 262.753 105.577 262.753C106.001 262.753 106.353 263.354 106.353 264.097Z" fill="#2B1710"/>
<path d="M94.3599 261.638C98.3797 261.712 100.542 262.449 100.542 262.449C99.1027 259.395 94.3599 258.084 94.3599 261.638Z" fill="#2B1710"/>
<path d="M101.962 270.233C101.325 270.233 100.655 270.152 100.463 269.976C100.31 269.841 100.37 269.611 100.536 268.935C100.834 267.726 101.451 265.206 100.715 262.665C100.681 262.564 100.741 262.449 100.847 262.422C100.947 262.388 101.06 262.449 101.086 262.557C101.849 265.199 101.219 267.787 100.914 269.037C100.847 269.307 100.781 269.584 100.768 269.706C101.073 269.834 102.42 269.908 102.97 269.746C103.077 269.712 103.183 269.773 103.209 269.881C103.243 269.989 103.183 270.097 103.077 270.124C102.838 270.192 102.407 270.233 101.962 270.233Z" fill="#2B1710"/>
<path d="M103.388 262.219C105.928 261.327 109.079 261.874 109.079 261.874C107.142 259.199 104.336 259.935 103.388 262.219Z" fill="#2B1710"/>
<path d="M103.461 263.03C103.441 263.03 103.427 263.03 103.408 263.023C103.102 262.942 102.903 262.787 102.797 262.557C102.631 262.219 102.684 261.746 102.943 261.091C102.983 260.989 103.096 260.942 103.195 260.983C103.295 261.023 103.341 261.138 103.301 261.239C103.089 261.767 103.036 262.158 103.149 262.381C103.208 262.503 103.321 262.584 103.514 262.638C103.62 262.665 103.68 262.773 103.653 262.881C103.626 262.976 103.547 263.03 103.461 263.03Z" fill="#E0B3A8"/>
<path d="M102.028 274.117C101.119 274.117 100.124 274.016 99.1951 273.732C99.0956 273.699 99.0359 273.59 99.0625 273.489C99.0956 273.388 99.2017 273.327 99.3012 273.354C101.789 274.124 104.654 273.482 104.966 273.327C105.059 273.28 105.178 273.32 105.225 273.415C105.271 273.509 105.232 273.631 105.139 273.678C104.847 273.834 103.567 274.117 102.028 274.117Z" fill="#2B1710"/>
<path d="M91.6404 269.28C91.6338 269.28 91.6338 269.28 91.6272 269.28C90.7049 269.212 89.7031 268.178 89.7163 267.307C89.723 267.03 89.849 266.394 90.904 266.273C90.7845 265.739 90.3599 264.32 89.1656 264.016C89.0595 263.989 88.9998 263.881 89.0263 263.78C89.0528 263.672 89.159 263.611 89.2585 263.638C90.9836 264.077 91.3153 266.334 91.3286 266.428C91.3352 266.482 91.322 266.536 91.2888 266.584C91.2556 266.624 91.2025 266.651 91.1494 266.651C90.6784 266.671 90.121 266.807 90.1144 267.313C90.1078 267.921 90.8841 268.827 91.667 268.881C91.7731 268.888 91.8527 268.982 91.8461 269.09C91.8262 269.205 91.7399 269.28 91.6404 269.28Z" fill="#E0B3A8"/>
<path d="M111.991 269.28C111.998 269.28 111.998 269.28 112.005 269.28C112.927 269.212 113.929 268.178 113.915 267.307C113.909 267.03 113.783 266.394 112.728 266.273C112.847 265.739 113.272 264.32 114.466 264.016C114.572 263.989 114.632 263.881 114.605 263.78C114.579 263.672 114.473 263.611 114.373 263.638C112.648 264.077 112.316 266.334 112.303 266.428C112.296 266.482 112.31 266.536 112.343 266.584C112.376 266.624 112.429 266.651 112.482 266.651C112.953 266.671 113.511 266.807 113.517 267.313C113.524 267.921 112.748 268.827 111.965 268.881C111.859 268.888 111.779 268.982 111.786 269.09C111.805 269.205 111.892 269.28 111.991 269.28Z" fill="#E0B3A8"/>
<path d="M76.8605 328.346C72.8141 326.9 73.4178 323.089 73.4178 322.677C72.1044 317.319 70.6848 314.738 79.7924 304.846C88.9 294.955 91.5334 288.563 91.6329 286.604C91.7324 284.644 85.2583 281.86 84.3495 281.036C83.4408 280.212 79.4408 269.401 80.6149 269.171C81.7891 268.942 84.9797 275.05 84.9797 275.05C84.9797 275.05 87.3345 273.617 87.4473 273.617C87.5601 273.617 92.3825 276.786 92.5351 276.942C92.7275 277.712 92.3427 278.644 92.3427 278.644C94.9961 278.374 98.6444 280.887 98.2265 283.975C97.8086 287.07 91.9381 318.765 89.9149 323.4C87.0825 329.893 76.8605 328.346 76.8605 328.346Z" fill="#FFE9BD"/>
<path d="M85.0864 278.712C85.0532 278.712 85.0201 278.706 84.9935 278.685C84.9006 278.631 84.8675 278.51 84.9139 278.415C85.7897 276.793 87.3555 274.084 88.0256 274.192C88.1318 274.212 88.2048 274.314 88.1849 274.415C88.165 274.523 88.0721 274.591 87.9659 274.577C87.601 274.631 86.274 276.706 85.2523 278.597C85.2191 278.679 85.1527 278.712 85.0864 278.712Z" fill="#E0B3A8"/>
<path d="M83.5936 277.53C83.5803 277.53 83.567 277.53 83.5604 277.53C83.4542 277.509 83.3879 277.408 83.4078 277.3C83.4874 276.861 84.5556 275.537 84.7679 275.28C84.8343 275.199 84.9603 275.185 85.04 275.253C85.1196 275.32 85.1329 275.449 85.0665 275.53C84.5623 276.145 83.8391 277.124 83.7926 277.374C83.7661 277.462 83.6865 277.53 83.5936 277.53Z" fill="#E0B3A8"/>
<path d="M91.4018 279.084C90.254 279.084 88.4958 277.861 87.9318 277.442C87.8456 277.381 87.8257 277.253 87.892 277.165C87.9517 277.077 88.0778 277.057 88.164 277.124C89.4446 278.07 91.0303 278.908 91.7004 278.644C91.7999 278.604 91.9127 278.658 91.9525 278.759C91.9923 278.861 91.9392 278.976 91.8397 279.016C91.707 279.057 91.5611 279.084 91.4018 279.084Z" fill="#E0B3A8"/>
<path d="M128.322 298.766H91.2816C88.7941 298.766 86.7842 300.82 86.7842 303.347V330.306H132.826V303.347C132.82 300.82 130.803 298.766 128.322 298.766Z" fill="#406185"/>
<path d="M133.025 330.407H80.9136V333.292H133.025V330.407Z" fill="#314A66"/>
<path d="M181.9 333.299H32.0391V338.09H181.9V333.299Z" fill="#D4E4F3"/>
<path d="M110.764 317.529H104.084C104.084 314.907 106.167 312.786 108.741 312.786H115.42C115.414 315.4 113.331 317.529 110.764 317.529Z" fill="#5682B3"/>
<path d="M178.278 317.637C176.699 316.894 174.577 318.144 173.535 320.428C172.494 322.712 172.932 325.171 174.51 325.914C176.089 326.658 178.212 325.408 179.253 323.124C180.295 320.84 179.857 318.387 178.278 317.637ZM175.001 324.84C174.152 324.435 173.774 322.732 174.59 320.928C175.413 319.124 176.932 318.313 177.787 318.718C178.636 319.124 179.014 320.827 178.199 322.631C177.376 324.435 175.857 325.245 175.001 324.84Z" fill="#FFE9BD"/>
<path d="M173.92 311.036H154.352C152.229 322.09 155.035 329.901 159.134 333.144H169.137C173.237 329.894 176.043 322.09 173.92 311.036Z" fill="#FFE9BD"/>
<path d="M88.5489 337.934C76.5558 342.569 79.7464 357.258 82.0217 366.69C84.2969 376.123 98.8704 430.851 98.8704 430.851C109.948 436.108 113.139 425.906 113.139 425.906C113.139 425.906 108.887 355.717 105.398 348.137C101.908 340.562 96.5952 336.387 88.5489 337.934Z" fill="#1C4A8D"/>
<path d="M98.5649 440.899C101.902 433.068 112.933 431.21 115.414 440.899H98.5649Z" fill="#D4E4F3"/>
<path d="M133.371 429.304C133.523 431.622 135.493 440.899 135.493 440.899H118.645C118.645 437.189 122.134 423.271 122.134 423.271L133.371 429.304Z" fill="#2B1710"/>
<path d="M128.972 338.529C141.576 340.941 140.985 355.968 140.382 365.657C139.778 375.346 134.923 429.466 134.923 429.466C124.926 436.635 120.024 427.162 120.024 427.162C120.024 427.162 112.044 359.684 114.167 351.596C116.283 343.522 120.787 338.454 128.972 338.529Z" fill="#1C4A8D"/>
<path d="M135.5 440.899C132.163 433.068 121.132 431.21 118.651 440.899H135.5Z" fill="#D4E4F3"/>
<path d="M49.2394 338.245H42.8647V440.595H49.2394V338.245Z" fill="#D4E4F3"/>
<path d="M165.993 338.245H159.619V440.595H165.993V338.245Z" fill="#D4E4F3"/>
<path d="M182.709 349.894H142.909V440.595H182.709V349.894Z" fill="#1C4A8D"/>
<path d="M182.709 394.623H142.909V395.859H182.709V394.623Z" fill="#D4E4F3"/>
<path d="M182.709 418.724H142.909V419.96H182.709V418.724Z" fill="#D4E4F3"/>
<path d="M182.709 374.474H142.909V375.711H182.709V374.474Z" fill="#D4E4F3"/>
<path d="M74.2339 271.969C62.0882 259.395 60.6753 241.05 71.4014 231.774C82.1276 222.497 82.9369 198.794 81.1127 190.957C94.0676 217.551 83.3415 234.861 75.2422 241.875C67.1495 248.881 71.8061 265.374 74.2339 271.969Z" fill="#8A8A8A"/>
<path d="M76.7886 243.01C72.0049 249.888 71.7793 256.226 74.3602 263.881C72.6153 252.591 76.7886 243.01 76.7886 243.01Z" fill="#575757"/>
<path d="M77.6702 203.328C78.8842 217.963 73.6239 227.449 68.9673 230.334C76.2573 213.632 77.6702 203.328 77.6702 203.328Z" fill="#575757"/>
<path d="M526.762 370.812L531.936 370.299C531.936 372.339 533.607 382.887 547.63 390.711C561.653 398.535 565.494 404.319 565.328 409.927C564.326 412.987 565.328 414.008 565.832 414.346C566.336 414.683 591.046 418.089 591.046 418.089C588.041 414.008 577.354 409.075 574.515 405.846C571.676 402.616 546.131 361.623 543.962 356.353C541.793 351.083 537.448 348.36 536.951 348.36C536.446 348.36 508.898 354.651 506.397 353.461C503.89 352.272 483.857 345.13 483.691 346.32C483.525 347.509 481.018 360.603 481.018 360.603L526.762 370.812Z" fill="black"/>
<path d="M466.776 351.36L465.476 354.65C461.41 359.184 457.854 377.157 474.437 383.731C491.021 390.305 519.962 387.927 526.868 383.278C533.766 378.63 531.1 371.711 529.315 370.69C527.537 369.67 489.462 357.995 488.799 356.63C488.129 355.272 487.412 349.218 487.412 349.218L466.776 351.36Z" fill="black"/>
<path d="M563.271 337.812C563.384 340.758 558.933 351.643 558.933 351.643C555.039 342.116 544.127 343.819 542.569 344.839C541.01 345.86 538.118 345.522 538.118 345.522L538.343 341.664L563.271 337.812Z" fill="#1C4A8D"/>
<path d="M536.778 346.434C546.907 334.414 564.718 342.806 564.718 342.806C564.718 342.806 567.165 328.63 566.834 328.63C545.348 330.441 537.335 340.083 537.335 340.083L533.329 344.279L536.778 346.434Z" fill="#FFFCF7"/>
<path d="M487.519 306.185C482.677 308.111 479.559 323.306 472.992 329.313C466.425 335.32 463.016 344.07 466.73 351.171C470.949 353.38 485.476 351.894 488.189 349.34C492.866 355.975 505.137 372.096 524.003 353.171C525.508 353.036 525.508 353.036 525.508 353.036L524.925 346.914C524.925 346.914 511.817 349.042 504.388 345.982C499.545 343.09 499.459 336.374 499.459 336.374C499.459 336.374 503.048 329.995 502.796 329.232C502.544 328.468 500.043 323.536 498.789 319.279C497.542 315.023 493.111 305.928 487.519 306.185Z" fill="#D4E4F3"/>
<path d="M491.193 302.948C489.522 304.482 487.519 306.178 487.519 306.178C495.87 309.408 499.041 319.955 498.789 319.272C498.789 312.131 501.933 306.746 501.933 306.746C501.933 306.746 505.548 306.435 505.886 306.773C506.218 307.11 510.311 308.982 510.311 308.982C510.311 308.982 514.569 307.624 514.821 307.279C515.074 306.942 518.158 299.881 518.158 299.881L520.075 292.82L521.243 287.55L516.314 280.32L501.369 285.59L491.193 302.948Z" fill="#FFE9BD"/>
<path d="M510.284 299.631C513.236 300.252 514.848 301.131 514.848 301.131L515.379 303.286C515.379 303.286 514.151 304.361 512.845 303.969C511.538 303.577 510.284 299.631 510.284 299.631Z" fill="#DC5B5B"/>
<path d="M515.83 293.699C515.478 294.428 514.895 294.861 514.523 294.678C514.151 294.489 514.132 293.753 514.483 293.023C514.835 292.293 515.419 291.861 515.79 292.043C516.162 292.232 516.182 292.976 515.83 293.699Z" fill="#2B1710"/>
<path d="M513.733 290.192C516.739 291.003 517.907 292.232 517.907 292.232C518.995 289.347 515.657 289.26 513.733 290.192Z" fill="#2B1710"/>
<path d="M503.26 294.07C503.233 294.07 503.213 294.063 503.187 294.056C502.735 293.894 502.424 293.415 502.351 292.779C502.278 292.151 502.47 291.34 503.067 290.955C503.419 290.725 504.023 290.577 504.952 291.077C505.144 290.469 505.204 289.3 504.733 288.59C504.447 288.165 504.016 287.975 503.445 288.036C503.326 288.05 503.226 287.962 503.213 287.84C503.2 287.719 503.286 287.617 503.406 287.604C504.135 287.53 504.713 287.786 505.084 288.347C505.695 289.266 505.582 290.827 505.243 291.489C505.217 291.543 505.17 291.584 505.111 291.597C505.051 291.611 504.991 291.604 504.945 291.57C504.261 291.144 503.691 291.063 503.299 291.32C502.862 291.604 502.722 292.232 502.782 292.732C502.835 293.192 503.047 293.543 503.333 293.651C503.445 293.692 503.505 293.813 503.465 293.928C503.426 294.016 503.346 294.07 503.26 294.07Z" fill="#E0B3A8"/>
<path d="M505.721 304.698C505.681 304.698 505.641 304.685 505.608 304.664C505.018 304.286 502.961 301.354 502.463 297.32C502.45 297.198 502.53 297.09 502.649 297.077C502.769 297.063 502.875 297.144 502.888 297.266C503.386 301.313 505.456 304.043 505.84 304.293C505.94 304.36 505.966 304.489 505.907 304.59C505.86 304.664 505.794 304.698 505.721 304.698Z" fill="#E0B3A8"/>
<path d="M513.482 301.935C513.456 301.935 513.429 301.928 513.403 301.921C511.087 300.975 509.827 299.583 509.774 299.529C509.694 299.441 509.701 299.306 509.787 299.225C509.873 299.144 510.006 299.151 510.085 299.239C510.099 299.252 511.339 300.617 513.555 301.523C513.668 301.57 513.721 301.691 513.675 301.806C513.648 301.881 513.569 301.935 513.482 301.935Z" fill="#2B1710"/>
<path d="M498.875 335.482C498.769 335.482 498.683 335.408 498.663 335.299C498.643 335.191 496.985 324.61 496.155 319.482C495.731 316.847 494.583 314.847 492.839 313.692C490.908 312.415 488.348 312.192 485.237 313.023C485.124 313.057 485.005 312.982 484.978 312.867C484.945 312.752 485.018 312.631 485.131 312.604C488.368 311.739 491.041 311.982 493.078 313.327C494.928 314.55 496.142 316.651 496.587 319.415C497.409 324.543 499.074 335.124 499.094 335.232C499.114 335.353 499.034 335.462 498.915 335.482C498.895 335.482 498.888 335.482 498.875 335.482Z" fill="#BFBFBF"/>
<path d="M487.605 349.346C487.532 349.346 487.453 349.306 487.42 349.231C487.386 349.164 484.049 342.745 483.386 336.394C483.372 336.272 483.459 336.164 483.578 336.157C483.697 336.144 483.804 336.231 483.81 336.353C484.467 342.616 487.765 348.968 487.798 349.029C487.851 349.137 487.811 349.265 487.712 349.326C487.672 349.333 487.639 349.346 487.605 349.346Z" fill="#BFBFBF"/>
<path d="M501.794 351.387C501.741 351.387 501.687 351.366 501.648 351.333C501.561 351.252 501.555 351.116 501.634 351.029C502.424 350.15 502.995 349.089 503.459 348.238C503.957 347.319 504.229 346.812 504.593 346.806C504.7 346.806 504.852 346.846 504.978 347.062C505.503 347.961 505.058 350.502 505.005 350.785C504.985 350.9 504.872 350.981 504.753 350.961C504.64 350.941 504.56 350.826 504.58 350.704C504.713 349.968 504.985 347.92 504.607 347.285C504.58 347.245 504.567 347.231 504.567 347.231C504.454 347.285 504.103 347.927 503.824 348.441C503.373 349.265 502.762 350.4 501.94 351.312C501.913 351.36 501.853 351.387 501.794 351.387Z" fill="#BFBFBF"/>
<path d="M524.002 353.17H523.995C523.876 353.164 523.783 353.062 523.79 352.947C523.79 352.927 523.863 350.657 522.967 348.008C522.927 347.893 522.987 347.772 523.1 347.731C523.212 347.691 523.332 347.752 523.372 347.866C524.294 350.596 524.221 352.866 524.221 352.961C524.214 353.076 524.115 353.17 524.002 353.17Z" fill="#BFBFBF"/>
<path d="M514.298 384.285C514.199 384.298 504.149 385.265 489.907 381.994C479.082 379.508 475.778 369.92 474.816 363.116C475.626 362.691 479.52 360.366 478.896 354.995C483.566 354.049 487.048 352.502 487.108 352.475C487.214 352.427 487.267 352.299 487.214 352.191C487.168 352.083 487.042 352.029 486.936 352.083C486.823 352.137 475.626 357.123 466.458 354.535C466.346 354.502 466.226 354.569 466.193 354.684C466.16 354.799 466.226 354.921 466.339 354.954C468.256 355.495 470.266 355.711 472.243 355.711C474.405 355.711 476.535 355.454 478.471 355.083C479.022 359.981 475.719 362.143 474.75 362.67C474.392 359.914 474.419 357.664 474.458 356.63C474.465 356.508 474.372 356.407 474.253 356.407C474.14 356.4 474.034 356.495 474.034 356.616C473.888 360.285 473.948 378.792 489.815 382.434C498.763 384.488 506.073 384.88 510.318 384.88C512.859 384.88 514.305 384.738 514.345 384.738C514.464 384.724 514.55 384.616 514.537 384.501C514.517 384.359 514.418 384.271 514.298 384.285Z" fill="#BFBFBF"/>
<path d="M559.152 396.028C559.079 396.028 559.006 395.988 558.967 395.913C558.907 395.805 558.947 395.677 559.046 395.616C559.093 395.589 563.53 393.069 564.658 391.589C564.731 391.494 564.864 391.474 564.956 391.549C565.049 391.623 565.069 391.758 564.996 391.853C563.815 393.4 559.437 395.886 559.252 395.988C559.219 396.021 559.185 396.028 559.152 396.028Z" fill="#BFBFBF"/>
<path d="M473.762 352.508C471.413 352.508 469.039 352.272 466.923 351.63C466.81 351.596 466.743 351.475 466.777 351.36C466.81 351.245 466.929 351.177 467.042 351.211C474.743 353.549 486.013 350.394 486.126 350.36C486.239 350.326 486.358 350.394 486.392 350.508C486.425 350.623 486.358 350.745 486.246 350.779C486.159 350.806 480.077 352.508 473.762 352.508Z" fill="#004059"/>
<path d="M517.409 282.827C514.457 289.631 507.837 290.198 506.444 289.347C505.217 285.604 501.044 286.908 500.653 290.536C500.262 294.165 504.607 297.34 500.819 302.84C497.031 308.34 490.637 305.617 488.295 302.556C485.96 299.496 487.181 295.354 490.968 293.428C494.756 291.503 494.53 287.361 495.419 284.3C496.308 281.239 504.66 266.78 518.185 279.314C524.308 288.158 523.638 291.165 521.024 295.469C518.411 299.779 517.688 299.097 519.134 303.975C520.58 308.854 512.235 315.259 501.933 306.752C503.545 304.482 505.548 304.543 506.444 305.164C507.333 305.786 509.336 307.32 510.51 306.806C511.678 306.293 511.459 304.935 511.79 304.367C512.122 303.8 513.349 303.577 513.681 302.442C514.961 302.273 514.848 301.59 514.848 301.137C514.848 300.685 515.571 300.232 515.571 300.232C515.571 300.232 517.356 300.516 517.409 300.232C517.462 299.948 517.243 295.529 517.575 294.732C517.906 293.935 519.578 292.746 520.082 290.989C520.58 289.232 517.409 282.827 517.409 282.827Z" fill="#2B1710"/>
<path d="M524.924 346.914C524.924 346.914 527.319 347.678 528.652 345.414C529.986 343.144 530.656 340.88 533.548 340.651C536.44 340.421 538.111 339.178 538.111 339.178C538.224 339.516 536.665 341.333 536.108 342.921C535.551 344.509 543.232 343.488 543.345 344.279C543.458 345.07 541.561 346.434 540.785 347.57C540.009 348.705 538.556 351.765 537.335 352.448C536.108 353.13 525.508 353.042 525.508 353.042L524.924 346.914Z" fill="#FFE9BD"/>
<path d="M574.515 405.846C573.646 404.852 570.628 400.292 566.807 394.305C564.472 396.42 562.17 398.109 560.154 399.413C564.127 403.237 565.434 406.609 565.334 409.927C564.333 412.987 565.335 414.008 565.839 414.345C566.343 414.683 591.052 418.089 591.052 418.089C588.034 414.008 577.354 409.075 574.515 405.846Z" fill="#FFE9BD"/>
<path d="M565.328 409.927C564.326 412.987 565.328 414.008 565.832 414.345C566.336 414.683 591.045 418.089 591.045 418.089C588.041 414.008 577.354 409.075 574.515 405.846C574.455 405.778 574.382 405.683 574.303 405.582C573.089 407.758 572.512 410.264 572.512 410.264C569.766 410.839 567.318 410.291 565.335 409.379C565.335 409.568 565.335 409.744 565.328 409.927Z" fill="#2B1710"/>
<path d="M656.271 455H27.9858V445.433C27.9858 442.514 30.3075 440.142 33.1797 440.142H651.084C653.949 440.142 656.277 442.507 656.277 445.433V455H656.271Z" fill="#1C4A8D"/>
<path d="M211.856 151.91C200.056 159.477 185.389 157.369 185.389 157.369C185.389 157.369 189.853 142.984 201.654 135.417C213.455 127.849 225.302 125.403 228.121 129.957C230.934 134.511 223.65 144.342 211.856 151.91Z" fill="#59A1F2"/>
<path d="M168.673 156.038C178.278 166.335 179.134 181.396 179.134 181.396C179.134 181.396 164.408 179.768 154.803 169.47C145.198 159.173 140.514 147.822 144.342 144.113C148.169 140.403 159.061 145.741 168.673 156.038Z" fill="#59A1F2"/>
<path d="M273.401 156.464C263.922 161.592 252.784 159.126 252.784 159.126C252.784 159.126 257.01 148.342 266.489 143.207C275.968 138.079 285.195 136.883 287.105 140.545C289.016 144.207 282.88 151.336 273.401 156.464Z" fill="#59A1F2"/>
<path d="M174.895 246.098C174.411 245.753 174.252 245.084 174.544 244.544C194.51 207.483 217.826 184.112 233.879 171.038C251.305 156.836 263.829 151.498 264.353 151.282C264.956 151.032 265.64 151.322 265.885 151.93C266.13 152.538 265.845 153.241 265.248 153.498C265.122 153.552 252.446 158.964 235.259 172.984C219.405 185.916 196.354 209.031 176.6 245.699C176.288 246.28 175.572 246.49 175.001 246.172C174.968 246.152 174.935 246.125 174.895 246.098Z" fill="#13849C"/>
<path d="M249.354 184.443C238.635 183.883 230.323 175.937 230.323 175.937C230.323 175.937 239.391 168.896 250.111 169.457C260.83 170.018 269.347 173.829 269.142 177.964C268.929 182.106 260.074 185.004 249.354 184.443Z" fill="#59A1F2"/>
<path d="M220.38 167.558C221.945 178.376 215.936 188.24 215.936 188.24C215.936 188.24 207.379 180.572 205.806 169.754C204.241 158.937 206.231 149.68 210.251 149.072C214.277 148.464 218.814 156.741 220.38 167.558Z" fill="#59A1F2"/>
<path d="M215.942 221.497C205.216 221.166 196.739 213.395 196.739 213.395C196.739 213.395 205.661 206.166 216.387 206.497C227.113 206.828 235.71 210.456 235.59 214.598C235.471 218.74 226.675 221.834 215.942 221.497Z" fill="#59A1F2"/>
</svg>
