<svg width="506" height="41" viewBox="0 0 506 41" fill="none" xmlns="http://www.w3.org/2000/svg">
<circle cx="329.5" cy="20.5" r="20.5" fill="#59A1F2"/>
<circle cx="329.5" cy="20.5" r="20.5" fill="white" fill-opacity="0.3"/>
<path d="M328.486 26.6783C329.626 26.6783 330.442 26.4443 330.934 25.9763C331.426 25.4963 331.672 24.8543 331.672 24.0503C331.672 23.5223 331.57 23.0843 331.366 22.7363C331.174 22.3883 330.904 22.1123 330.556 21.9083C330.22 21.6923 329.824 21.5423 329.368 21.4583C328.924 21.3623 328.45 21.3143 327.946 21.3143H327.766V20.3423H328.18C328.504 20.3423 328.834 20.3123 329.17 20.2523C329.518 20.1803 329.83 20.0543 330.106 19.8743C330.394 19.6943 330.628 19.4543 330.808 19.1543C331 18.8543 331.096 18.4703 331.096 18.0023C331.096 17.6063 331.03 17.2703 330.898 16.9943C330.766 16.7063 330.586 16.4783 330.358 16.3103C330.142 16.1423 329.884 16.0223 329.584 15.9503C329.296 15.8663 328.99 15.8243 328.666 15.8243C328.018 15.8243 327.514 15.9143 327.154 16.0943C326.794 16.2743 326.5 16.4423 326.272 16.5983L325.768 15.6803C325.888 15.5963 326.038 15.5003 326.218 15.3923C326.41 15.2843 326.632 15.1823 326.884 15.0863C327.136 14.9903 327.412 14.9123 327.712 14.8523C328.024 14.7803 328.36 14.7443 328.72 14.7443C329.344 14.7443 329.878 14.8223 330.322 14.9783C330.778 15.1343 331.156 15.3563 331.456 15.6443C331.756 15.9203 331.978 16.2563 332.122 16.6523C332.266 17.0363 332.338 17.4563 332.338 17.9123C332.338 18.6443 332.14 19.2443 331.744 19.7123C331.36 20.1683 330.862 20.4983 330.25 20.7023C330.586 20.7863 330.91 20.9183 331.222 21.0983C331.546 21.2663 331.834 21.4883 332.086 21.7643C332.338 22.0283 332.542 22.3523 332.698 22.7363C332.854 23.1203 332.932 23.5703 332.932 24.0863C332.932 24.6143 332.836 25.1003 332.644 25.5443C332.464 25.9883 332.188 26.3783 331.816 26.7143C331.456 27.0383 330.994 27.2963 330.43 27.4883C329.866 27.6683 329.206 27.7583 328.45 27.7583C328.054 27.7583 327.688 27.7283 327.352 27.6683C327.028 27.6203 326.74 27.5603 326.488 27.4883C326.236 27.4163 326.02 27.3443 325.84 27.2723C325.672 27.2003 325.546 27.1403 325.462 27.0923L325.768 26.0483C325.84 26.0963 325.96 26.1563 326.128 26.2283C326.296 26.3003 326.494 26.3723 326.722 26.4443C326.962 26.5043 327.226 26.5583 327.514 26.6063C327.814 26.6543 328.138 26.6783 328.486 26.6783Z" fill="white"/>
<circle cx="485.5" cy="20.5" r="20.5" fill="#D4E4F3"/>
<path d="M481.156 23.3843C481.372 22.8083 481.672 22.1603 482.056 21.4403C482.452 20.7203 482.896 19.9823 483.388 19.2263C483.88 18.4703 484.414 17.7323 484.99 17.0123C485.566 16.2803 486.148 15.6143 486.736 15.0143H487.96V23.1503H489.508V24.1043H487.96V27.4883H486.808V24.1043H481.156V23.3843ZM486.808 23.1503V16.3283C486.388 16.7603 485.962 17.2583 485.53 17.8223C485.098 18.3863 484.684 18.9743 484.288 19.5863C483.904 20.1863 483.544 20.7923 483.208 21.4043C482.872 22.0163 482.59 22.5983 482.362 23.1503H486.808Z" fill="#244061"/>
<circle cx="214" cy="21" r="3" fill="#59A1F2"/>
<circle cx="214" cy="21" r="3" fill="white" fill-opacity="0.3"/>
<circle cx="252" cy="21" r="3" fill="#59A1F2"/>
<circle cx="252" cy="21" r="3" fill="white" fill-opacity="0.3"/>
<circle cx="290" cy="21" r="3" fill="#59A1F2"/>
<circle cx="290" cy="21" r="3" fill="white" fill-opacity="0.3"/>
<circle cx="369" cy="21" r="3" fill="#D4E4F3"/>
<circle cx="407" cy="21" r="3" fill="#D4E4F3"/>
<circle cx="445" cy="21" r="3" fill="#D4E4F3"/>
<circle cx="174.5" cy="20.5" r="20.5" fill="#59A1F2"/>
<circle cx="174.5" cy="20.5" r="20.5" fill="white" fill-opacity="0.3"/>
<path d="M176.488 18.1103C176.488 18.5783 176.404 19.0223 176.236 19.4423C176.068 19.8503 175.84 20.2463 175.552 20.6303C175.276 21.0143 174.958 21.3863 174.598 21.7463C174.238 22.1063 173.872 22.4663 173.5 22.8263C173.188 23.1263 172.882 23.4323 172.582 23.7443C172.294 24.0443 172.03 24.3503 171.79 24.6623C171.562 24.9623 171.376 25.2623 171.232 25.5623C171.1 25.8503 171.034 26.1383 171.034 26.4263V26.4623H176.92V27.4883H169.738C169.738 27.4643 169.732 27.4223 169.72 27.3623C169.72 27.2903 169.72 27.1883 169.72 27.0563C169.72 26.4923 169.822 25.9703 170.026 25.4903C170.23 24.9983 170.488 24.5363 170.8 24.1043C171.124 23.6723 171.478 23.2703 171.862 22.8983C172.258 22.5263 172.636 22.1663 172.996 21.8183C173.296 21.5303 173.578 21.2543 173.842 20.9903C174.118 20.7143 174.358 20.4323 174.562 20.1443C174.766 19.8563 174.928 19.5503 175.048 19.2263C175.168 18.9023 175.228 18.5483 175.228 18.1643C175.228 17.3243 175 16.7243 174.544 16.3643C174.1 15.9923 173.536 15.8063 172.852 15.8063C172.468 15.8063 172.126 15.8543 171.826 15.9503C171.526 16.0463 171.262 16.1603 171.034 16.2923C170.818 16.4123 170.632 16.5383 170.476 16.6703C170.32 16.8023 170.206 16.9043 170.134 16.9763L169.522 16.1663C169.594 16.0823 169.72 15.9623 169.9 15.8063C170.092 15.6383 170.326 15.4763 170.602 15.3203C170.89 15.1643 171.22 15.0323 171.592 14.9243C171.964 14.8043 172.378 14.7443 172.834 14.7443C174.046 14.7443 174.958 15.0443 175.57 15.6443C176.182 16.2323 176.488 17.0543 176.488 18.1103Z" fill="white"/>
<circle cx="60" cy="21" r="3" fill="#59A1F2"/>
<circle cx="60" cy="21" r="3" fill="white" fill-opacity="0.3"/>
<circle cx="98" cy="21" r="3" fill="#59A1F2"/>
<circle cx="98" cy="21" r="3" fill="white" fill-opacity="0.3"/>
<circle cx="136" cy="21" r="3" fill="#59A1F2"/>
<circle cx="136" cy="21" r="3" fill="white" fill-opacity="0.3"/>
<circle cx="20.5" cy="20.5" r="20.5" fill="#59A1F2"/>
<circle cx="20.5" cy="20.5" r="20.5" fill="white" fill-opacity="0.3"/>
<path d="M17.1819 17.5703C17.9019 17.3183 18.5439 17.0003 19.1079 16.6163C19.6719 16.2203 20.2299 15.6863 20.7819 15.0143H21.6099V27.4883H20.4399V16.7963C20.3079 16.9403 20.1339 17.0903 19.9179 17.2463C19.7139 17.4023 19.4799 17.5583 19.2159 17.7143C18.9519 17.8583 18.6759 18.0023 18.3879 18.1463C18.0999 18.2783 17.8119 18.3863 17.5239 18.4703L17.1819 17.5703Z" fill="white"/>
</svg>
