<svg width="686" height="475" viewBox="0 0 686 475" fill="none" xmlns="http://www.w3.org/2000/svg">
<path d="M483.53 88.415C431.385 92.2869 474.555 212.695 544.57 227.76C614.585 242.817 610.394 79.0006 483.53 88.415Z" fill="#DEECFC"/>
<path d="M275.877 63.9361C85.8683 39.8587 -55.0507 262.908 118.49 461.88H543.373C685.201 389.698 610.995 262.284 527.814 244.71C444.633 227.129 454.203 86.5293 275.877 63.9361Z" fill="#DEECFC"/>
<path d="M616.136 405.278C615.787 405.278 615.439 405.271 615.09 405.264C614.837 405.257 614.639 405.042 614.646 404.776C614.653 404.511 614.871 404.31 615.111 404.31C616.902 404.353 618.727 404.282 620.504 404.081C620.757 404.059 620.976 404.246 621.003 404.504C621.031 404.769 620.846 404.999 620.6 405.027C619.13 405.192 617.626 405.278 616.136 405.278ZM609.669 404.755C609.649 404.755 609.621 404.755 609.601 404.748C607.789 404.454 605.978 404.024 604.214 403.486C603.975 403.414 603.838 403.149 603.906 402.891C603.975 402.64 604.228 402.496 604.474 402.568C606.196 403.099 607.967 403.514 609.738 403.808C609.984 403.851 610.154 404.095 610.12 404.353C610.086 404.583 609.888 404.755 609.669 404.755ZM625.939 404.059C625.734 404.059 625.549 403.916 625.495 403.694C625.433 403.436 625.583 403.177 625.83 403.12C627.573 402.683 629.309 402.109 630.984 401.435C631.216 401.342 631.483 401.464 631.572 401.708C631.661 401.951 631.545 402.231 631.312 402.324C629.603 403.02 627.833 403.593 626.048 404.045C626.007 404.059 625.973 404.059 625.939 404.059ZM599.217 401.521C599.155 401.521 599.094 401.507 599.032 401.478C597.357 400.697 595.71 399.793 594.144 398.782C593.933 398.646 593.864 398.352 593.994 398.123C594.124 397.9 594.404 397.829 594.623 397.965C596.154 398.947 597.761 399.836 599.401 400.603C599.634 400.711 599.736 400.991 599.634 401.234C599.559 401.421 599.388 401.521 599.217 401.521ZM636.097 399.951C635.933 399.951 635.783 399.858 635.701 399.7C635.578 399.471 635.66 399.177 635.879 399.055C637.451 398.151 638.989 397.133 640.438 396.022C640.643 395.864 640.924 395.914 641.074 396.129C641.224 396.344 641.177 396.638 640.972 396.796C639.488 397.929 637.923 398.976 636.316 399.901C636.248 399.929 636.173 399.951 636.097 399.951ZM589.927 395.556C589.824 395.556 589.721 395.52 589.639 395.448C588.211 394.236 586.85 392.917 585.586 391.519C585.415 391.325 585.422 391.024 585.599 390.845C585.784 390.666 586.071 390.673 586.242 390.859C587.479 392.221 588.812 393.519 590.207 394.702C590.405 394.867 590.433 395.168 590.275 395.376C590.186 395.491 590.057 395.556 589.927 395.556ZM644.895 393.211C644.772 393.211 644.656 393.161 644.567 393.06C644.396 392.867 644.403 392.566 644.581 392.386C645.88 391.089 647.11 389.683 648.238 388.221C648.395 388.013 648.683 387.984 648.881 388.149C649.079 388.314 649.106 388.615 648.949 388.823C647.794 390.321 646.543 391.755 645.21 393.082C645.121 393.168 645.005 393.211 644.895 393.211ZM582.42 387.274C582.277 387.274 582.14 387.21 582.051 387.08C580.971 385.525 579.98 383.883 579.105 382.19C578.982 381.961 579.064 381.667 579.29 381.545C579.508 381.416 579.789 381.502 579.905 381.739C580.759 383.388 581.73 385.001 582.79 386.521C582.94 386.736 582.892 387.03 582.687 387.188C582.605 387.245 582.516 387.274 582.42 387.274ZM651.738 384.313C651.656 384.313 651.574 384.291 651.499 384.241C651.287 384.105 651.219 383.811 651.349 383.581C652.285 381.975 653.126 380.283 653.857 378.562C653.96 378.319 654.227 378.211 654.459 378.319C654.692 378.426 654.794 378.706 654.692 378.95C653.947 380.706 653.085 382.434 652.128 384.076C652.039 384.234 651.889 384.313 651.738 384.313ZM577.211 377.243C577.027 377.243 576.856 377.128 576.788 376.935C576.131 375.142 575.578 373.278 575.147 371.407C575.085 371.148 575.243 370.89 575.482 370.833C575.728 370.776 575.974 370.933 576.029 371.184C576.446 373.013 576.986 374.834 577.629 376.591C577.717 376.834 577.601 377.114 577.369 377.207C577.328 377.236 577.266 377.243 577.211 377.243ZM574.675 366.136C574.443 366.136 574.245 365.957 574.224 365.706C574.074 364.179 573.999 362.616 573.999 361.074C573.999 360.694 574.005 360.307 574.012 359.927C574.019 359.662 574.231 359.447 574.477 359.461C574.73 359.468 574.928 359.683 574.921 359.949C574.914 360.321 574.908 360.694 574.908 361.074C574.908 362.587 574.983 364.114 575.133 365.613C575.161 365.878 574.976 366.108 574.73 366.136C574.709 366.136 574.689 366.136 574.675 366.136ZM574.956 354.714C574.935 354.714 574.908 354.714 574.887 354.707C574.641 354.664 574.47 354.42 574.511 354.162C574.798 352.262 575.202 350.362 575.721 348.519C575.79 348.268 576.042 348.125 576.289 348.197C576.528 348.268 576.665 348.534 576.596 348.792C576.09 350.592 575.687 352.456 575.407 354.313C575.373 354.542 575.174 354.714 574.956 354.714ZM578.045 343.758C577.984 343.758 577.922 343.744 577.861 343.715C577.628 343.608 577.526 343.328 577.629 343.084C578.374 341.328 579.242 339.607 580.206 337.965C580.335 337.743 580.616 337.671 580.835 337.807C581.047 337.943 581.115 338.237 580.985 338.467C580.042 340.073 579.194 341.758 578.463 343.479C578.387 343.651 578.216 343.758 578.045 343.758ZM652.819 340.761C652.655 340.761 652.497 340.668 652.415 340.51C651.561 338.854 650.597 337.241 649.537 335.721C649.387 335.506 649.435 335.212 649.64 335.054C649.845 334.896 650.125 334.946 650.275 335.161C651.355 336.725 652.34 338.366 653.215 340.059C653.338 340.288 653.249 340.582 653.03 340.704C652.969 340.74 652.894 340.761 652.819 340.761ZM583.747 334.014C583.644 334.014 583.542 333.978 583.46 333.907C583.261 333.742 583.234 333.441 583.391 333.233C584.547 331.741 585.811 330.307 587.137 328.988C587.322 328.809 587.609 328.816 587.78 329.009C587.951 329.203 587.944 329.504 587.766 329.683C586.461 330.981 585.23 332.379 584.095 333.842C584.013 333.957 583.884 334.014 583.747 334.014ZM646.427 331.505C646.304 331.505 646.188 331.454 646.099 331.354C644.868 329.985 643.535 328.687 642.141 327.504C641.942 327.339 641.915 327.038 642.072 326.83C642.229 326.629 642.517 326.593 642.715 326.758C644.137 327.97 645.497 329.296 646.762 330.694C646.933 330.888 646.926 331.189 646.741 331.368C646.652 331.462 646.536 331.505 646.427 331.505ZM591.656 326.156C591.512 326.156 591.376 326.084 591.287 325.962C591.137 325.747 591.184 325.453 591.389 325.295C592.873 324.162 594.445 323.123 596.052 322.205C596.27 322.076 596.551 322.162 596.667 322.399C596.79 322.628 596.708 322.922 596.482 323.044C594.91 323.94 593.372 324.958 591.916 326.063C591.841 326.127 591.745 326.156 591.656 326.156ZM637.977 324.299C637.895 324.299 637.813 324.277 637.738 324.227C636.207 323.237 634.6 322.348 632.967 321.581C632.734 321.474 632.632 321.194 632.734 320.95C632.837 320.706 633.103 320.599 633.336 320.706C635.011 321.495 636.651 322.406 638.217 323.41C638.429 323.546 638.497 323.84 638.367 324.069C638.278 324.213 638.128 324.299 637.977 324.299ZM601.22 320.706C601.035 320.706 600.864 320.592 600.796 320.398C600.707 320.154 600.823 319.875 601.056 319.781C602.771 319.093 604.542 318.519 606.326 318.068C606.572 318.01 606.818 318.168 606.873 318.419C606.935 318.677 606.777 318.935 606.538 318.993C604.795 319.43 603.059 319.989 601.384 320.663C601.329 320.699 601.274 320.706 601.22 320.706ZM628.031 319.631C627.99 319.631 627.942 319.624 627.901 319.609C626.178 319.072 624.408 318.656 622.637 318.355C622.391 318.312 622.22 318.068 622.261 317.81C622.302 317.552 622.535 317.372 622.781 317.415C624.592 317.716 626.404 318.147 628.168 318.692C628.407 318.763 628.544 319.036 628.475 319.287C628.407 319.495 628.229 319.631 628.031 319.631ZM611.816 318.053C611.583 318.053 611.385 317.874 611.364 317.623C611.337 317.358 611.522 317.128 611.768 317.1C613.586 316.906 615.453 316.827 617.278 316.878C617.531 316.885 617.729 317.107 617.722 317.365C617.715 317.63 617.503 317.838 617.257 317.831C615.466 317.781 613.641 317.853 611.864 318.046C611.843 318.053 611.829 318.053 611.816 318.053Z" fill="#1B3049"/>
<path d="M685.877 366.725H641.422L641.354 366.151C641.135 364.323 641.764 362.709 643.131 361.612C644.799 360.264 647.315 359.87 649.633 360.544C649.701 356.17 651 352.528 653.42 349.968C655.929 347.308 659.559 345.874 663.667 345.945C667.755 345.881 671.385 347.315 673.894 349.968C676.314 352.528 677.613 356.17 677.681 360.544C679.992 359.877 682.514 360.264 684.182 361.612C685.542 362.716 686.171 364.33 685.96 366.151L685.877 366.725ZM642.564 365.412H684.729C684.715 364.029 684.025 363.154 683.403 362.652C681.892 361.426 679.369 361.189 677.271 362.064L676.389 362.437L676.41 361.44C676.512 357.016 675.329 353.374 672.992 350.886C670.729 348.484 667.406 347.193 663.653 347.25C659.88 347.186 656.564 348.484 654.302 350.886C651.957 353.367 650.774 357.016 650.884 361.44L650.904 362.437L650.022 362.064C647.924 361.182 645.408 361.426 643.89 362.652C643.275 363.154 642.578 364.021 642.564 365.412Z" fill="#1B3049"/>
<path d="M56.8213 163.58C56.5683 163.551 56.3905 163.315 56.4179 163.057C56.4452 162.791 56.6639 162.605 56.9169 162.634C58.6943 162.827 60.5196 162.906 62.3106 162.863C62.5499 162.863 62.7686 163.064 62.7755 163.329C62.7823 163.594 62.5841 163.809 62.3312 163.817C61.9825 163.824 61.6339 163.831 61.2852 163.831C59.795 163.831 58.2978 163.745 56.8213 163.58ZM67.3079 162.899C67.2668 162.641 67.4376 162.397 67.6906 162.354C69.4679 162.067 71.2386 161.651 72.9545 161.114C73.1937 161.042 73.4466 161.185 73.5217 161.436C73.5901 161.687 73.4534 161.952 73.2142 162.031C71.4573 162.576 69.6458 162.999 67.8274 163.293C67.8069 163.3 67.7795 163.3 67.759 163.3C67.5402 163.308 67.342 163.136 67.3079 162.899ZM51.3798 162.598C49.5955 162.146 47.825 161.565 46.116 160.877C45.8836 160.784 45.7673 160.504 45.8562 160.26C45.945 160.016 46.2117 159.895 46.4441 159.988C48.119 160.669 49.8484 161.235 51.5984 161.673C51.8445 161.737 51.995 161.995 51.9335 162.246C51.8857 162.469 51.6942 162.612 51.4891 162.612C51.4549 162.612 51.4208 162.612 51.3798 162.598ZM77.7943 159.794C77.6918 159.55 77.7944 159.271 78.0268 159.163C79.6674 158.396 81.2739 157.514 82.8052 156.525C83.0171 156.388 83.2973 156.46 83.4341 156.682C83.5708 156.905 83.4956 157.199 83.2837 157.342C81.7182 158.346 80.0708 159.256 78.396 160.038C78.3344 160.067 78.2729 160.081 78.2114 160.081C78.0336 160.074 77.8695 159.973 77.7943 159.794ZM41.112 158.439C39.5055 157.514 37.9331 156.474 36.4565 155.334C36.2515 155.177 36.2105 154.883 36.3541 154.668C36.4976 154.452 36.7847 154.409 36.9898 154.56C38.439 155.671 39.9771 156.69 41.5494 157.593C41.7681 157.722 41.8502 158.009 41.7271 158.238C41.6451 158.396 41.488 158.489 41.3308 158.489C41.2556 158.504 41.1803 158.482 41.112 158.439ZM87.146 153.929C86.9888 153.721 87.0162 153.42 87.2144 153.255C88.609 152.072 89.9421 150.781 91.1794 149.412C91.3503 149.218 91.6442 149.211 91.8219 149.397C92.0065 149.577 92.0134 149.885 91.8356 150.071C90.571 151.47 89.2106 152.789 87.7819 154.001C87.6999 154.072 87.5972 154.108 87.4947 154.108C87.3716 154.108 87.2349 154.044 87.146 153.929ZM32.2182 151.627C30.892 150.301 29.6342 148.867 28.4789 147.368C28.3217 147.16 28.3489 146.859 28.5472 146.694C28.7386 146.529 29.0258 146.558 29.1899 146.766C30.3178 148.229 31.5482 149.634 32.8471 150.932C33.0316 151.111 33.0385 151.419 32.8608 151.606C32.7719 151.706 32.6489 151.756 32.5326 151.756C32.4233 151.764 32.3071 151.713 32.2182 151.627ZM94.741 145.734C94.5359 145.576 94.4949 145.282 94.6385 145.067C95.6981 143.547 96.6688 141.933 97.5233 140.284C97.6463 140.055 97.9197 139.969 98.1385 140.091C98.3572 140.22 98.4393 140.507 98.3231 140.736C97.4481 142.421 96.4568 144.07 95.3767 145.626C95.2878 145.755 95.1511 145.82 95.0075 145.82C94.9118 145.827 94.8162 145.791 94.741 145.734ZM25.3 142.636C24.343 140.994 23.4816 139.266 22.7365 137.509C22.6339 137.266 22.7365 136.986 22.969 136.878C23.2014 136.771 23.4679 136.878 23.5705 137.122C24.2951 138.843 25.1429 140.528 26.0794 142.141C26.2093 142.364 26.141 142.658 25.929 142.801C25.8538 142.851 25.7718 142.873 25.6897 142.873C25.5393 142.865 25.3889 142.787 25.3 142.636ZM100.046 135.767C99.8133 135.674 99.6972 135.394 99.7861 135.15C100.429 133.394 100.969 131.572 101.386 129.744C101.447 129.486 101.693 129.328 101.933 129.393C102.179 129.457 102.329 129.715 102.267 129.966C101.837 131.838 101.29 133.695 100.627 135.495C100.559 135.681 100.388 135.803 100.203 135.803C100.155 135.796 100.1 135.789 100.046 135.767ZM102.705 124.682C102.452 124.653 102.274 124.417 102.302 124.159C102.452 122.66 102.527 121.14 102.527 119.62C102.527 119.247 102.521 118.867 102.514 118.494C102.507 118.229 102.705 118.014 102.958 118.007C103.211 117.992 103.416 118.207 103.423 118.473C103.43 118.853 103.436 119.24 103.436 119.62C103.436 121.169 103.361 122.725 103.211 124.252C103.183 124.496 102.992 124.682 102.76 124.682C102.739 124.689 102.719 124.689 102.705 124.682ZM102.021 112.866C101.741 111.001 101.345 109.144 100.832 107.345C100.763 107.094 100.9 106.828 101.14 106.749C101.379 106.678 101.632 106.821 101.707 107.072C102.226 108.915 102.637 110.815 102.917 112.715C102.958 112.973 102.787 113.217 102.541 113.26C102.514 113.267 102.493 113.267 102.473 113.267C102.254 113.267 102.056 113.095 102.021 112.866ZM98.9656 102.024C98.2342 100.303 97.3865 98.6185 96.4431 97.0124C96.3133 96.7901 96.3816 96.4961 96.5935 96.3527C96.8054 96.2165 97.0858 96.281 97.2225 96.5105C98.1864 98.1524 99.0476 99.8732 99.7996 101.63C99.9021 101.874 99.7997 102.153 99.5673 102.261C99.5058 102.29 99.4442 102.304 99.3827 102.304C99.205 102.311 99.0408 102.204 98.9656 102.024ZM24.3909 99.2566C24.1722 99.1276 24.0901 98.8408 24.2063 98.6113C25.0814 96.9192 26.0658 95.27 27.1459 93.7141C27.2963 93.499 27.5765 93.456 27.7816 93.6065C27.9867 93.7643 28.0276 94.0583 27.8841 94.2734C26.8313 95.8006 25.8606 97.4139 25.0061 99.063C24.9241 99.2208 24.7668 99.314 24.6027 99.314C24.5344 99.314 24.4593 99.2925 24.3909 99.2566ZM93.3259 92.3948C92.1979 90.9321 90.9607 89.5339 89.655 88.2361C89.4704 88.0568 89.4635 87.7557 89.6413 87.5621C89.8122 87.3685 90.0993 87.3613 90.2838 87.5478C91.6169 88.8742 92.8747 90.3011 94.03 91.7925C94.1872 92.0004 94.16 92.3016 93.9617 92.4665C93.8797 92.5382 93.777 92.574 93.6745 92.574C93.5446 92.5669 93.4147 92.5095 93.3259 92.3948ZM30.6869 89.9282C30.5024 89.749 30.4955 89.4478 30.6664 89.2542C31.9242 87.8561 33.2914 86.5296 34.7133 85.3178C34.9047 85.1529 35.192 85.1816 35.356 85.3895C35.5133 85.5975 35.4858 85.8915 35.2876 86.0635C33.893 87.2538 32.56 88.5444 31.3295 89.9139C31.2406 90.0143 31.1176 90.0645 31.0014 90.0645C30.8852 90.0573 30.7758 90.0143 30.6869 89.9282ZM85.5054 84.6152C84.0562 83.511 82.5181 82.4928 80.939 81.5965C80.7202 81.4675 80.6382 81.1807 80.7544 80.9512C80.8774 80.7218 81.1508 80.6357 81.3696 80.7576C82.9829 81.6754 84.5484 82.7151 86.0318 83.848C86.2369 84.0057 86.2778 84.2997 86.1343 84.5148C86.0454 84.6439 85.9088 84.7084 85.7653 84.7084C85.6832 84.7084 85.5874 84.6797 85.5054 84.6152ZM39.0611 82.6219C38.9312 82.3996 38.9928 82.1056 39.2115 81.9622C40.777 80.9512 42.4176 80.0406 44.0924 79.2591C44.3248 79.1515 44.5915 79.2591 44.6941 79.5029C44.7966 79.7466 44.694 80.0263 44.4616 80.1338C42.8209 80.901 41.2144 81.7973 39.69 82.7796C39.6148 82.8298 39.5329 82.8513 39.4508 82.8513C39.3004 82.8513 39.15 82.7653 39.0611 82.6219ZM76.0442 79.2304C74.3694 78.5564 72.6332 77.9971 70.89 77.5597C70.6439 77.4952 70.4935 77.2443 70.555 76.9861C70.6165 76.728 70.8556 76.5703 71.1017 76.6348C72.886 77.0793 74.6635 77.6529 76.3725 78.3485C76.6049 78.4417 76.7279 78.7213 76.6322 78.9651C76.5638 79.1587 76.3929 79.2734 76.2083 79.2734C76.1536 79.2591 76.0989 79.2519 76.0442 79.2304ZM48.9598 77.8394C48.8914 77.5884 49.0281 77.3231 49.2673 77.2442C51.0242 76.6993 52.8359 76.2691 54.6543 75.968C54.9004 75.9249 55.1328 76.1042 55.1738 76.3623C55.2148 76.6205 55.0439 76.8642 54.7978 76.9073C53.0204 77.2012 51.2499 77.6243 49.534 78.162C49.493 78.1764 49.4451 78.1836 49.404 78.1836C49.199 78.1836 49.0213 78.0473 48.9598 77.8394ZM65.5646 76.6061C63.7872 76.4125 61.9619 76.3408 60.1709 76.391C59.9248 76.4054 59.7129 76.1902 59.7061 75.9249C59.6992 75.6596 59.8974 75.4445 60.1503 75.4374C61.9824 75.3872 63.8487 75.4589 65.6603 75.6525C65.9132 75.6812 66.091 75.9106 66.0636 76.1759C66.0363 76.4197 65.8448 76.6061 65.6124 76.6061C65.5987 76.6061 65.5783 76.6061 65.5646 76.6061Z" fill="#1B3049"/>
<path d="M19.9136 131.379H33.6337C36.997 131.379 39.7314 128.511 39.7314 124.983V107.538C39.7314 106.778 39.1435 106.162 38.4189 106.162V106.692C38.8633 106.692 39.2324 107.072 39.2324 107.545V124.99C39.2324 128.224 36.7236 130.856 33.6405 130.856H19.9204C19.4761 130.856 19.107 130.476 19.107 130.002V128.891H18.6011V130.002C18.5943 130.755 19.189 131.379 19.9136 131.379Z" fill="#1B3049"/>
<path d="M19.6606 115.935C19.6606 110.543 23.8444 106.162 28.9783 106.162H38.665V119.376C38.665 124.768 34.4814 129.149 29.3475 129.149H19.6606V115.935ZM28.9783 106.692C24.1179 106.692 20.1597 110.844 20.1597 115.942V128.626H29.3406C34.2011 128.626 38.1591 124.474 38.1591 119.376V106.692H28.9783Z" fill="#1B3049"/>
<path d="M6.0979 131.38H19.8178C20.5424 131.38 21.1304 130.763 21.1304 130.003V128.813H20.6246V130.003C20.6246 130.469 20.2621 130.856 19.8109 130.856H6.09105C3.00798 130.856 0.49902 128.225 0.49902 124.991V107.546C0.49902 107.08 0.861459 106.693 1.31264 106.693V106.162C0.588016 106.162 0 106.779 0 107.539V124.984C0 128.511 2.73455 131.38 6.0979 131.38Z" fill="#1B3049"/>
<path d="M1.06628 119.369V106.154H10.753C15.8937 106.154 20.0706 110.542 20.0706 115.927V129.142H10.3839C5.24322 129.149 1.06628 124.761 1.06628 119.369ZM19.5648 115.934C19.5648 110.836 15.6067 106.685 10.7463 106.685H1.5653V119.369C1.5653 124.467 5.52349 128.618 10.3839 128.618H19.5648V115.934Z" fill="#1B3049"/>
<path d="M368.478 45.7099C368.58 45.7099 368.683 45.6812 368.772 45.6167C369.011 45.4446 369.073 45.1076 368.916 44.8566C368.328 43.9389 367.712 43.0282 367.083 42.1463C366.912 41.9025 366.584 41.8523 366.352 42.0316C366.12 42.2108 366.072 42.555 366.242 42.7988C366.858 43.6736 367.466 44.5698 368.047 45.4661C368.143 45.631 368.314 45.7099 368.478 45.7099Z" fill="#1B3049"/>
<path d="M362.702 38.2244C361.471 36.7617 360.159 35.3277 358.812 33.9725C358.6 33.7646 358.593 33.4132 358.798 33.1981C358.997 32.9759 359.332 32.9687 359.537 33.1838C360.904 34.5605 362.237 36.0088 363.488 37.5002C363.68 37.7297 363.659 38.0739 363.44 38.2746C363.338 38.3678 363.215 38.4108 363.092 38.4108C362.955 38.4108 362.811 38.3463 362.702 38.2244ZM354.601 30.0791C353.152 28.8458 351.634 27.67 350.089 26.5729C349.85 26.4008 349.789 26.0638 349.953 25.8129C350.117 25.5619 350.438 25.4974 350.677 25.6695C352.243 26.7808 353.781 27.9854 355.257 29.233C355.483 29.4266 355.517 29.7708 355.333 30.0074C355.23 30.1437 355.08 30.2082 354.922 30.2082C354.813 30.2082 354.697 30.1652 354.601 30.0791ZM345.318 23.4754C343.691 22.5146 342.009 21.6183 340.314 20.8081C340.047 20.6791 339.931 20.3564 340.054 20.0768C340.177 19.7971 340.485 19.6824 340.751 19.8043C342.474 20.6289 344.183 21.5395 345.837 22.5146C346.09 22.6652 346.179 23.0022 346.036 23.2603C345.94 23.4396 345.762 23.5399 345.577 23.5399C345.489 23.5399 345.4 23.5184 345.318 23.4754ZM335.105 18.5925C333.348 17.9329 331.543 17.3449 329.745 16.8502C329.465 16.7713 329.301 16.4702 329.369 16.1762C329.444 15.8822 329.731 15.7102 330.012 15.7819C331.844 16.2909 333.676 16.886 335.46 17.5529C335.734 17.6532 335.877 17.9687 335.775 18.2555C335.699 18.4778 335.494 18.6212 335.282 18.6212C335.228 18.6212 335.166 18.6141 335.105 18.5925Z" fill="#1B3049"/>
<path d="M324.338 15.5881C324.591 15.5881 324.81 15.4017 324.851 15.1364C324.899 14.8353 324.707 14.5556 324.427 14.4983C323.395 14.3047 322.335 14.1398 321.296 14.0035C321.016 13.9677 320.749 14.1756 320.708 14.4768C320.674 14.7779 320.872 15.0504 321.159 15.0934C322.185 15.2296 323.224 15.3945 324.242 15.5809C324.283 15.5881 324.311 15.5881 324.338 15.5881Z" fill="#1B3049"/>
<path d="M294.286 17.1941C294.334 17.1941 294.382 17.1869 294.43 17.1726C295.428 16.8786 296.446 16.599 297.451 16.3552C297.732 16.2835 297.909 15.9895 297.841 15.6955C297.773 15.4016 297.492 15.2152 297.212 15.2869C296.193 15.5378 295.154 15.8174 294.143 16.1186C293.862 16.2046 293.705 16.5058 293.78 16.7997C293.849 17.0364 294.06 17.1941 294.286 17.1941Z" fill="#1B3049"/>
<path d="M311.711 155.628C309.565 155.599 307.405 155.463 305.285 155.219C304.998 155.183 304.786 154.918 304.821 154.617C304.855 154.316 305.115 154.101 305.395 154.129C307.48 154.366 309.613 154.502 311.725 154.531C312.012 154.538 312.245 154.782 312.245 155.09C312.238 155.391 312.005 155.635 311.718 155.635C311.718 155.628 311.718 155.628 311.711 155.628ZM317.584 154.904C317.563 154.603 317.775 154.337 318.062 154.309C320.168 154.129 322.28 153.85 324.351 153.463C324.639 153.412 324.905 153.606 324.96 153.907C325.008 154.208 324.823 154.488 324.536 154.545C322.437 154.933 320.284 155.226 318.144 155.406C318.131 155.406 318.117 155.406 318.103 155.406C317.837 155.406 317.604 155.191 317.584 154.904ZM298.921 154.18C296.822 153.728 294.724 153.161 292.68 152.502C292.406 152.416 292.249 152.107 292.331 151.813C292.413 151.52 292.714 151.362 292.987 151.448C294.997 152.1 297.069 152.652 299.133 153.097C299.413 153.161 299.598 153.448 299.543 153.749C299.495 154.008 299.277 154.187 299.031 154.187C298.996 154.187 298.955 154.187 298.921 154.18ZM330.176 152.674C330.1 152.38 330.264 152.079 330.538 152C332.568 151.412 334.592 150.709 336.561 149.913C336.827 149.806 337.135 149.949 337.237 150.229C337.34 150.516 337.203 150.831 336.937 150.939C334.94 151.742 332.883 152.452 330.818 153.054C330.77 153.068 330.723 153.075 330.675 153.075C330.449 153.075 330.237 152.918 330.176 152.674ZM286.623 150.207C284.647 149.347 282.692 148.372 280.799 147.318C280.546 147.174 280.443 146.845 280.58 146.572C280.717 146.307 281.031 146.206 281.291 146.343C283.15 147.382 285.078 148.343 287.02 149.189C287.286 149.304 287.416 149.627 287.3 149.906C287.218 150.114 287.019 150.243 286.814 150.243C286.76 150.25 286.691 150.236 286.623 150.207ZM342.132 147.97C342.002 147.698 342.111 147.368 342.364 147.232C344.251 146.249 346.111 145.152 347.902 143.984C348.148 143.826 348.469 143.905 348.626 144.163C348.777 144.421 348.701 144.758 348.455 144.923C346.637 146.113 344.743 147.217 342.829 148.221C342.754 148.257 342.672 148.279 342.597 148.279C342.405 148.279 342.221 148.164 342.132 147.97ZM275.268 143.862C273.484 142.621 271.734 141.281 270.073 139.868C269.847 139.674 269.813 139.33 269.998 139.094C270.182 138.857 270.51 138.821 270.736 139.015C272.377 140.406 274.099 141.725 275.849 142.944C276.089 143.109 276.157 143.453 276 143.704C275.897 143.862 275.733 143.948 275.562 143.948C275.46 143.948 275.357 143.919 275.268 143.862ZM353.022 140.979C352.844 140.736 352.892 140.391 353.118 140.212C354.792 138.871 356.426 137.43 357.971 135.932C358.183 135.724 358.518 135.738 358.709 135.96C358.908 136.183 358.894 136.534 358.682 136.735C357.11 138.262 355.449 139.725 353.753 141.087C353.658 141.166 353.548 141.202 353.439 141.202C353.282 141.194 353.124 141.116 353.022 140.979ZM265.26 135.372C263.729 133.802 262.252 132.139 260.871 130.425C260.687 130.195 260.714 129.844 260.933 129.651C261.152 129.457 261.487 129.486 261.671 129.715C263.032 131.4 264.488 133.042 265.992 134.584C266.197 134.799 266.204 135.143 265.999 135.358C265.896 135.466 265.759 135.523 265.623 135.523C265.493 135.53 265.363 135.48 265.26 135.372ZM362.463 131.952C362.244 131.751 362.23 131.4 362.421 131.178C363.83 129.529 365.17 127.793 366.421 126.015C366.591 125.771 366.92 125.721 367.152 125.901C367.384 126.08 367.432 126.424 367.261 126.668C365.997 128.475 364.629 130.239 363.201 131.909C363.098 132.031 362.955 132.096 362.811 132.096C362.688 132.096 362.558 132.053 362.463 131.952ZM256.948 125.069C255.724 123.226 254.575 121.297 253.53 119.347C253.386 119.082 253.475 118.745 253.728 118.601C253.981 118.451 254.302 118.544 254.439 118.809C255.471 120.738 256.606 122.631 257.809 124.445C257.973 124.696 257.918 125.04 257.679 125.212C257.59 125.277 257.481 125.313 257.378 125.313C257.214 125.305 257.05 125.219 256.948 125.069ZM370.119 121.233C369.873 121.075 369.791 120.738 369.941 120.48C371.021 118.587 372.033 116.615 372.942 114.622C373.065 114.349 373.38 114.235 373.639 114.364C373.899 114.493 374.009 114.823 373.886 115.095C372.963 117.117 371.937 119.125 370.837 121.046C370.741 121.218 370.563 121.312 370.385 121.312C370.29 121.312 370.201 121.29 370.119 121.233ZM250.638 113.303C249.77 111.252 248.99 109.13 248.314 107C248.225 106.713 248.368 106.398 248.648 106.305C248.922 106.211 249.223 106.362 249.312 106.656C249.975 108.75 250.747 110.836 251.602 112.858C251.718 113.138 251.602 113.46 251.335 113.582C251.267 113.618 251.192 113.632 251.123 113.632C250.918 113.632 250.727 113.511 250.638 113.303ZM375.697 109.187C375.424 109.087 375.287 108.771 375.383 108.484C376.1 106.412 376.736 104.268 377.263 102.132C377.338 101.838 377.618 101.665 377.898 101.737C378.179 101.816 378.35 102.11 378.274 102.404C377.734 104.577 377.092 106.749 376.36 108.857C376.285 109.079 376.08 109.216 375.868 109.216C375.82 109.223 375.759 109.208 375.697 109.187ZM246.577 100.497C246.099 98.3098 245.716 96.0727 245.436 93.85C245.401 93.5488 245.6 93.2764 245.887 93.2334C246.174 93.1975 246.434 93.4054 246.475 93.7066C246.748 95.9007 247.124 98.1019 247.596 100.253C247.657 100.547 247.486 100.841 247.199 100.913C247.158 100.92 247.117 100.927 247.083 100.927C246.851 100.92 246.632 100.748 246.577 100.497ZM378.999 96.252C378.712 96.2018 378.52 95.9221 378.561 95.621C378.89 93.4413 379.129 91.2185 379.259 89.0101C379.279 88.709 379.525 88.4724 379.812 88.4939C380.1 88.5154 380.318 88.7735 380.305 89.0747C380.168 91.3189 379.929 93.5775 379.594 95.7859C379.553 96.0584 379.327 96.252 379.074 96.252C379.054 96.2591 379.026 96.2591 378.999 96.252ZM244.902 87.1172C244.875 86.264 244.861 85.3964 244.861 84.5359C244.861 83.1521 244.902 81.7468 244.978 80.3629C244.991 80.0618 245.231 79.8395 245.531 79.8467C245.818 79.861 246.044 80.1263 246.024 80.4274C245.948 81.7898 245.907 83.1736 245.907 84.5359C245.907 85.382 245.921 86.2353 245.948 87.0814C245.962 87.3825 245.73 87.6406 245.442 87.6478C245.436 87.6478 245.429 87.6478 245.422 87.6478C245.148 87.6478 244.916 87.4112 244.902 87.1172ZM246.092 74.2683C245.805 74.2253 245.607 73.9385 245.654 73.6445C245.983 71.4217 246.413 69.199 246.933 67.0193C247.001 66.7253 247.288 66.546 247.569 66.6249C247.849 66.6966 248.02 66.9978 247.945 67.2917C247.425 69.4356 247.001 71.6225 246.68 73.8094C246.639 74.0819 246.42 74.2755 246.16 74.2755C246.147 74.2755 246.119 74.2755 246.092 74.2683ZM249.127 61.2616C248.854 61.1613 248.71 60.8458 248.813 60.559C249.531 58.4509 250.358 56.3501 251.274 54.3209C251.397 54.0485 251.711 53.9266 251.971 54.0556C252.231 54.1847 252.347 54.5145 252.224 54.787C251.328 56.7875 250.515 58.8525 249.804 60.9318C249.729 61.1541 249.524 61.2975 249.312 61.2975C249.25 61.2903 249.189 61.2832 249.127 61.2616ZM254.466 49.1011C254.22 48.9433 254.138 48.6063 254.282 48.3482C255.369 46.4194 256.565 44.5193 257.823 42.7053C257.994 42.4615 258.322 42.4041 258.554 42.5834C258.787 42.7626 258.841 43.1068 258.67 43.3506C257.426 45.136 256.257 47.0074 255.184 48.9075C255.088 49.0795 254.91 49.1799 254.733 49.1799C254.644 49.1728 254.555 49.1512 254.466 49.1011ZM261.911 38.2168C261.692 38.016 261.671 37.6647 261.863 37.4424C263.278 35.7646 264.789 34.1298 266.354 32.5954C266.566 32.3874 266.894 32.4018 267.092 32.6241C267.291 32.8463 267.277 33.1905 267.065 33.3984C265.527 34.9113 264.037 36.5103 262.642 38.1666C262.54 38.2885 262.396 38.353 262.252 38.353C262.129 38.353 262.006 38.31 261.911 38.2168ZM271.167 28.9888C270.989 28.745 271.03 28.4008 271.262 28.2144C272.958 26.8449 274.735 25.5399 276.547 24.3425C276.793 24.1776 277.114 24.2565 277.271 24.5146C277.428 24.7727 277.353 25.1097 277.107 25.2747C275.323 26.4506 273.573 27.734 271.905 29.0892C271.809 29.168 271.7 29.2039 271.584 29.2039C271.426 29.2039 271.269 29.1322 271.167 28.9888ZM281.92 21.7541C281.79 21.4816 281.892 21.1518 282.152 21.0156C284.066 20.0046 286.042 19.0796 288.038 18.2622C288.312 18.1547 288.612 18.2909 288.715 18.5777C288.817 18.8574 288.688 19.18 288.414 19.2876C286.452 20.0906 284.504 21.0012 282.617 21.9979C282.542 22.0409 282.46 22.0553 282.385 22.0553C282.193 22.0553 282.009 21.9477 281.92 21.7541Z" fill="#1B3049"/>
<path d="M379.88 82.7939C379.887 82.7939 379.894 82.7939 379.894 82.7939C380.181 82.7867 380.414 82.5286 380.4 82.2274C380.366 81.1232 380.311 80.0118 380.229 78.9076C380.209 78.6065 379.956 78.3842 379.668 78.4057C379.381 78.4272 379.163 78.6925 379.19 78.9937C379.272 80.0764 379.327 81.1734 379.361 82.2633C379.368 82.5572 379.6 82.7939 379.88 82.7939Z" fill="#1B3049"/>
<path d="M368.478 45.7099C368.58 45.7099 368.683 45.6812 368.772 45.6167C369.011 45.4446 369.073 45.1076 368.916 44.8566C368.328 43.9389 367.712 43.0282 367.083 42.1463C366.912 41.9025 366.584 41.8523 366.352 42.0316C366.12 42.2108 366.072 42.555 366.242 42.7988C366.858 43.6736 367.466 44.5698 368.047 45.4661C368.143 45.631 368.314 45.7099 368.478 45.7099Z" fill="#1B3049"/>
<path d="M362.702 38.2244C361.471 36.7617 360.159 35.3277 358.812 33.9725C358.6 33.7646 358.593 33.4132 358.798 33.1981C358.997 32.9759 359.332 32.9687 359.537 33.1838C360.904 34.5605 362.237 36.0088 363.488 37.5002C363.68 37.7297 363.659 38.0739 363.44 38.2746C363.338 38.3678 363.215 38.4108 363.092 38.4108C362.955 38.4108 362.811 38.3463 362.702 38.2244ZM354.601 30.0791C353.152 28.8458 351.634 27.67 350.089 26.5729C349.85 26.4008 349.789 26.0638 349.953 25.8129C350.117 25.5619 350.438 25.4974 350.677 25.6695C352.243 26.7808 353.781 27.9854 355.257 29.233C355.483 29.4266 355.517 29.7708 355.333 30.0074C355.23 30.1437 355.08 30.2082 354.922 30.2082C354.813 30.2082 354.697 30.1652 354.601 30.0791ZM345.318 23.4754C343.691 22.5146 342.009 21.6183 340.314 20.8081C340.047 20.6791 339.931 20.3564 340.054 20.0768C340.177 19.7971 340.485 19.6824 340.751 19.8043C342.474 20.6289 344.183 21.5395 345.837 22.5146C346.09 22.6652 346.179 23.0022 346.036 23.2603C345.94 23.4396 345.762 23.5399 345.577 23.5399C345.489 23.5399 345.4 23.5184 345.318 23.4754ZM335.105 18.5925C333.348 17.9329 331.543 17.3449 329.745 16.8502C329.465 16.7713 329.301 16.4702 329.369 16.1762C329.444 15.8822 329.731 15.7102 330.012 15.7819C331.844 16.2909 333.676 16.886 335.46 17.5529C335.734 17.6532 335.877 17.9687 335.775 18.2555C335.699 18.4778 335.494 18.6212 335.282 18.6212C335.228 18.6212 335.166 18.6141 335.105 18.5925Z" fill="#1B3049"/>
<path d="M324.338 15.5881C324.591 15.5881 324.81 15.4017 324.851 15.1364C324.899 14.8353 324.707 14.5556 324.427 14.4983C323.395 14.3047 322.335 14.1398 321.296 14.0035C321.016 13.9677 320.749 14.1756 320.708 14.4768C320.674 14.7779 320.872 15.0504 321.159 15.0934C322.185 15.2296 323.224 15.3945 324.242 15.5809C324.283 15.5881 324.311 15.5881 324.338 15.5881Z" fill="#1B3049"/>
<path d="M305.873 16.5917L297.554 10.2533H307.835L311.014 0L314.193 10.2533H324.474L316.155 16.5917L319.334 26.8451L311.014 20.5066L302.694 26.8451L305.873 16.5917ZM317.337 23.9698L314.924 16.1759L321.248 11.3575H313.434L311.021 3.56357L308.608 11.3575H300.794L307.117 16.1759L304.704 23.9698L311.028 19.1515L317.337 23.9698Z" fill="#1B3049"/>
<path d="M375.253 69.4787V68.3602C375.253 66.8545 374.692 65.3416 373.68 64.1011C372.655 62.8463 372.094 61.2402 372.094 59.5911C372.094 57.6695 372.826 55.8841 374.145 54.5576C375.471 53.2312 377.208 52.55 379.04 52.6432C382.403 52.8081 385.172 55.6977 385.349 59.2254C385.438 60.9749 384.898 62.6743 383.839 64.0151C382.765 65.3774 382.198 66.9477 382.198 68.561V69.4787C382.198 71.4864 380.639 73.1212 378.725 73.1212C376.811 73.1212 375.253 71.4864 375.253 69.4787ZM374.651 55.1026C373.468 56.2857 372.819 57.8774 372.819 59.5839C372.819 61.0538 373.325 62.4807 374.234 63.6064C375.362 64.983 375.977 66.6752 375.977 68.3602V69.4787C375.977 71.0705 377.208 72.3611 378.725 72.3611C380.243 72.3611 381.473 71.0705 381.473 69.4787V68.561C381.473 66.7899 382.116 65.0046 383.278 63.5275C384.222 62.3301 384.7 60.8172 384.625 59.2613C384.468 56.1207 382 53.5467 379.006 53.3961C378.91 53.3889 378.814 53.3889 378.718 53.3889C377.194 53.3889 375.758 53.9912 374.651 55.1026Z" fill="#1B3049"/>
<path d="M379.088 46.1973H378.363V51.0515H379.088V46.1973Z" fill="#1B3049"/>
<path d="M370.015 49.836L369.503 50.3735L372.776 53.8059L373.288 53.2684L370.015 49.836Z" fill="#1B3049"/>
<path d="M370.591 59.3618H365.963V60.1219H370.591V59.3618Z" fill="#1B3049"/>
<path d="M387.543 49.8073L384.271 53.2397L384.783 53.7772L388.056 50.3448L387.543 49.8073Z" fill="#1B3049"/>
<path d="M391.639 59.2036H387.011V59.9636H391.639V59.2036Z" fill="#1B3049"/>
<path d="M381.412 66.9551H376.114V67.7151H381.412V66.9551Z" fill="#1B3049"/>
<path d="M381.193 69.228H376.415V69.9881H381.193V69.228Z" fill="#1B3049"/>
<path d="M343.8 53.6401H342.658V57.6769H343.8V53.6401Z" fill="#1B3049"/>
<path d="M343.8 60.5879H342.658V64.6247H343.8V60.5879Z" fill="#1B3049"/>
<path d="M341.838 58.5303H337.99V59.7277H341.838V58.5303Z" fill="#1B3049"/>
<path d="M348.462 58.5303H344.613V59.7277H348.462V58.5303Z" fill="#1B3049"/>
<path d="M557.107 89.4336C557.107 120.28 530.815 145.289 530.815 145.289C530.815 145.289 504.524 120.28 504.524 89.4336C504.524 58.5876 516.296 33.5781 530.815 33.5781C545.335 33.5781 557.107 58.5804 557.107 89.4336Z" fill="#1B3049"/>
<path d="M530.815 350.434C529.407 350.434 528.265 349.237 528.265 347.76V51.3815C528.265 49.9045 529.407 48.707 530.815 48.707C532.223 48.707 533.365 49.9045 533.365 51.3815V347.76C533.365 349.237 532.223 350.434 530.815 350.434Z" fill="#1B3049"/>
<path d="M569.255 461.385C569.255 461.385 621.175 388.078 576.242 340.948H488.043C443.109 388.078 495.029 461.385 495.029 461.385H569.255Z" fill="#1B3049"/>
<path d="M581.231 361.663H480.884C480.18 361.663 479.606 361.06 479.606 360.322C479.606 359.583 480.18 358.981 480.884 358.981H581.231C581.935 358.981 582.509 359.583 582.509 360.322C582.509 361.06 581.942 361.663 581.231 361.663Z" fill="#DEECFC"/>
<path d="M596.182 178.143C577.055 194.204 547.851 189.285 547.851 189.285C547.851 189.285 549.669 158.324 568.797 142.263C587.924 126.202 609.567 121.212 617.128 131.121C624.688 141.03 615.309 162.081 596.182 178.143Z" fill="#1B3049"/>
<path d="M530.412 203.281C529.681 202.32 529.824 200.915 530.74 200.148L598.609 143.166C599.525 142.399 600.865 142.55 601.596 143.511C602.328 144.471 602.184 145.877 601.268 146.644L533.399 203.625C532.483 204.392 531.144 204.242 530.412 203.281Z" fill="#1B3049"/>
<path d="M476.243 258.857C495.37 274.918 524.574 269.999 524.574 269.999C524.574 269.999 522.756 239.039 503.628 222.977C484.501 206.916 462.858 201.926 455.297 211.835C447.73 221.737 457.109 242.789 476.243 258.857Z" fill="#1B3049"/>
<path d="M531.916 277.636C532.648 276.675 532.504 275.27 531.588 274.502L473.817 223.874C472.901 223.107 471.561 223.257 470.829 224.218C470.098 225.179 470.241 226.584 471.157 227.351L528.929 277.98C529.845 278.754 531.185 278.597 531.916 277.636Z" fill="#1B3049"/>
<path d="M601.363 238.164C600.639 237.196 599.299 237.031 598.376 237.791L530.582 291.467C529.66 292.227 529.502 293.632 530.227 294.6C530.952 295.568 532.291 295.733 533.214 294.973L601.008 241.297C601.931 240.53 602.088 239.132 601.363 238.164Z" fill="#1B3049"/>
<path d="M601.008 241.297C591.718 291.209 558.59 300.831 533.215 294.973L601.008 241.297Z" fill="#1B3049"/>
<path d="M503.301 340.948H488.043C443.109 388.078 495.029 461.385 495.029 461.385H569.248C569.248 461.385 586.209 437.43 592.354 408.111C562.59 394.99 515.681 370.353 503.301 340.948Z" fill="#DEECFC"/>
<path d="M579.067 372.218C580.979 363.728 575.966 355.221 567.872 353.216C559.777 351.211 551.666 356.469 549.755 364.959C547.843 373.449 552.856 381.956 560.95 383.961C569.045 385.966 577.156 380.708 579.067 372.218Z" fill="black"/>
<path d="M651.109 475H29.7505V466.193C29.7505 463.328 32.1432 461 35.1032 461H645.763C648.717 461 651.116 463.321 651.116 466.193V475H651.109Z" fill="#1B3049"/>
<path d="M90.6873 459.277C86.6745 459.277 83.4136 455.864 83.4136 451.648V158.855C83.4136 128.418 94.7136 99.7944 115.236 78.2696L127.746 65.1482C129.168 63.6568 131.027 62.9111 132.886 62.9111C134.746 62.9111 136.605 63.6568 138.027 65.1482C140.864 68.1238 140.864 72.9565 138.027 75.9321L125.517 89.0535C107.743 107.696 97.9539 132.483 97.9539 158.848V451.648C97.9608 455.864 94.7 459.277 90.6873 459.277Z" fill="#1B3049"/>
<path d="M167.019 440.499H75.9419V461.586H187.131C187.131 449.942 178.128 440.499 167.019 440.499Z" fill="#244061"/>
<path d="M389.274 461.306L636.801 290.714L630.642 281.758L384.058 455.34L389.274 461.306Z" fill="#1B3049"/>
<path d="M612.622 279.27L630.642 281.758L385.951 453.347L373.619 446.715C373.619 446.715 382.472 427.154 385.316 423.505C388.166 419.862 612.622 279.27 612.622 279.27Z" fill="#FFE9BD"/>
<path d="M608.35 276.288L621.625 279.521L377.57 453.684C377.57 453.684 374.569 446.392 374.569 444.399C374.569 442.413 501.652 305.635 503.074 304.638C504.503 303.642 608.35 276.288 608.35 276.288Z" fill="#FFE9BD"/>
<path d="M614.516 273.634L520.308 259.71C400.178 324.033 363.509 442.742 363.509 442.742L377.42 442.083L614.516 273.634Z" fill="#244061"/>
<path d="M375.52 448.708L614.516 273.635C577.847 280.927 523.473 300.824 497.55 326.687C471.628 352.549 371.097 443.402 371.097 443.402L375.52 448.708Z" fill="#FFE9BD"/>
<path d="M507.825 216.438C413.617 315.91 371.254 448.543 371.254 448.543L360.508 445.89C371.254 391.512 447.757 223.73 447.757 223.73L507.825 216.438Z" fill="#244061"/>
<path d="M430.379 198.907C377.188 296.127 370.242 448.192 370.242 448.192L368.301 448.472C368.301 448.472 362.21 451.146 361.882 447.848C363.68 338.962 387.018 223.028 387.018 223.028L430.379 198.907Z" fill="#244061"/>
<path d="M325.889 460.976L78.355 290.377L84.5211 281.429L331.105 455.011L325.889 460.976Z" fill="#1B3049"/>
<path d="M102.541 278.94L84.5215 281.428L329.205 453.025L341.538 446.392C341.538 446.392 332.685 426.832 329.841 423.182C326.997 419.533 102.541 278.94 102.541 278.94Z" fill="#FFE9BD"/>
<path d="M106.807 275.958L93.5312 279.191L337.586 453.354C337.586 453.354 340.587 446.062 340.587 444.069C340.587 442.083 213.504 305.305 212.082 304.308C210.661 303.312 106.807 275.958 106.807 275.958Z" fill="#FFE9BD"/>
<path d="M100.647 273.305L194.856 259.38C314.986 323.704 351.655 442.413 351.655 442.413L337.743 441.753L100.647 273.305Z" fill="#244061"/>
<path d="M339.644 448.378L100.647 273.305C137.316 280.597 191.69 300.494 217.613 326.357C243.535 352.219 344.067 443.072 344.067 443.072L339.644 448.378Z" fill="#FFE9BD"/>
<path d="M210.661 211.627C304.869 311.098 347.232 443.732 347.232 443.732L357.978 441.079C347.232 386.701 270.729 218.919 270.729 218.919L210.661 211.627Z" fill="#244061"/>
<path d="M273.888 203.009C336.479 293.862 358.552 444.335 358.552 444.335L360.508 444.399C360.508 444.399 366.831 446.385 366.831 443.073C354.184 334.975 319.409 222.239 319.409 222.239L273.888 203.009Z" fill="#244061"/>
<path d="M360.029 439.588C357.657 362.996 338.687 198.857 338.687 198.857L368.089 198.362L365.245 441.574L360.029 439.588Z" fill="#244061"/>
<path d="M325.89 460.976H390.381C381.371 426.66 332.527 430.639 325.89 460.976Z" fill="#244061"/>
<path d="M337.586 453.347C342.829 447.202 351.203 444.327 358.545 444.327C365.45 444.327 373.352 446.844 378.602 453.347H337.586Z" fill="#1B3049"/>
<path d="M217.338 178.136C231.167 172.487 238.012 156.149 232.626 141.644C227.24 127.139 211.663 119.96 197.834 125.609C184.005 131.258 177.16 147.596 182.546 162.101C187.932 176.606 203.509 183.786 217.338 178.136Z" fill="#FFE9BD"/>
<path d="M230.123 136.441C226.014 129.852 219.725 125.671 212.91 124.237C213.457 124.954 213.983 125.707 214.475 126.496C222.596 139.524 219.11 156.991 206.689 165.509C200.55 169.718 193.372 170.944 186.707 169.545C195.259 180.717 210.667 183.463 222.337 175.461C234.758 166.936 238.244 149.469 230.123 136.441Z" fill="#DEECFC"/>
<path d="M135.437 36.037C123.091 44.5049 119.625 61.8711 127.698 74.8203L147.851 107.151L192.566 76.4838L172.413 44.1536C164.34 31.2043 147.789 27.569 135.437 36.037Z" fill="#244061"/>
<path d="M157.927 72.1171C117.738 99.672 105.611 154.818 130.829 195.286L276.362 95.4918C251.137 55.0234 198.117 44.5622 157.927 72.1171Z" fill="#59A1F2"/>
<path d="M147.119 177.755C145.315 177.755 143.585 176.694 142.751 174.88C139.77 168.405 135.99 147.683 136.947 127.162C137.077 124.359 139.353 122.201 142.026 122.33C144.699 122.466 146.764 124.854 146.634 127.657C145.738 146.88 149.321 165.745 151.488 170.463C152.65 172.994 151.638 176.034 149.225 177.253C148.541 177.59 147.823 177.755 147.119 177.755Z" fill="black"/>
<path d="M143.223 119.046C142.936 119.046 142.635 119.018 142.341 118.96C139.709 118.451 137.966 115.805 138.451 113.045C140.194 103.086 143.298 94.9474 147.68 88.8671C149.293 86.63 152.335 86.1855 154.468 87.8776C156.601 89.5698 157.025 92.7605 155.412 94.9976C151.953 99.8016 149.45 106.491 147.988 114.88C147.557 117.325 145.513 119.046 143.223 119.046Z" fill="black"/>
<path d="M116.528 353.115C104.66 317.802 70.9924 308.352 78.1019 303.376C85.2183 298.4 124.102 287.96 149.231 353.115H116.528Z" fill="#1B3049"/>
<path d="M203.154 353.116C208.035 342.669 241.71 323.273 241.71 323.273C233.172 307.858 184.335 315.315 175.325 353.116H203.154Z" fill="#1B3049"/>
<path d="M142.71 353.087C140.816 345.128 121.736 289.452 124.109 289.452C129.325 289.452 157.886 309.815 167.367 353.087H142.71Z" fill="#1B3049"/>
<path d="M180.056 353.115C181.477 346.153 196.175 306.86 196.175 306.86C184.793 305.369 162.979 336.703 161.085 353.115H180.056Z" fill="#59A1F2"/>
<path d="M203.154 353.116H116.534C116.534 399.865 112.337 452.422 149.621 461.213H170.074C207.352 452.422 203.154 399.865 203.154 353.116Z" fill="#59A1F2"/>
<path d="M203.155 353.116H181.717C181.635 383.818 179.488 412.807 162.63 426.366C156.895 430.976 149.683 433.106 142.45 433.106H134.09C129.687 433.106 125.292 432.303 121.231 430.647C125.64 446.098 133.967 457.52 149.621 461.213H170.075C207.352 452.422 203.155 399.865 203.155 353.116Z" fill="black"/>
<path d="M73.8844 262.679C71.15 268.415 66.187 279.858 64.5054 290.585C64.5054 290.585 64.0063 273.928 71.9703 255.551C62.9877 225.093 46.1505 203.152 29.614 191.952C27.3581 207.182 25.8336 221.049 25.1569 233.89C35.9784 246.431 45.3849 262.463 45.3849 262.463C42.1377 257.351 30.4822 246.904 24.8356 241.978C24.3776 260.054 25.7653 276.08 29.3406 291.029L53.6701 296.579C53.6701 296.579 39.2393 296.687 30.8856 296.966C31.3914 298.759 31.9382 300.537 32.5125 302.308C40.1962 302.545 53.8615 302.989 53.8615 302.989L33.9002 306.359C41.1875 326.636 53.0959 345.465 70.6236 365.642L78.1159 366.466C78.1159 366.466 82.8465 306.918 75.3541 269.282C74.903 267.045 74.4108 264.844 73.8844 262.679Z" fill="#FFE9BD"/>
<path d="M74.9577 369.6C74.4791 369.6 74.0622 369.249 73.9665 368.74C57.6146 277.679 31.692 206.278 31.4322 205.568C31.234 205.023 31.4938 204.414 32.0134 204.206C32.5329 203.998 33.1139 204.271 33.3122 204.815C33.5719 205.525 59.5559 277.091 75.942 368.352C76.0446 368.926 75.6823 369.478 75.1354 369.586C75.0807 369.593 75.0192 369.6 74.9577 369.6Z" fill="#FFE9BD"/>
<path d="M83.8378 391.261V361.512H62.5502V391.261C48.7208 395.964 38.7197 409.58 38.7197 425.656C38.7197 445.625 54.1555 461.815 73.194 461.815C92.2325 461.815 107.668 445.625 107.668 425.656C107.675 409.58 97.6672 395.964 83.8378 391.261Z" fill="#1B3049"/>
<path d="M59.9048 398.402H72.5994C55.81 408.777 54.012 426.81 54.012 426.81C51.4075 412.663 58.8042 399.456 59.9048 398.402Z" fill="black"/>
<path d="M154.304 371.643H127.295C124.629 371.643 122.462 369.378 122.462 366.574C122.462 363.778 124.622 361.505 127.295 361.505H154.304C156.971 361.505 159.137 363.771 159.137 366.574C159.137 369.371 156.971 371.643 154.304 371.643Z" fill="black"/>
<path d="M129.113 384.328H127.295C124.629 384.328 122.462 382.062 122.462 379.258C122.462 376.462 124.622 374.189 127.295 374.189H129.113C131.779 374.189 133.947 376.455 133.947 379.258C133.947 382.055 131.779 384.328 129.113 384.328Z" fill="black"/>
<path d="M488.384 281.858H483.468V384.571H488.384V281.858Z" fill="#1B3049"/>
<path d="M509.527 290.448H462.324L470.698 247.162H501.153L509.527 290.448Z" fill="#59A1F2"/>
<path d="M464.907 461.478H462.474L469.166 425.756H477.465L464.907 461.478Z" fill="#1B3049"/>
<path d="M537.801 461.478H540.234L533.542 425.756H525.243L537.801 461.478Z" fill="#1B3049"/>
<path d="M406.493 450.737C406.637 457.649 404.156 461.629 404.156 461.629L373.42 445.259C375.697 443.969 386.498 444.42 390.852 445.101C395.207 445.783 397.196 443.187 397.196 443.187L406.493 450.737Z" fill="#FFE9BD"/>
<path d="M405.981 456.466C402.522 455.555 395.358 453.44 392.336 447.919C392.336 447.919 392.698 446.607 391.96 445.209C391.611 445.194 391.242 445.166 390.852 445.108C386.498 444.427 375.697 443.976 373.42 445.266L404.156 461.636C404.156 461.628 405.297 459.8 405.981 456.466Z" fill="black"/>
<path d="M434.234 381.559C427.685 394.157 395.152 443.624 395.152 443.624C398.427 452.099 405.195 456.91 408.032 453.927C410.869 450.952 442.745 415.452 442.745 415.452L434.234 381.559Z" fill="#1B3049"/>
<path d="M452.111 450.687C455.221 456.782 454.729 461.507 454.729 461.507H420.262C421.738 459.277 431.562 454.552 435.739 453.089C439.916 451.626 440.572 448.364 440.572 448.364L452.111 450.687Z" fill="#FFE9BD"/>
<path d="M453.389 414.693C454.319 418.658 454.647 452.666 454.647 452.666C442.199 456.101 436.962 448.199 436.962 448.199C436.962 448.199 426.482 383.273 430.741 378.118C435 372.963 486.421 363.003 486.421 363.003L505.747 367.126C505.747 367.126 512.952 376.06 512.952 377.086C512.945 378.118 453.389 414.693 453.389 414.693Z" fill="#1B3049"/>
<path d="M566 288.806C548.548 288.806 533.768 302.315 531.382 320.455L525.387 366.1L487.248 371.012C466.781 373.651 451.872 392.652 453.355 414.226L453.389 414.693C453.916 422.35 459.986 428.273 467.308 428.273H521.969C547.105 428.273 567.395 406.726 567.08 380.369L566 288.806Z" fill="#59A1F2"/>
<path d="M508.905 288.806C506.068 292.7 504.427 295.733 505.302 298.421C506.177 301.11 506.669 301.856 506.341 302.888C506.013 303.921 504.591 307.757 504.755 307.929C504.919 308.101 507.483 308.273 507.483 308.273C507.483 308.273 507.975 310.166 508.413 310.388C508.85 310.618 509.123 311.994 509.452 312.561C509.78 313.135 509.78 315.078 510.217 315.709C510.655 316.34 514.312 315.078 515.023 315.135C515.734 315.192 515.406 321.488 515.406 321.488C518.845 318.914 525.667 317.939 525.667 317.939C525.448 317.25 524.136 309.98 524.518 308.431C524.901 306.882 528.34 297.726 527.082 292.054C525.824 286.383 516.548 284.956 512.617 285.243C508.686 285.544 507.866 288.175 508.905 288.806Z" fill="#FFE9BD"/>
<path d="M505.986 297.941C508.823 297.453 511.878 297.884 511.878 297.884C508.057 294.901 505.33 296.019 505.986 297.941Z" fill="black"/>
<path d="M509.493 300.974C509.65 301.777 509.486 302.487 509.13 302.566C508.775 302.645 508.365 302.05 508.208 301.254C508.05 300.451 508.215 299.741 508.57 299.662C508.926 299.583 509.336 300.171 509.493 300.974Z" fill="black"/>
<path d="M509.096 310.625C509.014 310.625 508.932 310.575 508.898 310.489C508.857 310.374 508.912 310.245 509.014 310.202C511.031 309.37 512.125 308.28 512.138 308.273C512.22 308.187 512.357 308.194 512.432 308.28C512.514 308.366 512.507 308.51 512.425 308.588C512.377 308.639 511.263 309.743 509.165 310.61C509.151 310.618 509.124 310.625 509.096 310.625Z" fill="black"/>
<path d="M515.686 314.447C515.624 314.447 515.563 314.418 515.522 314.361C515.453 314.268 515.467 314.124 515.556 314.052C515.59 314.024 519.111 311.134 519.781 310.303C520.546 309.356 520.546 306.359 520.546 305.377C520.546 305.255 520.642 305.154 520.758 305.154C520.874 305.154 520.97 305.255 520.97 305.377C520.97 308.202 520.697 309.851 520.102 310.582C519.398 311.45 515.959 314.275 515.816 314.389C515.775 314.432 515.734 314.447 515.686 314.447Z" fill="#FFE9BD"/>
<path d="M520.314 304.186C520.226 304.186 520.144 304.129 520.116 304.036C520.082 303.921 520.144 303.799 520.253 303.763C520.902 303.548 521.265 303.154 521.265 302.659C521.265 302.2 520.957 301.727 520.574 301.591C520.308 301.498 520.061 301.598 519.87 301.878C519.815 301.949 519.727 301.999 519.645 301.985C519.357 301.935 519.098 301.225 519.098 300.702C519.098 300.178 519.316 299.26 520.814 299.002C520.93 298.981 521.032 299.067 521.053 299.182C521.073 299.303 520.991 299.411 520.882 299.433C520.144 299.562 519.699 299.87 519.562 300.358C519.446 300.766 519.576 301.211 519.686 301.433C519.973 301.139 520.335 301.046 520.704 301.175C521.258 301.368 521.689 302.021 521.682 302.666C521.675 303.362 521.203 303.914 520.376 304.186C520.356 304.179 520.335 304.186 520.314 304.186Z" fill="#FFE9BD"/>
<path d="M516.951 303.103C516.65 303.103 516.349 303.003 516.096 302.809C516.001 302.738 515.98 302.601 516.049 302.501C516.117 302.401 516.247 302.379 516.342 302.451C516.65 302.687 517.053 302.723 517.388 302.558C517.669 302.415 517.84 302.157 517.853 301.848C517.853 301.791 517.846 301.748 517.833 301.734C517.785 301.676 517.573 301.669 517.402 301.669C516.944 301.655 516.178 301.633 516.014 300.608C515.994 300.486 516.069 300.379 516.185 300.357C516.301 300.336 516.404 300.414 516.425 300.536C516.527 301.16 516.869 301.217 517.416 301.232C517.703 301.239 517.97 301.246 518.14 301.44C518.236 301.547 518.277 301.691 518.27 301.877C518.25 302.343 517.99 302.752 517.573 302.96C517.375 303.053 517.163 303.103 516.951 303.103Z" fill="black"/>
<path d="M517.02 304.315C516.767 304.315 516.445 304.258 516.056 304.086C515.946 304.036 515.898 303.907 515.946 303.799C515.994 303.684 516.117 303.634 516.22 303.684C517.026 304.05 517.437 303.799 517.457 303.785C517.553 303.72 517.683 303.749 517.744 303.849C517.806 303.95 517.778 304.086 517.683 304.151C517.669 304.158 517.443 304.315 517.02 304.315Z" fill="black"/>
<path d="M512.617 285.257C508.686 285.544 507.866 288.175 508.905 288.806C509.835 290.484 513.109 289.667 514.176 289.194C515.242 288.72 517.532 291.553 517.245 292.972C516.958 294.392 515.974 294.177 515.728 295.288C515.481 296.407 515.358 298.766 516.384 299.884C517.409 301.003 518.469 300.702 518.674 300.185C518.797 297.439 521.497 297.482 522.4 299.841C523.302 302.2 521.702 304.437 521.415 304.782C521.128 306.115 523.719 308.288 524.512 308.445C524.895 306.897 528.333 297.74 527.075 292.069C525.824 286.404 516.548 284.97 512.617 285.257Z" fill="black"/>
<path d="M515.4 321.495C514.251 321.954 514.251 323.926 514.251 323.926C512.125 326.242 489.416 355.474 488.377 355.646C487.338 355.819 483.899 356.994 483.899 356.994C483.762 357.568 484.719 366.61 484.719 366.61C485.704 366.724 507.812 370.56 517.799 370.388C527.787 370.216 531.882 367.814 532.592 367.929C535.594 368.101 535.703 363.06 535.429 361.978C535.156 360.888 535.047 345.486 533.03 336.502C531.013 327.511 527.623 322.363 527.623 322.363C526.857 319.444 526.638 318.182 525.661 317.953C524.683 317.716 517.861 318.175 515.4 321.495Z" fill="#DC5B5B"/>
<path d="M516.329 328.299H516.322C516.206 328.292 516.117 328.192 516.117 328.07C516.151 327.016 516.466 324.341 518.647 322.284C520.465 320.57 523.035 319.824 526.276 320.068C526.392 320.075 526.481 320.183 526.467 320.305C526.453 320.427 526.358 320.52 526.241 320.505C523.117 320.269 520.656 320.979 518.92 322.606C516.862 324.549 516.562 327.08 516.527 328.077C516.534 328.206 516.439 328.299 516.329 328.299Z" fill="#DEECFC"/>
<path d="M485.218 357.045C485.129 357.045 485.041 356.98 485.02 356.887C484.986 356.772 485.054 356.65 485.164 356.614C495.473 353.51 515.605 354.205 518.066 354.306C517.826 352.19 516.145 337.628 515.051 334.81C515.01 334.695 515.058 334.566 515.167 334.523C515.277 334.48 515.4 334.53 515.441 334.645C516.637 337.728 518.435 353.825 518.51 354.513C518.517 354.578 518.496 354.643 518.455 354.686C518.414 354.736 518.353 354.757 518.291 354.757C518.073 354.75 496.149 353.768 485.28 357.037C485.253 357.037 485.232 357.045 485.218 357.045Z" fill="#DEECFC"/>
<path d="M505.849 354.521C505.842 354.521 505.835 354.521 505.829 354.521C505.712 354.506 505.63 354.406 505.637 354.284C505.651 354.134 506.991 339.155 510.682 331.763C510.737 331.655 510.86 331.612 510.962 331.67C511.065 331.727 511.106 331.856 511.051 331.963C507.401 339.284 506.068 354.177 506.054 354.327C506.047 354.435 505.958 354.521 505.849 354.521Z" fill="#DEECFC"/>
<path d="M485.437 364.717C485.43 364.717 485.423 364.717 485.416 364.717C485.3 364.71 485.218 364.602 485.225 364.48C485.225 364.451 485.43 361.834 484.575 358.142C484.548 358.027 484.616 357.905 484.733 357.876C484.842 357.848 484.958 357.919 484.986 358.041C485.854 361.813 485.655 364.416 485.649 364.523C485.635 364.631 485.539 364.717 485.437 364.717Z" fill="#DEECFC"/>
<path d="M518.352 359.159C518.345 359.159 518.338 359.159 518.332 359.159C518.215 359.145 518.133 359.045 518.14 358.923C518.243 357.74 518.188 356.75 518.147 356.026C518.099 355.166 518.079 354.814 518.338 354.685C518.564 354.578 518.79 354.807 518.899 354.922C519.74 355.768 520.259 356.972 520.28 357.023C520.328 357.13 520.28 357.266 520.177 357.309C520.075 357.36 519.945 357.309 519.897 357.202C519.89 357.188 519.384 356.026 518.605 355.237C518.578 355.209 518.557 355.187 518.537 355.173C518.523 355.359 518.543 355.682 518.564 356.005C518.605 356.743 518.66 357.754 518.557 358.966C518.55 359.073 518.455 359.159 518.352 359.159Z" fill="#DEECFC"/>
<path d="M483.905 356.994C483.905 356.994 478.286 353.789 477.192 353.445C476.098 353.101 470.424 354.707 469.604 355.166C468.784 355.625 465.455 362.78 465.455 362.78C466.275 363.239 468.729 360.264 469.549 359.461C470.37 358.658 471.19 358.6 471.19 358.6C471.19 358.6 469.495 359.805 469.119 360.658C468.736 361.519 467.047 364.322 467.102 364.666C467.594 365.355 469.228 364.609 469.228 364.609C469.502 365.584 472.557 363.117 473.268 362.666C473.979 362.207 474.69 363.641 477.472 364.838C480.255 366.043 484.732 366.616 484.732 366.616L483.905 356.994Z" fill="#FFE9BD"/>
<path d="M469.344 363.87C469.303 363.87 469.269 363.856 469.235 363.835C469.139 363.77 469.105 363.634 469.167 363.533C469.508 362.96 470.657 361.06 471.047 360.837C471.416 360.622 473.453 359.626 473.535 359.583C473.638 359.533 473.767 359.576 473.815 359.69C473.863 359.798 473.815 359.934 473.713 359.984C473.692 359.991 471.607 361.017 471.252 361.225C471.053 361.339 470.199 362.637 469.529 363.77C469.481 363.835 469.413 363.87 469.344 363.87Z" fill="#FFE9BD"/>
<path d="M483.222 365.584H457.347V368.33H483.222V365.584Z" fill="black"/>
<path d="M457.347 368.33L444.742 338.703L447.285 337.936L459.05 365.505L457.347 368.33Z" fill="black"/>
<path d="M454.127 456.036C450.648 456.86 443.347 458.38 438.268 454.896C438.268 454.896 438.021 453.555 436.757 452.659C436.435 452.816 436.101 452.967 435.725 453.096C431.548 454.559 421.724 459.277 420.248 461.514H454.715C454.729 461.507 454.954 459.334 454.127 456.036Z" fill="black"/>
<path d="M248.6 446.816C248.71 448.544 244.608 456.251 245.565 461.113H276.177C275.432 458.094 263.243 453.24 260.044 451.899C256.852 450.558 255.84 446.708 255.84 446.708L248.6 446.816Z" fill="#244061"/>
<path d="M276.177 461.113C275.432 458.094 263.244 453.24 260.044 451.899C259.942 451.856 259.846 451.806 259.75 451.756C257.146 454.1 256.25 455.9 252.114 456.424C249.483 456.753 247.398 456.524 245.86 456.151C245.456 457.865 245.265 459.593 245.566 461.113H276.177Z" fill="black"/>
<path d="M263.244 447.54C263.354 449.268 259.307 456.251 260.264 461.105H290.876C290.13 458.087 277.942 453.233 274.743 451.892C271.55 450.551 270.538 446.701 270.538 446.701L263.244 447.54Z" fill="#FFE9BD"/>
<path d="M262.553 311.852C251.212 324.084 253.133 337.148 254.89 342.174C256.647 347.2 254.254 374.339 251.219 381.71C248.184 389.081 247.227 414.041 247.548 423.089C247.87 432.138 247.227 446.486 247.227 446.987C251.062 449.669 256.811 447.826 256.811 447.152C256.811 446.486 262.082 419.906 262.239 418.895C262.389 417.891 264.146 313.192 262.553 311.852Z" fill="#1B3049"/>
<path d="M266.067 301.684C266.067 301.684 265.165 303.469 264.577 305.814C258.24 314.863 252.97 327.26 256.483 338.818C259.997 350.377 262.39 382.205 260.154 393.598C257.919 404.992 262.711 447.374 262.547 448.543C269.574 449.382 271.652 448.206 271.652 448.206C271.652 448.206 276.287 395.434 279.158 386.22C282.036 377.007 288.9 327.253 287.621 318.878C286.343 310.503 285.229 308.159 285.229 308.159L284.374 302.236L266.067 301.684Z" fill="#1B3049"/>
<path d="M260.605 250.956C256.586 248.274 254.774 275.779 253.284 280.023C251.793 284.268 251.582 303.255 252.86 303.922C254.138 304.588 264.57 305.822 264.57 305.822C264.57 305.822 265.849 301.355 266.061 301.692C271.707 303.814 284.374 302.251 284.374 302.251C284.374 301.914 287.997 291.309 288.312 289.746C288.633 288.183 287.246 282.375 287.246 282.375C287.246 282.375 295.654 283.157 296.187 282.655C296.72 282.153 296.078 268.752 296.078 268.637C296.078 268.522 286.282 266.178 279.145 262.829C272.008 259.481 269.772 258.922 269.772 258.922C269.451 258.477 269.718 254.706 268.843 254.526C267.981 254.333 263.456 253.501 260.605 250.956Z" fill="#59A1F2"/>
<path d="M296.091 268.63C297.526 269.469 307.268 269.633 307.268 269.633C307.746 269.296 322.28 255.558 322.444 254.555C322.601 253.551 321.856 250.252 322.82 248.747C323.777 247.241 323.565 242.939 323.408 242.1C323.251 241.261 325.165 242.767 325.91 245.169C326.655 247.571 328.09 245.391 329.745 243.441C331.392 241.483 335.651 237.468 335.87 238.307C336.089 239.146 331.187 246.015 332.678 244.896C334.168 243.778 337.415 239.87 337.948 240.315C338.481 240.759 337.736 242.552 337.893 242.602C338.584 243.219 337.627 246.008 337.784 246.008C338.42 246.789 335.282 254.827 332.192 256.448C329.102 258.068 326.443 260.248 325.752 261.639C325.062 263.037 310.365 281.514 309.729 282.411C309.093 283.307 308.826 283.027 306.851 283.077C304.875 283.128 296.2 282.855 296.2 282.633C296.2 273.936 296.091 268.63 296.091 268.63Z" fill="#FFE9BD"/>
<path d="M264.146 220.052C252.648 220.834 253.714 231.223 254.774 234.127C255.833 237.031 255.519 237.59 253.283 238.816C251.048 240.042 253.605 243.728 255.198 244.624C255.307 243.62 255.519 243.176 255.519 243.176C255.41 244.294 260.229 244.832 261.295 246.746C261.48 247.083 263.613 249.206 264.146 249.206C264.679 249.206 277.032 243.735 278.092 244.294C279.158 244.854 282.884 242.731 282.884 242.731C281.284 241.95 280.006 240.164 282.993 237.26C285.981 234.356 284.483 230.334 281.612 227.767C278.734 225.186 275.966 215.356 264.146 220.052Z" fill="black"/>
<path d="M274.291 253.472C273.655 253.888 271.016 252.927 270.695 252.676C270.374 252.425 269.656 253.515 268.856 254.519C262.307 254.77 260.605 250.962 260.605 250.962C260.605 250.962 261.48 248.811 261.295 246.746C261.241 246.302 262.84 247.277 264.064 246.969C264.064 246.969 263.476 246.632 262.813 244.961C262.15 243.283 262.683 242.057 264.358 241.025C266.033 239.992 262.628 239.017 262.095 235.776C261.562 232.535 265.848 231.223 267.256 233.288C267.339 233.596 266.778 236.049 268.213 236.386C267.735 235.97 267.578 234.457 268.213 233.704C268.849 232.951 271.809 233.288 272.049 229.603C272.807 230.735 273.409 230.148 275.884 230.355C278.358 230.563 279.958 231.316 280.115 233.123C280.272 234.923 280.238 236.68 279.035 238.737C277.839 240.788 280.395 245.183 280.553 245.312C279.876 245.857 278.317 245.943 277.88 246.065C277.442 246.194 277.36 247.198 277.442 247.657C277.524 248.116 276.642 248.704 276.321 248.79C276.519 249.88 275.842 250.59 275.364 250.59C274.885 250.582 275.09 252.97 274.291 253.472Z" fill="#FFE9BD"/>
<path d="M276.328 248.776C276.636 248.697 277.436 248.159 277.442 247.715C275.788 246.768 273.197 246.073 273.149 246.152C273.218 248.145 274.51 249.737 275.364 250.583H275.371C275.85 250.583 276.527 249.866 276.328 248.776Z" fill="#DC5B5B"/>
<path d="M274.311 238.515C274.079 239.504 274.256 240.401 274.708 240.515C275.159 240.63 275.713 239.927 275.945 238.938C276.177 237.949 276 237.052 275.548 236.938C275.097 236.823 274.544 237.526 274.311 238.515Z" fill="black"/>
<path d="M277.483 236.845C277.422 236.845 277.353 236.809 277.319 236.752C277.305 236.737 276.205 235.167 273.477 235.167C273.477 235.167 273.375 235.167 273.368 235.167C273.279 235.167 273.197 235.102 273.17 235.009C273.142 234.916 273.183 234.816 273.265 234.765C274.14 234.22 275.077 233.912 275.829 233.912C276.43 233.912 276.895 234.106 277.223 234.486C277.627 234.952 277.777 235.683 277.688 236.651C277.681 236.737 277.62 236.816 277.538 236.838C277.517 236.845 277.504 236.845 277.483 236.845Z" fill="black"/>
<path d="M266.163 240.007C265.295 240.007 264.892 239.577 264.721 239.297C264.4 238.781 264.413 238.049 264.748 237.44C265.076 236.845 265.644 236.479 266.3 236.429C266.109 235.913 265.658 234.916 264.878 234.593C264.427 234.407 263.921 234.486 263.374 234.816C263.278 234.873 263.149 234.837 263.094 234.737C263.039 234.636 263.074 234.5 263.169 234.443C263.832 234.041 264.454 233.962 265.029 234.192C266.122 234.644 266.642 236.106 266.779 236.558C266.779 236.565 266.785 236.572 266.785 236.587C266.813 236.701 266.751 236.816 266.642 236.852C266.608 236.859 266.574 236.859 266.546 236.852C265.924 236.83 265.398 237.117 265.104 237.655C264.844 238.128 264.83 238.68 265.07 239.067C265.316 239.462 265.801 239.641 266.45 239.569C266.567 239.555 266.662 239.641 266.676 239.763C266.69 239.878 266.608 239.985 266.491 240C266.375 240 266.266 240.007 266.163 240.007Z" fill="#FFE9BD"/>
<path d="M275.884 248.697C275.85 248.697 275.809 248.689 275.781 248.668C273.58 247.284 272.65 246.115 272.616 246.065C272.548 245.972 272.555 245.836 272.644 245.764C272.733 245.692 272.862 245.7 272.931 245.793C272.938 245.807 273.86 246.954 275.993 248.302C276.089 248.36 276.123 248.496 276.062 248.596C276.021 248.661 275.959 248.697 275.884 248.697Z" fill="black"/>
<path d="M269.936 252.303C269.895 252.303 269.854 252.289 269.813 252.26C265.753 249.163 264.317 246.718 264.864 243.835C264.884 243.721 264.994 243.642 265.103 243.663C265.212 243.685 265.288 243.799 265.267 243.914C264.761 246.603 266.149 248.919 270.059 251.909C270.148 251.981 270.169 252.11 270.107 252.21C270.059 252.267 269.998 252.303 269.936 252.303Z" fill="#FFE9BD"/>
<path d="M262.868 269.067C262.779 269.067 262.69 269.003 262.67 268.903C262.656 268.831 261.118 261.811 268.822 259.101C268.931 259.065 269.048 259.122 269.082 259.237C269.116 259.352 269.061 259.474 268.952 259.51C261.61 262.091 263.005 268.53 263.073 268.802C263.1 268.917 263.032 269.032 262.923 269.06C262.902 269.067 262.888 269.067 262.868 269.067Z" fill="#DEECFC"/>
<path d="M266.279 300.788C266.265 300.788 266.259 300.788 266.245 300.788C266.136 300.767 266.06 300.659 266.074 300.544C266.388 298.472 265.213 295.267 262.485 290.75C261.966 289.897 261.412 289.022 260.817 288.09C258.288 284.139 255.423 279.658 255.423 275.779C255.423 275.664 255.512 275.563 255.628 275.563C255.738 275.563 255.833 275.657 255.833 275.779C255.833 279.529 258.664 283.953 261.152 287.853C261.747 288.785 262.307 289.66 262.827 290.52C265.609 295.124 266.805 298.422 266.477 300.609C266.464 300.709 266.375 300.788 266.279 300.788Z" fill="#DEECFC"/>
<path d="M285.441 282.361C285.434 282.361 285.427 282.361 285.427 282.361C285.359 282.353 278.851 281.78 274.298 280.002C274.196 279.959 274.141 279.837 274.175 279.729C274.216 279.622 274.333 279.564 274.435 279.6C278.933 281.357 285.386 281.93 285.455 281.93C285.564 281.937 285.653 282.045 285.639 282.16C285.639 282.274 285.55 282.361 285.441 282.361Z" fill="#DEECFC"/>
<path d="M334.209 247.958C334.175 247.958 334.141 247.951 334.107 247.93C334.011 247.872 333.97 247.743 334.032 247.636C334.093 247.521 335.542 244.811 336.506 243.685C336.581 243.599 336.711 243.592 336.793 243.671C336.875 243.75 336.882 243.886 336.807 243.972C335.877 245.055 334.401 247.815 334.387 247.844C334.353 247.923 334.285 247.958 334.209 247.958Z" fill="#FFE9BD"/>
<path d="M267.578 445.883C266.375 445.883 264.946 445.726 263.641 445.173C263.538 445.13 263.483 445.001 263.531 444.894C263.572 444.786 263.695 444.729 263.798 444.779C266.58 445.969 270.142 445.224 270.176 445.216C270.285 445.195 270.395 445.267 270.415 445.381C270.436 445.496 270.367 445.611 270.258 445.632C270.176 445.647 269.055 445.883 267.578 445.883Z" fill="#DEECFC"/>
<path d="M252.675 445.381C251.472 445.381 250.043 445.224 248.738 444.672C248.635 444.628 248.581 444.499 248.628 444.392C248.669 444.284 248.792 444.227 248.895 444.277C251.677 445.467 255.239 444.722 255.273 444.715C255.382 444.693 255.492 444.765 255.512 444.879C255.533 444.994 255.464 445.109 255.355 445.13C255.266 445.145 254.145 445.381 252.675 445.381Z" fill="#DEECFC"/>
<path d="M284.573 308.109C284.545 307.994 284.429 307.93 284.32 307.958C284.224 307.987 274.387 310.676 265.719 306.41C265.616 306.359 265.493 306.402 265.445 306.51C265.397 306.617 265.438 306.747 265.541 306.797C269.431 308.711 273.539 309.249 276.937 309.249C278.994 309.249 280.785 309.048 282.105 308.84L282.091 308.933C280.779 316.763 280.314 319.531 275.604 319.567C276.144 314.311 276.581 310.525 276.595 310.425C276.609 310.31 276.526 310.203 276.417 310.188C276.308 310.174 276.205 310.26 276.191 310.375C276.178 310.475 275.733 314.29 275.193 319.574C275.098 319.588 275.023 319.674 275.016 319.775C275.016 319.868 275.07 319.947 275.152 319.975C274.216 329.16 273.013 342.526 273.211 348.821C273.587 360.766 272.958 378.326 271.878 378.871C271.099 379.058 270.422 379.265 270.087 379.846C269.807 380.334 269.786 381.029 270.025 382.033C270.353 383.395 270.183 383.725 269.848 384.378C269.649 384.765 269.41 385.238 269.178 386.048C268.836 387.246 268.911 387.841 268.98 388.422C269.041 388.945 269.109 389.483 268.856 390.523C268.282 392.925 266.402 425.549 266.402 428.661C266.402 432.081 266.19 445.052 266.19 445.188C266.19 445.303 266.279 445.403 266.389 445.403C266.389 445.403 266.389 445.403 266.395 445.403C266.505 445.403 266.6 445.31 266.6 445.195C266.6 445.066 266.812 432.088 266.812 428.661C266.812 425.707 268.713 392.889 269.253 390.63C269.52 389.512 269.451 388.931 269.383 388.372C269.314 387.812 269.253 387.282 269.567 386.17C269.786 385.403 270.018 384.944 270.21 384.579C270.572 383.876 270.784 383.453 270.422 381.926C270.21 381.051 270.217 380.441 270.436 380.061C270.695 379.624 271.256 379.452 271.974 379.28C273.751 378.85 273.84 355.755 273.621 348.8C273.423 342.518 274.626 329.16 275.563 319.983C280.662 319.961 281.175 316.899 282.501 308.991L282.542 308.754C283.711 308.553 284.408 308.36 284.436 308.353C284.538 308.338 284.607 308.224 284.573 308.109Z" fill="#DEECFC"/>
<path d="M290.875 461.113C290.13 458.094 277.941 453.24 274.742 451.899C274.64 451.856 274.544 451.806 274.448 451.756C271.844 454.1 270.948 455.9 266.812 456.424C264.18 456.753 262.095 456.524 260.557 456.151C260.154 457.865 259.963 459.593 260.263 461.113H290.875Z" fill="black"/>
<path d="M437.139 89.111L433.81 91.8715L421.252 75.2009L424.582 72.4404L437.139 89.111ZM433.892 91.1258L436.435 89.0178L424.506 73.179L421.963 75.287L433.892 91.1258Z" fill="#1B3049"/>
<path d="M425.054 72.7269L421.41 75.7455L420.877 71.1064L425.054 72.7269ZM421.8 74.7417L424.028 72.8918L421.465 71.8952L421.8 74.7417Z" fill="#1B3049"/>
<path d="M437.14 89.1105L433.811 91.871L431.179 88.3792L434.508 85.6187L437.14 89.1105ZM433.893 91.1253L436.436 89.0173L434.426 86.35L431.883 88.458L433.893 91.1253Z" fill="#1B3049"/>
<path d="M38.6375 362.845L35.3084 365.606L22.7505 348.935L26.0797 346.175L38.6375 362.845ZM35.3835 364.86L37.9266 362.752L25.9976 346.913L23.4546 349.021L35.3835 364.86Z" fill="#1B3049"/>
<path d="M26.5449 346.462L22.9012 349.48L22.3682 344.841L26.5449 346.462ZM23.2978 348.477L25.5263 346.627L22.9628 345.63L23.2978 348.477Z" fill="#1B3049"/>
<path d="M38.6378 362.845L35.3087 365.606L32.6768 362.114L36.006 359.354L38.6378 362.845ZM35.3838 364.86L37.9268 362.752L35.9171 360.085L33.3741 362.193L35.3838 364.86Z" fill="#1B3049"/>
<path d="M631.736 441.904L628.406 444.664L615.849 427.994L619.178 425.233L631.736 441.904ZM628.489 443.919L631.032 441.811L619.103 425.972L616.56 428.08L628.489 443.919Z" fill="#1B3049"/>
<path d="M619.65 425.52L616.006 428.538L615.473 423.899L619.65 425.52ZM616.402 427.535L618.631 425.685L616.067 424.688L616.402 427.535Z" fill="#1B3049"/>
<path d="M631.735 441.904L628.406 444.664L625.774 441.173L629.103 438.412L631.735 441.904ZM628.488 443.919L631.031 441.811L629.022 439.143L626.479 441.252L628.488 443.919Z" fill="#1B3049"/>
<path d="M663.045 213.312H638.886V184.029L643.836 178.838H663.045V213.312ZM639.741 212.409H662.19V179.727H644.191L639.741 184.395V212.409Z" fill="#1B3049"/>
<path d="M645.962 186.367H640.589V185.47H645.101V180.731H645.962V186.367Z" fill="#1B3049"/>
<path d="M389.541 190.891C389.52 190.776 387.627 179.118 388.891 154.037L389.924 154.094C388.659 179.025 390.539 190.583 390.559 190.698L389.541 190.891Z" fill="#1B3049"/>
<path d="M389.301 182.566L388.959 182.251C388.61 181.928 380.353 174.156 380.353 164.376C380.353 162.762 380.585 161.092 381.05 159.4L381.193 158.883L384.933 159.966C384.133 159.113 383.101 158.016 382.185 157.077L381.925 156.811L382.068 156.467C384.543 150.638 388.775 146.673 388.952 146.501L389.294 146.185L389.636 146.501C389.875 146.723 395.508 152.014 397.532 159.357L397.6 159.593L397.47 159.801C395.481 162.999 393.888 165.587 392.863 167.28C393.847 166.52 395.296 165.401 397.415 163.773L398.229 163.142L398.243 164.369C398.243 174.149 389.985 181.921 389.636 182.244L389.301 182.566ZM381.911 160.21C381.563 161.63 381.385 163.028 381.385 164.369C381.385 172.557 387.742 179.505 389.301 181.097C390.805 179.569 396.739 173.08 397.19 165.301C391.646 169.581 391.461 169.71 391.4 169.753L391.051 169.997L390.743 169.689C390.354 169.287 390.354 169.28 396.479 159.421C394.77 153.513 390.531 148.903 389.301 147.648C388.269 148.687 385.158 152.065 383.169 156.56C384.926 158.374 386.984 160.611 387.011 160.633L388.323 162.06L381.911 160.21Z" fill="#1B3049"/>
<path d="M588.327 95.6931C588.368 95.6142 592.764 87.8561 605.315 73.9316L605.889 74.4981C593.406 88.3437 589.052 96.0372 589.004 96.1089L588.327 95.6931Z" fill="#1B3049"/>
<path d="M592.114 90.7241L592.066 90.3584C592.019 89.9855 590.877 81.1878 595.484 75.5018C596.243 74.5625 597.173 73.7165 598.239 72.9708L598.568 72.7413L600.235 75.3082C600.174 74.3976 600.092 73.2217 599.996 72.2036L599.969 71.9168L600.215 71.7949C604.405 69.6868 608.733 69.5721 608.917 69.5721L609.266 69.5649L609.314 69.9306C609.348 70.1816 610.127 76.1758 607.851 81.5032L607.776 81.6753L607.605 81.7327C604.939 82.5644 602.799 83.2384 601.404 83.6973C602.334 83.769 603.708 83.8694 605.704 84.0128L606.477 84.0702L605.909 84.7944C601.302 90.4803 592.839 90.7169 592.477 90.7241H592.114ZM598.356 73.8957C597.487 74.541 596.722 75.258 596.093 76.0396C592.237 80.8006 592.654 88.1356 592.812 89.8708C594.404 89.7633 600.919 89.0678 604.843 84.78C599.6 84.3928 599.436 84.3713 599.381 84.3641L599.06 84.3283L599.025 83.9913C598.991 83.5539 598.991 83.5539 607.201 80.9942C608.992 76.6706 608.699 71.7949 608.575 70.4254C607.489 70.4971 604.084 70.8412 600.81 72.4258C600.974 74.3905 601.117 76.7638 601.124 76.7853L601.213 78.2982L598.356 73.8957Z" fill="#1B3049"/>
<path d="M168.215 234.859C165.365 234.859 163.047 232.428 163.047 229.438V228.069C163.047 225.66 162.2 223.322 160.607 221.3C159.028 219.3 158.228 216.769 158.358 214.166C158.618 208.917 162.74 204.608 167.751 204.364C170.478 204.228 173.069 205.246 175.038 207.218C177.007 209.19 178.094 211.85 178.094 214.711C178.094 217.17 177.253 219.558 175.728 221.429C174.218 223.279 173.39 225.53 173.39 227.775V229.438C173.384 232.428 171.066 234.859 168.215 234.859ZM168.215 205.483C168.072 205.483 167.935 205.49 167.792 205.49C163.335 205.705 159.657 209.541 159.424 214.216C159.308 216.532 160.019 218.79 161.427 220.576C163.164 222.77 164.114 225.43 164.114 228.069V229.438C164.114 231.804 165.953 233.733 168.209 233.733C170.465 233.733 172.303 231.804 172.303 229.438V227.775C172.303 225.265 173.226 222.748 174.901 220.698C176.262 219.034 177.007 216.905 177.007 214.711C177.007 212.165 176.036 209.792 174.279 208.035C172.632 206.379 170.492 205.483 168.215 205.483Z" fill="#1B3049"/>
<path d="M168.755 194.777H167.675V202.005H168.755V194.777Z" fill="#1B3049"/>
<path d="M181.258 200.27L176.386 205.381L177.149 206.182L182.022 201.071L181.258 200.27Z" fill="#1B3049"/>
<path d="M187.22 214.38H180.329V215.513H187.22V214.38Z" fill="#1B3049"/>
<path d="M155.046 200.199L154.283 201L159.155 206.111L159.919 205.309L155.046 200.199Z" fill="#1B3049"/>
<path d="M155.876 214.144H148.985V215.277H155.876V214.144Z" fill="#1B3049"/>
<path d="M172.098 225.688H164.209V226.821H172.098V225.688Z" fill="#1B3049"/>
<path d="M171.661 229.065H164.544V230.198H171.661V229.065Z" fill="#1B3049"/>
<path d="M609.423 202.557H608.282V206.593H609.423V202.557Z" fill="#1B3049"/>
<path d="M609.423 209.504H608.282V213.541H609.423V209.504Z" fill="#1B3049"/>
<path d="M614.085 207.447H610.237V208.644H614.085V207.447Z" fill="#1B3049"/>
<path d="M607.468 207.447H603.619V208.644H607.468V207.447Z" fill="#1B3049"/>
<path d="M263.893 163.429H262.752V167.466H263.893V163.429Z" fill="#1B3049"/>
<path d="M263.894 170.37H262.752V174.406H263.894V170.37Z" fill="#1B3049"/>
<path d="M268.556 168.319H264.707V169.517H268.556V168.319Z" fill="#1B3049"/>
<path d="M261.939 168.319H258.09V169.517H261.939V168.319Z" fill="#1B3049"/>
<path d="M416.085 260.563H414.943V264.6H416.085V260.563Z" fill="#1B3049"/>
<path d="M416.085 267.511H414.943V271.548H416.085V267.511Z" fill="#1B3049"/>
<path d="M420.747 265.46H416.898V266.658H420.747V265.46Z" fill="#1B3049"/>
<path d="M414.129 265.46H410.281V266.658H414.129V265.46Z" fill="#1B3049"/>
<path d="M226.828 417.711H225.687V421.748H226.828V417.711Z" fill="#1B3049"/>
<path d="M226.828 424.659H225.687V428.696H226.828V424.659Z" fill="#1B3049"/>
<path d="M231.498 422.608H227.649V423.806H231.498V422.608Z" fill="#1B3049"/>
<path d="M224.873 422.608H221.024V423.806H224.873V422.608Z" fill="#1B3049"/>
<path d="M623.574 90.645H622.432V94.6818H623.574V90.645Z" fill="#1B3049"/>
<path d="M623.574 97.5854H622.432V101.622H623.574V97.5854Z" fill="#1B3049"/>
<path d="M628.236 95.5352H624.387V96.7326H628.236V95.5352Z" fill="#1B3049"/>
<path d="M621.611 95.5352H617.763V96.7326H621.611V95.5352Z" fill="#1B3049"/>
</svg>
