<svg width="686" height="470" viewBox="0 0 686 470" fill="none" xmlns="http://www.w3.org/2000/svg">
<path d="M299.724 74.6007C124.941 51.5229 -4.69183 265.346 154.949 456.092H545.787C676.249 386.896 607.988 264.748 531.475 247.898C454.962 231.048 463.768 96.2638 299.724 74.6007Z" fill="#DEECFC"/>
<path d="M70.2118 81.2559C70.116 81.2559 70.027 81.226 69.9448 81.1661C69.7257 81.0013 69.6641 80.6794 69.8148 80.4324C70.3558 79.5564 70.9241 78.6805 71.4994 77.8345C71.6569 77.6024 71.9582 77.55 72.1704 77.7297C72.3827 77.9019 72.4306 78.2313 72.2662 78.4633C71.6979 79.3019 71.1432 80.1629 70.6091 81.0239C70.5201 81.1736 70.3625 81.2559 70.2118 81.2559Z" fill="#1B3049"/>
<path d="M75.1622 74.2569C75.0458 74.2569 74.9363 74.212 74.8404 74.1221C74.6418 73.9275 74.6214 73.5982 74.7994 73.3811C75.9499 71.9513 77.1756 70.5591 78.4356 69.2417C78.6274 69.0395 78.9355 69.047 79.1204 69.2566C79.3053 69.4661 79.2984 69.803 79.1067 70.0051C77.8672 71.3001 76.662 72.67 75.532 74.0773C75.4293 74.197 75.2923 74.2569 75.1622 74.2569ZM82.6747 66.3896C82.5309 66.3896 82.3939 66.3223 82.298 66.195C82.1336 65.9704 82.1609 65.6336 82.3664 65.4539C83.7223 64.2563 85.1399 63.1035 86.578 62.0331C86.7971 61.8684 87.0984 61.9283 87.2491 62.1753C87.3998 62.4148 87.3382 62.7442 87.119 62.9089C85.7015 63.9643 84.3044 65.0946 82.9691 66.2698C82.8869 66.3522 82.7774 66.3896 82.6747 66.3896ZM91.2825 60.0045C91.1113 60.0045 90.9471 59.9072 90.8649 59.735C90.7348 59.4805 90.817 59.1587 91.0498 59.0164C92.5701 58.0807 94.145 57.205 95.7269 56.419C95.9666 56.2992 96.2543 56.4115 96.3639 56.681C96.4734 56.9429 96.3706 57.2573 96.1241 57.3771C94.5628 58.1556 93.0151 59.0164 91.5223 59.9371C91.4401 59.982 91.3578 60.0045 91.2825 60.0045ZM100.747 55.2887C100.548 55.2887 100.363 55.1539 100.295 54.9369C100.206 54.6599 100.336 54.3605 100.589 54.2632C102.233 53.6194 103.917 53.0505 105.602 52.5639C105.855 52.4891 106.122 52.6538 106.191 52.9382C106.259 53.2227 106.102 53.5071 105.848 53.5819C104.191 54.061 102.534 54.6224 100.918 55.2512C100.856 55.2737 100.801 55.2887 100.747 55.2887Z" fill="#1B3049"/>
<path d="M110.813 52.3765C110.58 52.3765 110.382 52.1969 110.341 51.9423C110.293 51.6578 110.471 51.3808 110.731 51.3284C111.683 51.1487 112.655 50.9839 113.614 50.8492C113.874 50.8118 114.121 51.0139 114.155 51.3059C114.189 51.5979 114.004 51.8599 113.737 51.8974C112.792 52.0321 111.834 52.1893 110.902 52.369C110.868 52.3765 110.841 52.3765 110.813 52.3765Z" fill="#1B3049"/>
<path d="M138.459 53.9107C138.418 53.9107 138.37 53.9033 138.329 53.8883C137.411 53.6038 136.473 53.3417 135.549 53.1022C135.288 53.0348 135.131 52.7503 135.186 52.4658C135.247 52.1813 135.507 52.0091 135.768 52.069C136.706 52.3086 137.658 52.5781 138.589 52.8626C138.842 52.945 138.993 53.2295 138.925 53.514C138.863 53.761 138.664 53.9107 138.459 53.9107Z" fill="#1B3049"/>
<path d="M122.422 186.629C122.162 186.629 121.943 186.397 121.943 186.112C121.936 185.821 122.155 185.581 122.415 185.581C124.36 185.551 126.319 185.424 128.236 185.199C128.496 185.169 128.736 185.379 128.77 185.663C128.798 185.955 128.606 186.21 128.346 186.247C126.394 186.479 124.408 186.606 122.436 186.636C122.429 186.629 122.422 186.629 122.422 186.629ZM116.547 186.419C116.533 186.419 116.519 186.419 116.505 186.419C114.54 186.247 112.561 185.97 110.63 185.596C110.37 185.544 110.192 185.274 110.24 184.982C110.287 184.698 110.534 184.503 110.801 184.555C112.705 184.922 114.65 185.199 116.588 185.364C116.855 185.386 117.053 185.641 117.033 185.933C117.005 186.21 116.8 186.419 116.547 186.419ZM134.098 185.244C133.872 185.244 133.673 185.072 133.625 184.825C133.571 184.54 133.742 184.263 134.002 184.204C135.899 183.777 137.803 183.245 139.652 182.624C139.905 182.534 140.179 182.692 140.254 182.976C140.33 183.253 140.193 183.552 139.932 183.635C138.049 184.271 136.118 184.81 134.194 185.244C134.16 185.244 134.132 185.244 134.098 185.244ZM104.98 184.181C104.939 184.181 104.891 184.174 104.85 184.159C102.953 183.582 101.063 182.901 99.221 182.13C98.9745 182.025 98.8513 181.718 98.9471 181.449C99.043 181.179 99.3237 181.037 99.5702 181.15C101.378 181.906 103.241 182.579 105.11 183.148C105.364 183.223 105.514 183.515 105.446 183.799C105.391 184.024 105.192 184.181 104.98 184.181ZM145.322 181.471C145.13 181.471 144.952 181.352 144.877 181.15C144.774 180.88 144.891 180.573 145.137 180.461C146.924 179.645 148.698 178.732 150.41 177.736C150.643 177.601 150.937 177.699 151.061 177.953C151.184 178.208 151.095 178.53 150.862 178.664C149.123 179.675 147.322 180.611 145.507 181.434C145.445 181.456 145.384 181.471 145.322 181.471ZM94.0164 179.578C93.9411 179.578 93.8727 179.563 93.8043 179.525C92.0443 178.567 90.3049 177.504 88.634 176.366C88.408 176.209 88.3395 175.887 88.4765 175.64C88.6203 175.393 88.9147 175.318 89.1407 175.468C90.7842 176.591 92.503 177.639 94.2356 178.582C94.4753 178.709 94.5712 179.031 94.4548 179.286C94.3658 179.473 94.1945 179.578 94.0164 179.578ZM155.69 175.431C155.532 175.431 155.382 175.348 155.286 175.191C155.142 174.951 155.197 174.622 155.423 174.457C157.039 173.29 158.621 172.017 160.127 170.685C160.333 170.505 160.641 170.535 160.805 170.767C160.97 170.992 160.942 171.329 160.737 171.508C159.203 172.863 157.6 174.151 155.957 175.333C155.875 175.401 155.779 175.431 155.69 175.431ZM84.0458 172.788C83.9431 172.788 83.8403 172.751 83.7512 172.683C82.1899 171.381 80.6629 169.974 79.2179 168.514C79.0193 168.319 79.0124 167.983 79.1905 167.773C79.3685 167.556 79.6767 167.548 79.8684 167.743C81.2928 169.18 82.7926 170.565 84.3334 171.853C84.5457 172.032 84.5867 172.362 84.4223 172.594C84.3333 172.721 84.1896 172.788 84.0458 172.788ZM164.825 167.361C164.702 167.361 164.572 167.309 164.483 167.204C164.298 166.994 164.298 166.665 164.49 166.456C165.873 164.973 167.215 163.401 168.461 161.785C168.633 161.56 168.941 161.537 169.139 161.725C169.345 161.912 169.365 162.249 169.194 162.466C167.92 164.105 166.565 165.699 165.161 167.212C165.065 167.309 164.948 167.361 164.825 167.361ZM75.4241 164.068C75.294 164.068 75.157 164.008 75.0611 163.895C73.7463 162.294 72.4931 160.602 71.3221 158.865C71.1646 158.633 71.2125 158.304 71.4248 158.132C71.6371 157.959 71.9384 158.012 72.0959 158.244C73.2463 159.951 74.4791 161.612 75.7733 163.192C75.9514 163.409 75.9308 163.738 75.7322 163.933C75.6569 164.023 75.5405 164.068 75.4241 164.068ZM172.413 157.555C172.317 157.555 172.221 157.525 172.139 157.458C171.92 157.293 171.865 156.964 172.016 156.724C173.125 154.988 174.166 153.169 175.118 151.32C175.248 151.065 175.542 150.975 175.775 151.118C176.008 151.26 176.09 151.582 175.96 151.836C174.994 153.708 173.933 155.557 172.81 157.323C172.714 157.48 172.563 157.555 172.413 157.555ZM68.4597 153.73C68.2953 153.73 68.1378 153.64 68.0487 153.476C67.0352 151.627 66.097 149.71 65.2478 147.772C65.1314 147.51 65.2342 147.195 65.4739 147.068C65.7136 146.941 66.0011 147.053 66.1176 147.315C66.953 149.224 67.8775 151.118 68.8773 152.937C69.0143 153.184 68.939 153.513 68.713 153.663C68.6308 153.708 68.5419 153.73 68.4597 153.73ZM178.172 146.364C178.103 146.364 178.042 146.349 177.973 146.319C177.727 146.2 177.617 145.893 177.727 145.623C178.514 143.685 179.22 141.686 179.829 139.672C179.911 139.395 180.185 139.246 180.439 139.336C180.692 139.425 180.829 139.725 180.747 140.002C180.124 142.045 179.405 144.074 178.61 146.043C178.528 146.245 178.35 146.364 178.172 146.364ZM63.4058 142.143C63.2072 142.143 63.0223 142.008 62.9538 141.798C62.2827 139.777 61.6869 137.696 61.1939 135.615C61.1254 135.331 61.2829 135.046 61.5431 134.971C61.8033 134.897 62.0636 135.069 62.1321 135.353C62.6183 137.404 63.2003 139.455 63.8645 141.439C63.9535 141.716 63.8235 142.015 63.577 142.113C63.5153 142.128 63.4605 142.143 63.4058 142.143ZM181.877 134.186C181.842 134.186 181.801 134.178 181.767 134.171C181.507 134.103 181.343 133.826 181.404 133.542C181.836 131.483 182.185 129.372 182.438 127.269C182.472 126.977 182.712 126.782 182.979 126.812C183.246 126.85 183.431 127.112 183.397 127.404C183.144 129.537 182.787 131.685 182.349 133.781C182.294 134.021 182.096 134.186 181.877 134.186ZM60.4611 129.709C60.2282 129.709 60.0228 129.522 59.9886 129.267C59.6804 127.149 59.4613 124.978 59.3381 122.83C59.3244 122.538 59.5229 122.291 59.79 122.269C60.0571 122.246 60.283 122.471 60.3036 122.763C60.4268 124.881 60.6393 127.014 60.9474 129.103C60.9885 129.387 60.8104 129.657 60.5502 129.709C60.5091 129.709 60.4885 129.709 60.4611 129.709ZM183.404 121.453C183.397 121.453 183.39 121.453 183.383 121.453C183.116 121.445 182.911 121.198 182.918 120.906C182.945 120.098 182.959 119.282 182.959 118.466C182.959 117.156 182.924 115.831 182.856 114.529C182.842 114.237 183.041 113.99 183.308 113.975C183.582 113.967 183.801 114.177 183.815 114.469C183.883 115.794 183.917 117.141 183.917 118.473C183.917 119.297 183.904 120.128 183.876 120.951C183.876 121.228 183.664 121.453 183.404 121.453ZM182.719 108.637C182.486 108.637 182.281 108.45 182.246 108.188C181.952 106.092 181.562 103.989 181.089 101.938C181.021 101.653 181.178 101.369 181.438 101.294C181.699 101.219 181.959 101.391 182.027 101.676C182.514 103.764 182.904 105.898 183.205 108.024C183.246 108.308 183.068 108.578 182.801 108.622C182.767 108.637 182.746 108.637 182.719 108.637ZM179.836 96.1891C179.637 96.1891 179.453 96.0543 179.384 95.8372C178.733 93.846 177.98 91.8624 177.158 89.9461C177.042 89.6841 177.151 89.3698 177.391 89.2425C177.631 89.1152 177.919 89.235 178.035 89.497C178.87 91.4432 179.63 93.4568 180.295 95.4779C180.384 95.7549 180.254 96.0543 180 96.1516C179.946 96.1815 179.891 96.1891 179.836 96.1891ZM174.844 84.5715C174.679 84.5715 174.515 84.4817 174.426 84.3096C173.44 82.4906 172.358 80.694 171.221 78.9873C171.064 78.7552 171.112 78.4259 171.324 78.2537C171.536 78.0816 171.837 78.134 171.995 78.366C173.152 80.1027 174.248 81.9291 175.255 83.778C175.392 84.0251 175.316 84.3545 175.083 84.4967C175.008 84.5491 174.926 84.5715 174.844 84.5715ZM167.927 74.1966C167.797 74.1966 167.66 74.1368 167.564 74.017C166.284 72.4301 164.914 70.8955 163.497 69.4433C163.305 69.2412 163.291 68.9118 163.476 68.6947C163.661 68.4851 163.962 68.4702 164.161 68.6723C165.599 70.1395 166.989 71.7039 168.29 73.3133C168.468 73.5304 168.448 73.8672 168.249 74.0544C168.153 74.1592 168.037 74.1966 167.927 74.1966ZM159.347 65.4236C159.244 65.4236 159.141 65.3862 159.052 65.3114C157.518 64.0164 155.909 62.7887 154.272 61.6584C154.046 61.5012 153.978 61.1793 154.122 60.9323C154.265 60.6852 154.56 60.6104 154.786 60.7676C156.45 61.9129 158.087 63.163 159.641 64.4805C159.853 64.6601 159.888 64.9895 159.73 65.2215C159.634 65.3563 159.491 65.4236 159.347 65.4236ZM149.403 58.5744C149.328 58.5744 149.26 58.5594 149.184 58.5145C147.452 57.5563 145.657 56.688 143.856 55.917C143.61 55.8122 143.487 55.5053 143.583 55.2358C143.678 54.9663 143.959 54.8317 144.206 54.9365C146.041 55.715 147.863 56.6057 149.623 57.5788C149.862 57.706 149.958 58.028 149.835 58.29C149.753 58.4696 149.581 58.5744 149.403 58.5744Z" fill="#1B3049"/>
<path d="M59.7204 116.797C59.7135 116.797 59.7067 116.797 59.7067 116.797C59.4396 116.789 59.234 116.542 59.2409 116.25C59.2751 115.195 59.3232 114.124 59.3985 113.068C59.4191 112.776 59.6519 112.567 59.919 112.582C60.1861 112.604 60.3846 112.859 60.3641 113.151C60.2887 114.191 60.234 115.24 60.2066 116.28C60.1929 116.572 59.9806 116.797 59.7204 116.797Z" fill="#1B3049"/>
<path d="M70.2118 81.2559C70.116 81.2559 70.027 81.226 69.9448 81.1661C69.7257 81.0013 69.6641 80.6794 69.8148 80.4324C70.3558 79.5564 70.9241 78.6805 71.4994 77.8345C71.6569 77.6024 71.9582 77.55 72.1704 77.7297C72.3827 77.9019 72.4306 78.2313 72.2662 78.4633C71.6979 79.3019 71.1432 80.1629 70.6091 81.0239C70.5201 81.1736 70.3625 81.2559 70.2118 81.2559Z" fill="#1B3049"/>
<path d="M75.1622 74.2569C75.0458 74.2569 74.9363 74.212 74.8404 74.1221C74.6418 73.9275 74.6214 73.5982 74.7994 73.3811C75.9499 71.9513 77.1756 70.5591 78.4356 69.2417C78.6274 69.0395 78.9355 69.047 79.1204 69.2566C79.3053 69.4661 79.2984 69.803 79.1067 70.0051C77.8672 71.3001 76.662 72.67 75.532 74.0773C75.4293 74.197 75.2923 74.2569 75.1622 74.2569ZM82.6747 66.3896C82.5309 66.3896 82.3939 66.3223 82.298 66.195C82.1336 65.9704 82.1609 65.6336 82.3664 65.4539C83.7223 64.2563 85.1399 63.1035 86.578 62.0331C86.7971 61.8684 87.0984 61.9283 87.2491 62.1753C87.3998 62.4148 87.3382 62.7442 87.119 62.9089C85.7015 63.9643 84.3044 65.0946 82.9691 66.2698C82.8869 66.3522 82.7774 66.3896 82.6747 66.3896ZM91.2825 60.0045C91.1113 60.0045 90.9471 59.9072 90.8649 59.735C90.7348 59.4805 90.817 59.1587 91.0498 59.0164C92.5701 58.0807 94.145 57.205 95.7269 56.419C95.9666 56.2992 96.2543 56.4115 96.3639 56.681C96.4734 56.9429 96.3706 57.2573 96.1241 57.3771C94.5628 58.1556 93.0151 59.0164 91.5223 59.9371C91.4401 59.982 91.3578 60.0045 91.2825 60.0045ZM100.747 55.2887C100.548 55.2887 100.363 55.1539 100.295 54.9369C100.206 54.6599 100.336 54.3605 100.589 54.2632C102.233 53.6194 103.917 53.0505 105.602 52.5639C105.855 52.4891 106.122 52.6538 106.191 52.9382C106.259 53.2227 106.102 53.5071 105.848 53.5819C104.191 54.061 102.534 54.6224 100.918 55.2512C100.856 55.2737 100.801 55.2887 100.747 55.2887Z" fill="#1B3049"/>
<path d="M110.813 52.3765C110.58 52.3765 110.382 52.1969 110.341 51.9423C110.293 51.6578 110.471 51.3808 110.731 51.3284C111.683 51.1487 112.655 50.9839 113.614 50.8492C113.874 50.8118 114.121 51.0139 114.155 51.3059C114.189 51.5979 114.004 51.8599 113.737 51.8974C112.792 52.0321 111.834 52.1893 110.902 52.369C110.868 52.3765 110.841 52.3765 110.813 52.3765Z" fill="#1B3049"/>
<path d="M130.728 63.1702L123.079 57.0919L115.429 63.1702L118.353 53.3418L110.704 47.2635H120.161L123.085 37.4351L126.009 47.2635H135.467L127.817 53.3418L130.728 63.1702ZM123.072 55.7894L128.886 60.408L126.667 52.93L132.481 48.3114H125.29L123.072 40.8334L120.853 48.3114H113.662L119.476 52.93L117.258 60.408L123.072 55.7894Z" fill="#1B3049"/>
<path d="M60.7821 107.53C59.0222 107.53 57.591 105.966 57.591 104.042V103.159C57.591 101.609 57.0706 100.105 56.0845 98.8021C55.112 97.5146 54.6121 95.8827 54.6943 94.2059C54.8518 90.8225 57.3992 88.0528 60.4945 87.8956C62.1792 87.8133 63.7817 88.4646 65.0006 89.7296C66.2196 91.0022 66.8907 92.7163 66.8907 94.5577C66.8907 96.1447 66.3701 97.6792 65.4251 98.8844C64.4938 100.075 63.9803 101.527 63.9803 102.971V104.042C63.9803 105.958 62.5421 107.53 60.7821 107.53ZM60.789 88.6143C60.6999 88.6143 60.611 88.6143 60.5288 88.6218C57.7759 88.764 55.5023 91.2341 55.3585 94.2433C55.29 95.7329 55.7284 97.1927 56.5981 98.338C57.6664 99.7527 58.2621 101.467 58.2621 103.166V104.049C58.2621 105.576 59.3988 106.812 60.789 106.812C62.1791 106.812 63.316 105.569 63.316 104.049V102.979C63.316 101.362 63.8843 99.7452 64.9183 98.4203C65.7607 97.3499 66.2196 95.98 66.2196 94.5652C66.2196 92.9259 65.6238 91.3989 64.535 90.2686C63.5146 89.1906 62.1928 88.6143 60.789 88.6143Z" fill="#1B3049"/>
<path d="M61.119 81.7192H60.4536V86.3761H61.119V81.7192Z" fill="#1B3049"/>
<path d="M68.8622 85.2978L65.8501 88.5903L66.3198 89.1038L69.332 85.8112L68.8622 85.2978Z" fill="#1B3049"/>
<path d="M72.5265 94.3398H68.2671V95.0676H72.5265V94.3398Z" fill="#1B3049"/>
<path d="M52.6355 85.2188L52.166 85.7324L55.1769 89.0261L55.6464 88.5125L52.6355 85.2188Z" fill="#1B3049"/>
<path d="M53.1598 94.1899H48.9004V94.9176H53.1598V94.1899Z" fill="#1B3049"/>
<path d="M63.1858 101.623H58.3101V102.351H63.1858V101.623Z" fill="#1B3049"/>
<path d="M62.912 103.794H58.5156V104.522H62.912V103.794Z" fill="#1B3049"/>
<path d="M93.9609 88.853H92.9131V92.7237H93.9609V88.853Z" fill="#1B3049"/>
<path d="M93.9609 95.5151H92.9131V99.3857H93.9609V95.5151Z" fill="#1B3049"/>
<path d="M98.2544 93.5474H94.7139V94.6929H98.2544V93.5474Z" fill="#1B3049"/>
<path d="M92.1664 93.5474H88.626V94.6929H92.1664V93.5474Z" fill="#1B3049"/>
<path d="M47.4212 270.459C54.1597 278.184 64.4728 279.381 64.4728 279.381C64.4728 279.381 63.8564 268.063 57.1111 260.346C50.3727 252.621 42.7372 248.631 40.0596 251.423C37.382 254.215 40.6828 262.741 47.4212 270.459Z" fill="#1B3049"/>
<path d="M107.274 384.358C107.787 384.186 108.116 383.617 108.013 383.026C101.193 342.432 87.6265 313.478 77.4435 296.336C66.384 277.72 57.0774 268.857 56.6871 268.49C56.242 268.071 55.5641 268.123 55.1806 268.61C54.7971 269.096 54.8451 269.837 55.2903 270.256C55.3861 270.346 64.8089 279.329 75.7041 297.698C85.757 314.646 99.1587 343.285 105.911 383.445C106.02 384.081 106.575 384.5 107.157 384.381C107.198 384.381 107.239 384.366 107.274 384.358Z" fill="#1B3049"/>
<path d="M60.3228 303.911C69.7388 306.748 79.148 301.988 79.148 301.988C79.148 301.988 73.2997 292.623 63.8837 289.794C54.4677 286.957 46.0446 287.818 45.0585 291.717C44.0724 295.617 50.9067 301.074 60.3228 303.911Z" fill="#1B3049"/>
<path d="M90.0848 297.331C85.6883 306.86 88.1126 317.887 88.1126 317.887C88.1126 317.887 97.6587 313.455 102.055 303.926C106.452 294.397 107.335 285.19 104.027 283.371C100.727 281.552 94.4812 287.802 90.0848 297.331Z" fill="#1B3049"/>
<path d="M16.4206 350.21C26.0626 351.909 34.9444 346.063 34.9444 346.063C34.9444 346.063 28.1991 337.454 18.5571 335.748C8.91505 334.048 0.622056 335.905 0.0331251 339.895C-0.555805 343.892 6.77855 348.51 16.4206 350.21Z" fill="#1B3049"/>
<path d="M127.065 401.448C127.38 400.977 127.325 400.303 126.921 399.899C99.0493 372.053 72.2393 357.935 54.6535 351.003C35.5544 343.473 23.2349 342.552 22.7212 342.515C22.1323 342.477 21.6255 342.964 21.5844 343.608C21.5501 344.251 21.9954 344.805 22.5843 344.85C22.7076 344.858 35.1846 345.801 54.0167 353.241C71.397 360.106 97.9058 374.081 125.476 401.628C125.914 402.062 126.592 402.032 126.989 401.553C127.017 401.515 127.037 401.486 127.065 401.448Z" fill="#1B3049"/>
<path d="M45.1896 368.355C54.2564 364.402 59.1252 354.387 59.1252 354.387C59.1252 354.387 49.2915 350.794 40.2179 354.746C31.1443 358.698 24.9056 364.956 26.2821 368.714C27.6517 372.472 36.1159 372.307 45.1896 368.355Z" fill="#1B3049"/>
<path d="M65.2671 343.45C67.0339 353.945 75.053 361.131 75.053 361.131C75.053 361.131 80.2164 351.295 78.4496 340.8C76.6828 330.305 72.3069 322.386 68.6637 323.119C65.0274 323.853 63.5072 332.955 65.2671 343.45Z" fill="#1B3049"/>
<path d="M84.6264 391.881C93.7685 388.131 98.8292 378.235 98.8292 378.235C98.8292 378.235 89.064 374.418 79.9219 378.16C70.7798 381.911 64.418 388.019 65.7191 391.806C67.0202 395.594 75.4843 395.632 84.6264 391.881Z" fill="#1B3049"/>
<path d="M149.505 353.817V311.12H120.196V353.817C101.151 360.569 87.373 380.114 87.373 403.184C87.373 431.846 108.629 455.081 134.85 455.081C161.072 455.081 182.328 431.846 182.328 403.184C182.328 380.114 168.556 360.569 149.505 353.817Z" fill="#1B3049"/>
<path d="M116.546 364.073H134.022C110.903 378.969 108.424 404.839 108.424 404.839C104.849 384.531 115.032 365.578 116.546 364.073Z" fill="black"/>
<path d="M132.577 239.365H123.496V311.113H132.577V239.365Z" fill="#DEECFC"/>
<path d="M134.782 215H121.298V263.139H134.782V215Z" fill="#DEECFC"/>
<path d="M130.927 202.514H125.147V215H130.927V202.514Z" fill="#DEECFC"/>
<path d="M110.697 274.817C110.115 274.817 109.643 274.3 109.643 273.664V220.113C109.643 212.343 115.422 206.025 122.531 206.025C123.113 206.025 123.585 206.541 123.585 207.178C123.585 207.814 123.113 208.33 122.531 208.33C116.587 208.33 111.752 213.615 111.752 220.113V273.664C111.752 274.3 111.279 274.817 110.697 274.817Z" fill="#DEECFC"/>
<path d="M114.064 285.894C117.51 284.345 119.14 280.042 117.706 276.284C116.271 272.525 112.315 270.734 108.869 272.283C105.423 273.832 103.793 278.135 105.227 281.894C106.662 285.652 110.618 287.443 114.064 285.894Z" fill="#DEECFC"/>
<path d="M147.93 192.887H138.569V311.106H147.93V192.887Z" fill="#1B3049"/>
<path d="M147.93 180.851H138.569V217.859H147.93V180.851Z" fill="#1B3049"/>
<path d="M143.321 144.142H142.972C142.972 144.142 129.488 176.03 138.569 180.843H147.725C156.805 176.037 143.321 144.142 143.321 144.142Z" fill="#244061"/>
<path d="M144.198 159.346C144.301 155.932 143.171 149.779 143.171 149.779H143.123C143.123 149.779 141.98 156.015 142.096 159.421C140.685 159.945 139.672 161.389 139.672 163.104C139.672 165.267 141.274 167.018 143.253 167.018C145.232 167.018 146.835 165.267 146.835 163.104C146.828 161.3 145.712 159.802 144.198 159.346Z" fill="#DEECFC"/>
<path d="M490.743 98.0675C442.772 101.78 482.484 217.207 546.89 231.646C611.295 246.093 607.44 89.04 490.743 98.0675Z" fill="#DEECFC"/>
<path d="M559.633 98.075C559.633 127.65 535.446 151.619 535.446 151.619C535.446 151.619 511.259 127.643 511.259 98.075C511.259 68.4998 522.086 44.5312 535.446 44.5312C548.8 44.5312 559.633 68.4998 559.633 98.075Z" fill="#1B3049"/>
<path d="M535.446 348.286C534.152 348.286 533.097 347.14 533.097 345.718V61.5982C533.097 60.1835 534.145 59.0308 535.446 59.0308C536.747 59.0308 537.795 60.176 537.795 61.5982V345.718C537.795 347.133 536.74 348.286 535.446 348.286Z" fill="#1B3049"/>
<path d="M570.81 454.647C570.81 454.647 618.568 384.366 577.24 339.191H496.112C454.784 384.366 502.542 454.647 502.542 454.647H570.81Z" fill="#1B3049"/>
<path d="M581.828 359.05H489.524C488.873 359.05 488.353 358.474 488.353 357.77C488.353 357.066 488.88 356.49 489.524 356.49H581.828C582.479 356.49 582.999 357.066 582.999 357.77C582.999 358.474 582.479 359.05 581.828 359.05Z" fill="#DEECFC"/>
<path d="M595.579 183.118C577.979 198.516 551.121 193.8 551.121 193.8C551.121 193.8 552.792 164.12 570.392 148.722C587.991 133.325 607.891 128.541 614.849 138.04C621.8 147.54 613.171 167.721 595.579 183.118Z" fill="#1B3049"/>
<path d="M535.076 207.214C534.398 206.293 534.535 204.946 535.384 204.212L597.818 149.583C598.66 148.842 599.893 148.992 600.564 149.92C601.242 150.841 601.105 152.188 600.263 152.922L537.829 207.551C536.98 208.284 535.747 208.135 535.076 207.214Z" fill="#1B3049"/>
<path d="M485.25 260.496C502.85 275.893 529.708 271.177 529.708 271.177C529.708 271.177 528.037 241.497 510.437 226.1C492.838 210.702 472.938 205.919 465.98 215.418C459.022 224.909 467.651 245.098 485.25 260.496Z" fill="#1B3049"/>
<path d="M536.46 278.498C537.138 277.578 537.001 276.23 536.158 275.497L483.018 226.961C482.175 226.22 480.943 226.369 480.272 227.29C479.594 228.211 479.731 229.558 480.58 230.292L533.72 278.828C534.556 279.569 535.782 279.419 536.46 278.498Z" fill="#1B3049"/>
<path d="M600.339 240.659C599.668 239.731 598.442 239.573 597.593 240.307L535.235 291.762C534.385 292.496 534.242 293.836 534.913 294.764C535.584 295.692 536.81 295.85 537.659 295.116L600.017 243.661C600.866 242.927 601.01 241.587 600.339 240.659Z" fill="#1B3049"/>
<path d="M600.016 243.661C591.47 291.508 560.996 300.73 537.658 295.116L600.016 243.661Z" fill="#1B3049"/>
<path d="M510.136 339.191H496.104C454.776 384.373 502.535 454.647 502.535 454.647H570.809C570.809 454.647 586.416 431.682 592.066 403.574C564.674 391.006 521.524 367.381 510.136 339.191Z" fill="#DEECFC"/>
<path d="M566.283 380.705C573.934 380.705 580.136 373.925 580.136 365.562C580.136 357.199 573.934 350.419 566.283 350.419C558.632 350.419 552.429 357.199 552.429 365.562C552.429 373.925 558.632 380.705 566.283 380.705Z" fill="black"/>
<path d="M644.898 470H73.3208V461.354C73.3208 458.121 75.7177 455.493 78.6829 455.493H639.543C642.502 455.493 644.905 458.113 644.905 461.354V470H644.898Z" fill="#1B3049"/>
<path d="M265.853 155.99C265.853 153.692 266.901 47.6226 266.901 47.6226L463.782 88.5982L468.685 175.527L265.853 155.99Z" fill="#FFE9BD"/>
<path d="M374.812 97.5288C374.682 97.5288 374.545 97.5214 374.408 97.4989L286.13 82.9471C284.664 82.7075 283.651 81.2104 283.877 79.6085C284.096 78.0066 285.466 76.8988 286.931 77.1458L375.209 91.6977C376.674 91.9372 377.688 93.4343 377.462 95.0362C377.263 96.4884 376.113 97.5288 374.812 97.5288Z" fill="#DEECFC"/>
<path d="M444.668 141.356C444.538 141.356 444.401 141.349 444.264 141.326L284.281 115.344C282.815 115.104 281.802 113.607 282.028 112.006C282.247 110.404 283.616 109.296 285.082 109.543L445.066 135.525C446.531 135.764 447.545 137.262 447.319 138.864C447.12 140.308 445.976 141.356 444.668 141.356Z" fill="#DEECFC"/>
<path d="M443.648 106.661C443.517 106.661 443.38 106.653 443.243 108.413L388.453 98.7713C386.987 96.7427 385.974 95.2531 386.199 93.6437C386.419 92.0418 387.788 90.9339 389.254 91.1809L444.045 100.822C445.51 101.062 446.524 102.559 446.298 104.161C446.099 105.613 444.956 106.661 443.648 106.661Z" fill="#DEECFC"/>
<path d="M251.314 181.074C221.361 204.047 144.643 226.451 144.643 226.451L231.873 448.741L282.843 438.404L251.314 181.074Z" fill="#FFE9BD"/>
<path d="M432.609 214.393L555.572 249.432L488.838 448.749H429.459L432.609 214.393Z" fill="#FFE9BD"/>
<path d="M529.502 276.328C529.372 276.313 529.235 276.283 529.105 276.245L475.738 259.62C474.307 259.193 473.465 257.577 473.862 256.012C474.252 254.448 475.731 253.527 477.163 253.961L530.529 270.586C531.961 271.013 532.803 272.63 532.406 274.194C532.05 275.609 530.797 276.492 529.502 276.328Z" fill="#DEECFC"/>
<path d="M499.549 290.977C499.419 290.962 499.282 290.932 499.152 290.894L445.785 274.269C444.354 273.842 443.512 272.225 443.909 270.661C444.299 269.096 445.778 268.176 447.209 268.61L500.576 285.235C502.008 285.662 502.85 287.279 502.453 288.843C502.097 290.251 500.843 291.141 499.549 290.977Z" fill="#DEECFC"/>
<path d="M497.186 358.182C497.056 358.167 496.919 358.137 496.789 358.099L443.422 341.474C441.991 341.047 441.149 339.43 441.546 337.866C441.936 336.302 443.416 335.381 444.847 335.815L498.214 352.44C499.645 352.867 500.487 354.484 500.09 356.048C499.727 357.456 498.481 358.346 497.186 358.182Z" fill="#DEECFC"/>
<path d="M252.979 232.53C252.862 232.597 252.739 232.657 252.609 232.702L199.968 251.91C198.564 252.441 197.037 251.625 196.551 250.091C196.065 248.556 196.811 246.887 198.215 246.356L250.856 227.148C252.26 226.616 253.787 227.432 254.273 228.967C254.711 230.367 254.136 231.871 252.979 232.53Z" fill="#DEECFC"/>
<path d="M246.672 277.338C246.555 277.405 246.432 277.465 246.302 277.51L193.661 296.718C192.257 297.249 190.73 296.433 190.244 294.899C189.758 293.364 190.504 291.695 191.908 291.164L244.549 271.956C245.953 271.424 247.48 272.24 247.966 273.775C248.404 275.167 247.829 276.672 246.672 277.338Z" fill="#DEECFC"/>
<path d="M258.232 312.947C258.115 313.014 257.992 313.074 257.862 313.119L205.221 332.327C203.817 332.858 202.29 332.042 201.804 330.508C201.318 328.973 202.064 327.304 203.468 326.773L256.109 307.565C257.513 307.033 259.04 307.849 259.526 309.384C259.964 310.783 259.389 312.288 258.232 312.947Z" fill="#DEECFC"/>
<path d="M286.609 365.794C286.493 365.861 286.37 365.921 286.24 365.966L233.599 385.174C232.195 385.705 230.668 384.89 230.182 383.355C229.696 381.821 230.442 380.151 231.846 379.62L284.487 360.412C285.891 359.88 287.418 360.696 287.904 362.231C288.342 363.631 287.767 365.135 286.609 365.794Z" fill="#DEECFC"/>
<path d="M223.991 109.85C324.883 156.38 481.477 155.227 481.477 155.227L459.933 447.019H256.574L223.991 109.85Z" fill="#59A1F2"/>
<path d="M255.712 438.119L256.575 447.027H459.934L481.478 155.234C481.478 155.234 455.606 155.421 418.12 152.524C386.386 273.7 294.15 392.412 255.712 438.119Z" fill="#DEECFC"/>
<path d="M369.991 398.483C369.991 393.094 365.992 388.715 361.061 388.715H330.936C326.006 388.715 322.007 393.086 322.007 398.483C322.007 403.873 318.008 408.245 313.077 408.245H298.361C293.43 408.245 289.431 412.616 289.431 418.006V442.131H402.587V418.006C402.587 412.616 398.588 408.245 393.658 408.245H378.941C373.99 408.252 369.991 403.881 369.991 398.483Z" fill="#1B3049"/>
<path d="M446.887 456.212H245.104V444.228C245.104 441.959 246.781 440.125 248.856 440.125H443.142C445.217 440.125 446.894 441.959 446.894 444.228V456.212H446.887Z" fill="#1B3049"/>
<path d="M463.501 278.596L407.594 232.291C399.431 226.976 390.755 225.838 390.755 225.838L390.234 227.163C390.234 227.163 395.446 238.931 400.308 242.539L472.192 304.601L463.501 278.596Z" fill="#1B3049"/>
<path d="M489.455 438.254C489.455 438.725 488.935 443.381 490.585 445.515C492.236 447.648 493.407 452.349 492.064 454.625H465.282C466.282 452.491 476.396 448.269 478.608 446.465C480.82 444.661 479.56 439.631 479.56 439.631L489.455 438.254Z" fill="#FFE9BD"/>
<path d="M499.522 312.28C504.082 319.586 501.994 335.672 500.693 343.36C499.391 351.048 494.44 386.349 494.44 386.349C494.44 386.349 493.009 421.509 493.009 422.362C493.009 423.216 491.318 440.44 491.057 440.866C487.674 444.991 477.902 441.008 477.902 441.008C477.902 441.008 479.464 382.083 479.594 380.511C479.724 378.946 483.107 325.14 483.237 324.714C483.367 324.287 487.14 312.617 487.14 312.617L499.522 312.28Z" fill="#1B3049"/>
<path d="M478.601 446.458C478.8 446.293 478.971 446.106 479.115 445.896C480.491 447.221 480.731 449.235 482.854 450.208C485.285 451.316 489.353 449.752 491.749 447.656C492.674 449.969 493.044 452.948 492.057 454.617H465.275C466.275 452.484 476.389 448.262 478.601 446.458Z" fill="black"/>
<path d="M506.424 438.254C506.424 438.725 505.904 443.381 507.554 445.515C509.205 447.648 510.376 452.349 509.034 454.625H482.251C483.251 452.491 493.365 448.269 495.577 446.465C497.789 444.661 496.529 439.631 496.529 439.631L506.424 438.254Z" fill="#FFE9BD"/>
<path d="M493.358 312.467C493.358 312.849 498.741 322.146 498.132 328.501C497.522 334.856 492.4 339.602 492.4 339.602C492.4 340.358 495.7 378.796 497.262 381.453C499.522 385.346 503.165 397.585 504.986 409.539C506.808 421.493 508.369 438.86 508.369 438.86C506.027 442.273 494.824 440.566 494.824 440.566C494.824 440.566 485.969 402.136 478.936 387.33C471.904 372.523 464.09 334.572 468 314.548C471.397 310.76 493.358 312.467 493.358 312.467Z" fill="#1B3049"/>
<path d="M488.154 255.533C490.236 255.914 503.172 260.945 506.562 269.194C509.944 277.45 515.936 296.905 512.204 302.504C508.472 308.103 501.871 307.535 501.871 307.535C501.61 309.436 499.09 310.476 499.09 310.476L499.522 312.28C485.716 316.742 468.007 314.556 468.007 314.556L467.226 310.289C463.583 306.681 463.063 296.815 463.063 296.815C463.063 296.815 455.42 306.21 449.435 306.397C443.443 306.584 439.629 301.935 437.369 295.386C435.109 288.836 431.596 277.495 431.596 277.495C433.205 274.127 437.02 271.469 437.369 271.372C437.718 271.275 448.566 283.895 448.826 283.895C452.298 281.141 457.16 269.658 462.371 264.059C467.583 258.46 476.567 256.184 476.567 256.184L488.154 255.533Z" fill="#59A1F2"/>
<path d="M485.785 222.933C479.402 218.734 472.568 222.933 471.657 227.058C470.746 231.182 473.047 231.706 473.047 231.706C473.047 231.706 475.697 240.292 475.697 240.509C475.697 240.726 479.601 251.468 479.799 251.97C479.998 252.471 481.491 255.525 481.82 255.525C482.148 255.525 486.38 252.726 486.38 252.726C489.243 252.823 491.201 250.757 490.482 250.472C489.763 250.188 488.27 250.046 491.071 246.206C493.858 242.366 502.453 226.07 485.785 222.933Z" fill="black"/>
<path d="M470.726 237.051C470.726 235.554 471.65 234.333 472.78 234.333C473.91 234.333 474.834 235.554 474.834 237.051C474.834 238.549 473.91 239.769 472.78 239.769C471.65 239.769 470.726 238.556 470.726 237.051ZM471.054 237.051C471.054 238.354 471.828 239.41 472.773 239.41C473.718 239.41 474.492 238.354 474.492 237.051C474.492 235.748 473.718 234.693 472.773 234.693C471.828 234.693 471.054 235.756 471.054 237.051Z" fill="black"/>
<path d="M473.828 236.272L471.746 241.116C471.746 241.116 473.266 242.636 473.396 242.681C473.527 242.726 473.828 236.272 473.828 236.272Z" fill="#244061"/>
<path d="M473.047 231.713C473.828 235.793 476.389 236.272 476.389 236.272C476.348 237.17 477.341 238.742 477.341 238.6C478.423 235.801 480.902 236.841 480.943 239.738C480.984 242.635 478.991 243.862 478.991 247.283C478.991 250.697 481.511 253.878 486.373 252.74C486.202 254.971 488.154 255.353 488.154 255.54C486.633 258.766 480.6 260.57 476.567 256.206C478.649 254.641 477.608 250.277 476.526 249.753C475.444 249.229 474.355 249.042 473.485 247.425C472.616 245.809 472.746 240.217 473.136 238.458C473.526 236.699 472.568 233.42 473.047 231.713Z" fill="#FFE9BD"/>
<path d="M437.37 271.379C437.37 267.681 435.89 266.349 434.418 264.927C432.939 263.505 432.679 261.319 432.336 261.319C431.994 261.319 431.336 262.502 431.857 264.59C432.377 266.678 433.069 268.101 429.816 267.202C426.563 266.304 423.393 262.696 422.872 262.936C422.352 263.175 422.653 264.118 422.612 264.313C422.222 265.024 422.872 266.162 422.872 266.162C422.831 266.873 423.783 270.429 426.563 272.143C429.344 273.85 431.467 277.929 431.597 277.503C433.98 273.041 437.37 271.379 437.37 271.379Z" fill="#FFE9BD"/>
<path d="M478.094 241.932C478.943 241.932 479.293 241.453 479.429 241.161C479.662 240.66 479.587 240.001 479.245 239.551C478.984 239.207 478.615 239.05 478.211 239.102C478.313 238.616 478.628 237.867 478.957 237.77C479.115 237.725 479.279 237.859 479.457 238.166C479.505 238.249 479.608 238.279 479.683 238.226C479.758 238.174 479.786 238.062 479.738 237.979C479.416 237.41 479.087 237.358 478.875 237.425C478.238 237.605 477.861 238.908 477.848 239.327C477.848 239.387 477.868 239.439 477.909 239.477C477.95 239.514 478.005 239.522 478.06 239.507C478.567 239.349 478.861 239.611 478.991 239.791C479.245 240.128 479.306 240.622 479.135 241.004C478.95 241.401 478.546 241.603 477.978 241.573C477.889 241.565 477.807 241.648 477.807 241.745C477.8 241.842 477.875 241.932 477.964 241.932C478.012 241.932 478.053 241.932 478.094 241.932Z" fill="#FFE9BD"/>
<path d="M476.197 248.339C476.218 248.339 476.238 248.339 476.252 248.331C477.937 247.665 478.176 245.255 478.183 243.428C478.628 243.316 479.758 242.845 480.025 241.609C480.046 241.512 479.991 241.415 479.902 241.392C479.813 241.37 479.724 241.43 479.703 241.527C479.423 242.83 478.025 243.092 478.012 243.099C477.923 243.099 477.854 243.181 477.854 243.279C477.854 245.015 477.676 247.388 476.142 247.995C476.053 248.032 476.012 248.129 476.04 248.227C476.06 248.287 476.129 248.339 476.197 248.339Z" fill="#FFE9BD"/>
<path d="M501.61 306.816C501.672 306.816 501.734 306.779 501.761 306.711C502.439 305.079 502.288 299.997 501.384 294.36C500.193 286.92 500.234 281.448 501.508 278.094C501.542 278.004 501.501 277.892 501.419 277.855C501.336 277.817 501.234 277.862 501.199 277.952C499.905 281.373 499.857 286.912 501.056 294.42C501.932 299.899 502.103 305.004 501.46 306.554C501.418 306.644 501.46 306.756 501.542 306.794C501.562 306.809 501.583 306.816 501.61 306.816Z" fill="#DEECFC"/>
<path d="M500.371 283.581C500.439 283.581 500.501 283.536 500.528 283.469C500.535 283.462 500.884 282.481 501.514 281.59C501.569 281.507 501.555 281.395 501.487 281.335C501.418 281.275 501.309 281.29 501.254 281.365C500.597 282.301 500.234 283.289 500.22 283.334C500.186 283.432 500.227 283.536 500.316 283.566C500.33 283.574 500.35 283.581 500.371 283.581Z" fill="#DEECFC"/>
<path d="M502.453 273.649C502.528 273.649 502.59 273.596 502.61 273.514C502.617 273.492 503.274 270.931 504.808 267.861C504.849 267.772 504.822 267.659 504.74 267.614C504.658 267.569 504.555 267.599 504.514 267.689C502.959 270.804 502.295 273.394 502.288 273.424C502.261 273.521 502.316 273.619 502.405 273.649C502.425 273.649 502.439 273.649 502.453 273.649Z" fill="#DEECFC"/>
<path d="M470.295 274.718C470.384 274.718 470.459 274.643 470.459 274.538C470.528 271.394 469.028 264.62 463.94 263.752C463.851 263.737 463.762 263.804 463.748 263.901C463.734 263.999 463.796 264.096 463.885 264.111C468.706 264.934 470.192 271.611 470.123 274.531C470.123 274.628 470.192 274.718 470.295 274.718C470.288 274.718 470.288 274.718 470.295 274.718Z" fill="#DEECFC"/>
<path d="M464.172 295.572C464.22 295.572 464.275 295.55 464.302 295.498C467.398 291.051 469.377 287.046 469.397 287.002C469.438 286.912 469.411 286.799 469.329 286.755C469.247 286.71 469.144 286.74 469.103 286.829C469.082 286.867 467.117 290.857 464.035 295.273C463.98 295.355 463.994 295.468 464.07 295.528C464.097 295.557 464.138 295.572 464.172 295.572Z" fill="#DEECFC"/>
<path d="M447.436 290.947C447.436 290.947 447.443 290.947 447.436 290.947C447.532 290.947 447.607 290.865 447.6 290.76C447.566 288.963 448.093 287.271 448.408 286.253C448.641 285.497 448.73 285.22 448.559 285.078C448.422 284.958 448.251 285.085 448.183 285.13C447.375 285.722 446.532 287.541 446.498 287.623C446.457 287.713 446.491 287.825 446.573 287.87C446.655 287.915 446.758 287.878 446.799 287.788C446.806 287.773 447.573 286.111 448.285 285.505C448.244 285.669 448.169 285.909 448.094 286.141C447.772 287.174 447.224 288.911 447.265 290.775C447.272 290.865 447.347 290.947 447.436 290.947Z" fill="#DEECFC"/>
<path d="M433.048 278.559C433.103 278.559 433.158 278.529 433.192 278.469C433.205 278.447 434.274 276.53 438.102 273.176C438.17 273.116 438.184 272.996 438.129 272.921C438.074 272.847 437.965 272.832 437.896 272.891C434.014 276.29 432.952 278.2 432.911 278.282C432.863 278.372 432.891 278.477 432.966 278.529C432.993 278.551 433.021 278.559 433.048 278.559Z" fill="#DEECFC"/>
<path d="M427.775 268.244C427.843 268.244 427.905 268.199 427.932 268.124C427.96 268.027 427.919 267.922 427.83 267.892C427.796 267.877 424.221 266.462 423.029 264.478C422.981 264.396 422.879 264.373 422.796 264.426C422.721 264.478 422.7 264.59 422.748 264.68C424.002 266.769 427.563 268.184 427.713 268.236C427.734 268.236 427.754 268.244 427.775 268.244Z" fill="#FFE9BD"/>
<path d="M426.994 270.729C427.049 270.729 427.104 270.699 427.138 270.647C427.186 270.564 427.165 270.452 427.083 270.4C427.056 270.385 424.501 268.618 423.365 266.267C423.324 266.177 423.221 266.147 423.139 266.192C423.057 266.237 423.029 266.349 423.07 266.439C424.248 268.872 426.796 270.632 426.905 270.707C426.932 270.722 426.96 270.729 426.994 270.729Z" fill="#FFE9BD"/>
<path d="M487.976 318.83L474.088 319.212C474.088 319.212 473.047 328.135 483.812 330.792C490.236 328.883 487.976 318.83 487.976 318.83Z" fill="#1B3049"/>
<path d="M485.894 341.594C485.914 341.594 485.928 341.594 485.949 341.587C485.962 341.579 487.544 341.01 490.455 340.067C490.783 339.962 491.085 339.827 491.05 339.558C491.023 339.318 490.982 338.959 486.284 338.622C485.154 338.54 484.018 338.48 483.162 338.442C485.058 338.098 488.524 337.708 491.222 338.734C491.311 338.764 491.407 338.719 491.434 338.622C491.461 338.525 491.42 338.42 491.331 338.39C487.339 336.87 481.744 338.367 481.689 338.382C481.607 338.405 481.552 338.487 481.566 338.577C481.573 338.667 481.641 338.734 481.724 338.742C485.716 338.869 490.016 339.221 490.667 339.588C490.612 339.618 490.523 339.663 490.359 339.715C487.442 340.651 485.853 341.227 485.839 341.235C485.75 341.265 485.702 341.369 485.736 341.467C485.764 341.549 485.825 341.594 485.894 341.594Z" fill="#DEECFC"/>
<path d="M501.871 330.216C500.131 329.647 497.7 325.657 497.18 318.448C498.221 319.017 500.652 318.448 500.652 318.448C502.74 325.088 501.871 330.216 501.871 330.216Z" fill="#1B3049"/>
<path d="M498.995 436.787C500.864 436.787 503.494 436.405 506.794 434.96C506.877 434.923 506.925 434.818 506.89 434.721C506.856 434.631 506.76 434.578 506.671 434.616C499.878 437.588 495.892 435.963 495.858 435.941C495.776 435.903 495.673 435.948 495.646 436.046C495.612 436.135 495.653 436.248 495.742 436.278C495.817 436.323 496.947 436.787 498.995 436.787Z" fill="#DEECFC"/>
<path d="M487.73 435.679C488.606 435.679 489.558 435.634 490.599 435.537C490.688 435.529 490.756 435.439 490.75 435.342C490.743 435.245 490.661 435.17 490.572 435.177C484.778 435.739 481.477 434.444 481.443 434.429C481.354 434.391 481.258 434.444 481.231 434.534C481.197 434.631 481.245 434.736 481.327 434.766C481.354 434.781 483.641 435.679 487.73 435.679Z" fill="#DEECFC"/>
<path d="M471.052 236.54L470.983 236.9L477.454 238.373L477.522 238.013L471.052 236.54Z" fill="black"/>
<path d="M495.577 446.458C495.776 446.293 495.947 446.106 496.091 445.896C497.467 447.221 497.707 449.235 499.83 450.208C502.261 451.316 506.329 449.752 508.725 447.656C509.65 449.969 510.02 452.948 509.034 454.617H482.251C483.251 452.484 493.358 448.262 495.577 446.458Z" fill="black"/>
<path d="M390.227 227.163L390.748 225.838C390.748 225.838 399.431 226.976 407.587 232.291C402.554 235.188 400.513 239.979 400.294 242.539C395.438 238.923 390.227 227.163 390.227 227.163Z" fill="black"/>
<path d="M390.748 225.831C390.748 225.831 387.468 223.218 387.276 224.214C387.078 225.209 390.228 227.156 390.228 227.156L390.748 225.831Z" fill="#1B3049"/>
<path d="M397.691 228.705C403.416 229.363 404.074 233.331 402.773 233.114C401.471 232.905 396.459 228.562 397.691 228.705Z" fill="black"/>
<path d="M395.418 227.703C396.877 227.822 396.788 229.41 395.747 228.841C394.699 228.279 394.569 227.635 395.418 227.703Z" fill="black"/>
<path d="M214.103 142.973H162.599C160.496 142.973 158.791 141.109 158.791 138.811C158.791 136.513 160.496 134.649 162.599 134.649H214.103C216.205 134.649 217.91 136.513 217.91 138.811C217.91 141.109 216.205 142.973 214.103 142.973Z" fill="#1B3049"/>
<path d="M137.665 455.411C137.61 455.411 137.548 455.411 137.494 455.403C136.473 455.299 135.727 454.31 135.823 453.195L162.66 138.415C162.756 137.299 163.66 136.483 164.68 136.588C165.701 136.693 166.447 137.681 166.351 138.796L139.514 453.577C139.418 454.625 138.61 455.411 137.665 455.411Z" fill="#1B3049"/>
<path d="M186.327 455.411C186.272 455.411 186.211 455.411 186.156 455.403C185.135 455.299 184.389 454.31 184.485 453.195L211.322 138.415C211.418 137.299 212.322 136.483 213.342 136.588C214.363 136.693 215.109 137.681 215.013 138.796L188.176 453.577C188.08 454.625 187.272 455.411 186.327 455.411Z" fill="#1B3049"/>
<path d="M248.863 186.651C248.863 186.651 249.582 190.267 248.049 192.048C246.515 193.83 245.124 196.555 245.508 199.392L274.044 207.835C273.708 204.639 267.038 196.405 264.258 194.518C261.477 192.632 259.752 191.479 259.752 189.855C259.752 188.231 259.752 186.344 259.752 186.344L248.863 186.651Z" fill="#FFE9BD"/>
<path d="M245.501 199.392L274.037 207.835C273.701 204.639 267.031 196.405 264.251 194.518C261.765 192.834 260.121 191.726 259.806 190.356C259.108 190.978 258.978 192.258 256.965 193.156C255.04 194.017 251.144 192.205 248.699 190.858C248.548 191.3 248.336 191.711 248.042 192.056C246.508 193.837 245.117 196.562 245.501 199.392Z" fill="black"/>
<path d="M259.895 195.822C259.82 195.822 259.751 195.769 259.724 195.687C259.69 195.582 259.738 195.47 259.834 195.432C259.854 195.425 261.874 194.594 262.6 192.198C262.634 192.093 262.737 192.033 262.833 192.071C262.929 192.108 262.984 192.22 262.949 192.325C262.162 194.908 260.053 195.769 259.957 195.807C259.936 195.814 259.916 195.822 259.895 195.822Z" fill="black"/>
<path d="M263.539 197.708C263.464 197.708 263.388 197.655 263.368 197.573C263.333 197.468 263.388 197.356 263.484 197.319C263.498 197.311 264.6 196.884 265.888 194.878C265.949 194.788 266.059 194.766 266.141 194.825C266.223 194.893 266.244 195.013 266.189 195.103C264.826 197.229 263.649 197.678 263.601 197.693C263.573 197.7 263.559 197.708 263.539 197.708Z" fill="black"/>
<path d="M270.633 204.624C270.62 204.624 270.599 204.624 270.585 204.616L247.754 197.483C247.658 197.453 247.596 197.34 247.631 197.236C247.665 197.131 247.761 197.063 247.857 197.101L270.688 204.227C270.784 204.257 270.846 204.369 270.811 204.474C270.791 204.571 270.715 204.624 270.633 204.624Z" fill="black"/>
<path d="M205.309 107.073C205.309 107.073 248.328 118.556 251.068 123.271C253.807 127.987 261.429 188.073 261.429 188.073C257.546 190.431 245.891 188.545 245.891 188.545C245.891 188.545 236.392 138.841 231.503 136.64C226.613 134.44 187.333 118.556 187.333 117.77C187.333 116.984 194.674 107.23 194.674 107.23L205.309 107.073Z" fill="#1B3049"/>
<path d="M222.101 187.595C222.101 187.595 222.82 191.21 221.286 192.992C219.752 194.773 218.362 197.498 218.746 200.335L247.281 208.778C246.946 205.582 240.276 197.348 237.495 195.462C234.715 193.575 232.99 192.423 232.99 190.798C232.99 189.174 232.99 187.288 232.99 187.288L222.101 187.595Z" fill="#FFE9BD"/>
<path d="M218.739 200.335L247.275 208.778C246.939 205.582 240.269 197.348 237.489 195.462C235.003 193.778 233.36 192.67 233.045 191.3C232.346 191.921 232.216 193.201 230.203 194.099C228.279 194.96 224.382 193.149 221.937 191.801C221.787 192.243 221.574 192.655 221.28 192.999C219.746 194.781 218.356 197.505 218.739 200.335Z" fill="black"/>
<path d="M169.344 101.878C166.18 114.147 165.893 129.559 176.254 134.275C186.615 138.991 212.227 140.249 212.227 140.249C212.227 140.249 217.979 187.43 218.849 188.373C224.313 191.202 235.25 188.687 235.25 188.687C235.25 188.687 232.949 121.37 231.798 120.427C230.648 119.484 204.173 113.51 204.173 113.51C204.173 111.31 204.173 103.442 204.173 103.442L169.344 101.878Z" fill="#1B3049"/>
<path d="M196.14 28.4309C196.894 26.8963 196.681 20.4064 196.106 17.8164C195.531 15.2189 195.168 6.5732 199.558 6.7304C201.427 3.50415 202.365 5.15846 202.365 5.15846C207.255 3.03258 212.22 5.62999 215.096 5.94439C217.972 6.25878 218.479 7.0448 217.54 8.14517C219.917 12.2323 218.403 15.4585 215.452 16.7984C212.5 18.1383 203.94 26.4697 203.94 26.4697C203.94 26.4697 197.4 30.2424 196.14 28.4309Z" fill="black"/>
<path d="M205.241 38.1014C205.987 39.4937 205.022 42.1137 205.022 42.1137C210.966 51.0289 223.34 62.347 233.318 63.8216C244.254 58.6866 256.964 53.8359 256.964 53.8359L261.21 59.3377C261.141 59.6297 241.186 82.3781 235.338 83.1117C229.49 83.8453 208.097 76.0829 208.097 76.4047C206.275 82.0638 210.302 104.82 206.754 107.754C203.207 110.688 171.932 111.632 168.289 102.409C169.727 86.2631 172.795 58.1626 181.526 47.0466C190.257 35.9306 192.771 27.8088 195.352 29.1412C197.927 30.4737 205.241 38.1014 205.241 38.1014Z" fill="#DC5B5B"/>
<path d="M256.965 53.8285C257.828 51.0738 260.704 46.9868 263.292 46.0436C265.881 45.1005 268.976 42.2709 269.188 41.7993C270.27 43.2964 267.1 48.4015 267.1 48.4015L277.173 48.0048L276.954 48.8731C276.954 49.5842 276.016 50.9166 276.016 50.9166C276.016 51.9421 273.496 55.0037 271.483 55.6325C269.469 56.2613 262.847 59.4053 261.197 59.3304C258.259 58.4696 256.965 53.8285 256.965 53.8285Z" fill="#FFE9BD"/>
<path d="M216.137 13.998C216.205 14.4696 217.075 19.5823 216.746 20.488C216.424 21.3938 215.308 22.0599 215.561 23.9089C215.815 25.7578 217.65 28.1157 217.575 28.3927C217.5 28.6696 215.815 29.0589 215.308 29.1412C214.801 29.2161 214.842 31.1473 214.226 31.3045C213.973 32.4872 213.076 33.5053 213.076 34.5682C213.076 35.6311 213.219 37.1657 211.816 37.4801C210.412 37.7945 207.679 35.6312 207.029 35.9081C206.378 36.2225 205.228 38.1088 205.228 38.1088C205.159 38.034 195.983 35.7883 195.333 29.1412C197.633 27.6441 198.428 24.6574 198.428 24.6574C198.14 21.8653 199.003 18.8412 201.379 19.193C203.755 19.5449 204.255 22.4941 204.399 23.0855C204.687 23.834 206.015 22.7336 206.413 21.4761C208.57 20.0239 207.885 18.8411 208.501 16.8725C209.111 14.9038 210.802 14.5145 212.569 15.0236C214.343 15.5326 216.137 13.998 216.137 13.998Z" fill="#FFE9BD"/>
<path d="M213.37 22.614C213.37 23.3702 213.069 23.9766 212.699 23.9766C212.329 23.9766 212.028 23.3627 212.028 22.614C212.028 21.8579 212.329 21.2515 212.699 21.2515C213.069 21.2515 213.37 21.8579 213.37 22.614Z" fill="black"/>
<path d="M210.542 19.6201C212.459 18.3099 215.048 19.096 215.048 19.096C213.897 16.4757 211.549 16.528 210.542 19.6201Z" fill="black"/>
<path d="M213.609 31.3053C213.603 31.3053 213.589 31.3053 213.575 31.3053C210.774 30.7737 209.001 29.0218 208.925 28.947C208.85 28.8721 208.843 28.7448 208.912 28.6625C208.98 28.5801 209.097 28.5726 209.172 28.6475C209.192 28.6624 210.946 30.3994 213.637 30.901C213.74 30.9235 213.801 31.0208 213.787 31.1331C213.774 31.2379 213.698 31.3053 213.609 31.3053Z" fill="black"/>
<path d="M202.29 26.3277C202.283 26.3277 202.269 26.3277 202.262 26.3277C201.037 26.1255 200.66 25.2945 200.715 24.6431C200.776 23.872 201.447 23.071 202.584 22.9961C202.42 22.4271 201.852 21.0346 200.263 21.3415C200.16 21.364 200.064 21.2891 200.051 21.1768C200.03 21.0645 200.098 20.9597 200.201 20.9447C202.509 20.4955 203.002 23.1233 203.002 23.1533C203.016 23.2132 202.995 23.273 202.961 23.318C202.927 23.3629 202.872 23.3929 202.817 23.3929C201.756 23.363 201.133 24.0367 201.085 24.6731C201.043 25.1747 201.352 25.7662 202.324 25.9234C202.427 25.9384 202.495 26.0432 202.482 26.1555C202.461 26.2528 202.379 26.3277 202.29 26.3277Z" fill="#FFE9BD"/>
<path d="M205.981 35.3916C205.96 35.3916 205.94 35.3842 205.912 35.3767C201.763 33.6326 201.523 30.818 201.619 28.3104C201.626 28.1981 201.715 28.1157 201.81 28.1157C201.913 28.1232 201.989 28.2131 201.989 28.3253C201.886 30.7956 202.119 33.3481 206.042 34.995C206.138 35.0324 206.186 35.1521 206.145 35.2569C206.125 35.3468 206.056 35.3916 205.981 35.3916Z" fill="#FFE9BD"/>
<path d="M188.765 47.033C188.738 47.033 188.717 47.0255 188.69 47.018C188.594 46.9731 188.553 46.8533 188.594 46.756C190.559 41.912 194.922 39.8082 200.879 40.8189C200.982 40.8339 201.051 40.9387 201.03 41.051C201.016 41.1633 200.921 41.2382 200.818 41.2157C195.045 40.235 190.82 42.2564 188.93 46.9206C188.902 46.988 188.834 47.033 188.765 47.033Z" fill="#DEECFC"/>
<path d="M207.323 74.8709C207.31 74.8709 207.296 74.871 207.276 74.8635C197.565 72.2057 194.524 69.5853 194.401 69.473C194.326 69.4056 194.312 69.2783 194.374 69.1885C194.435 69.0987 194.552 69.0912 194.634 69.1586C194.661 69.1886 197.757 71.8389 207.371 74.4667C207.467 74.4967 207.529 74.6014 207.508 74.7137C207.481 74.8111 207.413 74.8709 207.323 74.8709Z" fill="#DEECFC"/>
<path d="M191.497 99.8792C191.402 99.8792 191.319 99.7968 191.313 99.692C190.977 95.4552 194.709 87.4008 206.2 77.4975C206.282 77.4301 206.399 77.4451 206.46 77.5275C206.522 77.6098 206.508 77.7445 206.433 77.8119C195.058 87.6179 191.354 95.5227 191.682 99.6547C191.689 99.7669 191.614 99.8642 191.518 99.8717C191.511 99.8792 191.504 99.8792 191.497 99.8792Z" fill="#DEECFC"/>
<path d="M200.132 104.752C200.091 104.752 200.057 104.737 200.023 104.707C199.893 104.595 196.784 101.885 197.51 94.9311C197.523 94.8189 197.612 94.744 197.715 94.7515C197.818 94.7665 197.886 94.8638 197.879 94.9761C197.181 101.691 200.221 104.363 200.256 104.385C200.338 104.453 200.352 104.58 200.29 104.67C200.242 104.73 200.187 104.752 200.132 104.752Z" fill="#DEECFC"/>
<path d="M233.948 70.4698C233.845 70.4698 233.763 70.3799 233.763 70.2676C233.763 69.1147 233.729 68.0665 233.701 67.2279C233.64 65.2889 233.633 64.66 233.886 64.4579C233.962 64.398 234.058 64.383 234.147 64.4129C234.605 64.5776 235.229 66.7338 235.557 68.0066C235.585 68.1114 235.53 68.2237 235.434 68.2536C235.338 68.2836 235.235 68.2237 235.208 68.1189C234.852 66.7414 234.338 65.1916 234.085 64.8472C234.01 65.1616 234.037 66.1573 234.071 67.2055C234.099 68.0515 234.133 69.0997 234.133 70.2601C234.126 70.3799 234.044 70.4698 233.948 70.4698Z" fill="#DEECFC"/>
<path d="M258.115 61.5022C258.033 61.5022 257.957 61.4423 257.937 61.3525C257.93 61.315 256.923 57.3096 254.842 55.6401C254.759 55.5727 254.739 55.4454 254.8 55.3556C254.862 55.2657 254.979 55.2433 255.061 55.3107C257.245 57.0626 258.252 61.0679 258.293 61.2401C258.32 61.345 258.259 61.4573 258.163 61.4873C258.149 61.5022 258.136 61.5022 258.115 61.5022Z" fill="#DEECFC"/>
<path d="M270.886 52.5418C270.804 52.5418 270.722 52.4744 270.708 52.3846C270.687 52.2723 270.749 52.1674 270.852 52.145C270.879 52.1375 273.577 51.4937 276.495 48.8434C276.57 48.776 276.686 48.7834 276.755 48.8658C276.817 48.9481 276.81 49.0754 276.734 49.1503C273.749 51.868 271.05 52.5118 270.934 52.5343C270.914 52.5343 270.9 52.5418 270.886 52.5418Z" fill="#FFE9BD"/>
<path d="M272.359 54.7424C272.304 54.7424 272.249 54.7124 272.215 54.6675C272.153 54.5776 272.167 54.4504 272.249 54.383C272.269 54.368 274.324 52.6161 275.228 51.0514C275.283 50.9541 275.399 50.9317 275.481 50.9915C275.57 51.0514 275.591 51.1787 275.536 51.2686C274.591 52.8932 272.557 54.6301 272.475 54.705C272.441 54.7274 272.4 54.7424 272.359 54.7424Z" fill="#FFE9BD"/>
<path d="M223.731 187.325C223.642 187.325 223.56 187.25 223.546 187.153C223.313 185.439 217.794 145.144 218.177 141.798C218.3 140.713 218.451 140.031 218.547 139.575C218.752 138.624 218.752 138.609 218.02 137.539C216.924 135.944 215.979 134.567 217.821 131.438C217.889 131.318 217.896 131.206 217.842 131.064C216.718 128.309 195.839 123.833 185.909 122.096C181.047 121.243 178.02 119.701 176.39 117.238C174.973 115.09 174.596 112.163 175.206 108.031C175.219 107.919 175.315 107.844 175.418 107.866C175.521 107.881 175.589 107.986 175.569 108.098C174.973 112.118 175.329 114.948 176.685 117.006C178.253 119.379 181.205 120.876 185.964 121.707C186.272 121.759 216.65 127.171 218.177 130.907C218.28 131.169 218.266 131.423 218.129 131.663C216.424 134.56 217.218 135.712 218.314 137.307C219.122 138.489 219.129 138.617 218.903 139.672C218.8 140.144 218.663 140.788 218.54 141.851C218.163 145.144 223.854 186.674 223.909 187.093C223.923 187.205 223.854 187.302 223.751 187.325C223.745 187.325 223.738 187.325 223.731 187.325Z" fill="#DEECFC"/>
<path d="M175.959 116.235C175.87 116.235 175.795 116.168 175.781 116.07C175.767 115.958 175.829 115.861 175.932 115.838C176.014 115.823 183.821 114.341 183.451 109.551C183.444 109.438 183.519 109.341 183.622 109.333C183.725 109.326 183.814 109.408 183.821 109.521C184.211 114.678 176.329 116.175 175.994 116.235C175.98 116.235 175.966 116.235 175.959 116.235Z" fill="#DEECFC"/>
<path d="M214.027 140.586C213.918 140.586 213.815 140.579 213.719 140.556C213.528 140.511 213.397 140.414 213.329 140.257C213.165 139.86 213.493 139.254 213.986 138.34C214.356 137.651 214.815 136.798 215.116 135.892C215.151 135.787 215.26 135.735 215.349 135.772C215.445 135.81 215.493 135.922 215.459 136.027C215.144 136.963 214.678 137.839 214.301 138.542C213.945 139.201 213.582 139.882 213.664 140.092C213.678 140.122 213.719 140.152 213.788 140.167C214.664 140.362 216.137 139.366 216.15 139.351C216.239 139.291 216.349 139.321 216.404 139.418C216.458 139.516 216.431 139.635 216.342 139.695C216.287 139.733 215.02 140.586 214.027 140.586Z" fill="#DEECFC"/>
<path d="M233.127 196.765C233.051 196.765 232.983 196.713 232.955 196.63C232.921 196.525 232.969 196.413 233.065 196.376C233.085 196.368 235.106 195.537 235.832 193.141C235.866 193.037 235.969 192.977 236.064 193.014C236.16 193.052 236.215 193.164 236.181 193.269C235.393 195.852 233.284 196.713 233.188 196.75C233.174 196.758 233.147 196.765 233.127 196.765Z" fill="black"/>
<path d="M236.776 198.651C236.701 198.651 236.626 198.599 236.605 198.516C236.571 198.412 236.626 198.299 236.721 198.262C236.735 198.254 237.838 197.828 239.125 195.821C239.187 195.731 239.296 195.709 239.378 195.769C239.461 195.836 239.481 195.956 239.426 196.046C238.064 198.172 236.886 198.621 236.838 198.636C236.81 198.644 236.797 198.651 236.776 198.651Z" fill="black"/>
<path d="M243.871 205.567C243.857 205.567 243.837 205.567 243.823 205.56L220.992 198.426C220.896 198.396 220.834 198.284 220.868 198.179C220.896 198.074 220.999 198.007 221.094 198.044L243.926 205.178C244.022 205.208 244.083 205.32 244.049 205.425C244.029 205.515 243.953 205.567 243.871 205.567Z" fill="black"/>
<path d="M208.117 178.739H161.331C160.304 178.739 159.476 177.834 159.476 176.711C159.476 175.595 160.304 174.682 161.331 174.682H208.117C209.144 174.682 209.973 175.588 209.973 176.711C209.966 177.834 209.138 178.739 208.117 178.739Z" fill="#1B3049"/>
<path d="M205.337 214.707H158.551C157.524 214.707 156.695 213.801 156.695 212.678C156.695 211.555 157.524 210.649 158.551 210.649H205.337C206.364 210.649 207.193 211.555 207.193 212.678C207.193 213.801 206.357 214.707 205.337 214.707Z" fill="#1B3049"/>
<path d="M202.091 250.676H155.305C154.278 250.676 153.449 249.77 153.449 248.647C153.449 247.524 154.278 246.618 155.305 246.618H202.091C203.118 246.618 203.947 247.524 203.947 248.647C203.947 249.77 203.111 250.676 202.091 250.676Z" fill="#1B3049"/>
<path d="M200.235 286.643H153.45C152.422 286.643 151.594 285.737 151.594 284.614C151.594 283.499 152.422 282.585 153.45 282.585H200.235C201.263 282.585 202.091 283.491 202.091 284.614C202.091 285.737 201.263 286.643 200.235 286.643Z" fill="#1B3049"/>
<path d="M196.989 322.611H150.203C149.176 322.611 148.348 321.705 148.348 320.582C148.348 319.467 149.176 318.553 150.203 318.553H196.989C198.016 318.553 198.845 319.459 198.845 320.582C198.845 321.698 198.016 322.611 196.989 322.611Z" fill="#1B3049"/>
<path d="M193.284 358.579H146.498C145.471 358.579 144.643 357.673 144.643 356.55C144.643 355.427 145.471 354.521 146.498 354.521H193.284C194.311 354.521 195.14 355.427 195.14 356.55C195.14 357.673 194.311 358.579 193.284 358.579Z" fill="#1B3049"/>
<path d="M190.504 394.539H143.718C142.691 394.539 141.862 393.633 141.862 392.51C141.862 391.387 142.691 390.481 143.718 390.481H190.504C191.531 390.481 192.36 391.387 192.36 392.51C192.36 393.633 191.531 394.539 190.504 394.539Z" fill="#1B3049"/>
<path d="M279.556 365.989C270.996 361.654 259.491 368.923 253.848 382.225C248.212 395.526 250.582 409.824 259.142 414.158C267.702 418.492 279.207 411.224 284.842 397.922C290.478 384.62 288.116 370.323 279.556 365.989ZM261.792 407.892C257.169 405.549 255.122 395.624 259.573 385.122C264.024 374.619 272.276 369.903 276.899 372.246C281.521 374.589 283.569 384.515 279.117 395.017C274.666 405.52 266.414 410.235 261.792 407.892Z" fill="#59A1F2"/>
<path d="M255.91 327.536H149.786C138.261 391.867 153.491 437.304 175.713 456.197H229.976C252.205 437.304 267.435 391.867 255.91 327.536Z" fill="#59A1F2"/>
<path d="M255.91 327.536H228.641C221.136 383.213 193.511 421.187 166.201 445.844C169.166 449.879 172.364 453.345 175.72 456.197H229.984C252.205 437.303 267.436 391.866 255.91 327.536Z" fill="#DEECFC"/>
<path d="M169.673 374.934C178.886 374.934 186.355 366.77 186.355 356.699C186.355 346.628 178.886 338.464 169.673 338.464C160.46 338.464 152.991 346.628 152.991 356.699C152.991 366.77 160.46 374.934 169.673 374.934Z" fill="black"/>
<path d="M385.345 225.472C385.215 225.494 385.078 225.509 384.941 225.509L329.451 225.075C327.965 225.083 326.76 223.765 326.76 222.148C326.753 220.523 327.951 219.206 329.437 219.206L384.927 219.64C386.413 219.632 387.618 220.95 387.618 222.567C387.625 224.035 386.639 225.255 385.345 225.472Z" fill="#DEECFC"/>
<path d="M454.072 192.46C453.942 192.482 453.805 192.497 453.668 192.497L271.777 189.398C270.291 189.406 269.086 188.088 269.086 186.472C269.086 184.855 270.277 183.53 271.763 183.53L453.654 186.629C455.14 186.621 456.345 187.939 456.345 189.556C456.352 191.023 455.366 192.243 454.072 192.46Z" fill="#DEECFC"/>
<path d="M621.738 357.582C621.416 357.582 621.094 357.575 620.779 357.567C620.546 357.56 620.368 357.35 620.368 357.096C620.375 356.841 620.581 356.647 620.8 356.647C622.45 356.692 624.128 356.617 625.765 356.429C625.997 356.407 626.203 356.587 626.223 356.834C626.251 357.088 626.08 357.313 625.854 357.335C624.498 357.507 623.114 357.582 621.738 357.582ZM615.787 357.081C615.767 357.081 615.746 357.081 615.725 357.073C614.054 356.789 612.39 356.385 610.774 355.861C610.555 355.786 610.425 355.531 610.494 355.292C610.562 355.052 610.795 354.91 611.014 354.985C612.596 355.494 614.226 355.891 615.862 356.175C616.088 356.212 616.246 356.444 616.212 356.699C616.17 356.924 615.992 357.081 615.787 357.081ZM630.757 356.422C630.565 356.422 630.394 356.28 630.353 356.07C630.298 355.823 630.435 355.576 630.661 355.516C632.263 355.097 633.859 354.551 635.4 353.899C635.619 353.81 635.859 353.929 635.941 354.161C636.023 354.401 635.913 354.663 635.701 354.753C634.126 355.419 632.496 355.973 630.86 356.407C630.818 356.415 630.784 356.422 630.757 356.422ZM606.172 353.989C606.118 353.989 606.056 353.974 606.001 353.952C604.46 353.203 602.947 352.335 601.509 351.369C601.31 351.235 601.249 350.958 601.372 350.741C601.495 350.523 601.748 350.456 601.947 350.591C603.358 351.534 604.837 352.387 606.344 353.121C606.556 353.226 606.652 353.495 606.556 353.727C606.487 353.884 606.337 353.989 606.172 353.989ZM640.098 352.477C639.947 352.477 639.803 352.395 639.728 352.238C639.618 352.013 639.693 351.736 639.892 351.616C641.337 350.748 642.748 349.775 644.083 348.704C644.268 348.555 644.535 348.6 644.665 348.802C644.802 349.004 644.761 349.296 644.576 349.438C643.213 350.523 641.768 351.526 640.289 352.41C640.235 352.462 640.166 352.477 640.098 352.477ZM597.626 348.263C597.53 348.263 597.441 348.233 597.366 348.158C596.051 346.998 594.798 345.733 593.634 344.393C593.476 344.213 593.483 343.921 593.647 343.749C593.812 343.577 594.079 343.584 594.236 343.764C595.373 345.074 596.599 346.309 597.886 347.447C598.064 347.604 598.092 347.896 597.948 348.091C597.873 348.203 597.749 348.263 597.626 348.263ZM648.192 346.017C648.082 346.017 647.973 345.972 647.891 345.875C647.733 345.695 647.74 345.403 647.904 345.231C649.103 343.989 650.233 342.641 651.267 341.234C651.41 341.039 651.678 341.009 651.856 341.167C652.034 341.324 652.061 341.616 651.917 341.81C650.856 343.248 649.698 344.617 648.48 345.89C648.397 345.972 648.295 346.017 648.192 346.017ZM590.723 340.328C590.593 340.328 590.463 340.261 590.388 340.141C589.395 338.651 588.477 337.072 587.676 335.455C587.566 335.231 587.642 334.954 587.84 334.834C588.046 334.714 588.299 334.796 588.409 335.013C589.196 336.593 590.093 338.142 591.066 339.602C591.203 339.804 591.162 340.096 590.977 340.238C590.894 340.298 590.812 340.328 590.723 340.328ZM654.485 337.491C654.41 337.491 654.335 337.469 654.266 337.424C654.067 337.289 654.006 337.012 654.129 336.795C654.992 335.253 655.766 333.636 656.437 331.989C656.533 331.757 656.779 331.653 656.992 331.757C657.204 331.862 657.3 332.132 657.204 332.364C656.519 334.048 655.725 335.702 654.848 337.282C654.766 337.416 654.629 337.491 654.485 337.491ZM585.936 330.709C585.765 330.709 585.608 330.597 585.546 330.417C584.943 328.696 584.437 326.914 584.04 325.118C583.985 324.871 584.122 324.624 584.348 324.564C584.574 324.504 584.8 324.654 584.854 324.901C585.238 326.66 585.738 328.404 586.327 330.081C586.409 330.313 586.299 330.582 586.087 330.672C586.039 330.702 585.984 330.709 585.936 330.709ZM583.601 320.065C583.389 320.065 583.211 319.893 583.184 319.653C583.047 318.186 582.971 316.696 582.971 315.207C582.971 314.84 582.978 314.473 582.985 314.107C582.992 313.852 583.184 313.642 583.416 313.657C583.649 313.665 583.827 313.874 583.827 314.129C583.82 314.488 583.813 314.848 583.813 315.207C583.813 316.659 583.882 318.119 584.019 319.556C584.04 319.81 583.875 320.035 583.642 320.057C583.629 320.057 583.615 320.065 583.601 320.065ZM583.855 309.114C583.834 309.114 583.814 309.114 583.786 309.106C583.56 309.069 583.403 308.829 583.437 308.582C583.697 306.756 584.074 304.937 584.553 303.17C584.622 302.931 584.848 302.788 585.074 302.863C585.293 302.938 585.423 303.193 585.354 303.432C584.889 305.161 584.519 306.943 584.266 308.724C584.238 308.949 584.06 309.114 583.855 309.114ZM586.697 298.611C586.642 298.611 586.58 298.597 586.525 298.574C586.313 298.469 586.217 298.2 586.313 297.968C586.998 296.283 587.799 294.629 588.683 293.057C588.806 292.84 589.059 292.773 589.258 292.908C589.456 293.042 589.518 293.319 589.395 293.536C588.532 295.078 587.751 296.695 587.08 298.342C587.012 298.507 586.861 298.611 586.697 298.611ZM655.485 295.737C655.334 295.737 655.191 295.647 655.115 295.498C654.328 293.911 653.437 292.369 652.472 290.901C652.335 290.699 652.376 290.407 652.568 290.265C652.753 290.115 653.02 290.16 653.15 290.37C654.143 291.867 655.054 293.446 655.855 295.063C655.964 295.288 655.889 295.565 655.684 295.685C655.622 295.715 655.554 295.737 655.485 295.737ZM591.949 289.27C591.853 289.27 591.764 289.24 591.682 289.165C591.504 289.008 591.477 288.716 591.62 288.521C592.682 287.091 593.846 285.721 595.072 284.449C595.243 284.277 595.503 284.284 595.661 284.464C595.818 284.643 595.811 284.935 595.647 285.108C594.448 286.35 593.312 287.69 592.271 289.09C592.189 289.217 592.065 289.27 591.949 289.27ZM649.603 286.867C649.493 286.867 649.383 286.822 649.301 286.724C648.164 285.415 646.939 284.172 645.658 283.034C645.48 282.877 645.453 282.585 645.597 282.39C645.74 282.196 646.007 282.166 646.185 282.323C647.493 283.491 648.746 284.756 649.904 286.096C650.061 286.283 650.054 286.567 649.89 286.739C649.808 286.822 649.705 286.867 649.603 286.867ZM599.222 281.739C599.091 281.739 598.961 281.672 598.879 281.552C598.742 281.35 598.783 281.058 598.975 280.916C600.338 279.83 601.783 278.835 603.262 277.951C603.467 277.832 603.721 277.914 603.83 278.139C603.94 278.363 603.864 278.64 603.659 278.76C602.207 279.621 600.797 280.594 599.461 281.657C599.393 281.709 599.304 281.739 599.222 281.739ZM641.83 279.95C641.755 279.95 641.679 279.928 641.611 279.883C640.207 278.932 638.728 278.079 637.221 277.345C637.009 277.24 636.913 276.971 637.009 276.739C637.105 276.507 637.351 276.402 637.564 276.507C639.104 277.263 640.611 278.131 642.049 279.104C642.248 279.239 642.309 279.516 642.186 279.733C642.104 279.875 641.967 279.95 641.83 279.95ZM608.014 276.514C607.843 276.514 607.686 276.402 607.624 276.222C607.542 275.983 607.652 275.721 607.864 275.631C609.439 274.972 611.069 274.418 612.712 273.992C612.938 273.932 613.164 274.081 613.219 274.329C613.274 274.576 613.137 274.823 612.911 274.882C611.301 275.302 609.706 275.841 608.165 276.484C608.117 276.499 608.069 276.514 608.014 276.514ZM632.681 275.481C632.64 275.481 632.599 275.474 632.565 275.459C630.983 274.942 629.353 274.538 627.723 274.261C627.497 274.224 627.34 273.984 627.374 273.737C627.408 273.49 627.627 273.318 627.853 273.355C629.524 273.647 631.188 274.059 632.804 274.583C633.023 274.658 633.154 274.912 633.085 275.152C633.024 275.347 632.859 275.481 632.681 275.481ZM617.766 273.969C617.554 273.969 617.369 273.797 617.348 273.557C617.328 273.303 617.492 273.078 617.725 273.056C619.396 272.869 621.115 272.794 622.799 272.846C623.032 272.854 623.21 273.063 623.203 273.318C623.197 273.572 622.998 273.775 622.772 273.767C621.122 273.722 619.444 273.79 617.807 273.969C617.793 273.969 617.78 273.969 617.766 273.969Z" fill="#1B3049"/>
<path d="M575.268 124.536C574.946 124.536 574.624 124.529 574.309 124.521C574.076 124.514 573.898 124.304 573.898 124.05C573.905 123.795 574.11 123.601 574.33 123.601C575.98 123.646 577.658 123.571 579.294 123.384C579.527 123.361 579.733 123.541 579.753 123.788C579.78 124.042 579.609 124.267 579.383 124.289C578.021 124.462 576.637 124.536 575.268 124.536ZM569.317 124.035C569.296 124.035 569.276 124.035 569.255 124.027C567.584 123.743 565.92 123.339 564.304 122.815C564.085 122.74 563.955 122.485 564.023 122.246C564.092 122.006 564.325 121.864 564.544 121.939C566.126 122.448 567.755 122.845 569.392 123.129C569.618 123.167 569.776 123.399 569.741 123.653C569.7 123.878 569.522 124.035 569.317 124.035ZM584.28 123.376C584.088 123.376 583.917 123.234 583.876 123.024C583.821 122.777 583.958 122.53 584.184 122.47C585.786 122.051 587.382 121.505 588.923 120.854C589.142 120.764 589.381 120.883 589.464 121.116C589.546 121.355 589.436 121.617 589.224 121.707C587.649 122.373 586.019 122.927 584.382 123.361C584.348 123.369 584.314 123.376 584.28 123.376ZM559.702 120.943C559.647 120.943 559.586 120.928 559.531 120.906C557.99 120.157 556.477 119.289 555.038 118.323C554.84 118.189 554.778 117.912 554.902 117.695C555.025 117.478 555.278 117.41 555.477 117.545C556.888 118.488 558.367 119.341 559.873 120.075C560.086 120.18 560.181 120.449 560.086 120.681C560.017 120.839 559.86 120.943 559.702 120.943ZM593.627 119.431C593.477 119.431 593.333 119.349 593.257 119.192C593.148 118.967 593.223 118.69 593.422 118.57C594.867 117.702 596.277 116.729 597.613 115.659C597.798 115.509 598.065 115.554 598.195 115.756C598.332 115.958 598.291 116.25 598.106 116.392C596.743 117.478 595.298 118.481 593.819 119.364C593.764 119.416 593.696 119.431 593.627 119.431ZM551.156 115.217C551.06 115.217 550.971 115.187 550.896 115.112C549.581 113.952 548.327 112.687 547.163 111.347C547.006 111.167 547.013 110.875 547.177 110.703C547.341 110.531 547.608 110.539 547.766 110.718C548.903 112.028 550.129 113.263 551.416 114.401C551.594 114.558 551.621 114.85 551.478 115.045C551.395 115.157 551.279 115.217 551.156 115.217ZM601.722 112.971C601.612 112.971 601.503 112.926 601.42 112.829C601.263 112.649 601.27 112.358 601.434 112.185C602.632 110.943 603.762 109.595 604.796 108.188C604.94 107.993 605.207 107.964 605.385 108.121C605.563 108.278 605.591 108.57 605.447 108.764C604.385 110.202 603.228 111.572 602.009 112.844C601.927 112.926 601.824 112.971 601.722 112.971ZM544.253 107.282C544.123 107.282 543.993 107.215 543.917 107.095C542.924 105.606 542.007 104.026 541.206 102.409C541.096 102.185 541.171 101.908 541.37 101.788C541.575 101.668 541.829 101.751 541.938 101.968C542.726 103.547 543.623 105.089 544.595 106.556C544.732 106.758 544.691 107.05 544.506 107.193C544.424 107.252 544.335 107.282 544.253 107.282ZM608.015 104.445C607.94 104.445 607.864 104.423 607.796 104.378C607.597 104.243 607.536 103.966 607.659 103.749C608.522 102.207 609.296 100.59 609.967 98.9435C610.063 98.7114 610.309 98.6067 610.521 98.7115C610.734 98.8163 610.829 99.0857 610.734 99.3178C610.049 101.002 609.254 102.656 608.378 104.236C608.296 104.371 608.152 104.445 608.015 104.445ZM539.459 97.6635C539.288 97.6635 539.131 97.5512 539.069 97.3715C538.466 95.6499 537.96 93.8684 537.562 92.0718C537.508 91.8248 537.645 91.5778 537.871 91.5179C538.097 91.458 538.323 91.6077 538.377 91.8547C538.761 93.6138 539.261 95.358 539.85 97.0347C539.932 97.2668 539.822 97.5362 539.61 97.626C539.562 97.656 539.514 97.6635 539.459 97.6635ZM537.124 87.0191C536.912 87.0191 536.734 86.8469 536.706 86.6074C536.57 85.1402 536.494 83.6507 536.494 82.161C536.494 81.7943 536.501 81.4274 536.508 81.0606C536.515 80.8061 536.706 80.5965 536.939 80.6115C537.172 80.619 537.35 80.8286 537.35 81.0831C537.343 81.4424 537.336 81.8017 537.336 82.161C537.336 83.6132 537.405 85.0729 537.542 86.5101C537.562 86.7646 537.398 86.9892 537.172 87.0116C537.158 87.0191 537.138 87.0191 537.124 87.0191ZM537.384 76.0678C537.364 76.0678 537.343 76.0678 537.316 76.0603C537.09 76.0229 536.932 75.7833 536.967 75.5363C537.227 73.7098 537.604 71.8909 538.083 70.1243C538.151 69.8848 538.377 69.7425 538.603 69.8174C538.822 69.8922 538.953 70.1467 538.884 70.3863C538.418 72.1154 538.049 73.897 537.795 75.6786C537.768 75.9031 537.59 76.0678 537.384 76.0678ZM540.226 65.5656C540.171 65.5656 540.11 65.5506 540.055 65.5282C539.843 65.4234 539.747 65.1539 539.843 64.9219C540.528 63.2377 541.329 61.5833 542.212 60.0114C542.335 59.7943 542.589 59.7269 542.787 59.8617C542.986 59.9964 543.048 60.2734 542.924 60.4904C542.062 62.0325 541.281 63.6494 540.61 65.2962C540.541 65.4609 540.384 65.5656 540.226 65.5656ZM609.015 62.6912C608.864 62.6912 608.72 62.6014 608.645 62.4516C607.857 60.8647 606.967 59.3227 606.002 57.8555C605.865 57.6534 605.906 57.3615 606.097 57.2193C606.282 57.0696 606.549 57.1145 606.68 57.3241C607.673 58.8212 608.583 60.4006 609.385 62.0175C609.494 62.2421 609.419 62.519 609.213 62.6388C609.145 62.6687 609.076 62.6912 609.015 62.6912ZM545.472 56.2237C545.376 56.2237 545.287 56.1938 545.205 56.1189C545.027 55.9617 544.999 55.6698 545.143 55.4752C546.205 54.0455 547.369 52.6756 548.595 51.403C548.766 51.2309 549.026 51.2384 549.184 51.418C549.341 51.5977 549.334 51.8896 549.17 52.0618C547.971 53.3043 546.835 54.6443 545.794 56.0441C545.718 56.1713 545.595 56.2237 545.472 56.2237ZM603.132 53.8208C603.023 53.8208 602.913 53.776 602.831 53.6786C601.694 52.3687 600.468 51.1261 599.188 49.9883C599.01 49.8311 598.982 49.5391 599.126 49.3445C599.27 49.1499 599.537 49.12 599.715 49.2772C601.023 50.4449 602.276 51.71 603.434 53.0499C603.591 53.2295 603.584 53.5215 603.42 53.6936C603.338 53.776 603.235 53.8208 603.132 53.8208ZM552.744 48.6933C552.614 48.6933 552.484 48.6259 552.402 48.5061C552.265 48.304 552.306 48.0121 552.498 47.8699C553.861 46.7845 555.306 45.789 556.785 44.9132C556.99 44.7934 557.244 44.8757 557.353 45.1003C557.463 45.3249 557.387 45.6018 557.182 45.7216C555.73 46.5824 554.319 47.5555 552.984 48.6184C552.916 48.6634 552.834 48.6933 552.744 48.6933ZM595.353 46.9042C595.278 46.9042 595.202 46.8818 595.134 46.8369C593.73 45.8862 592.251 45.0329 590.744 44.2993C590.532 44.1945 590.436 43.9251 590.532 43.693C590.628 43.461 590.874 43.3561 591.087 43.4609C592.627 44.217 594.134 45.0852 595.572 46.0584C595.771 46.1931 595.832 46.4701 595.709 46.6872C595.634 46.8294 595.497 46.9042 595.353 46.9042ZM561.544 43.4684C561.373 43.4684 561.216 43.3561 561.154 43.1765C561.072 42.9369 561.181 42.675 561.393 42.5852C562.969 41.9264 564.598 41.3725 566.242 40.9458C566.468 40.8859 566.694 41.0356 566.749 41.2826C566.803 41.5296 566.667 41.7767 566.441 41.8366C564.831 42.2558 563.236 42.7947 561.695 43.4384C561.647 43.4534 561.592 43.4684 561.544 43.4684ZM586.204 42.4354C586.163 42.4354 586.122 42.4279 586.088 42.4129C584.506 41.8964 582.876 41.4922 581.246 41.2153C581.02 41.1778 580.862 40.9383 580.897 40.6913C580.931 40.4443 581.15 40.2721 581.376 40.3095C583.047 40.6015 584.711 41.0132 586.327 41.5372C586.546 41.612 586.676 41.8666 586.608 42.1061C586.553 42.3082 586.389 42.4354 586.204 42.4354ZM571.289 40.9233C571.077 40.9233 570.892 40.7512 570.871 40.5117C570.851 40.2572 571.015 40.0326 571.248 40.0101C572.919 39.823 574.638 39.7481 576.322 39.8005C576.555 39.808 576.733 40.0176 576.733 40.2721C576.726 40.5266 576.528 40.7287 576.302 40.7212C574.651 40.6763 572.974 40.7437 571.337 40.9233C571.316 40.9233 571.303 40.9233 571.289 40.9233Z" fill="#1B3049"/>
<path d="M685.891 320.627H645.001L644.94 320.073C644.741 318.321 645.317 316.779 646.57 315.716C648.104 314.421 650.418 314.047 652.548 314.691C652.61 310.499 653.808 307.011 656.034 304.548C658.342 302.003 661.683 300.625 665.457 300.693C669.216 300.633 672.558 302.003 674.866 304.548C677.091 307.003 678.283 310.499 678.351 314.691C680.481 314.047 682.796 314.429 684.33 315.716C685.583 316.772 686.165 318.321 685.96 320.073L685.891 320.627ZM646.049 319.369H684.836C684.823 318.044 684.186 317.206 683.617 316.719C682.227 315.544 679.906 315.312 677.982 316.158L677.167 316.51L677.187 315.552C677.283 311.315 676.194 307.819 674.044 305.439C671.962 303.133 668.908 301.898 665.457 301.958C661.985 301.891 658.937 303.141 656.849 305.439C654.691 307.819 653.609 311.315 653.705 315.552L653.726 316.51L652.911 316.158C650.98 315.312 648.665 315.544 647.275 316.719C646.7 317.206 646.063 318.037 646.049 319.369Z" fill="#1B3049"/>
<path d="M613.329 93.4267H600.708C597.613 93.4267 595.1 90.6795 595.1 87.2961V70.5734C595.1 69.8473 595.641 69.2485 596.312 69.2485V69.7575C595.901 69.7575 595.565 70.1243 595.565 70.5734V87.2961C595.565 90.3951 597.873 92.9177 600.708 92.9177H613.329C613.74 92.9177 614.076 92.5508 614.076 92.1017V91.0313H614.541V92.1017C614.541 92.8353 614 93.4267 613.329 93.4267Z" fill="#1B3049"/>
<path d="M613.562 91.2918H604.653C599.928 91.2918 596.079 87.0849 596.079 81.9199V69.2544H604.988C609.714 69.2544 613.562 73.4613 613.562 78.6263V91.2918ZM596.545 69.7634V81.9199C596.545 86.8079 600.181 90.7827 604.653 90.7827H613.096V78.6263C613.096 73.7382 609.46 69.7634 604.988 69.7634H596.545Z" fill="#1B3049"/>
<path d="M626.039 93.4267H613.418C612.754 93.4267 612.206 92.8353 612.206 92.1017V90.9639H612.672V92.1017C612.672 92.5508 613.007 92.9177 613.418 92.9177H626.039C628.874 92.9177 631.182 90.3951 631.182 87.2961V70.5734C631.182 70.1243 630.846 69.7575 630.435 69.7575V69.2485C631.1 69.2485 631.648 69.8398 631.648 70.5734V87.2961C631.641 90.6795 629.127 93.4267 626.039 93.4267Z" fill="#1B3049"/>
<path d="M622.095 91.2918H613.186V78.6263C613.186 73.4613 617.034 69.2544 621.759 69.2544H630.669V81.9199C630.669 87.0849 626.82 91.2918 622.095 91.2918ZM613.644 90.7827H622.088C626.56 90.7827 630.196 86.8079 630.196 81.9199V69.7634H621.752C617.281 69.7634 613.644 73.7382 613.644 78.6263V90.7827Z" fill="#1B3049"/>
<path d="M630.594 438.202L627.526 440.852L615.98 424.87L619.048 422.22L630.594 438.202ZM627.601 440.133L629.936 438.112L618.959 422.924L616.624 424.945L627.601 440.133Z" fill="#1B3049"/>
<path d="M619.472 422.497L616.123 425.387L615.63 420.94L619.472 422.497ZM616.486 424.429L618.54 422.654L616.184 421.704L616.486 424.429Z" fill="#1B3049"/>
<path d="M630.593 438.202L627.525 440.853L625.101 437.498L628.168 434.848L630.593 438.202ZM627.6 440.134L629.935 438.112L628.086 435.559L625.751 437.581L627.6 440.134Z" fill="#1B3049"/>
<path d="M427.193 65.2066L424.125 67.8564L412.58 51.8749L415.647 49.2251L427.193 65.2066ZM424.201 67.1454L426.536 65.1243L415.558 49.9362L413.223 51.9572L424.201 67.1454Z" fill="#1B3049"/>
<path d="M416.072 49.5021L412.723 52.392L412.23 47.9448L416.072 49.5021ZM413.079 51.4412L415.134 49.6668L412.778 48.716L413.079 51.4412Z" fill="#1B3049"/>
<path d="M427.192 65.2071L424.124 67.8573L421.7 64.5033L424.768 61.853L427.192 65.2071ZM424.2 67.1461L426.535 65.1247L424.686 62.5717L422.351 64.5931L424.2 67.1461Z" fill="#1B3049"/>
<path d="M78.8878 226.332H56.666V198.261L61.2199 193.283H78.8947V226.332H78.8878ZM57.4466 225.471H78.1002V194.137H61.5417L57.4466 198.613V225.471Z" fill="#1B3049"/>
<path d="M63.172 200.5H58.2275V199.647H62.3843V195.103H63.172V200.5Z" fill="#1B3049"/>
<path d="M349.612 44.5684C349.591 44.4561 347.845 33.2803 349.016 9.23682L349.968 9.28917C348.804 33.1904 350.536 44.2764 350.55 44.3812L349.612 44.5684Z" fill="#1B3049"/>
<path d="M349.392 36.5818L349.077 36.2749C348.756 35.9605 341.161 28.5124 341.161 19.1406C341.161 17.5985 341.38 15.9892 341.805 14.3648L341.935 13.8707L345.373 14.9037C344.64 14.0878 343.688 13.0324 342.846 12.1341L342.606 11.8797L342.743 11.5502C345.023 5.95857 348.913 2.15593 349.077 1.99873L349.392 1.69189L349.707 1.99873C349.927 2.20833 355.104 7.28357 356.973 14.3274L357.035 14.5594L356.918 14.7616C355.09 17.8306 353.624 20.3083 352.679 21.9326C353.59 21.2065 354.919 20.1361 356.864 18.5717L357.61 17.9654L357.624 19.1406C357.624 28.5199 350.029 35.968 349.707 36.2749L349.392 36.5818ZM342.592 15.1508C342.27 16.5132 342.113 17.8456 342.113 19.1406C342.113 26.9854 347.961 33.655 349.392 35.1745C350.776 33.7149 356.234 27.4869 356.651 20.0314C351.55 24.1334 351.385 24.2532 351.33 24.2981L351.009 24.5301L350.721 24.2307C350.365 23.8415 350.365 23.8415 356.001 14.3873C354.426 8.72824 350.529 4.30426 349.392 3.10657C348.447 4.10963 345.585 7.33591 343.75 11.6476C345.366 13.3842 347.263 15.5325 347.283 15.555L348.488 16.9249L342.592 15.1508Z" fill="#1B3049"/>
<path d="M47.8667 438.794C47.9078 438.719 51.9482 431.278 63.4939 417.932L64.0213 418.478C52.5371 431.75 48.5309 439.123 48.4898 439.198L47.8667 438.794Z" fill="#1B3049"/>
<path d="M51.3523 434.032L51.3043 433.688C51.2564 433.329 50.2085 424.9 54.4475 419.443C55.146 418.545 55.9953 417.729 56.9814 417.018L57.2827 416.801L58.8166 419.263C58.7618 418.388 58.6796 417.265 58.5974 416.284L58.5769 416.007L58.8029 415.887C62.6583 413.866 66.637 413.762 66.8082 413.754L67.13 413.747L67.178 414.091C67.2123 414.33 67.9313 420.079 65.829 425.184L65.7604 425.349L65.6029 425.401C63.1513 426.195 61.1792 426.846 59.8986 427.28C60.7547 427.348 62.0147 427.445 63.8568 427.587L64.562 427.64L64.0347 428.328C59.7958 433.778 52.0097 434.01 51.681 434.017L51.3523 434.032ZM57.084 417.893C56.2828 418.507 55.5843 419.203 55.0022 419.952C51.4549 424.518 51.8385 431.547 51.9891 433.209C53.4546 433.104 59.4466 432.438 63.0555 428.328C58.2345 427.962 58.0839 427.939 58.0291 427.932L57.7346 427.894L57.7003 427.565C57.666 427.146 57.6662 427.146 65.2196 424.69C66.8631 420.551 66.5959 415.872 66.4795 414.562C65.4797 414.63 62.3502 414.967 59.3371 416.479C59.4877 418.358 59.6246 420.633 59.6246 420.656L59.7069 422.1L57.084 417.893Z" fill="#1B3049"/>
<path d="M637.743 226.369C635.12 226.369 632.99 224.034 632.99 221.174V219.865C632.99 217.559 632.217 215.313 630.744 213.375C629.292 211.458 628.56 209.025 628.676 206.533C628.916 201.503 632.71 197.371 637.312 197.139C639.825 197.011 642.201 197.984 644.016 199.871C645.83 201.765 646.83 204.317 646.83 207.057C646.83 209.415 646.056 211.705 644.653 213.494C643.262 215.268 642.502 217.424 642.502 219.573V221.167C642.496 224.034 640.366 226.369 637.743 226.369ZM637.75 198.201C637.62 198.201 637.49 198.201 637.359 198.209C633.258 198.418 629.875 202.094 629.662 206.578C629.56 208.801 630.21 210.964 631.504 212.671C633.1 214.774 633.976 217.327 633.976 219.857V221.167C633.976 223.435 635.668 225.284 637.743 225.284C639.818 225.284 641.509 223.435 641.509 221.167V219.573C641.509 217.162 642.358 214.752 643.899 212.791C645.152 211.196 645.837 209.16 645.837 207.057C645.837 204.617 644.947 202.341 643.331 200.657C641.811 199.062 639.838 198.201 637.75 198.201Z" fill="#1B3049"/>
<path d="M638.242 187.938H637.249V194.87H638.242V187.938Z" fill="#1B3049"/>
<path d="M649.817 193.401L645.333 198.303L646.035 199.07L650.519 194.168L649.817 193.401Z" fill="#1B3049"/>
<path d="M655.225 206.734H648.884V207.82H655.225V206.734Z" fill="#1B3049"/>
<path d="M625.614 193.135L624.912 193.902L629.395 198.806L630.096 198.038L625.614 193.135Z" fill="#1B3049"/>
<path d="M626.395 206.51H620.054V207.596H626.395V206.51Z" fill="#1B3049"/>
<path d="M641.324 217.574H634.065V218.659H641.324V217.574Z" fill="#1B3049"/>
<path d="M640.906 220.815H634.366V221.9H640.906V220.815Z" fill="#1B3049"/>
<path d="M597.01 211.705H595.962V215.576H597.01V211.705Z" fill="#1B3049"/>
<path d="M597.01 218.367H595.962V222.238H597.01V218.367Z" fill="#1B3049"/>
<path d="M601.304 216.399H597.764V217.545H601.304V216.399Z" fill="#1B3049"/>
<path d="M595.209 216.399H591.669V217.545H595.209V216.399Z" fill="#1B3049"/>
<path d="M510.773 175.236H509.725V179.106H510.773V175.236Z" fill="#1B3049"/>
<path d="M510.773 181.891H509.725V185.761H510.773V181.891Z" fill="#1B3049"/>
<path d="M515.067 179.922H511.526V181.068H515.067V179.922Z" fill="#1B3049"/>
<path d="M508.979 179.922H505.438V181.068H508.979V179.922Z" fill="#1B3049"/>
<path d="M29.5614 216.024H28.5137V219.895H29.5614V216.024Z" fill="#1B3049"/>
<path d="M29.5614 222.687H28.5137V226.558H29.5614V222.687Z" fill="#1B3049"/>
<path d="M33.856 220.718H30.3154V221.864H33.856V220.718Z" fill="#1B3049"/>
<path d="M27.7611 220.718H24.2207V221.864H27.7611V220.718Z" fill="#1B3049"/>
<path d="M78.4226 427.347H77.375V431.218H78.4226V427.347Z" fill="#1B3049"/>
<path d="M78.4226 434.009H77.375V437.88H78.4226V434.009Z" fill="#1B3049"/>
<path d="M82.7162 432.042H79.1758V433.187H82.7162V432.042Z" fill="#1B3049"/>
<path d="M76.6283 432.042H73.0879V433.187H76.6283V432.042Z" fill="#1B3049"/>
<path d="M363.17 41.522H362.123V45.3927H363.17V41.522Z" fill="#1B3049"/>
<path d="M363.17 48.1768H362.123V52.0474H363.17V48.1768Z" fill="#1B3049"/>
<path d="M367.464 46.2085H363.923V47.354H367.464V46.2085Z" fill="#1B3049"/>
<path d="M361.376 46.2085H357.836V47.354H361.376V46.2085Z" fill="#1B3049"/>
<path d="M294.608 0H293.56V3.8706H294.608V0Z" fill="#1B3049"/>
<path d="M294.608 6.66211H293.561V10.5328H294.608V6.66211Z" fill="#1B3049"/>
<path d="M298.909 4.69434H295.368V5.83983H298.909V4.69434Z" fill="#1B3049"/>
<path d="M292.814 4.69434H289.273V5.83983H292.814V4.69434Z" fill="#1B3049"/>
</svg>
