<svg width="686" height="470" viewBox="0 0 686 470" fill="none" xmlns="http://www.w3.org/2000/svg">
<path d="M494.263 121.17C440.971 124.663 485.089 233.422 556.637 247.022C628.193 260.629 623.912 112.665 494.263 121.17Z" fill="#DEECFC"/>
<path d="M559.423 203.974C559.114 203.974 558.812 203.974 558.502 203.96C558.283 203.953 558.102 203.785 558.11 203.582C558.117 203.379 558.313 203.218 558.517 203.218C560.095 203.253 561.704 203.197 563.274 203.043C563.493 203.022 563.689 203.169 563.712 203.372C563.735 203.575 563.576 203.757 563.357 203.778C562.066 203.911 560.737 203.974 559.423 203.974ZM553.723 203.568C553.7 203.568 553.685 203.568 553.662 203.561C552.062 203.33 550.468 203.001 548.913 202.574C548.702 202.518 548.581 202.308 548.641 202.112C548.702 201.916 548.928 201.804 549.14 201.86C550.657 202.273 552.22 202.602 553.783 202.826C554.002 202.861 554.153 203.05 554.115 203.253C554.093 203.435 553.919 203.568 553.723 203.568ZM568.061 203.029C567.88 203.029 567.714 202.917 567.668 202.742C567.616 202.539 567.752 202.343 567.963 202.294C569.503 201.951 571.028 201.51 572.501 200.979C572.705 200.909 572.939 201 573.022 201.189C573.105 201.378 572.999 201.594 572.795 201.671C571.285 202.21 569.722 202.665 568.152 203.015C568.129 203.022 568.091 203.029 568.061 203.029ZM544.511 201.049C544.458 201.049 544.398 201.042 544.345 201.014C542.865 200.405 541.423 199.698 540.041 198.914C539.852 198.809 539.792 198.578 539.905 198.403C540.019 198.228 540.268 198.172 540.456 198.277C541.808 199.047 543.227 199.733 544.67 200.328C544.873 200.412 544.964 200.629 544.873 200.818C544.813 200.972 544.662 201.049 544.511 201.049ZM577.024 199.824C576.88 199.824 576.744 199.754 576.669 199.628C576.563 199.446 576.631 199.222 576.827 199.124C578.216 198.424 579.568 197.626 580.844 196.758C581.025 196.639 581.274 196.674 581.403 196.842C581.531 197.01 581.493 197.241 581.312 197.36C580.006 198.242 578.624 199.061 577.205 199.775C577.152 199.81 577.084 199.824 577.024 199.824ZM536.319 196.401C536.228 196.401 536.138 196.373 536.07 196.317C534.816 195.372 533.608 194.343 532.498 193.258C532.347 193.111 532.355 192.873 532.513 192.733C532.672 192.593 532.929 192.6 533.08 192.747C534.167 193.811 535.345 194.819 536.575 195.743C536.749 195.869 536.772 196.107 536.636 196.268C536.553 196.352 536.44 196.401 536.319 196.401ZM584.77 194.574C584.665 194.574 584.559 194.532 584.483 194.462C584.332 194.315 584.34 194.077 584.498 193.937C585.646 192.922 586.733 191.83 587.723 190.689C587.866 190.528 588.115 190.507 588.289 190.633C588.462 190.759 588.485 190.997 588.349 191.158C587.337 192.327 586.228 193.44 585.057 194.476C584.974 194.539 584.876 194.574 584.77 194.574ZM529.705 189.947C529.584 189.947 529.455 189.891 529.38 189.793C528.428 188.582 527.553 187.301 526.783 185.986C526.677 185.804 526.745 185.579 526.941 185.481C527.137 185.383 527.379 185.447 527.485 185.629C528.24 186.916 529.093 188.169 530.029 189.352C530.158 189.52 530.12 189.751 529.939 189.87C529.871 189.926 529.788 189.947 529.705 189.947ZM590.803 187.644C590.735 187.644 590.66 187.623 590.592 187.588C590.403 187.483 590.343 187.252 590.456 187.077C591.279 185.824 592.026 184.509 592.668 183.172C592.759 182.983 592.993 182.899 593.197 182.983C593.4 183.067 593.491 183.284 593.4 183.473C592.744 184.845 591.989 186.188 591.143 187.469C591.075 187.581 590.939 187.644 590.803 187.644ZM525.114 182.136C524.955 182.136 524.804 182.045 524.736 181.898C524.155 180.498 523.672 179.049 523.294 177.593C523.241 177.39 523.377 177.194 523.589 177.145C523.8 177.096 524.019 177.222 524.072 177.418C524.442 178.846 524.918 180.26 525.484 181.632C525.567 181.821 525.461 182.038 525.25 182.115C525.212 182.129 525.167 182.136 525.114 182.136ZM522.879 173.477C522.675 173.477 522.501 173.337 522.479 173.141C522.343 171.951 522.275 170.733 522.275 169.53C522.275 169.229 522.282 168.935 522.29 168.634C522.298 168.431 522.479 168.256 522.698 168.27C522.917 168.277 523.098 168.445 523.09 168.648C523.083 168.942 523.075 169.229 523.075 169.523C523.075 170.698 523.143 171.888 523.272 173.057C523.294 173.26 523.136 173.442 522.917 173.463C522.909 173.477 522.894 173.477 522.879 173.477ZM523.128 164.581C523.105 164.581 523.083 164.581 523.068 164.574C522.849 164.539 522.698 164.35 522.735 164.147C522.985 162.663 523.347 161.186 523.808 159.751C523.868 159.555 524.095 159.443 524.306 159.499C524.517 159.555 524.638 159.765 524.578 159.961C524.132 161.368 523.777 162.817 523.536 164.266C523.49 164.448 523.317 164.581 523.128 164.581ZM525.846 156.048C525.793 156.048 525.733 156.034 525.68 156.013C525.476 155.929 525.386 155.712 525.476 155.523C526.133 154.158 526.896 152.814 527.749 151.534C527.862 151.359 528.111 151.303 528.3 151.415C528.489 151.52 528.549 151.751 528.429 151.926C527.598 153.179 526.85 154.487 526.209 155.831C526.148 155.964 526.005 156.048 525.846 156.048ZM591.762 153.711C591.619 153.711 591.483 153.641 591.407 153.515C590.652 152.227 589.799 150.967 588.87 149.784C588.742 149.616 588.78 149.385 588.961 149.266C589.142 149.147 589.391 149.182 589.52 149.35C590.471 150.568 591.339 151.849 592.109 153.165C592.215 153.347 592.14 153.57 591.951 153.668C591.89 153.696 591.822 153.711 591.762 153.711ZM530.875 148.461C530.784 148.461 530.694 148.433 530.626 148.377C530.452 148.244 530.429 148.013 530.565 147.852C531.585 146.69 532.695 145.577 533.872 144.541C534.031 144.401 534.288 144.408 534.439 144.555C534.59 144.702 534.582 144.94 534.424 145.08C533.276 146.088 532.189 147.18 531.192 148.321C531.109 148.412 530.996 148.461 530.875 148.461ZM586.122 146.501C586.016 146.501 585.91 146.459 585.827 146.382C584.74 145.318 583.57 144.303 582.339 143.379C582.165 143.246 582.143 143.015 582.279 142.854C582.422 142.693 582.671 142.672 582.845 142.798C584.098 143.743 585.299 144.779 586.409 145.864C586.56 146.011 586.552 146.249 586.394 146.389C586.326 146.466 586.228 146.501 586.122 146.501ZM537.844 142.336C537.723 142.336 537.595 142.28 537.519 142.182C537.391 142.014 537.429 141.783 537.61 141.664C538.916 140.782 540.298 139.97 541.717 139.256C541.914 139.158 542.155 139.228 542.261 139.403C542.367 139.585 542.291 139.809 542.103 139.907C540.713 140.607 539.362 141.398 538.078 142.259C538.01 142.308 537.927 142.336 537.844 142.336ZM578.677 140.887C578.602 140.887 578.534 140.866 578.466 140.831C577.114 140.061 575.702 139.368 574.26 138.766C574.056 138.682 573.966 138.465 574.056 138.276C574.147 138.087 574.381 138.003 574.585 138.087C576.057 138.696 577.507 139.41 578.888 140.194C579.077 140.299 579.138 140.53 579.017 140.705C578.941 140.824 578.805 140.887 578.677 140.887ZM546.278 138.087C546.119 138.087 545.961 137.996 545.9 137.849C545.817 137.66 545.923 137.443 546.134 137.366C547.645 136.827 549.208 136.38 550.778 136.037C550.997 135.988 551.208 136.114 551.261 136.31C551.314 136.513 551.178 136.709 550.967 136.758C549.426 137.1 547.901 137.534 546.421 138.059C546.376 138.08 546.323 138.087 546.278 138.087ZM569.911 137.248C569.873 137.248 569.835 137.241 569.798 137.234C568.28 136.814 566.717 136.485 565.154 136.261C564.935 136.226 564.784 136.037 564.822 135.834C564.86 135.631 565.064 135.491 565.282 135.526C566.883 135.764 568.476 136.093 570.024 136.52C570.236 136.576 570.356 136.786 570.296 136.982C570.243 137.143 570.085 137.248 569.911 137.248ZM555.618 136.023C555.414 136.023 555.24 135.883 555.218 135.687C555.195 135.484 555.354 135.302 555.573 135.281C557.173 135.127 558.819 135.071 560.435 135.113C560.654 135.12 560.828 135.288 560.828 135.498C560.82 135.701 560.631 135.869 560.412 135.862C558.834 135.827 557.226 135.876 555.656 136.03C555.64 136.023 555.633 136.023 555.618 136.023Z" fill="#1B3049"/>
<path d="M282.064 99.0577C87.8951 77.31 -56.1154 278.772 121.231 458.478H555.422C700.353 393.284 624.524 278.198 539.52 262.33C454.517 246.455 464.302 119.468 282.064 99.0577Z" fill="#DEECFC"/>
<path d="M17.736 139.186C17.6605 139.186 17.5774 139.165 17.5095 139.123C17.3283 139.011 17.2754 138.78 17.4037 138.605C17.8568 137.989 18.3249 137.366 18.8081 136.771C18.944 136.61 19.1932 136.575 19.3669 136.694C19.5481 136.813 19.5783 137.051 19.4499 137.212C18.9743 137.8 18.5137 138.409 18.0682 139.018C17.9927 139.13 17.8643 139.186 17.736 139.186Z" fill="#1B3049"/>
<path d="M21.8586 134.245C21.768 134.245 21.6698 134.217 21.5943 134.154C21.4282 134.021 21.4131 133.783 21.5566 133.629C22.5155 132.621 23.5348 131.641 24.5843 130.71C24.7429 130.57 24.9996 130.57 25.1506 130.724C25.3016 130.871 25.3016 131.109 25.1355 131.249C24.1011 132.166 23.1044 133.132 22.1606 134.126C22.0775 134.203 21.9719 134.245 21.8586 134.245ZM28.1104 128.694C27.9971 128.694 27.8763 128.645 27.8008 128.554C27.6649 128.393 27.6875 128.162 27.8612 128.029C28.9938 127.182 30.1717 126.37 31.3722 125.614C31.5534 125.495 31.8026 125.544 31.9309 125.712C32.0593 125.88 32.0064 126.111 31.8252 126.23C30.6473 126.972 29.4846 127.77 28.3747 128.603C28.2916 128.666 28.201 128.694 28.1104 128.694ZM35.2758 124.186C35.1323 124.186 34.9965 124.116 34.9285 123.997C34.8228 123.815 34.8907 123.591 35.0795 123.493C36.348 122.835 37.6542 122.219 38.9755 121.66C39.1794 121.576 39.4135 121.66 39.5041 121.842C39.5947 122.031 39.5041 122.247 39.3078 122.331C38.0091 122.877 36.7179 123.486 35.4721 124.137C35.4117 124.165 35.3437 124.186 35.2758 124.186ZM43.1585 120.855C42.9924 120.855 42.8414 120.757 42.781 120.61C42.7055 120.414 42.8187 120.204 43.0226 120.134C44.3892 119.679 45.7936 119.28 47.1905 118.937C47.4019 118.881 47.6208 119 47.6812 119.203C47.7416 119.399 47.6133 119.602 47.3943 119.658C46.0126 119.994 44.6309 120.393 43.2869 120.841C43.2491 120.848 43.2038 120.855 43.1585 120.855Z" fill="#1B3049"/>
<path d="M51.5398 118.804C51.351 118.804 51.1773 118.678 51.1471 118.496C51.1094 118.293 51.2528 118.104 51.4718 118.062C52.2646 117.936 53.0725 117.817 53.8729 117.726C54.0918 117.698 54.2957 117.845 54.3184 118.048C54.3486 118.251 54.19 118.439 53.971 118.46C53.1858 118.551 52.3854 118.664 51.6077 118.79C51.5851 118.797 51.5624 118.804 51.5398 118.804Z" fill="#1B3049"/>
<path d="M74.5458 119.881C74.5081 119.881 74.4703 119.874 74.4326 119.867C73.67 119.664 72.8922 119.482 72.1221 119.315C71.9031 119.266 71.7748 119.07 71.8201 118.867C71.8729 118.664 72.0844 118.545 72.3033 118.587C73.0886 118.755 73.8738 118.944 74.6515 119.147C74.8629 119.203 74.9913 119.405 74.9309 119.608C74.8856 119.776 74.727 119.881 74.5458 119.881Z" fill="#1B3049"/>
<path d="M61.2043 213.578C60.9853 213.578 60.8041 213.417 60.8041 213.214C60.8041 213.011 60.9778 212.843 61.1967 212.836C62.8125 212.815 64.4434 212.724 66.0441 212.563C66.2631 212.542 66.4594 212.689 66.4896 212.892C66.5123 213.095 66.3537 213.277 66.1347 213.305C64.5038 213.466 62.8503 213.557 61.2043 213.578ZM56.3116 213.431C56.304 213.431 56.2889 213.431 56.2814 213.431C54.6429 213.312 52.9969 213.116 51.3887 212.85C51.1697 212.815 51.0262 212.619 51.064 212.416C51.1017 212.213 51.3132 212.08 51.5321 212.115C53.1177 212.374 54.7335 212.57 56.3493 212.689C56.5683 212.703 56.7344 212.885 56.7193 213.088C56.6967 213.284 56.5155 213.431 56.3116 213.431ZM70.9218 212.605C70.733 212.605 70.5669 212.486 70.5291 212.311C70.4838 212.108 70.6273 211.912 70.8387 211.87C72.4168 211.569 74.0024 211.191 75.5427 210.75C75.7541 210.687 75.9806 210.799 76.041 210.995C76.1089 211.191 75.9882 211.401 75.7767 211.457C74.2138 211.905 72.6055 212.283 70.9973 212.591C70.9746 212.598 70.9444 212.605 70.9218 212.605ZM46.6847 211.849C46.647 211.849 46.6168 211.842 46.579 211.835C45.0009 211.429 43.4229 210.946 41.8977 210.4C41.6938 210.323 41.5881 210.113 41.6636 209.917C41.7467 209.728 41.9732 209.63 42.1846 209.7C43.6872 210.239 45.2425 210.708 46.798 211.107C47.0094 211.163 47.1377 211.366 47.0773 211.562C47.0245 211.744 46.8584 211.849 46.6847 211.849ZM80.2617 209.938C80.1032 209.938 79.9522 209.854 79.8918 209.707C79.8087 209.518 79.9069 209.301 80.1107 209.217C81.5982 208.643 83.0781 207.999 84.4975 207.292C84.6939 207.194 84.9355 207.264 85.0412 207.446C85.1469 207.628 85.0714 207.852 84.8751 207.95C83.4254 208.664 81.9304 209.322 80.4203 209.903C80.3675 209.931 80.3146 209.938 80.2617 209.938ZM37.5562 208.601C37.4958 208.601 37.4354 208.587 37.375 208.559C35.9102 207.88 34.4605 207.131 33.0712 206.326C32.8824 206.214 32.822 205.99 32.9428 205.815C33.0636 205.64 33.3052 205.591 33.494 205.696C34.8606 206.487 36.2877 207.229 37.7298 207.894C37.9261 207.985 38.0092 208.209 37.911 208.391C37.8431 208.524 37.6996 208.601 37.5562 208.601ZM88.8919 205.675C88.7636 205.675 88.6352 205.619 88.5597 205.507C88.4389 205.339 88.4842 205.108 88.673 204.989C90.017 204.163 91.3383 203.267 92.5917 202.329C92.7654 202.203 93.0145 202.224 93.158 202.385C93.2939 202.546 93.2712 202.777 93.0976 202.91C91.8215 203.862 90.4851 204.772 89.1184 205.612C89.0429 205.654 88.9674 205.675 88.8919 205.675ZM29.2582 203.806C29.1751 203.806 29.0845 203.778 29.0166 203.729C27.7179 202.805 26.4418 201.818 25.2413 200.782C25.0752 200.642 25.0676 200.404 25.2186 200.257C25.3696 200.104 25.6264 200.096 25.7849 200.236C26.9703 201.251 28.2238 202.231 29.4998 203.134C29.6735 203.26 29.7112 203.491 29.5753 203.659C29.4998 203.757 29.379 203.806 29.2582 203.806ZM96.4953 199.978C96.3896 199.978 96.2839 199.942 96.2084 199.865C96.0498 199.718 96.0574 199.481 96.2159 199.341C97.3711 198.298 98.4811 197.185 99.523 196.044C99.6665 195.89 99.9157 195.869 100.089 196.002C100.255 196.135 100.278 196.373 100.135 196.527C99.0776 197.689 97.945 198.816 96.7747 199.872C96.6992 199.942 96.601 199.978 96.4953 199.978ZM22.0776 197.647C21.9644 197.647 21.8587 197.605 21.7756 197.521C20.6808 196.387 19.6388 195.197 18.6648 193.972C18.5365 193.804 18.5742 193.573 18.7479 193.454C18.9291 193.335 19.1783 193.37 19.3066 193.531C20.2655 194.735 21.2924 195.911 22.3721 197.024C22.5231 197.178 22.508 197.409 22.3419 197.549C22.2664 197.619 22.1758 197.647 22.0776 197.647ZM102.815 193.055C102.74 193.055 102.656 193.034 102.589 192.992C102.407 192.873 102.362 192.642 102.49 192.474C103.412 191.249 104.28 189.961 105.073 188.659C105.178 188.477 105.428 188.414 105.616 188.519C105.813 188.617 105.881 188.848 105.767 189.023C104.967 190.346 104.084 191.648 103.147 192.901C103.064 192.999 102.936 193.055 102.815 193.055ZM16.2789 190.353C16.143 190.353 16.007 190.29 15.9315 190.171C15.0859 188.869 14.3007 187.511 13.5985 186.139C13.5003 185.957 13.5909 185.733 13.7872 185.642C13.9835 185.551 14.2251 185.635 14.3233 185.817C15.0179 187.168 15.7881 188.498 16.6187 189.786C16.7319 189.961 16.6715 190.192 16.4828 190.297C16.4223 190.332 16.3468 190.353 16.2789 190.353ZM107.602 185.152C107.549 185.152 107.489 185.145 107.436 185.117C107.232 185.033 107.141 184.816 107.232 184.627C107.889 183.262 108.478 181.849 108.984 180.428C109.052 180.232 109.278 180.127 109.49 180.19C109.701 180.253 109.814 180.463 109.746 180.659C109.233 182.101 108.629 183.536 107.964 184.921C107.904 185.068 107.761 185.152 107.602 185.152ZM12.0732 182.171C11.9071 182.171 11.7561 182.08 11.6957 181.926C11.137 180.498 10.6462 179.028 10.2309 177.558C10.1781 177.362 10.3064 177.159 10.5178 177.103C10.7368 177.054 10.9482 177.173 11.0086 177.369C11.4164 178.818 11.8996 180.26 12.4508 181.667C12.5263 181.863 12.4206 182.073 12.2091 182.143C12.1638 182.164 12.1185 182.171 12.0732 182.171ZM110.69 176.55C110.66 176.55 110.63 176.55 110.6 176.543C110.381 176.494 110.252 176.298 110.298 176.095C110.66 174.639 110.947 173.148 111.158 171.664C111.189 171.461 111.385 171.321 111.611 171.342C111.83 171.37 111.989 171.552 111.959 171.762C111.747 173.267 111.453 174.786 111.09 176.263C111.045 176.438 110.879 176.55 110.69 176.55ZM9.61934 173.393C9.42302 173.393 9.2569 173.26 9.22669 173.078C8.96998 171.58 8.78879 170.054 8.68308 168.535C8.66798 168.332 8.83409 168.15 9.06061 168.143C9.27957 168.129 9.47588 168.283 9.48343 168.493C9.58159 169.991 9.76277 171.496 10.0195 172.966C10.0572 173.169 9.90627 173.358 9.68731 173.393C9.66466 173.393 9.64199 173.393 9.61934 173.393ZM111.966 167.569C111.959 167.569 111.959 167.569 111.951 167.569C111.732 167.562 111.559 167.388 111.566 167.185C111.589 166.618 111.596 166.037 111.596 165.463C111.596 164.539 111.566 163.601 111.513 162.684C111.498 162.481 111.672 162.306 111.891 162.292C112.117 162.285 112.298 162.439 112.314 162.642C112.374 163.58 112.404 164.525 112.404 165.47C112.404 166.051 112.389 166.639 112.374 167.219C112.359 167.408 112.178 167.569 111.966 167.569ZM111.392 158.519C111.196 158.519 111.03 158.386 111 158.204C110.758 156.727 110.426 155.243 110.033 153.794C109.98 153.598 110.109 153.395 110.32 153.339C110.539 153.29 110.751 153.409 110.811 153.605C111.211 155.075 111.543 156.587 111.793 158.085C111.823 158.288 111.679 158.477 111.46 158.512C111.438 158.519 111.415 158.519 111.392 158.519ZM108.991 149.728C108.825 149.728 108.674 149.63 108.614 149.483C108.07 148.076 107.443 146.676 106.764 145.325C106.666 145.136 106.756 144.919 106.953 144.828C107.157 144.737 107.391 144.821 107.489 145.003C108.183 146.375 108.818 147.796 109.369 149.224C109.444 149.42 109.339 149.63 109.127 149.7C109.082 149.721 109.037 149.728 108.991 149.728ZM104.839 141.531C104.703 141.531 104.567 141.468 104.491 141.349C103.668 140.061 102.77 138.801 101.818 137.59C101.69 137.422 101.728 137.191 101.909 137.072C102.09 136.953 102.339 136.988 102.468 137.156C103.434 138.381 104.348 139.669 105.178 140.978C105.292 141.153 105.231 141.384 105.035 141.489C104.974 141.517 104.907 141.531 104.839 141.531ZM99.0775 134.203C98.9643 134.203 98.8586 134.161 98.7756 134.077C97.7109 132.957 96.5708 131.872 95.3929 130.85C95.2343 130.71 95.2193 130.472 95.3703 130.325C95.5213 130.178 95.778 130.171 95.9366 130.304C97.1371 131.34 98.2923 132.446 99.372 133.58C99.5155 133.734 99.5004 133.972 99.3343 134.105C99.2663 134.175 99.1757 134.203 99.0775 134.203ZM91.9348 128.015C91.8518 128.015 91.7611 127.987 91.6932 127.938C90.4172 127.021 89.0732 126.153 87.7141 125.355C87.5253 125.243 87.4725 125.019 87.5857 124.844C87.7065 124.669 87.9481 124.62 88.1369 124.725C89.5262 125.537 90.8853 126.419 92.1839 127.343C92.3576 127.469 92.3954 127.7 92.2595 127.868C92.1764 127.966 92.0556 128.015 91.9348 128.015ZM83.6595 123.178C83.5991 123.178 83.5387 123.164 83.4782 123.136C82.0361 122.464 80.5411 121.848 79.0386 121.302C78.8347 121.225 78.729 121.015 78.812 120.819C78.8951 120.63 79.1216 120.532 79.333 120.609C80.8582 121.162 82.3759 121.785 83.8407 122.471C84.037 122.562 84.12 122.786 84.0143 122.968C83.9539 123.101 83.8105 123.178 83.6595 123.178Z" fill="#1B3049"/>
<path d="M9.00786 164.28C9.00031 164.28 9.00029 164.28 8.99274 164.28C8.77378 164.273 8.60011 164.098 8.60766 163.895C8.63031 163.146 8.67565 162.39 8.74361 161.648C8.75871 161.445 8.95498 161.291 9.17395 161.305C9.39291 161.319 9.55906 161.501 9.54396 161.704C9.48355 162.439 9.43822 163.181 9.41557 163.916C9.40047 164.119 9.21927 164.28 9.00786 164.28Z" fill="#1B3049"/>
<path d="M17.736 139.186C17.6605 139.186 17.5774 139.165 17.5095 139.123C17.3283 139.011 17.2754 138.78 17.4037 138.605C17.8568 137.989 18.3249 137.366 18.8081 136.771C18.944 136.61 19.1932 136.575 19.3669 136.694C19.5481 136.813 19.5783 137.051 19.4499 137.212C18.9743 137.8 18.5137 138.409 18.0682 139.018C17.9927 139.13 17.8643 139.186 17.736 139.186Z" fill="#1B3049"/>
<path d="M21.8586 134.245C21.768 134.245 21.6698 134.217 21.5943 134.154C21.4282 134.021 21.4131 133.783 21.5566 133.629C22.5155 132.621 23.5348 131.641 24.5843 130.71C24.7429 130.57 24.9996 130.57 25.1506 130.724C25.3016 130.871 25.3016 131.109 25.1355 131.249C24.1011 132.166 23.1044 133.132 22.1606 134.126C22.0775 134.203 21.9719 134.245 21.8586 134.245ZM28.1104 128.694C27.9971 128.694 27.8763 128.645 27.8008 128.554C27.6649 128.393 27.6875 128.162 27.8612 128.029C28.9938 127.182 30.1717 126.37 31.3722 125.614C31.5534 125.495 31.8026 125.544 31.9309 125.712C32.0593 125.88 32.0064 126.111 31.8252 126.23C30.6473 126.972 29.4846 127.77 28.3747 128.603C28.2916 128.666 28.201 128.694 28.1104 128.694ZM35.2758 124.186C35.1323 124.186 34.9965 124.116 34.9285 123.997C34.8228 123.815 34.8907 123.591 35.0795 123.493C36.348 122.835 37.6542 122.219 38.9755 121.66C39.1794 121.576 39.4135 121.66 39.5041 121.842C39.5947 122.031 39.5041 122.247 39.3078 122.331C38.0091 122.877 36.7179 123.486 35.4721 124.137C35.4117 124.165 35.3437 124.186 35.2758 124.186ZM43.1585 120.855C42.9924 120.855 42.8414 120.757 42.781 120.61C42.7055 120.414 42.8187 120.204 43.0226 120.134C44.3892 119.679 45.7936 119.28 47.1905 118.937C47.4019 118.881 47.6208 119 47.6812 119.203C47.7416 119.399 47.6133 119.602 47.3943 119.658C46.0126 119.994 44.6309 120.393 43.2869 120.841C43.2491 120.848 43.2038 120.855 43.1585 120.855Z" fill="#1B3049"/>
<path d="M51.5398 118.804C51.351 118.804 51.1773 118.678 51.1471 118.496C51.1094 118.293 51.2528 118.104 51.4718 118.062C52.2646 117.936 53.0725 117.817 53.8729 117.726C54.0918 117.698 54.2957 117.845 54.3184 118.048C54.3486 118.251 54.19 118.439 53.971 118.46C53.1858 118.551 52.3854 118.664 51.6077 118.79C51.5851 118.797 51.5624 118.804 51.5398 118.804Z" fill="#1B3049"/>
<path d="M68.1131 126.419L61.7481 122.128L55.383 126.419L57.8143 119.476L51.4492 115.185H59.3093L61.7405 108.241L64.1718 115.185H72.0469L65.6819 119.476L68.1131 126.419ZM61.7405 121.211L66.5804 124.473L64.7305 119.196L69.5704 115.934H63.5828L61.733 110.656L59.8831 115.934H53.8956L58.7354 119.196L56.8855 124.473L61.7405 121.211Z" fill="#1B3049"/>
<path d="M537.489 345.457C563.871 248.681 647.674 249.423 608.992 376.423C658.954 339.073 732.284 402.566 637.193 446.642C632.807 448.672 545.327 452.62 544.519 450.38C543.711 448.14 537.489 345.457 537.489 345.457Z" fill="#1B3049"/>
<path d="M551.783 443.8C551.201 443.8 550.62 443.618 550.152 443.261C549.374 442.666 549.034 441.707 549.298 440.804L592.812 289.159C593.174 287.885 594.586 287.129 595.961 287.465C597.335 287.801 598.15 289.11 597.788 290.384L555.732 436.962L658.63 389.981C659.906 389.4 661.446 389.883 662.073 391.066C662.699 392.249 662.178 393.676 660.902 394.257L552.923 443.562C552.56 443.723 552.168 443.8 551.783 443.8Z" fill="#1B3049"/>
<path d="M573.807 367.603C572.69 367.603 571.655 366.924 571.331 365.874L558.435 324.29C558.042 323.023 558.835 321.7 560.194 321.336C561.56 320.972 562.987 321.707 563.38 322.967L576.276 364.551C576.669 365.818 575.876 367.141 574.517 367.505C574.283 367.575 574.041 367.603 573.807 367.603Z" fill="#1B3049"/>
<path d="M668.03 420.177C667.516 421.101 666.391 421.64 665.244 421.423L619.45 413.044C618.053 412.792 617.147 411.532 617.427 410.237C617.698 408.942 619.057 408.102 620.454 408.361L666.248 416.74C667.645 416.992 668.551 418.252 668.272 419.547C668.219 419.771 668.136 419.981 668.03 420.177Z" fill="#1B3049"/>
<path d="M636.167 403.14C635.313 402.468 635.011 401.327 635.502 400.333L646.488 378.046C647.077 376.849 648.61 376.317 649.901 376.87C651.192 377.416 651.766 378.837 651.169 380.034L640.183 402.321C639.595 403.518 638.062 404.05 636.771 403.497C636.544 403.406 636.348 403.28 636.167 403.14Z" fill="#1B3049"/>
<path d="M562.119 403.119C562.127 402.083 562.874 401.131 564.007 400.844L589.482 394.306C590.849 393.956 592.268 394.698 592.653 395.972C593.031 397.239 592.231 398.555 590.856 398.912L565.381 405.45C564.014 405.8 562.595 405.058 562.21 403.784C562.142 403.56 562.112 403.343 562.119 403.119Z" fill="#1B3049"/>
<path d="M146.004 45.3502C146.004 70.3947 121.85 90.7004 121.85 90.7004C121.85 90.7004 97.6958 70.3947 97.6958 45.3502C97.6958 20.3058 108.508 1.80906e-06 121.85 1.80906e-06C135.192 -0.00699776 146.004 20.2988 146.004 45.3502Z" fill="#1B3049"/>
<path d="M121.849 257.283C120.558 257.283 119.509 256.31 119.509 255.114V14.4614C119.509 13.2644 120.558 12.2915 121.849 12.2915C123.141 12.2915 124.19 13.2644 124.19 14.4614V255.114C124.19 256.31 123.141 257.283 121.849 257.283Z" fill="#1B3049"/>
<path d="M181.907 117.383C164.329 130.423 137.51 126.433 137.51 126.433C137.51 126.433 139.178 101.298 156.756 88.2508C174.334 75.2107 194.214 71.1579 201.153 79.2004C208.099 87.2499 199.477 104.343 181.907 117.383Z" fill="#1B3049"/>
<path d="M121.48 137.794C120.808 137.01 120.944 135.876 121.782 135.246L184.134 88.979C184.98 88.356 186.203 88.482 186.882 89.259C187.554 90.0429 187.418 91.1769 186.58 91.8068L124.228 138.074C123.383 138.697 122.152 138.571 121.48 137.794Z" fill="#1B3049"/>
<path d="M71.7144 182.92C89.2919 195.96 116.111 191.97 116.111 191.97C116.111 191.97 114.443 166.835 96.8651 153.787C79.2875 140.747 59.4071 136.694 52.4682 144.737C45.5218 152.786 54.1369 169.879 71.7144 182.92Z" fill="#1B3049"/>
<path d="M122.861 198.172C123.533 197.388 123.398 196.254 122.559 195.624L69.487 154.516C68.6414 153.893 67.4182 154.019 66.7387 154.796C66.0667 155.58 66.2026 156.713 67.0407 157.343L120.113 198.452C120.959 199.075 122.189 198.949 122.861 198.172Z" fill="#1B3049"/>
<path d="M186.663 166.121C185.998 165.337 184.768 165.204 183.922 165.82L121.645 209.399C120.8 210.015 120.656 211.156 121.321 211.94C121.985 212.724 123.216 212.857 124.062 212.241L186.338 168.662C187.184 168.046 187.327 166.905 186.663 166.121Z" fill="#1B3049"/>
<path d="M186.338 168.662C177.806 209.189 147.37 217.001 124.062 212.241L186.338 168.662Z" fill="#1B3049"/>
<path d="M665.516 470H30.542V461.81C30.542 458.786 33.1846 456.33 36.454 456.33H659.611C662.873 456.33 665.523 458.779 665.523 461.81V470H665.516Z" fill="#1B3049"/>
<path d="M449.149 345.422H124.598C91.5497 345.422 64.7681 370.256 64.7681 400.887C64.7681 431.524 91.5572 456.351 124.598 456.351H449.149V345.422Z" fill="#244061"/>
<path d="M578.375 345.422H253.825C220.776 345.422 193.995 370.256 193.995 400.887C193.995 431.524 220.784 456.351 253.825 456.351H578.375V345.422Z" fill="#59A1F2"/>
<path d="M253.825 448.246C225.661 448.246 202.746 427.002 202.746 400.894C202.746 374.785 225.661 353.542 253.825 353.542H578.375V448.253H253.825V448.246Z" fill="#59A1F2"/>
<path d="M573.543 375.989H429.094C428.241 375.989 427.546 375.345 427.546 374.554C427.546 373.763 428.241 373.119 429.094 373.119H573.543C574.396 373.119 575.091 373.763 575.091 374.554C575.091 375.345 574.396 375.989 573.543 375.989Z" fill="#DEECFC"/>
<path d="M419.822 375.8H323.123C322.27 375.8 321.575 375.156 321.575 374.365C321.575 373.574 322.27 372.93 323.123 372.93H419.822C420.675 372.93 421.37 373.574 421.37 374.365C421.37 375.156 420.675 375.8 419.822 375.8Z" fill="#DEECFC"/>
<path d="M568.303 403.63H489.332C488.479 403.63 487.784 402.986 487.784 402.195C487.784 401.404 488.479 400.76 489.332 400.76H568.303C569.156 400.76 569.851 401.404 569.851 402.195C569.851 402.986 569.156 403.63 568.303 403.63Z" fill="#DEECFC"/>
<path d="M451.859 403.63H233.876C233.023 403.63 232.328 402.986 232.328 402.195C232.328 401.404 233.023 400.76 233.876 400.76H451.859C452.712 400.76 453.406 401.404 453.406 402.195C453.406 402.986 452.712 403.63 451.859 403.63Z" fill="#DEECFC"/>
<path d="M360.8 423.796H304.798C303.945 423.796 303.25 423.152 303.25 422.361C303.25 421.57 303.945 420.926 304.798 420.926H360.8C361.653 420.926 362.348 421.57 362.348 422.361C362.34 423.159 361.653 423.796 360.8 423.796Z" fill="#DEECFC"/>
<path d="M481.676 423.796H405.93C405.076 423.796 404.382 423.152 404.382 422.361C404.382 421.57 405.076 420.926 405.93 420.926H481.676C482.529 420.926 483.224 421.57 483.224 422.361C483.216 423.159 482.529 423.796 481.676 423.796Z" fill="#DEECFC"/>
<path d="M569.511 423.796H497.789C496.935 423.796 496.241 423.152 496.241 422.361C496.241 421.57 496.935 420.926 497.789 420.926H569.511C570.364 420.926 571.059 421.57 571.059 422.361C571.059 423.159 570.364 423.796 569.511 423.796Z" fill="#DEECFC"/>
<path d="M434.01 234.521H176.387C117.599 234.521 90.8096 259.355 90.8096 289.985C90.8096 320.622 117.599 345.45 176.387 345.45H434.01V234.521Z" fill="#244061"/>
<path d="M537.489 234.521H305.606C272.557 234.521 245.776 259.355 245.776 289.985C245.776 320.622 272.565 345.45 305.606 345.45H537.489V234.521Z" fill="#244061"/>
<path d="M305.606 337.344C277.443 337.344 254.527 316.101 254.527 289.992C254.527 263.884 277.443 242.64 305.606 242.64H537.489V337.351H305.606V337.344Z" fill="#59A1F2"/>
<path d="M532.657 265.088H388.208C387.355 265.088 386.661 264.444 386.661 263.653C386.661 262.862 387.355 262.218 388.208 262.218H532.657C533.51 262.218 534.205 262.862 534.205 263.653C534.197 264.444 533.51 265.088 532.657 265.088Z" fill="#244061"/>
<path d="M378.944 264.899H297.685C296.832 264.899 296.138 264.255 296.138 263.464C296.138 262.673 296.832 262.029 297.685 262.029H378.944C379.797 262.029 380.492 262.673 380.492 263.464C380.484 264.262 379.797 264.899 378.944 264.899Z" fill="#244061"/>
<path d="M527.417 292.729H448.446C447.593 292.729 446.898 292.085 446.898 291.294C446.898 290.503 447.593 289.859 448.446 289.859H527.417C528.27 289.859 528.965 290.503 528.965 291.294C528.965 292.085 528.27 292.729 527.417 292.729Z" fill="#244061"/>
<path d="M410.973 292.729H285.665C284.812 292.729 284.117 292.085 284.117 291.294C284.117 290.503 284.812 289.859 285.665 289.859H410.973C411.826 289.859 412.521 290.503 412.521 291.294C412.521 292.085 411.826 292.729 410.973 292.729Z" fill="#244061"/>
<path d="M440.79 312.902H365.043C364.19 312.902 363.496 312.258 363.496 311.467C363.496 310.676 364.19 310.032 365.043 310.032H440.79C441.643 310.032 442.338 310.676 442.338 311.467C442.338 312.258 441.643 312.902 440.79 312.902Z" fill="#244061"/>
<path d="M528.625 312.902H456.903C456.05 312.902 455.355 312.258 455.355 311.467C455.355 310.676 456.05 310.032 456.903 310.032H528.625C529.478 310.032 530.173 310.676 530.173 311.467C530.173 312.258 529.478 312.902 528.625 312.902Z" fill="#244061"/>
<path d="M193.987 123.486H451.61C510.398 123.486 537.187 148.321 537.187 178.951C537.187 209.588 510.398 234.415 451.61 234.415H193.987V123.486Z" fill="#59A1F2"/>
<path d="M141.994 123.486H322.391C355.439 123.486 382.221 148.321 382.221 178.951C382.221 209.588 355.431 234.415 322.391 234.415H141.994V123.486Z" fill="#59A1F2"/>
<path d="M322.383 226.31C350.546 226.31 373.462 205.066 373.462 178.958C373.462 152.85 350.546 131.606 322.383 131.606H141.994V226.317H322.383V226.31Z" fill="#59A1F2"/>
<path d="M146.827 154.053H239.788C240.642 154.053 241.336 153.409 241.336 152.619C241.336 151.828 240.642 151.184 239.788 151.184H146.827C145.973 151.184 145.279 151.828 145.279 152.619C145.279 153.409 145.973 154.053 146.827 154.053Z" fill="#DEECFC"/>
<path d="M249.053 153.864H330.311C331.164 153.864 331.859 153.22 331.859 152.429C331.859 151.639 331.164 150.995 330.311 150.995H249.053C248.2 150.995 247.505 151.639 247.505 152.429C247.512 153.227 248.2 153.864 249.053 153.864Z" fill="#DEECFC"/>
<path d="M152.066 181.695H179.558C180.411 181.695 181.106 181.051 181.106 180.26C181.106 179.469 180.411 178.825 179.558 178.825H152.066C151.213 178.825 150.519 179.469 150.519 180.26C150.519 181.051 151.213 181.695 152.066 181.695Z" fill="#DEECFC"/>
<path d="M217.023 181.695H342.331C343.185 181.695 343.879 181.051 343.879 180.26C343.879 179.469 343.185 178.825 342.331 178.825H217.023C216.17 178.825 215.476 179.469 215.476 180.26C215.476 181.051 216.17 181.695 217.023 181.695Z" fill="#DEECFC"/>
<path d="M187.206 201.867H262.953C263.806 201.867 264.5 201.223 264.5 200.433C264.5 199.642 263.806 198.998 262.953 198.998H187.206C186.353 198.998 185.658 199.642 185.658 200.433C185.658 201.223 186.353 201.867 187.206 201.867Z" fill="#DEECFC"/>
<path d="M150.851 201.867H171.086C171.939 201.867 172.634 201.223 172.634 200.433C172.634 199.642 171.939 198.998 171.086 198.998H150.851C149.997 198.998 149.303 199.642 149.303 200.433C149.303 201.223 150.005 201.867 150.851 201.867Z" fill="#DEECFC"/>
<path d="M87.7217 456.344H84.7393L97.1296 404.211H104.242L87.7217 456.344Z" fill="#1B3049"/>
<path d="M52.159 456.106H49.1841L70.5368 371.348H77.6494L52.159 456.106Z" fill="#1B3049"/>
<path d="M131.001 456.344H133.983L121.593 404.211H114.48L131.001 456.344Z" fill="#1B3049"/>
<path d="M112.004 404.946H146.91L140.772 379.943L104.567 319.117L94.0643 320.615L83.1387 320.818L86.2268 328.553L96.0047 391.556L112.004 404.946Z" fill="black"/>
<path d="M152.49 385.634L159.806 396.575C159.806 399.57 158.032 412.604 162.071 422.046C166.111 431.488 171.608 446.019 171.283 448.266C170.958 450.513 170.475 456.204 170.475 456.204H199.084C198.759 456.204 181.952 448.714 180.661 446.166C179.369 443.619 181.31 397.176 181.469 393.131C181.627 389.085 174.794 382.267 174.794 382.267C174.794 382.267 152.49 380.091 152.49 385.634Z" fill="#FFE9BD"/>
<path d="M171.072 449.946C170.785 452.557 170.468 456.204 170.468 456.204H199.077C198.775 456.204 183.938 449.603 181.054 446.685C179.898 448.42 179.679 450.359 179.679 450.359C177.799 451.99 173.073 450.632 171.072 449.946Z" fill="black"/>
<path d="M139.963 395.525L142.87 396.575C142.87 399.57 141.096 412.604 145.135 422.046C149.175 431.488 154.672 446.019 154.347 448.266C154.022 450.513 153.539 456.204 153.539 456.204H182.148C181.823 456.204 165.016 448.714 163.725 446.166C162.434 443.619 164.374 397.176 164.533 393.131C164.691 389.085 159.036 384.591 159.036 384.591C159.036 384.591 139.963 389.981 139.963 395.525Z" fill="#FFE9BD"/>
<path d="M112.004 404.946C111.966 404.946 111.929 404.946 111.891 404.946L99.7723 404.757C92.3124 404.645 86.0606 399.374 85.2225 392.508L77.3096 327.594C76.9019 324.234 79.5068 321.196 83.131 320.818C86.7552 320.44 90.0321 322.855 90.4399 326.215L98.3528 391.129C98.4434 391.899 99.1532 392.494 99.9913 392.508L112.11 392.697C115.757 392.753 118.671 395.539 118.611 398.926C118.55 402.272 115.606 404.946 112.004 404.946Z" fill="black"/>
<path d="M174.899 352.036C173.216 351.315 170.958 352.526 169.856 354.738C168.746 356.95 169.214 359.337 170.898 360.058C172.581 360.779 174.839 359.568 175.941 357.356C177.044 355.137 176.583 352.757 174.899 352.036ZM171.411 359.015C170.505 358.623 170.105 356.971 170.973 355.221C171.849 353.471 173.465 352.687 174.379 353.079C175.285 353.471 175.685 355.123 174.816 356.873C173.941 358.616 172.325 359.407 171.411 359.015Z" fill="#FFE9BD"/>
<path d="M170.256 345.632H149.417C147.152 356.341 150.142 363.908 154.506 367.058H165.16C169.531 363.915 172.521 356.348 170.256 345.632Z" fill="#FFE9BD"/>
<path d="M97.7793 315.141C100.686 310.123 103.601 305.328 105.534 297.461C107.474 289.593 108.282 274.39 123.632 279.108C129.371 281.879 131.387 283.23 131.553 293.415C131.711 303.606 132.844 318.508 133.976 320.083C135.109 321.658 108.765 320.531 108.765 320.531L97.7793 315.141Z" fill="black"/>
<path d="M105.096 309.864C93.1735 316.191 88.0844 325.333 85.3361 333.046C82.5877 340.76 76.3661 356.719 81.5382 361.961C86.7103 367.204 93.0149 367.505 93.0149 367.505C90.3496 374.925 83.9619 390.8 94.9554 392.823C105.949 394.846 139.964 395.517 139.964 395.517C140.53 393.271 169.215 380.461 175.602 382.554C161.543 373.938 149.742 368.548 149.742 368.548L146.51 341.502L147.401 333.788C147.401 333.788 133.742 314.238 126.592 312.216C119.434 310.2 105.096 309.864 105.096 309.864Z" fill="#59A1F2"/>
<path d="M122.786 280.605C118.905 285.96 113.899 287.122 113.288 287.794C112.684 288.466 112.88 291.651 112.88 291.35C110.335 288.431 107.995 289.887 108.433 292.323C108.878 294.759 110.977 296.292 112.593 295.956C113.363 302.395 113.076 304.418 110.57 306.217C108.063 308.016 105.073 309.85 105.073 309.85C108.833 315.694 127.135 317.717 126.569 312.209C121.842 309.248 121.238 306.63 121.435 305.055C124.145 305.356 127.619 301.912 128.26 298.013C128.902 294.115 129.151 293.597 129.227 291.273C129.31 288.949 129.068 287.339 127.732 285.54C126.426 283.755 122.786 280.605 122.786 280.605Z" fill="#FFE9BD"/>
<path d="M120.136 298.791C124.175 297.391 125.738 297.993 126.01 298.889C125.58 301.283 122.99 301.682 120.136 298.791Z" fill="#DC5B5B"/>
<path d="M120.929 292.442C120.929 293.163 120.566 293.751 120.121 293.751C119.675 293.751 119.313 293.163 119.313 292.442C119.313 291.721 119.675 291.133 120.121 291.133C120.566 291.133 120.929 291.721 120.929 292.442Z" fill="black"/>
<path d="M127.316 292.722C127.316 293.443 126.954 294.031 126.509 294.031C126.063 294.031 125.701 293.443 125.701 292.722C125.701 292.001 126.063 291.413 126.509 291.413C126.954 291.406 127.316 291.994 127.316 292.722Z" fill="black"/>
<path d="M123.828 297.033C123.715 297.033 123.624 296.95 123.624 296.845C123.624 296.74 123.715 296.656 123.828 296.656C124.145 296.656 125.783 296.432 126.161 296.264C126.055 296.089 125.617 295.613 125.315 295.291C125.013 294.962 124.726 294.654 124.568 294.437C124.13 293.828 124.168 292.351 124.651 290.755C124.681 290.65 124.794 290.594 124.908 290.622C125.021 290.65 125.081 290.755 125.051 290.86C124.553 292.498 124.606 293.793 124.915 294.22C125.059 294.416 125.346 294.731 125.632 295.039C126.35 295.816 126.614 296.131 126.591 296.341C126.539 296.844 123.851 297.033 123.828 297.033Z" fill="black"/>
<path d="M123.73 299.519C122.477 299.519 120.921 299.344 119.245 298.875C119.139 298.847 119.071 298.735 119.109 298.637C119.139 298.539 119.26 298.476 119.366 298.511C123.111 299.568 125.927 299.071 126.418 298.693C126.509 298.623 126.637 298.637 126.713 298.721C126.788 298.805 126.773 298.924 126.682 298.994C126.312 299.267 125.233 299.519 123.73 299.519Z" fill="black"/>
<path d="M123.783 302.297C123.443 302.297 123.035 302.255 122.582 302.115C122.476 302.08 122.416 301.975 122.446 301.877C122.484 301.779 122.597 301.723 122.703 301.751C123.843 302.094 124.651 301.786 124.659 301.779C124.764 301.737 124.885 301.779 124.93 301.877C124.976 301.975 124.93 302.087 124.825 302.129C124.802 302.143 124.409 302.297 123.783 302.297Z" fill="#FFE9BD"/>
<path d="M112.193 294.787C112.185 294.787 112.178 294.787 112.178 294.787C111.491 294.738 110.947 294.388 110.675 293.828C110.411 293.282 110.464 292.638 110.811 292.218C111.015 291.966 111.31 291.819 111.649 291.791C111.4 291.28 110.94 290.776 110.471 290.685C110.215 290.636 109.981 290.72 109.762 290.944C109.686 291.021 109.558 291.028 109.467 290.958C109.384 290.888 109.377 290.769 109.452 290.685C109.845 290.272 110.268 290.251 110.554 290.307C111.279 290.447 111.906 291.231 112.148 291.931C112.17 291.994 112.155 292.064 112.11 292.113C112.065 292.162 111.989 292.19 111.921 292.176C111.589 292.134 111.317 292.225 111.136 292.442C110.887 292.75 110.849 293.247 111.053 293.66C111.174 293.912 111.483 294.332 112.208 294.388C112.321 294.395 112.404 294.486 112.397 294.591C112.389 294.71 112.299 294.787 112.193 294.787Z" fill="#FFE9BD"/>
<path d="M120.808 304.873C120.8 304.873 120.8 304.873 120.793 304.873C118.55 304.726 114.926 301.737 113.484 298.846C113.439 298.748 113.484 298.636 113.582 298.594C113.688 298.552 113.809 298.594 113.854 298.685C115.221 301.422 118.739 304.355 120.823 304.495C120.936 304.502 121.019 304.593 121.012 304.698C121.012 304.796 120.921 304.873 120.808 304.873Z" fill="#FFE9BD"/>
<path d="M101.335 328.595C101.23 328.595 101.139 328.518 101.132 328.413C101.132 328.357 100.701 323.037 92.5391 320.419C92.4334 320.384 92.373 320.272 92.4107 320.174C92.4485 320.076 92.5693 320.02 92.675 320.055C101.109 322.764 101.539 328.336 101.539 328.392C101.547 328.497 101.456 328.588 101.343 328.595H101.335Z" fill="#DEECFC"/>
<path d="M110.305 351.595C110.283 351.595 110.26 351.595 110.245 351.588L99.093 348.215C98.9949 348.187 98.9345 348.096 98.9496 348.005C98.9647 347.907 100.565 338.296 100.89 333.641C100.898 333.536 100.996 333.459 101.109 333.459C101.222 333.466 101.313 333.557 101.305 333.662C101.011 338.002 99.5989 346.619 99.3875 347.9L110.373 351.217C110.479 351.252 110.54 351.357 110.509 351.455C110.472 351.539 110.389 351.595 110.305 351.595Z" fill="#DEECFC"/>
<path d="M98.0207 351.742C98.0055 351.742 97.9829 351.742 97.9678 351.735C97.8545 351.707 97.7941 351.602 97.8243 351.504L98.4812 349.18C97.8847 349.593 96.7446 350.405 95.1665 351.623C95.0759 351.693 94.9476 351.679 94.8721 351.595C94.7966 351.511 94.8117 351.392 94.9023 351.322C97.3034 349.468 98.7002 348.551 98.7153 348.544C98.7832 348.495 98.8814 348.495 98.9493 348.544C99.0173 348.593 99.055 348.67 99.0324 348.747L98.2245 351.595C98.1943 351.686 98.1113 351.742 98.0207 351.742Z" fill="#DEECFC"/>
<path d="M135.192 332.263C135.124 332.263 135.056 332.235 135.018 332.179C134.988 332.137 132.315 328.252 131.673 322.358C131.658 322.253 131.741 322.162 131.854 322.148C131.968 322.134 132.066 322.211 132.081 322.316C132.715 328.119 135.335 331.934 135.365 331.969C135.426 332.06 135.403 332.179 135.305 332.235C135.275 332.256 135.229 332.263 135.192 332.263Z" fill="#DEECFC"/>
<path d="M115.998 288.851C118.905 287.843 122.544 288.886 122.544 288.886C120.204 285.968 117.418 286.716 115.998 288.851Z" fill="black"/>
<path d="M125.618 289.152C127.52 288.739 128.849 289.565 129.091 289.936C128.525 286.975 126.267 288.137 125.618 289.152Z" fill="black"/>
<path d="M113.076 296.887C113.076 297.685 112.374 298.336 111.513 298.336C110.652 298.336 109.95 297.685 109.95 296.887C109.95 296.089 110.652 295.438 111.513 295.438C112.381 295.445 113.076 296.089 113.076 296.887Z" fill="#FFE9BD"/>
<path d="M157.722 331.898H111.393L103.132 363.361H149.462L157.722 331.898Z" fill="#59A1F2"/>
<path d="M159.376 331.898H113.046L104.786 363.361H151.116L159.376 331.898Z" fill="#244061"/>
<path d="M151.524 367.155H88.0769L87.7598 363.361H151.207L151.524 367.155Z" fill="#244061"/>
<path d="M133.908 350.077H128.842C128.842 347.76 130.865 345.884 133.365 345.884H138.431C138.438 348.201 136.407 350.077 133.908 350.077Z" fill="#59A1F2"/>
<path d="M193.459 367.26H49.5088V371.453H193.459V367.26Z" fill="#1B3049"/>
<path d="M154.136 449.946C153.849 452.557 153.532 456.204 153.532 456.204H182.141C181.839 456.204 167.002 449.603 164.118 446.685C162.962 448.42 162.743 450.359 162.743 450.359C160.863 451.99 156.144 450.632 154.136 449.946Z" fill="black"/>
<path d="M56.8327 364.425C56.3797 364.425 56.0098 364.082 56.0098 363.662V296.229C56.0098 293.513 57.0668 290.881 58.9847 288.823L66.0444 281.235C66.3388 280.913 66.8674 280.878 67.2072 281.158C67.5545 281.431 67.5922 281.921 67.2902 282.236L60.2305 289.824C58.5769 291.602 57.6633 293.877 57.6633 296.229V363.662C57.6633 364.082 57.2933 364.425 56.8327 364.425Z" fill="#1B3049"/>
<path d="M66.9126 362.417H57.5424C54.6279 362.417 52.2646 364.607 52.2646 367.309H72.198C72.1904 364.607 69.8271 362.417 66.9126 362.417Z" fill="#1B3049"/>
<path d="M83.6673 288.809C85.1245 290.321 84.9811 292.645 83.3502 293.989C81.7192 295.34 79.2125 295.207 77.7628 293.695C76.3055 292.183 76.449 289.859 78.0799 288.515C79.7108 287.164 82.21 287.297 83.6673 288.809Z" fill="#FFE9BD"/>
<path d="M66.7993 276.791C65.3194 278.016 65.191 280.123 66.5124 281.495L69.9856 285.099L75.354 280.662L71.8808 277.057C70.5519 275.685 68.2792 275.566 66.7993 276.791Z" fill="#1B3049"/>
<path d="M70.7785 280.928C64.7532 285.911 64.2246 294.486 69.6006 300.071L91.429 282.019C86.0531 276.434 76.8038 275.944 70.7785 280.928Z" fill="#244061"/>
<path d="M549.366 170.614L567.903 165.386C565.887 188.918 578.783 188.547 578.783 188.547L567.503 194.147C553.798 192.649 549.366 170.614 549.366 170.614Z" fill="#59A1F2"/>
<path d="M552.386 282.11L570.923 276.882C568.907 300.414 581.803 300.043 581.803 300.043L570.523 305.643C556.818 304.145 552.386 282.11 552.386 282.11Z" fill="#59A1F2"/>
<path d="M630.353 315.723L648.889 310.494C646.873 334.027 659.77 333.656 659.77 333.656L648.489 339.255C634.785 337.764 630.353 315.723 630.353 315.723Z" fill="#59A1F2"/>
<path d="M583.208 215.811L620.681 216.182C619.072 231.126 605.368 251.291 593.28 255.029L563.863 252.04C588.448 244.194 583.208 215.811 583.208 215.811Z" fill="#59A1F2"/>
<path d="M533.653 134.756L558.638 135.008C557.566 144.968 548.43 158.414 540.373 160.906L520.765 158.911C537.142 153.683 533.653 134.756 533.653 134.756Z" fill="#59A1F2"/>
<path d="M351.913 375.674L332.569 361.36L313.232 375.674V289.768H351.913V375.674Z" fill="#DEECFC"/>
<path d="M357.576 375.674L338.232 361.36L318.895 375.674V289.768H357.576V375.674Z" fill="#DEECFC"/>
<path d="M632.233 438.614H493.228C482.544 438.614 473.892 446.642 473.892 456.54H651.577C651.57 446.642 642.909 438.614 632.233 438.614Z" fill="#1B3049"/>
<path d="M565.197 405.275L574.771 408.221L636.662 235.349L627.088 232.403L565.197 405.275Z" fill="#1B3049"/>
<path d="M617.145 252.938L631.363 257.312L646.772 214.271L632.555 209.896L617.145 252.938Z" fill="#1B3049"/>
<path d="M636.619 211.142L642.71 213.016L646.709 201.849L640.617 199.975L636.619 211.142Z" fill="#1B3049"/>
<path d="M638.741 271.233C639.352 271.422 640.017 271.114 640.221 270.547L657.36 222.663C659.844 215.713 655.775 208.188 648.277 205.885C647.666 205.696 647.001 206.004 646.797 206.571C646.593 207.138 646.926 207.754 647.537 207.943C653.804 209.868 657.209 216.168 655.133 221.977L637.993 269.868C637.797 270.435 638.129 271.044 638.741 271.233Z" fill="#1B3049"/>
<path d="M641.075 280.372C644.398 278.089 645.096 273.74 642.633 270.659C640.17 267.578 635.479 266.932 632.156 269.215C628.832 271.498 628.135 275.847 630.598 278.928C633.061 282.008 637.752 282.655 641.075 280.372Z" fill="#1B3049"/>
<path d="M567.895 399.675C552.537 399.675 540.094 411.218 540.094 425.448V438.831H595.696V425.448C595.704 411.211 583.253 399.675 567.895 399.675Z" fill="#1B3049"/>
<path d="M466.863 456.449H460.686C460.686 428.955 436.555 406.584 406.896 406.584H346.123V400.858H406.896C439.96 400.858 466.863 425.798 466.863 456.449Z" fill="black"/>
<path d="M431.307 409.726C430.643 409.726 430.023 409.32 429.827 408.697C428.838 405.569 423.908 400.613 418.147 399.64C417.482 399.528 416.833 399.472 416.199 399.472C412.816 399.472 409.833 401.047 407.296 404.169C406.994 404.54 406.526 404.743 406.058 404.743C405.734 404.743 405.409 404.652 405.129 404.456C404.45 403.98 404.314 403.084 404.827 402.454C408.565 397.855 412.763 396.616 416.199 396.616C417.089 396.616 417.928 396.7 418.698 396.826C425.387 397.953 431.383 403.455 432.795 407.893C433.036 408.648 432.568 409.446 431.745 409.67C431.602 409.712 431.451 409.726 431.307 409.726Z" fill="black"/>
<path d="M375.637 450.709C368.758 450.709 362.182 446.446 357.123 438.705C351.785 430.543 348.848 419.631 348.848 407.991C348.848 396.343 351.785 385.438 357.123 377.277C362.182 369.535 368.758 365.272 375.637 365.272C382.515 365.272 389.092 369.535 394.151 377.277C399.489 385.438 402.426 396.35 402.426 407.991C402.426 419.638 399.489 430.543 394.151 438.705C389.092 446.446 382.515 450.709 375.637 450.709Z" fill="#DEECFC"/>
<path d="M377.698 359.617C360.227 359.617 346.069 381.273 346.069 407.991C346.069 434.708 360.227 456.365 377.698 456.365C395.17 456.365 409.327 434.708 409.327 407.991C409.327 381.273 395.17 359.617 377.698 359.617ZM377.698 450.709C370.82 450.709 364.243 446.446 359.185 438.705C353.846 430.543 350.909 419.631 350.909 407.991C350.909 396.343 353.846 385.438 359.185 377.277C364.243 369.535 370.82 365.272 377.698 365.272C384.577 365.272 391.153 369.535 396.212 377.277C401.55 385.438 404.487 396.35 404.487 407.991C404.487 419.638 401.55 430.543 396.212 438.705C391.153 446.446 384.577 450.709 377.698 450.709Z" fill="black"/>
<path d="M375.637 359.617C358.165 359.617 344.008 381.273 344.008 407.991C344.008 434.708 358.165 456.365 375.637 456.365C393.109 456.365 407.266 434.708 407.266 407.991C407.266 381.273 393.109 359.617 375.637 359.617ZM375.637 450.709C368.759 450.709 362.182 446.446 357.124 438.705C351.785 430.543 348.848 419.631 348.848 407.991C348.848 396.343 351.785 385.438 357.124 377.277C362.182 369.535 368.759 365.272 375.637 365.272C382.516 365.272 389.092 369.535 394.151 377.277C399.489 385.438 402.426 396.35 402.426 407.991C402.426 419.638 399.489 430.543 394.151 438.705C389.092 446.446 382.516 450.709 375.637 450.709Z" fill="#1B3049"/>
<path d="M394.158 438.705C399.497 430.543 402.434 419.631 402.434 407.991C402.434 401.012 401.369 394.3 399.376 388.287L353.076 430.886C354.216 433.693 355.568 436.325 357.123 438.712C362.182 446.453 368.759 450.716 375.637 450.716C382.516 450.709 389.092 446.446 394.158 438.705Z" fill="#DEECFC"/>
<path d="M458.526 450.709C451.648 450.709 445.071 446.446 440.013 438.705C434.674 430.543 431.737 419.631 431.737 407.991C431.737 396.343 434.674 385.438 440.013 377.277C445.071 369.535 451.648 365.272 458.526 365.272C465.405 365.272 471.981 369.535 477.04 377.277C482.378 385.438 485.316 396.35 485.316 407.991C485.316 419.638 482.378 430.543 477.04 438.705C471.981 446.446 465.405 450.709 458.526 450.709Z" fill="#DEECFC"/>
<path d="M460.588 359.617C443.116 359.617 428.959 381.273 428.959 407.991C428.959 434.708 443.116 456.365 460.588 456.365C478.06 456.365 492.217 434.708 492.217 407.991C492.217 381.273 478.06 359.617 460.588 359.617ZM460.588 450.709C453.71 450.709 447.133 446.446 442.074 438.705C436.736 430.543 433.799 419.631 433.799 407.991C433.799 396.343 436.736 385.438 442.074 377.277C447.133 369.535 453.71 365.272 460.588 365.272C467.467 365.272 474.043 369.535 479.102 377.277C484.44 385.438 487.377 396.35 487.377 407.991C487.377 419.638 484.44 430.543 479.102 438.705C474.043 446.446 467.467 450.709 460.588 450.709Z" fill="black"/>
<path d="M458.526 359.617C441.055 359.617 426.897 381.273 426.897 407.991C426.897 434.708 441.062 456.365 458.526 456.365C475.998 456.365 490.156 434.708 490.156 407.991C490.156 381.273 475.998 359.617 458.526 359.617ZM458.526 450.709C451.648 450.709 445.071 446.446 440.013 438.705C434.674 430.543 431.737 419.631 431.737 407.991C431.737 396.343 434.674 385.438 440.013 377.277C445.071 369.535 451.648 365.272 458.526 365.272C465.405 365.272 471.981 369.535 477.04 377.277C482.378 385.438 485.316 396.35 485.316 407.991C485.316 419.638 482.378 430.543 477.04 438.705C471.981 446.446 465.405 450.709 458.526 450.709Z" fill="#1B3049"/>
<path d="M477.048 438.705C482.386 430.543 485.323 419.631 485.323 407.991C485.323 401.012 484.259 394.3 482.265 388.287L435.966 430.886C437.106 433.693 438.457 436.325 440.013 438.712C445.072 446.453 451.648 450.716 458.527 450.716C465.405 450.709 471.982 446.446 477.048 438.705Z" fill="#DEECFC"/>
<path d="M429.699 410.223C429.034 410.223 428.415 409.818 428.219 409.195C427.23 406.066 422.299 401.11 416.538 400.137C415.874 400.025 415.224 399.969 414.59 399.969C411.208 399.969 408.225 401.544 405.688 404.666C405.386 405.037 404.918 405.24 404.45 405.24C404.125 405.24 403.8 405.149 403.521 404.953C402.842 404.477 402.706 403.581 403.219 402.951C406.957 398.352 411.155 397.113 414.59 397.113C415.481 397.113 416.319 397.197 417.089 397.323C423.779 398.45 429.774 403.952 431.186 408.39C431.428 409.146 430.96 409.943 430.137 410.167C429.986 410.209 429.842 410.223 429.699 410.223Z" fill="#1B3049"/>
<path d="M611.53 456.449H605.354C605.354 428.955 581.222 406.584 551.564 406.584H490.79V400.858H551.564C584.628 400.858 611.53 425.798 611.53 456.449Z" fill="black"/>
<path d="M512.927 212.598C512.927 212.598 526.586 216.819 529.742 221.69C532.898 226.562 505.573 282.09 505.573 282.09L486.304 209.679L512.927 212.598Z" fill="#1B3049"/>
<path d="M495.878 288.691C493.311 295.508 493.779 302.326 494.829 304.279H535.458C534.053 301.248 521.678 295.403 516.076 293.023C510.473 290.643 509.19 285.989 509.19 285.989L495.878 288.691Z" fill="#244061"/>
<path d="M432.598 228.074C432.537 229.481 435.52 235.165 447.427 235.165C459.334 235.165 481.404 235.976 481.404 235.976C481.404 235.976 492.964 288.746 493.492 288.907C505.052 290.853 511.01 288.417 511.01 288.417C511.01 288.417 508.208 229.803 507.332 221.522C506.457 213.242 499.45 210.645 499.45 210.645L446.385 210.806C446.37 210.813 432.13 218.226 432.598 228.074Z" fill="#1B3049"/>
<path d="M502.885 168.109L507.906 177.418L491.212 178.447C491.212 178.447 490.223 172.281 490.223 172.064C490.216 171.847 502.885 168.109 502.885 168.109Z" fill="#FFE9BD"/>
<path d="M450.983 138.941C436.916 144.086 425.704 155.558 417.768 171.251C418.704 172.119 419.172 172.119 419.172 172.119C419.172 172.119 429.917 199.614 429.917 201.889C429.449 206.431 432.605 228.732 432.605 228.081C441.008 217.148 455.143 210.33 458.412 210.33C461.682 210.33 489.588 189.87 489.588 189.87L490.525 174.933C500.567 173.309 504.418 168.221 504.418 168.221C504.304 167.899 490.872 148.846 486.9 147.222C482.929 145.598 477.968 143.701 477.968 143.701L450.983 138.941Z" fill="#DC5B5B"/>
<path d="M419.165 172.112C428.739 177.306 439.25 178.496 439.25 178.496L439.363 189.317C451.625 193.433 467.149 198.732 471.702 198.844C476.255 198.956 468.78 208.475 468.78 208.475C468.78 208.475 430.129 208.797 422.661 206.529C417.874 206.312 417.293 203.281 417.874 201.335C416.364 192.467 419.165 172.112 419.165 172.112Z" fill="#FFE9BD"/>
<path d="M519.874 174.17H468.266L459.312 209.455H510.919L519.874 174.17Z" fill="#1B3049"/>
<path d="M457.318 117.859C455.83 108.115 462.837 105.848 465.986 106.492C472.381 104.952 478.074 107.465 479.735 107.465C481.396 107.465 479.909 110.628 479.735 111.202C480.958 115.101 479.562 119.644 479.033 122.164C478.505 124.683 479.471 129.716 480.173 132.068C480.875 134.42 480.468 138.291 473.053 139.159C462.052 141.482 460.648 140.916 460.648 140.671C460.648 140.426 459.598 129.709 459.598 129.709L459.47 124.271L457.318 117.859Z" fill="black"/>
<path d="M460.036 118.972C456.593 114.968 454.139 120.701 455.657 123.514C457.175 126.328 459.04 126.167 459.221 126.272C459.923 130.388 456.888 136.828 450.991 138.934C458.873 149.378 472.94 150.785 477.961 143.694C474.458 141.37 473.061 139.152 473.061 139.152C470.728 139.802 466.175 139.208 463.313 136.716C460.451 134.224 459.696 128.757 460.278 124.753C460.852 120.757 460.036 118.972 460.036 118.972Z" fill="#FFE9BD"/>
<path d="M462.951 114.205C462.188 120.05 461.607 126.112 464.997 127.196C468.38 128.281 473.401 125.951 478.074 127.252C478.135 122.759 478.837 117.348 478.837 117.348C477.433 114.317 476.149 112.966 476.149 112.966C473.461 113.022 470.894 110.586 470.894 110.586C470.131 112.371 468.674 112.266 466.749 112.21C464.823 112.147 462.951 114.205 462.951 114.205Z" fill="#FFE9BD"/>
<path d="M467.918 128.288C470.984 127.966 477.024 128.085 477.16 128.288C477.032 130.521 475.846 133.727 472.653 133.237C469.451 132.754 467.918 128.288 467.918 128.288Z" fill="#FFE9BD"/>
<path d="M470.584 121.897C470.584 122.716 470.161 123.381 469.64 123.381C469.119 123.381 468.696 122.716 468.696 121.897C468.696 121.079 469.119 120.414 469.64 120.414C470.161 120.414 470.584 121.079 470.584 121.897Z" fill="black"/>
<path d="M476.693 123.263C477.214 123.263 477.637 122.598 477.637 121.779C477.637 120.959 477.214 120.295 476.693 120.295C476.172 120.295 475.749 120.959 475.749 121.779C475.749 122.598 476.172 123.263 476.693 123.263Z" fill="black"/>
<path d="M459.244 124.439C459.229 124.439 459.213 124.439 459.198 124.432C457.484 124.124 456.88 123.193 457.039 122.402C457.182 121.702 457.945 121.065 459.115 121.142C458.866 120.351 458.36 119.511 457.711 119.315C457.341 119.203 456.948 119.308 456.541 119.637C456.45 119.714 456.307 119.7 456.224 119.616C456.14 119.532 456.156 119.399 456.246 119.322C456.918 118.79 457.492 118.811 457.854 118.923C458.753 119.203 459.395 120.344 459.636 121.345C459.651 121.415 459.629 121.485 459.576 121.534C459.523 121.583 459.448 121.604 459.372 121.597C458.3 121.415 457.59 121.919 457.477 122.486C457.364 123.025 457.771 123.753 459.281 124.026C459.402 124.047 459.485 124.159 459.455 124.271C459.448 124.369 459.349 124.439 459.244 124.439Z" fill="#FFE9BD"/>
<path d="M473.083 126.188C472.963 126.188 472.864 126.104 472.857 125.992C472.849 125.88 472.947 125.783 473.068 125.776C474.563 125.699 476.224 125.545 476.7 125.412C476.594 125.279 476.368 125.02 476.172 124.81C475.688 124.285 475.092 123.627 474.76 122.99C474.299 122.101 474.405 121.149 474.518 120.141C474.556 119.833 474.586 119.518 474.609 119.196C474.616 119.084 474.722 118.993 474.843 119C474.963 119.007 475.062 119.105 475.054 119.217C475.031 119.546 475.001 119.868 474.963 120.176C474.85 121.163 474.76 122.024 475.167 122.808C475.477 123.403 476.051 124.033 476.519 124.544C477.01 125.083 477.206 125.307 477.206 125.496C477.206 125.698 477.206 125.978 473.099 126.188C473.091 126.188 473.083 126.188 473.083 126.188Z" fill="black"/>
<path d="M472.253 129.968C471.052 129.968 469.799 129.87 468.81 129.59C468.689 129.555 468.628 129.443 468.659 129.331C468.696 129.219 468.817 129.163 468.938 129.191C471.377 129.891 475.673 129.394 476.186 129.198C476.3 129.156 476.428 129.205 476.481 129.31C476.526 129.415 476.473 129.534 476.36 129.583C476.02 129.709 474.201 129.968 472.253 129.968Z" fill="black"/>
<path d="M471.943 132.236C471.853 132.236 471.77 132.187 471.732 132.103C471.687 131.998 471.747 131.879 471.86 131.837C473.786 131.172 474.594 131.564 474.677 131.606C474.782 131.662 474.82 131.788 474.76 131.893C474.699 131.991 474.563 132.026 474.45 131.97C474.45 131.97 473.74 131.634 472.011 132.229C471.996 132.229 471.966 132.236 471.943 132.236Z" fill="#FFE9BD"/>
<path d="M464.808 118.755C468.002 118.636 471.943 118.671 472.079 118.671C471.596 117.411 467.919 115.262 464.808 118.755Z" fill="black"/>
<path d="M475.446 118.713C477.462 118.552 478.731 119.119 478.731 119.119C477.681 116.844 475.401 117.411 475.446 118.713Z" fill="black"/>
<path d="M522.109 174.17H470.501L461.554 209.455H513.161L522.109 174.17Z" fill="#DEECFC"/>
<path d="M490.782 194.469H487.165C487.165 191.543 489.725 189.164 492.888 189.164H496.505C496.505 192.089 493.938 194.469 490.782 194.469Z" fill="#1B3049"/>
<path d="M512.928 209.455H441.47V212.591H512.928V209.455Z" fill="#DEECFC"/>
<path d="M445.32 165.61C445.207 165.61 445.116 165.533 445.101 165.428C445.056 165.113 445.011 164.784 444.965 164.441C444.422 160.459 443.591 154.439 436.894 149.217C436.796 149.14 436.788 149.014 436.864 148.923C436.939 148.832 437.083 148.825 437.181 148.895C444.014 154.229 444.852 160.34 445.411 164.385C445.456 164.728 445.502 165.057 445.547 165.365C445.562 165.477 445.479 165.582 445.358 165.596C445.343 165.61 445.335 165.61 445.32 165.61Z" fill="#DEECFC"/>
<path d="M488.638 171.567C488.54 171.567 488.456 171.511 488.426 171.42C488.396 171.329 485.368 162.446 483.753 154.943C483.73 154.831 483.805 154.719 483.926 154.698C484.047 154.677 484.168 154.747 484.19 154.859C485.806 162.334 488.826 171.203 488.857 171.287C488.894 171.399 488.826 171.511 488.713 171.546C488.683 171.56 488.66 171.567 488.638 171.567Z" fill="#DEECFC"/>
<path d="M482.303 236.131C482.287 236.131 482.272 236.131 482.257 236.131C482.136 236.124 481.97 236.096 481.865 235.956C481.736 235.781 481.812 235.571 481.933 235.214C482.121 234.661 482.461 233.639 482.401 231.868C482.393 231.756 482.491 231.658 482.62 231.651C482.741 231.651 482.846 231.735 482.854 231.854C482.922 233.695 482.559 234.759 482.363 235.333C482.318 235.473 482.265 235.627 482.25 235.704C482.257 235.704 482.272 235.704 482.287 235.711C482.876 235.753 484.983 234.101 485.459 233.324C485.519 233.226 485.655 233.191 485.761 233.247C485.866 233.303 485.904 233.429 485.844 233.527C485.376 234.318 483.224 236.131 482.303 236.131Z" fill="#DEECFC"/>
<path d="M516.076 293.016C514.724 292.442 513.63 291.735 512.739 290.993C510.338 292.274 509.892 294.479 509.892 295.074C506.562 299.743 498.106 296.124 494.398 294.22C493.613 298.896 494.066 302.864 494.829 304.278H535.458C534.061 301.248 521.686 295.403 516.076 293.016Z" fill="black"/>
<path d="M380.899 114.94H366.878C363.443 114.94 360.649 112.35 360.649 109.166V93.4095C360.649 92.7236 361.253 92.1636 361.993 92.1636V92.6396C361.532 92.6396 361.162 92.9825 361.162 93.4095V109.166C361.162 112.084 363.73 114.464 366.878 114.464H380.899C381.352 114.464 381.73 114.121 381.73 113.694V112.686H382.243V113.694C382.236 114.38 381.639 114.94 380.899 114.94Z" fill="#1B3049"/>
<path d="M381.157 112.924H371.258C366.003 112.924 361.737 108.963 361.737 104.098V92.1636H371.635C376.891 92.1636 381.157 96.1253 381.157 100.99V112.924ZM362.243 92.6396V104.098C362.243 108.704 366.282 112.448 371.25 112.448H380.636V100.99C380.636 96.3843 376.596 92.6396 371.628 92.6396H362.243Z" fill="#1B3049"/>
<path d="M395.012 114.94H380.99C380.251 114.94 379.646 114.38 379.646 113.694V112.623H380.16V113.694C380.16 114.121 380.53 114.464 380.99 114.464H395.012C398.16 114.464 400.727 112.084 400.727 109.166V93.4095C400.727 92.9895 400.357 92.6396 399.897 92.6396V92.1636C400.637 92.1636 401.241 92.7236 401.241 93.4095V109.166C401.241 112.343 398.447 114.94 395.012 114.94Z" fill="#1B3049"/>
<path d="M390.632 112.924H380.733V100.99C380.733 96.1183 385.007 92.1636 390.255 92.1636H400.153V104.098C400.153 108.963 395.88 112.924 390.632 112.924ZM381.247 112.448H390.632C395.6 112.448 399.64 108.704 399.64 104.098V92.6396H390.255C385.286 92.6396 381.247 96.3843 381.247 100.99V112.448Z" fill="#1B3049"/>
<path d="M41.09 341.292L37.6847 343.784L24.8564 328.728L28.2617 326.236L41.09 341.292ZM37.7678 343.119L40.3651 341.215L28.1711 326.908L25.5738 328.812L37.7678 343.119Z" fill="#1B3049"/>
<path d="M28.7375 326.495L25.0151 329.218L24.4639 325.032L28.7375 326.495ZM25.4152 328.322L27.6955 326.649L25.0755 325.753L25.4152 328.322Z" fill="#1B3049"/>
<path d="M41.0898 341.292L37.6846 343.783L34.9966 340.627L38.4019 338.135L41.0898 341.292ZM37.7676 343.118L40.365 341.215L38.3113 338.807L35.7139 340.711L37.7676 343.118Z" fill="#1B3049"/>
<path d="M686 355.991L682.594 358.483L669.766 343.427L673.171 340.935L686 355.991ZM682.677 357.818L685.275 355.914L673.081 341.607L670.483 343.511L682.677 357.818Z" fill="#1B3049"/>
<path d="M673.647 341.194L669.925 343.917L669.374 339.731L673.647 341.194ZM670.325 343.021L672.605 341.348L669.985 340.452L670.325 343.021Z" fill="#1B3049"/>
<path d="M686 355.991L682.595 358.483L679.907 355.326L683.312 352.834L686 355.991ZM682.678 357.818L685.275 355.914L683.221 353.506L680.624 355.41L682.678 357.818Z" fill="#1B3049"/>
<path d="M675.867 305.545H661.333V289.971L664.307 287.213H675.867V305.545ZM661.846 305.069H675.354V287.689H664.526L661.854 290.167V305.069H661.846Z" fill="#1B3049"/>
<path d="M665.591 291.217H662.359V290.741H665.077V288.221H665.591V291.217Z" fill="#1B3049"/>
<path d="M58.7277 268.049C58.705 267.944 56.7721 257.416 58.0632 234.766L59.1203 234.815C57.8292 257.332 59.747 267.776 59.7696 267.881L58.7277 268.049Z" fill="#1B3049"/>
<path d="M58.4864 260.531L58.1391 260.244C57.7767 259.95 49.3428 252.93 49.3428 244.096C49.3428 242.64 49.5844 241.128 50.0601 239.602L50.2035 239.133L54.0241 240.106C53.2086 239.336 52.1516 238.343 51.2153 237.496L50.951 237.258L51.1021 236.95C53.6315 231.686 57.9579 228.102 58.1391 227.948L58.4864 227.661L58.8337 227.948C59.0754 228.151 64.8288 232.925 66.9052 239.56L66.9732 239.777L66.8372 239.966C64.8062 242.857 63.1828 245.195 62.1333 246.721C63.1451 246.035 64.625 245.027 66.7844 243.55L67.615 242.983L67.6301 244.089C67.6301 252.923 59.1886 259.943 58.8337 260.237L58.4864 260.531ZM50.9284 240.337C50.5735 241.618 50.3923 242.878 50.3923 244.096C50.3923 251.488 56.8857 257.773 58.4789 259.201C60.0116 257.822 66.0822 251.957 66.5428 244.936C60.8724 248.8 60.6912 248.919 60.6308 248.954L60.2684 249.178L59.9512 248.898C59.551 248.534 59.551 248.534 65.818 239.623C64.0738 234.29 59.7398 230.125 58.4789 228.991C57.4294 229.936 54.243 232.981 52.212 237.041C54.009 238.678 56.1156 240.701 56.1382 240.722L57.4822 242.01L50.9284 240.337Z" fill="#1B3049"/>
<path d="M635.155 194.259C635.2 194.189 639.685 187.175 652.521 174.604L653.11 175.115C640.349 187.616 635.902 194.567 635.857 194.637L635.155 194.259Z" fill="#1B3049"/>
<path d="M639.028 189.772L638.975 189.443C638.922 189.107 637.759 181.163 642.471 176.025C643.249 175.178 644.192 174.408 645.287 173.736L645.62 173.533L647.318 175.85C647.258 175.024 647.167 173.967 647.077 173.043L647.054 172.784L647.311 172.672C651.592 170.768 656.017 170.67 656.198 170.663L656.553 170.656L656.605 170.985C656.643 171.216 657.436 176.627 655.111 181.436L655.035 181.59L654.861 181.639C652.136 182.387 649.946 183.003 648.519 183.409C649.47 183.472 650.867 183.563 652.913 183.696L653.699 183.745L653.117 184.396C648.406 189.534 639.76 189.744 639.39 189.751L639.028 189.772ZM645.401 174.576C644.51 175.157 643.732 175.808 643.083 176.515C639.141 180.813 639.564 187.441 639.73 189.002C641.354 188.904 648.013 188.274 652.022 184.403C646.662 184.053 646.495 184.039 646.443 184.032L646.118 183.997L646.08 183.689C646.042 183.297 646.042 183.29 654.439 180.981C656.266 177.082 655.971 172.672 655.843 171.433C654.726 171.496 651.26 171.811 647.907 173.239C648.081 175.01 648.224 177.152 648.224 177.18L648.315 178.545L645.401 174.576Z" fill="#1B3049"/>
<path d="M9.89104 157.735C8.42624 157.735 7.2333 156.63 7.2333 155.272V154.649C7.2333 153.557 6.79534 152.493 5.97989 151.569C5.16444 150.659 4.75673 149.511 4.82469 148.328C4.9606 145.941 7.08226 143.981 9.65698 143.876C11.0614 143.813 12.3903 144.275 13.402 145.171C14.4138 146.067 14.9726 147.278 14.9726 148.58C14.9726 149.7 14.5421 150.785 13.7569 151.632C12.9792 152.472 12.5564 153.494 12.5564 154.516V155.272C12.5488 156.63 11.3558 157.735 9.89104 157.735ZM9.89104 144.38C9.81553 144.38 9.7476 144.38 9.67209 144.387C7.37674 144.485 5.48911 146.228 5.3683 148.356C5.3079 149.413 5.67786 150.435 6.39516 151.247C7.28612 152.248 7.77691 153.452 7.77691 154.656V155.279C7.77691 156.357 8.72071 157.231 9.88348 157.231C11.0463 157.231 11.9901 156.357 11.9901 155.279V154.523C11.9901 153.382 12.4657 152.241 13.3265 151.303C14.0287 150.547 14.4138 149.581 14.4138 148.58C14.4138 147.425 13.9155 146.347 13.0094 145.542C12.1637 144.786 11.0614 144.38 9.89104 144.38Z" fill="#1B3049"/>
<path d="M10.163 139.516H9.61182V142.798H10.163V139.516Z" fill="#1B3049"/>
<path d="M16.6197 142.039L14.1157 144.36L14.5055 144.721L17.0094 142.4L16.6197 142.039Z" fill="#1B3049"/>
<path d="M19.6613 148.426H16.1201V148.937H19.6613V148.426Z" fill="#1B3049"/>
<path d="M3.09729 141.979L2.70752 142.341L5.21152 144.662L5.60129 144.301L3.09729 141.979Z" fill="#1B3049"/>
<path d="M3.54118 148.321H0V148.832H3.54118V148.321Z" fill="#1B3049"/>
<path d="M11.8922 153.563H7.83008V154.074H11.8922V153.563Z" fill="#1B3049"/>
<path d="M11.6654 155.104H8.00342V155.614H11.6654V155.104Z" fill="#1B3049"/>
<path d="M257.683 82.7418C254.768 82.7418 252.397 80.5439 252.397 77.8421V76.6102C252.397 74.4333 251.537 72.3194 249.906 70.4925C248.29 68.6867 247.474 66.3977 247.61 64.0459C247.875 59.3002 252.088 55.4155 257.207 55.1915C259.993 55.0725 262.643 55.9824 264.652 57.7673C266.668 59.5522 267.778 61.9531 267.778 64.5359C267.778 66.7618 266.917 68.9176 265.362 70.6045C263.821 72.2704 262.968 74.3073 262.968 76.3302V77.8351C262.968 80.5439 260.597 82.7418 257.683 82.7418ZM257.69 56.2064C257.547 56.2064 257.403 56.2064 257.252 56.2134C252.692 56.4094 248.939 59.8742 248.705 64.0949C248.592 66.1878 249.317 68.2316 250.751 69.8345C252.526 71.8154 253.5 74.2233 253.5 76.6032V77.8351C253.5 79.97 255.372 81.7128 257.683 81.7128C259.986 81.7128 261.866 79.977 261.866 77.8351V76.3302C261.866 74.0623 262.809 71.7944 264.523 69.9396C265.913 68.4346 266.675 66.5168 266.675 64.5359C266.675 62.2331 265.686 60.0982 263.889 58.5093C262.198 57.0184 260.016 56.2064 257.69 56.2064Z" fill="#1B3049"/>
<path d="M258.234 46.54H257.132V53.0707H258.234V46.54Z" fill="#1B3049"/>
<path d="M271.065 51.5536L266.083 56.1714L266.863 56.894L271.844 52.2763L271.065 51.5536Z" fill="#1B3049"/>
<path d="M277.11 64.2422H270.065V65.2641H277.11V64.2422Z" fill="#1B3049"/>
<path d="M244.212 51.421L243.433 52.1436L248.414 56.7613L249.193 56.0387L244.212 51.421Z" fill="#1B3049"/>
<path d="M245.081 64.0322H238.037V65.0541H245.081V64.0322Z" fill="#1B3049"/>
<path d="M261.662 74.4541H253.598V75.4761H261.662V74.4541Z" fill="#1B3049"/>
<path d="M261.209 77.5063H253.938V78.5283H261.209V77.5063Z" fill="#1B3049"/>
<path d="M620.9 173.939H581.713L581.653 173.491C581.464 172.07 582.015 170.81 583.215 169.956C584.68 168.906 586.908 168.598 588.946 169.123C589.007 165.715 590.154 162.88 592.284 160.885C594.496 158.813 597.697 157.7 601.314 157.749C604.916 157.7 608.117 158.813 610.329 160.885C612.459 162.88 613.606 165.722 613.667 169.123C615.705 168.598 617.925 168.906 619.397 169.956C620.598 170.817 621.157 172.07 620.96 173.491L620.9 173.939ZM582.725 172.917H619.896C619.888 171.839 619.277 171.16 618.725 170.768C617.389 169.816 615.169 169.627 613.319 170.313L612.542 170.6L612.564 169.823C612.655 166.38 611.613 163.538 609.552 161.606C607.551 159.737 604.629 158.729 601.321 158.771C597.992 158.715 595.077 159.73 593.076 161.606C591.015 163.538 589.973 166.38 590.064 169.823L590.086 170.6L589.309 170.313C587.459 169.627 585.239 169.816 583.903 170.768C583.344 171.153 582.732 171.832 582.725 172.917Z" fill="#1B3049"/>
<path d="M87.2612 231.693H86.0908V235.34H87.2612V231.693Z" fill="#1B3049"/>
<path d="M87.2612 237.964H86.0908V241.611H87.2612V237.964Z" fill="#1B3049"/>
<path d="M92.0256 236.11H88.0918V237.195H92.0256V236.11Z" fill="#1B3049"/>
<path d="M85.2526 236.11H81.3188V237.195H85.2526V236.11Z" fill="#1B3049"/>
<path d="M70.3329 314.05H69.1626V317.697H70.3329V314.05Z" fill="#1B3049"/>
<path d="M70.3329 320.329H69.1626V323.975H70.3329V320.329Z" fill="#1B3049"/>
<path d="M75.0974 318.474H71.1636V319.559H75.0974V318.474Z" fill="#1B3049"/>
<path d="M68.3323 318.474H64.3984V319.559H68.3323V318.474Z" fill="#1B3049"/>
<path d="M310.106 105.798H308.936V109.445H310.106V105.798Z" fill="#1B3049"/>
<path d="M310.106 112.07H308.936V115.717H310.106V112.07Z" fill="#1B3049"/>
<path d="M314.87 110.215H310.937V111.3H314.87V110.215Z" fill="#1B3049"/>
<path d="M308.105 110.215H304.171V111.3H308.105V110.215Z" fill="#1B3049"/>
<path d="M425.357 89.3354H424.187V92.9823H425.357V89.3354Z" fill="#1B3049"/>
<path d="M425.357 95.6143H424.187V99.261H425.357V95.6143Z" fill="#1B3049"/>
<path d="M430.121 93.7593H426.188V94.8442H430.121V93.7593Z" fill="#1B3049"/>
<path d="M423.348 93.7593H419.415V94.8442H423.348V93.7593Z" fill="#1B3049"/>
<path d="M642.328 288.277H641.158V291.924H642.328V288.277Z" fill="#1B3049"/>
<path d="M642.328 294.549H641.158V298.196H642.328V294.549Z" fill="#1B3049"/>
<path d="M647.092 292.694H643.159V293.779H647.092V292.694Z" fill="#1B3049"/>
<path d="M640.32 292.694H636.386V293.779H640.32V292.694Z" fill="#1B3049"/>
<path d="M620.983 139.76H619.812V143.407H620.983V139.76Z" fill="#1B3049"/>
<path d="M620.983 146.039H619.812V149.686H620.983V146.039Z" fill="#1B3049"/>
<path d="M625.747 144.184H621.813V145.269H625.747V144.184Z" fill="#1B3049"/>
<path d="M618.982 144.184H615.048V145.269H618.982V144.184Z" fill="#1B3049"/>
</svg>
