<svg width="438" height="414" viewBox="0 0 438 414" fill="none" xmlns="http://www.w3.org/2000/svg">
<path d="M397.133 319.343C348.581 363.546 358.106 440.638 245.424 404.752C217.352 395.812 194.873 381.76 166.591 376.804C158.663 375.417 150.278 374.746 141.189 375.098C101.681 376.641 74.4909 371.27 56.0434 360.071C40.1778 350.443 30.7788 336.499 25.5676 318.929C22.1851 307.517 31.8115 264.927 19.2645 244.69C-7.72224 201.171 -6.79133 160.833 24.8143 126.849C46.9049 103.095 110.955 99.8895 122.824 86.4309C170.668 32.1945 222.957 15.6653 267.041 19.5711C348.927 26.8291 377.385 73.7649 384.157 132.849C391.467 196.64 472.188 251.011 397.133 319.343Z" fill="#DEECFC"/>
<path d="M317.697 339.137L321.106 340.318L319.403 339.726L321.106 340.318C321.139 340.226 324.417 330.907 332.258 317.332C339.487 304.815 352.183 286.01 371.616 267.513C378.616 260.851 384.575 253.423 389.329 245.436C393.136 239.041 396.182 232.276 398.383 225.33C402.144 213.456 402.137 205.231 402.135 204.885L398.527 204.909C398.527 204.987 398.52 213.026 394.896 224.393C391.558 234.861 384.379 250.39 369.127 264.906C360.393 273.219 352.257 282.287 344.945 291.861C339.094 299.519 333.755 307.517 329.074 315.632C321.089 329.478 317.832 338.749 317.697 339.137Z" fill="#244061"/>
<path d="M388.768 189.645C387.6 201.871 399.629 210.75 399.629 210.75C399.629 210.75 413.121 204.303 414.289 192.077C415.456 179.851 403.464 170.604 403.464 170.604C403.464 170.604 389.936 177.419 388.768 189.645Z" fill="#244061"/>
<path d="M417.058 206.801C406.067 209.418 401.91 222.5 401.91 222.5C401.91 222.5 411.529 232.301 422.52 229.685C433.511 227.068 437.999 213.908 437.999 213.908C437.999 213.908 428.048 204.185 417.058 206.801Z" fill="#244061"/>
<path d="M396.938 222.288L397.685 225.416L413.861 221.564L413.115 218.437L396.938 222.288Z" fill="#244061"/>
<path d="M416.581 235.992C402.964 234.534 392.909 247.797 392.909 247.797C392.909 247.797 399.922 262.885 413.54 264.343C427.158 265.8 437.625 252.58 437.625 252.58C437.625 252.58 430.199 237.449 416.581 235.992Z" fill="#244061"/>
<path d="M386.585 245.376L386.229 248.698L403.415 250.536L403.771 247.215L386.585 245.376Z" fill="#244061"/>
<path d="M385.016 200.293C394.136 206.955 392.901 220.624 392.901 220.624C392.901 220.624 380.234 225.945 371.114 219.283C361.995 212.621 362.954 198.751 362.954 198.751C362.954 198.751 375.896 193.632 385.016 200.293Z" fill="#244061"/>
<path d="M384.679 212.425L382.778 215.021L396.203 224.825L398.103 222.23L384.679 212.425Z" fill="#244061"/>
<path d="M354.228 246.879C363.426 255.362 360.335 270.255 360.335 270.255C360.335 270.255 345.717 274.511 336.52 266.027C327.322 257.544 330.136 242.396 330.136 242.396C330.136 242.396 345.033 238.393 354.228 246.879Z" fill="#244061"/>
<path d="M353.505 260.959L351.104 263.1L362.176 275.492L364.578 273.352L353.505 260.959Z" fill="#244061"/>
<path d="M328.21 272.966C340.781 277.002 345.333 288.296 345.333 288.296C345.333 288.296 333.241 298.851 320.67 294.815C308.1 290.78 302.1 272.973 302.1 272.973C302.1 272.973 315.639 268.93 328.21 272.966Z" fill="#244061"/>
<path d="M337.19 278.833L334.788 280.974L345.861 293.366L348.263 291.226L337.19 278.833Z" fill="#244061"/>
<path d="M372.244 298.459C362.43 290.694 351.12 293.065 351.12 293.065C351.12 293.065 349.165 308.146 358.977 315.913C363.802 319.731 368.838 319.504 373.094 319.083C376.773 318.719 380.814 322.911 380.814 322.911C380.814 322.911 385.513 315.333 380.923 308.399C378.713 305.059 375.932 301.378 372.244 298.459Z" fill="#244061"/>
<path d="M347.465 290.534L346.146 293.467L361.314 300.277L362.634 297.344L347.465 290.534Z" fill="#244061"/>
<path d="M384.055 294.089C371.538 290.394 367.552 275.05 367.552 275.05C367.552 275.05 379.251 264.338 391.767 268.031C404.283 271.726 408.649 287.181 408.649 287.181C408.649 287.181 396.569 297.784 384.055 294.089Z" fill="#244061"/>
<path d="M378.585 280.175L379.536 276.96L362.91 272.053L361.959 275.268L378.585 280.175Z" fill="#244061"/>
<path d="M369.651 219.898C381.511 226.891 381.646 243.616 381.646 243.616C381.646 243.616 366.917 251.579 355.057 244.589C343.197 237.596 342.704 220.657 342.704 220.657C342.704 220.657 357.79 212.907 369.651 219.898Z" fill="#244061"/>
<path d="M372.571 236.418L370.861 239.311L385.828 248.133L387.538 245.24L372.571 236.418Z" fill="#244061"/>
<path d="M302.116 211.289L305.463 211.797L303.791 211.542L305.463 211.797C305.477 211.708 306.913 202.547 311.83 188.682C316.364 175.898 324.87 156.378 339.646 135.995C344.969 128.654 349.199 120.784 352.222 112.603C354.642 106.052 356.298 99.2887 357.144 92.5038C358.586 80.9047 357.175 73.3131 357.113 72.9961L353.787 73.6325C353.801 73.7034 355.166 81.1247 353.764 92.2341C352.473 102.466 348.498 118.018 336.901 134.015C330.259 143.175 324.299 152.931 319.188 163.012C315.097 171.076 311.534 179.368 308.602 187.653C303.599 201.795 302.175 210.908 302.116 211.289Z" fill="#59A1F2"/>
<path d="M342.176 61.2076C343.187 72.6908 355.805 78.8346 355.805 78.8346C355.805 78.8346 367.156 70.5853 366.144 59.1022C365.133 47.619 352.484 41.1274 352.484 41.1274C352.484 41.1274 341.164 49.7245 342.176 61.2076Z" fill="#59A1F2"/>
<path d="M365.77 73.1189C357.858 78.7185 358.742 90.4643 358.742 90.4643C358.742 90.4643 369.543 95.1934 377.457 89.5937C385.369 83.9941 384.724 72.0803 384.724 72.0803C384.724 72.0803 373.684 67.5192 365.77 73.1189Z" fill="#59A1F2"/>
<path d="M354.744 91.8546L356.341 94.1055L367.988 85.8642L366.392 83.6133L354.744 91.8546Z" fill="#59A1F2"/>
<path d="M372.422 95.7045C359.911 98.6451 355.135 113.514 355.135 113.514C355.135 113.514 366.046 124.696 378.559 121.756C391.071 118.815 396.223 103.859 396.223 103.859C396.223 103.859 384.934 92.7639 372.422 95.7045Z" fill="#59A1F2"/>
<path d="M348.817 113.343L349.536 116.396L365.326 112.687L364.606 109.633L348.817 113.343Z" fill="#59A1F2"/>
<path d="M346.423 69.3124C354.185 76.5302 351.516 89.1324 351.516 89.1324C351.516 89.1324 339.12 92.6881 331.358 85.4726C323.596 78.2548 326.031 65.435 326.031 65.435C326.031 65.435 338.661 62.097 346.423 69.3124Z" fill="#59A1F2"/>
<path d="M344.75 80.58L342.692 82.7876L354.117 93.4107L356.175 91.2031L344.75 80.58Z" fill="#59A1F2"/>
<path d="M324.806 117.829C334.094 125.018 332.409 139.193 332.409 139.193C332.409 139.193 319.085 144.355 309.798 137.166C300.51 129.977 301.915 115.586 301.915 115.586C301.915 115.586 315.518 110.639 324.806 117.829Z" fill="#59A1F2"/>
<path d="M322.89 130.374L321.039 132.757L333.376 142.309L335.226 139.926L322.89 130.374Z" fill="#59A1F2"/>
<path d="M304.636 146.094C316.454 149.825 320.777 160.405 320.777 160.405C320.777 160.405 306.818 171.391 295 167.66C283.183 163.93 280.805 151.365 280.805 151.365C280.805 151.365 292.819 142.361 304.636 146.094Z" fill="#59A1F2"/>
<path d="M312.244 150.13L309.961 152.104L320.179 163.889L322.462 161.914L312.244 150.13Z" fill="#59A1F2"/>
<path d="M342.763 162.6C332.381 157.104 322.347 161.221 322.347 161.221C322.347 161.221 323.119 175.474 333.501 180.967C338.608 183.669 342.772 184.315 346.989 183.645C350.416 183.101 354.85 183.704 354.85 183.704C354.85 183.704 357.894 175.909 352.472 170.293C349.859 167.587 346.664 164.665 342.763 162.6Z" fill="#59A1F2"/>
<path d="M321.514 160.211L320.797 163.141L335.96 166.842L336.677 163.912L321.514 160.211Z" fill="#59A1F2"/>
<path d="M357.473 155.725C345.29 154.448 338.99 140.965 338.99 140.965C338.99 140.965 347.957 129.085 360.14 130.362C372.322 131.64 378.992 145.16 378.992 145.16C378.992 145.16 369.655 157.003 357.473 155.725Z" fill="#59A1F2"/>
<path d="M350.034 143.789L350.363 140.66L334.182 138.963L333.853 142.092L350.034 143.789Z" fill="#59A1F2"/>
<path d="M336.377 89.7072C347.183 96.7902 346.562 112.48 346.562 112.48C346.562 112.48 332.397 119.288 321.591 112.205C310.785 105.122 311.079 89.2199 311.079 89.2199C311.079 89.2199 325.571 82.6243 336.377 89.7072Z" fill="#59A1F2"/>
<path d="M337.218 104.567L335.485 107.203L349.121 116.142L350.854 113.505L337.218 104.567Z" fill="#59A1F2"/>
<path d="M197.64 168.037L200.663 166.516L199.152 167.277L200.663 166.518C200.623 166.435 196.48 158.141 192.441 143.994C188.72 130.949 184.328 110.119 184.546 84.9575C184.624 75.8944 183.506 67.0301 181.225 58.6129C179.399 51.8729 176.824 45.4027 173.574 39.382C168.022 29.0935 162.467 23.7233 162.233 23.4985L159.893 25.94C159.945 25.9896 165.364 31.2486 170.666 41.1137C175.547 50.2004 181.332 65.1754 181.161 84.9244C181.064 96.2349 181.865 107.635 183.547 118.809C184.892 127.749 186.799 136.568 189.215 145.018C193.339 159.442 197.465 167.691 197.64 168.037Z" fill="#59A1F2"/>
<path d="M143.219 22.5331C150.704 31.3075 164.554 29.0128 164.554 29.0128C164.554 29.0128 169.019 15.7222 161.534 6.94775C154.049 -1.8267 139.974 0.203088 139.974 0.203088C139.974 0.203088 135.734 13.7586 143.219 22.5331Z" fill="#59A1F2"/>
<path d="M169.36 18.5873C166.16 27.7284 173.695 36.7915 173.695 36.7915C173.695 36.7915 185.242 34.395 188.442 25.2515C191.643 16.108 184.205 6.77051 184.205 6.77051C184.205 6.77051 172.563 9.44613 169.36 18.5873Z" fill="#59A1F2"/>
<path d="M171.238 40.2491L173.845 41.1597L178.557 27.7022L175.949 26.7916L171.238 40.2491Z" fill="#59A1F2"/>
<path d="M187.885 33.1478C179.394 42.7858 184.129 57.6661 184.129 57.6661C184.129 57.6661 199.509 60.4671 208.001 50.8292C216.492 41.1913 212.013 26.0199 212.013 26.0199C212.013 26.0199 196.377 23.5123 187.885 33.1478Z" fill="#59A1F2"/>
<path d="M178.863 61.1775L181.219 63.2485L191.936 51.0869L189.58 49.0159L178.863 61.1775Z" fill="#59A1F2"/>
<path d="M151.384 26.6827C161.896 28.0737 167.034 39.8881 167.034 39.8881C167.034 39.8881 158.523 47.967 148.011 46.576C137.498 45.1849 132.515 35.3223 132.515 35.3223C132.515 35.3223 140.872 25.2916 151.384 26.6827Z" fill="#59A1F2"/>
<path d="M156.561 36.8391L156.164 39.8291L171.638 41.8761L172.035 38.886L156.561 36.8391Z" fill="#59A1F2"/>
<path d="M161.95 72.1802C173.628 73.4766 179.597 86.4454 179.597 86.4454C179.597 86.4454 170.926 97.7914 159.248 96.495C147.57 95.1986 139.223 78.4777 139.223 78.4777C139.223 78.4777 150.273 70.8838 161.95 72.1802Z" fill="#59A1F2"/>
<path d="M166.857 83.8659L166.523 86.8638L182.038 88.5849L182.371 85.587L166.857 83.8659Z" fill="#59A1F2"/>
<path d="M161.87 113.443C173.666 109.646 183.328 115.766 183.328 115.766C183.328 115.766 178.325 132.799 166.529 136.596C154.733 140.393 145.507 131.529 145.507 131.529C145.507 131.529 150.074 117.24 161.87 113.443Z" fill="#59A1F2"/>
<path d="M170.425 112.304L169.71 115.235L184.876 118.927L185.592 115.996L170.425 112.304Z" fill="#59A1F2"/>
<path d="M202.52 104.831C190.87 106.362 185.079 115.522 185.079 115.522C185.079 115.522 193.978 126.691 205.627 125.162C211.357 124.41 215.126 122.525 218.174 119.539C220.652 117.112 224.617 115.039 224.617 115.039C224.617 115.039 222.575 106.925 214.898 105.484C211.198 104.791 206.899 104.257 202.52 104.831Z" fill="#59A1F2"/>
<path d="M183.812 115.17L184.928 117.973L199.434 112.214L198.318 109.411L183.812 115.17Z" fill="#59A1F2"/>
<path d="M210.521 86.6297C199.852 92.6387 186.893 85.2978 186.893 85.2978C186.893 85.2978 187.31 70.4246 197.979 64.4157C208.647 58.4067 221.929 65.5678 221.929 65.5678C221.929 65.5678 221.192 80.6232 210.521 86.6297Z" fill="#59A1F2"/>
<path d="M197.549 81.2262L196.001 78.4854L181.828 86.4674L183.375 89.2082L197.549 81.2262Z" fill="#59A1F2"/>
<path d="M156.273 47.8295C169.185 48.4232 176.485 60.6374 176.485 60.6374C176.485 60.6374 168.155 70.8053 155.243 70.2115C142.331 69.6177 134.088 58.6857 134.088 58.6857C134.088 58.6857 143.361 47.2357 156.273 47.8295Z" fill="#59A1F2"/>
<path d="M164.421 58.5936L164.275 61.7437L180.568 62.493L180.714 59.343L164.421 58.5936Z" fill="#59A1F2"/>
<path d="M146.241 328.981L142.998 330.556L144.621 329.768L143.001 330.556C142.958 330.469 138.595 321.604 129.198 309.052C120.536 297.479 105.696 280.308 84.2046 264.243C76.4637 258.456 69.6655 251.787 63.9972 244.418C59.4587 238.518 55.6309 232.161 52.6203 225.523C47.4755 214.18 46.5066 206.008 46.4688 205.668L50.0526 205.263C50.0621 205.341 51.0238 213.321 55.9696 224.179C60.5247 234.179 69.4973 248.747 86.3649 261.357C96.0245 268.577 105.18 276.62 113.574 285.258C120.292 292.17 126.543 299.478 132.152 306.982C141.726 319.79 146.061 328.609 146.241 328.981Z" fill="#244061"/>
<path d="M57.9288 188.954C60.5392 200.955 49.6478 211.194 49.6478 211.194C49.6478 211.194 35.4853 206.389 32.875 194.388C30.2647 182.387 41.0755 171.784 41.0755 171.784C41.0755 171.784 55.3185 176.953 57.9288 188.954Z" fill="#244061"/>
<path d="M31.8755 209.337C43.0984 210.634 48.7809 223.132 48.7809 223.132C48.7809 223.132 40.3933 234.002 29.168 232.706C17.9451 231.409 11.9238 218.873 11.9238 218.873C11.9238 218.873 20.6525 208.041 31.8755 209.337Z" fill="#244061"/>
<path d="M37.1443 220.406L36.7744 223.6L53.2953 225.508L53.6652 222.314L37.1443 220.406Z" fill="#244061"/>
<path d="M35.8127 238.268C49.1604 235.209 60.7197 247.186 60.7197 247.186C60.7197 247.186 55.5464 262.999 42.1964 266.058C28.8487 269.116 16.8867 257.231 16.8867 257.231C16.8867 257.231 22.465 241.326 35.8127 238.268Z" fill="#244061"/>
<path d="M49.8557 247.913L50.6035 251.169L67.4507 247.309L66.7028 244.053L49.8557 247.913Z" fill="#244061"/>
<path d="M62.92 199.082C54.6533 206.775 57.5028 220.203 57.5028 220.203C57.5028 220.203 70.7131 223.986 78.9775 216.292C87.2443 208.599 84.6435 194.939 84.6435 194.939C84.6435 194.939 71.1845 191.388 62.92 199.082Z" fill="#244061"/>
<path d="M52.523 222.414L54.7178 224.766L66.8831 213.441L64.6884 211.089L52.523 222.414Z" fill="#244061"/>
<path d="M99.0183 241.695C90.8937 251.208 95.7282 265.629 95.7282 265.629C95.7282 265.629 110.748 268.125 118.873 258.612C126.998 249.1 122.407 234.392 122.407 234.392C122.407 234.392 107.143 232.18 99.0183 241.695Z" fill="#244061"/>
<path d="M91.8737 269.208L94.5127 271.049L104.037 257.432L101.398 255.591L91.8737 269.208Z" fill="#244061"/>
<path d="M127.95 264.518C115.948 270.013 112.767 281.766 112.767 281.766C112.767 281.766 126.027 290.817 138.029 285.319C150.031 279.824 153.876 261.433 153.876 261.433C153.876 261.433 139.953 259.022 127.95 264.518Z" fill="#244061"/>
<path d="M110.196 285.021L112.835 286.862L122.359 273.246L119.72 271.404L110.196 285.021Z" fill="#244061"/>
<path d="M148.51 285.037C136.975 291.453 135.925 306.809 135.925 306.809C135.925 306.809 149.851 314.798 161.389 308.382C172.925 301.967 175.319 283.332 175.319 283.332C175.319 283.332 160.046 278.619 148.51 285.037Z" fill="#244061"/>
<path d="M132.37 309.498L135.009 311.339L144.533 297.723L141.894 295.881L132.37 309.498Z" fill="#244061"/>
<path d="M85.6335 292.405C95.5205 284.735 106.807 287.214 106.807 287.214C106.807 287.214 108.617 302.315 98.7301 309.984C93.8671 313.758 91.2402 313.907 85.9888 314.169C82.296 314.354 76.8243 316.774 76.8243 316.774C76.8243 316.774 72.1982 309.152 76.8551 302.263C79.1006 298.939 81.917 295.286 85.6335 292.405Z" fill="#244061"/>
<path d="M95.2573 291.416L96.5488 294.361L111.783 287.697L110.491 284.752L95.2573 291.416Z" fill="#244061"/>
<path d="M70.3455 290.746C83.5724 287.38 88.35 271.499 88.35 271.499C88.35 271.499 76.5468 259.838 63.3175 263.207C50.0907 266.573 44.915 282.556 44.915 282.556C44.915 282.556 57.1163 294.112 70.3455 290.746Z" fill="#244061"/>
<path d="M94.205 271.931L93.3379 268.534L75.7652 273.008L76.6323 276.405L94.205 271.931Z" fill="#244061"/>
<path d="M117.272 331.507C127.898 326.61 129.45 312.477 129.45 312.477C129.45 312.477 117.679 304.484 107.051 309.381C96.425 314.278 94.5537 328.557 94.5537 328.557C94.5537 328.557 106.646 336.404 117.272 331.507Z" fill="#244061"/>
<path d="M133.236 312.24L131.909 309.368L117.049 316.216L118.376 319.088L133.236 312.24Z" fill="#244061"/>
<path d="M80.5026 216.73C69.5568 225.076 71.4068 241.702 71.4068 241.702C71.4068 241.702 86.9787 247.868 97.9245 239.519C108.87 231.173 107.35 214.293 107.35 214.293C107.35 214.293 91.4484 208.384 80.5026 216.73Z" fill="#244061"/>
<path d="M65.7393 244.051L67.7803 246.721L81.5933 236.189L79.5523 233.519L65.7393 244.051Z" fill="#244061"/>
<path d="M158.348 214.547L155.001 215.055L156.673 214.8L155.001 215.055C154.987 214.965 153.552 205.805 148.634 191.94C144.1 179.155 135.594 159.636 120.818 139.253C115.496 131.912 111.265 124.041 108.24 115.861C105.82 109.31 104.164 102.546 103.318 95.7616C101.876 84.1625 103.288 76.5709 103.349 76.2539L106.675 76.8903C106.661 76.9613 105.296 84.3825 106.698 95.4919C107.989 105.724 111.964 121.276 123.561 137.273C130.203 146.433 136.163 156.189 141.274 166.269C145.365 174.334 148.928 182.626 151.86 190.911C156.868 205.055 158.289 214.166 158.348 214.547Z" fill="#59A1F2"/>
<path d="M118.288 64.4655C117.277 75.9486 104.659 82.0924 104.659 82.0924C104.659 82.0924 93.308 73.8432 94.3194 62.36C95.3309 50.8768 107.98 44.3853 107.98 44.3853C107.98 44.3853 119.3 52.9823 118.288 64.4655Z" fill="#59A1F2"/>
<path d="M94.6932 76.3766C102.605 81.9763 101.721 93.7221 101.721 93.7221C101.721 93.7221 90.9198 98.4511 83.006 92.8515C75.0945 87.2518 75.7388 75.3381 75.7388 75.3381C75.7388 75.3381 86.7793 70.7794 94.6932 76.3766Z" fill="#59A1F2"/>
<path d="M94.0835 86.8824L92.4869 89.1333L104.134 97.3746L105.731 95.1237L94.0835 86.8824Z" fill="#59A1F2"/>
<path d="M88.0445 98.9647C100.556 101.905 105.331 116.774 105.331 116.774C105.331 116.774 94.4211 127.957 81.9072 125.016C69.3957 122.075 64.2437 107.119 64.2437 107.119C64.2437 107.119 75.5306 96.0242 88.0445 98.9647Z" fill="#59A1F2"/>
<path d="M95.8644 112.877L95.1451 115.931L110.935 119.641L111.654 116.587L95.8644 112.877Z" fill="#59A1F2"/>
<path d="M114.041 72.573C106.279 79.7908 108.948 92.393 108.948 92.393C108.948 92.393 121.344 95.9487 129.106 88.7333C136.868 81.5155 134.433 68.6956 134.433 68.6956C134.433 68.6956 121.803 65.3552 114.041 72.573Z" fill="#59A1F2"/>
<path d="M104.287 94.4662L106.345 96.6738L117.77 86.0507L115.712 83.8431L104.287 94.4662Z" fill="#59A1F2"/>
<path d="M135.661 121.089C126.373 128.278 128.057 142.454 128.057 142.454C128.057 142.454 141.381 147.616 150.669 140.426C159.957 133.237 158.552 118.846 158.552 118.846C158.552 118.846 144.946 113.897 135.661 121.089Z" fill="#59A1F2"/>
<path d="M125.235 143.169L127.086 145.553L139.422 136.001L137.572 133.617L125.235 143.169Z" fill="#59A1F2"/>
<path d="M155.827 149.352C144.01 153.083 139.687 163.662 139.687 163.662C139.687 163.662 153.646 174.649 165.463 170.918C177.281 167.187 179.659 154.623 179.659 154.623C179.659 154.623 167.645 145.621 155.827 149.352Z" fill="#59A1F2"/>
<path d="M137.983 165.181L140.266 167.156L150.484 155.371L148.201 153.397L137.983 165.181Z" fill="#59A1F2"/>
<path d="M117.7 165.858C128.082 160.362 138.116 164.478 138.116 164.478C138.116 164.478 137.344 178.732 126.962 184.225C121.855 186.927 117.691 187.573 113.475 186.903C110.047 186.359 105.613 186.962 105.613 186.962C105.613 186.962 102.569 179.167 107.991 173.551C110.604 170.847 113.799 167.923 117.7 165.858Z" fill="#59A1F2"/>
<path d="M123.779 167.173L124.496 170.103L139.659 166.401L138.942 163.471L123.779 167.173Z" fill="#59A1F2"/>
<path d="M102.991 158.985C115.173 157.708 121.474 144.226 121.474 144.226C121.474 144.226 112.506 132.345 100.324 133.622C88.1415 134.9 81.4713 148.42 81.4713 148.42C81.4713 148.42 90.8087 160.263 102.991 158.985Z" fill="#59A1F2"/>
<path d="M126.619 145.361L126.291 142.232L110.109 143.928L110.438 147.058L126.619 145.361Z" fill="#59A1F2"/>
<path d="M124.087 92.965C113.281 100.048 113.902 115.737 113.902 115.737C113.902 115.737 128.067 122.546 138.873 115.463C149.679 108.38 149.385 92.4777 149.385 92.4777C149.385 92.4777 134.893 85.8821 124.087 92.965Z" fill="#59A1F2"/>
<path d="M109.599 116.779L111.332 119.416L124.968 110.477L123.235 107.841L109.599 116.779Z" fill="#59A1F2"/>
<path d="M315.741 361.325H160.61C149.726 361.325 140.902 352.513 140.902 341.642V111.818C140.902 100.947 149.726 92.1348 160.61 92.1348H315.741C326.626 92.1348 335.449 100.947 335.449 111.818V341.642C335.449 352.513 326.626 361.325 315.741 361.325Z" fill="white"/>
<path d="M240.897 310.381C195.58 310.381 158.703 273.562 158.703 228.291C158.703 183.031 195.569 146.201 240.897 146.201C286.215 146.201 323.091 183.021 323.091 228.291C323.081 273.551 286.215 310.381 240.897 310.381Z" fill="#59A1F2"/>
<path d="M267.829 204.442L230.973 241.324L213.85 224.223C209.998 220.376 203.757 220.376 199.906 224.223C196.054 228.07 196.054 234.303 199.906 238.15L224.732 262.945C228.184 266.393 233.762 266.393 237.214 262.956L281.847 218.463C285.699 214.616 285.71 208.383 281.858 204.536L281.773 204.452C277.932 200.584 271.681 200.584 267.829 204.442Z" fill="white"/>
<path d="M282.483 24.8922C282.483 24.8922 285.103 22.0675 291.707 24.5208C297.648 26.7256 297.389 34.4118 297.915 39.7347C298.441 45.0576 306.741 48.5564 304.858 55.1379C303.233 60.8156 287.735 62.2492 284.44 55.1379C281.145 48.0265 278.172 29.3799 282.483 24.8922Z" fill="black"/>
<path d="M277.971 52.0169C273.323 50.1835 271.315 30.9999 279.671 25.1992C286.233 20.6451 288.447 25.0974 288.447 25.0974C288.447 25.0974 288.364 44.2432 288.447 48.8658C288.53 53.4884 282.618 53.8503 277.971 52.0169Z" fill="black"/>
<path d="M286.966 56.0362L286.831 47.7065H282.115C280.528 47.8532 278.844 48.0354 277.97 48.2223C276.16 48.6079 274.012 48.9888 273.071 49.2324C270.238 49.9682 269.334 51.8111 267.346 57.3752C263.824 67.2355 262.858 73.2965 265.418 77.5453C267.979 81.7942 269.928 83.2254 269.928 83.2254L272.989 79.1895C272.989 79.1895 269.933 74.9336 270.238 72.019C270.544 69.1044 272.82 66.3105 272.82 66.3105C272.82 66.3105 274.419 77.2141 273.709 80.8502H287.407L286.992 57.5952L286.966 56.0362Z" fill="#1B3049"/>
<path d="M304.428 57.3752C302.441 51.8111 301.418 49.9658 298.585 49.2324C297.644 48.9888 296.294 48.6079 294.484 48.2223C293.61 48.0354 291.763 47.8532 289.998 47.7065H284.827L284.692 56.0362L284.666 57.5976L284.252 80.8526H297.95C297.242 77.2165 299.314 65.7522 299.314 65.7522C299.314 65.7522 301.095 69.2251 301.593 71.9031C302.261 75.5084 299.589 78.9198 299.589 78.9198L303.133 82.2342C303.133 82.2342 304.871 81.832 307.434 77.5832C309.992 73.3344 307.951 67.2355 304.428 57.3752Z" fill="#1B3049"/>
<path d="M301.326 86.0145C304.621 98.3943 294.57 96.8778 286.574 96.8778C278.577 96.8778 267.797 97.7721 271.3 85.6194C275.242 71.9408 278.193 71.0986 286.19 71.0986C294.187 71.0986 298.031 73.6347 301.326 86.0145Z" fill="black"/>
<path d="M305.652 85.2598H266.902L265.106 63.7366C265.057 63.1404 265.528 62.6294 266.127 62.6294H306.428C307.028 62.6294 307.499 63.1404 307.449 63.7366L305.652 85.2598Z" fill="#BCDEFF"/>
<path d="M305.651 85.7642H266.902L265.106 64.2409C265.056 63.6448 265.528 63.1338 266.127 63.1338H306.428C307.028 63.1338 307.499 63.6448 307.449 64.2409L305.651 85.7642Z" fill="#DC5B5B"/>
<path d="M304.936 87.2162H267.619C267.183 87.2162 266.828 86.8614 266.828 86.4261V85.8725C266.828 85.811 266.878 85.7637 266.937 85.7637H305.616C305.677 85.7637 305.725 85.8133 305.725 85.8725V86.4261C305.727 86.8637 305.372 87.2162 304.936 87.2162Z" fill="#BCDEFF"/>
<path d="M295.857 32.9114C295.857 38.8493 292.218 41.6054 286.277 41.6054C280.337 41.6054 276.698 38.8493 276.698 32.9114C276.698 26.9734 280.443 24.6172 286.384 24.6172C292.325 24.6172 295.857 26.9734 295.857 32.9114Z" fill="black"/>
<path d="M290.11 47.4087C290.165 48.0214 290.26 48.2982 290.39 48.9015C288.4 53.0557 284.208 53.0557 282.073 48.9015C282.204 48.3053 282.294 48.038 282.351 47.4347C282.505 45.8284 282.403 44.1913 282.073 42.5259H290.39C290.063 44.1819 289.961 45.8095 290.11 47.4087Z" fill="#FFE9BD"/>
<path d="M286.384 40.6307C286.335 40.6283 286.283 40.626 286.233 40.626C286.183 40.626 286.131 40.6283 286.081 40.6307H286.384Z" fill="#FFE9BD"/>
<path d="M294.486 48.2201C293.628 52.2063 290.255 54.8299 286.228 54.8299C282.201 54.8299 278.828 52.2063 277.971 48.2201C279.975 47.8155 282.649 47.4062 282.649 47.4062H289.805C289.805 47.4062 292.482 47.8179 294.486 48.2201Z" fill="#FFE9BD"/>
<path d="M293.67 36.5C292.443 28.9155 288.386 29.3886 286.233 29.3886C282.014 29.3886 280.02 29.6323 278.795 36.5L278.776 36.914C278.681 39.0597 279.25 41.1297 280.387 42.9158C280.626 43.292 283.161 47.3113 286.235 47.3113C289.31 47.3113 291.794 43.3582 292.015 43.0199C293.197 41.2125 293.787 39.1023 293.692 36.914L293.67 36.5Z" fill="#FFE9BD"/>
<path d="M294.834 30.5905C294.834 33.8078 294.599 36.8904 294.599 36.8904H294.253C293.919 36.8904 293.448 37.3233 293.327 37.011C293.327 37.011 292.752 33.7014 291.802 32.677C291.802 32.677 290.362 31.4374 286.354 31.4374C282.343 31.4374 280.463 32.677 280.463 32.677C279.364 34.3354 279.139 37.0157 279.139 37.0157C279.011 37.3115 278.596 36.888 278.274 36.888H277.871V31.2883C277.871 28.8233 279.634 26.7083 282.062 26.2612L282.682 26.1453C283.921 25.9182 285.174 25.8022 286.427 25.8022C287.789 25.8022 289.151 25.9371 290.492 26.2068C292.877 26.6894 294.834 27.3707 294.834 30.5905Z" fill="black"/>
<path d="M305.474 131.63L308.648 131.95C309.394 132.492 310.067 131.919 310.337 132.477C311.08 134.017 311.476 134.651 311.834 135.986C312.194 137.32 312.485 138.434 311.94 139.324C311.441 140.14 309.42 141.429 307.314 140.296C305.047 139.075 304.725 135.368 305.073 133.376C305.171 132.818 305.398 132.051 305.474 131.63Z" fill="#1B3049"/>
<path d="M308.441 128.472C308.483 128.583 308.405 129.025 308.441 129.144C308.441 129.144 309.992 131.258 310.902 133.714C312.129 137.028 312.174 137.795 311.835 138.623C311.307 139.919 307.1 140.565 306.155 138.114C305.21 135.663 305.804 134.8 304.71 129.558C304.627 129.16 304.573 128.798 304.544 128.474H308.441V128.472Z" fill="#FFE9BD"/>
<path d="M309.09 130.107C309.09 130.107 309.014 107.069 307.496 93.2843C305.978 79.4992 292.476 84.0083 294.942 97.7673C297.775 113.577 304.895 130.483 304.895 130.483C304.895 130.483 307.482 129.47 309.09 130.107Z" fill="#20326D"/>
<path d="M269.014 131.117L265.423 131.947C264.677 132.489 264.004 131.916 263.734 132.475C262.99 134.015 262.595 134.649 262.237 135.983C261.877 137.317 261.586 138.431 262.131 139.321C262.63 140.137 264.651 141.427 266.757 140.293C269.024 139.073 269.275 135.657 269.175 133.102C269.151 132.538 269.09 131.538 269.014 131.117Z" fill="#1B3049"/>
<path d="M265.629 128.472C265.586 128.583 265.624 128.999 265.588 129.118C265.588 129.118 264.113 131.396 263.168 133.714C261.834 136.986 261.896 137.795 262.234 138.623C262.762 139.919 266.969 140.565 267.914 138.114C268.86 135.663 268.265 134.8 269.359 129.558C269.442 129.16 269.497 128.798 269.525 128.474H265.629V128.472Z" fill="#FFE9BD"/>
<path d="M264.98 130.107C264.98 130.107 265.056 107.069 266.574 93.2843C268.093 79.4992 281.594 84.0083 279.128 97.7673C276.296 113.577 269.175 130.483 269.175 130.483C269.175 130.483 266.589 129.47 264.98 130.107Z" fill="#20326D"/>
<path d="M268.874 134.351C268.874 134.351 266.747 135.416 263.156 133.691C262.649 134.786 262.258 135.884 261.993 136.934C261.993 136.934 261.081 141.812 267.403 139.409C267.503 139.371 268.121 138.292 268.45 137.098C268.81 135.787 268.874 134.351 268.874 134.351Z" fill="#1B3049"/>
<path d="M305.135 134.161C305.135 134.161 307.257 135.302 310.85 133.577C311.357 134.672 311.753 135.694 312.016 136.745C312.016 136.745 312.928 141.623 306.606 139.219C306.506 139.182 305.888 138.103 305.559 136.908C305.201 135.597 305.135 134.161 305.135 134.161Z" fill="#1B3049"/>
<path d="M278.925 35.703C278.925 35.703 284.868 33.2947 287.929 30.0607C290.989 26.8292 278.572 25.2418 278.925 35.703Z" fill="black"/>
<path d="M294.371 34.7024C294.052 31.8919 289.399 27.5603 282.926 29.9804C282.926 29.9804 285.849 34.6621 293.315 36.9711L294.371 34.7024Z" fill="black"/>
<path d="M280.029 38.1254C279.929 39.1166 279.586 40.4509 278.92 40.3823C278.255 40.316 277.613 39.2302 277.712 38.2366C277.812 37.243 277.975 36.3818 278.643 36.3818C279.529 36.3842 280.128 37.1341 280.029 38.1254Z" fill="#FFE9BD"/>
<path d="M292.413 38.3594C292.413 39.3554 292.747 40.3726 293.415 40.3726C294.083 40.3726 294.831 39.3554 294.831 38.3594C294.831 37.3634 294.772 36.4219 294.104 36.4219C293.021 36.4219 292.413 37.3634 292.413 38.3594Z" fill="#FFE9BD"/>
<path d="M136.319 284.732C136.319 284.732 125.882 307.841 125.702 311.633C124.989 326.648 111.05 355.188 111.05 355.188L106.108 354.528C106.108 354.528 116.353 277.332 116.988 271.279C117.599 265.454 136.39 279.398 136.319 284.732Z" fill="#001F82"/>
<path d="M117.609 259.94C119.975 249.692 130.329 253.037 136.061 256.469C136.061 256.469 144.42 266.41 140.49 277.929C137.913 285.48 138.88 302.613 139.285 306.514C142.056 333.268 139.633 355.848 139.633 355.848L133.332 354.531C133.332 354.531 130.201 335.879 126.157 319.57C123.346 308.224 119.793 289.095 118.985 284.837C117.469 276.878 115.844 267.576 117.609 259.94Z" fill="#1B3049"/>
<path d="M140.084 356.958C140.084 356.958 139.769 355.077 139.689 354.23C139.662 353.949 139.516 353.854 137.5 353.634C136.107 353.483 133.153 353.53 133.153 353.53C133.153 353.53 132.187 354.159 131.04 354.746C129.894 355.333 125.469 357.178 123.795 358.034C122.802 358.541 122.935 361.323 124.875 361.323C126.594 361.323 133.359 361.323 136.036 361.323C139.331 361.323 139.895 360.679 140.027 359.714C140.127 358.971 140.248 357.608 140.084 356.958Z" fill="#1B3049"/>
<path d="M123.794 358.037C124.019 359.288 124.391 359.984 125.847 359.984C126.525 359.984 131.312 360.225 133.783 359.681C135.294 359.35 140.076 359.279 140.076 359.279C140.06 359.437 140.041 359.589 140.024 359.716C139.892 360.682 139.328 361.325 136.033 361.325H124.872C122.932 361.325 122.801 358.543 123.794 358.037Z" fill="white"/>
<path d="M111.967 356.968C111.967 356.968 111.659 355.127 111.58 354.297C111.554 354.02 111.412 353.928 109.437 353.712C108.075 353.563 106.256 353.611 106.256 353.611C106.256 353.611 105.093 354.228 103.97 354.801C102.847 355.375 98.6236 357.095 96.4041 358.191C95.7859 358.496 96.0322 361.24 97.9319 361.24C99.6137 361.24 105.384 361.24 108.004 361.24C111.23 361.24 111.782 360.611 111.91 359.667C112.007 358.938 112.123 357.606 111.967 356.968Z" fill="#1B3049"/>
<path d="M96.4016 358.195C96.6219 359.421 97.4581 359.929 98.884 359.929C99.5473 359.929 103.38 360.164 105.798 359.634C107.279 359.31 111.959 359.241 111.959 359.241C111.943 359.395 111.926 359.544 111.91 359.669C111.779 360.613 111.227 361.242 108.001 361.242H97.9294C96.0274 361.242 95.4305 358.69 96.4016 358.195Z" fill="white"/>
<path d="M125.189 199.822C125.189 199.822 122.157 202.512 120.092 201.97C118.026 201.428 115.795 194.963 115.662 192.978C115.411 189.188 115.245 182.942 116.041 181.525C120.12 174.265 135.007 183.924 125.189 199.822Z" fill="#FFE9BD"/>
<path d="M141.398 261.205C143.128 268.276 117.936 266.977 116.276 264.108C115.712 263.126 115.497 262.452 115.437 261.725C115.404 261.359 115.411 260.966 115.428 260.512C115.461 259.778 115.539 258.872 115.53 257.583C115.52 256.284 115.549 254.978 115.582 253.673C115.591 253.263 115.598 252.852 115.617 252.442C115.684 250.214 115.788 247.95 115.864 245.61C115.88 245.208 115.89 244.799 115.897 244.39C115.956 242.178 115.985 239.906 115.923 237.531C115.913 237.129 115.906 236.72 115.887 236.311C115.838 234.808 115.743 233.271 115.606 231.674C115.537 230.914 115.487 230.153 115.444 229.386C115.418 228.977 115.392 228.565 115.385 228.156C115.283 225.833 115.293 223.519 115.461 221.307C115.497 220.898 115.53 220.486 115.572 220.087C115.831 217.662 116.29 215.391 117.024 213.408C117.169 212.999 117.332 212.606 117.503 212.23C118.469 210.12 119.793 208.412 121.589 207.302C124.668 205.398 128.029 204.825 128.84 203.853C129.626 202.914 138.921 204.87 140.752 212.112C140.828 212.377 140.889 212.658 140.932 212.94C140.948 213.06 140.974 213.179 140.984 213.306C141.315 215.374 141.488 217.636 141.548 220.001C141.567 220.404 141.574 220.813 141.574 221.222C141.607 223.443 141.548 225.731 141.429 228.012C141.413 228.43 141.394 228.84 141.37 229.249C141.278 230.862 141.164 232.459 141.036 234.023C140.986 234.681 140.908 235.371 140.83 236.081C140.787 236.49 140.738 236.902 140.685 237.328C140.439 239.455 140.138 241.768 139.935 244.193C139.899 244.602 139.866 245.014 139.84 245.433C139.686 247.628 139.617 249.899 139.747 252.213C139.773 252.615 139.8 253.015 139.84 253.427C140.02 255.622 140.396 257.834 141.038 260.027C141.124 260.334 141.218 260.633 141.32 260.94C141.349 261.025 141.375 261.12 141.398 261.205Z" fill="#59A1F2"/>
<path d="M129.74 192.666C129.74 192.666 131.301 201.8 131.428 204.359C131.639 208.639 123.425 209.893 123.147 207.728C122.683 204.099 121.684 195.736 121.684 195.736L129.74 192.666Z" fill="#FFE9BD"/>
<path d="M134.654 184.405C134.681 184.589 134.704 184.774 134.728 184.956C135.391 190.085 134.702 195.022 130.782 197.894C129.917 198.526 128.536 198.634 126.79 196.411C126.402 195.916 125.743 194.267 125.298 193.584C125.298 193.584 125.679 193.002 125.445 191.111C125.296 189.905 123.946 188.599 122.657 190.378C122.25 190.941 121.71 190.007 121.683 188.459C121.593 183.368 124.135 180.097 116.709 180.572C116.709 180.572 117.394 178.971 120.35 177.908C128.302 175.058 133.889 178.76 134.654 184.405Z" fill="#1B3049"/>
<path d="M129.355 178.266C123.725 174.067 119.201 176.167 114.747 178.871C109.366 182.141 113.25 187.128 115.638 186.238C116.896 185.77 118.739 184.961 119.468 183.764C125.679 183.494 131.257 179.685 129.355 178.266Z" fill="#1B3049"/>
<path d="M126.326 192.484C126.326 192.484 121.373 198.337 118.637 196.645C115.901 194.954 116.491 196.456 116.491 196.456C116.491 196.456 117.924 203.253 118.876 203.302C119.829 203.35 126.416 202.638 127.098 201.114C127.78 199.593 128.017 194.504 128.067 193.981C128.11 193.461 126.326 192.484 126.326 192.484Z" fill="#1B3049"/>
<path d="M89.0803 211.918L85.4254 213.127C84.9185 213.295 84.6745 213.867 84.9019 214.348L91.1221 227.439C91.3827 227.986 91.8517 228.185 92.3112 228.029C92.458 227.979 93.5974 226.945 95.2579 226.143C95.8595 225.852 96.0514 224.939 95.6795 224.151L90.1604 212.382C89.9709 211.977 89.5066 211.778 89.0803 211.918Z" fill="#FFE9BD"/>
<path d="M101.793 231.293C100.658 230.74 99.6588 230.25 98.5005 229.434C95.7173 227.473 96.1531 225.485 94.1563 224.482C86.4082 220.586 85.6289 222.89 88.8196 227.742C91.9155 232.455 94.8858 230.68 97.9841 231.695C101.03 231.48 101.793 231.293 101.793 231.293Z" fill="#FFE9BD"/>
<path d="M93.0508 226.018L94.9765 222.649C94.9765 222.649 95.7606 222.32 96.1609 223.574C96.5612 224.828 96.4546 229.017 96.4546 229.017C96.4546 229.017 93.1289 227.539 93.0508 226.018Z" fill="#FFE9BD"/>
<path d="M140.988 213.305C137.499 213.723 133.847 213.962 130.111 214.014C127.88 214.047 125.639 214.014 123.45 213.913C121.236 213.811 119.09 213.638 117.029 213.409C117.173 212.999 117.337 212.607 117.507 212.231C119.44 212.453 121.449 212.607 123.51 212.701C125.675 212.796 127.88 212.829 130.087 212.803C133.754 212.751 137.329 212.512 140.759 212.112C140.834 212.377 140.896 212.659 140.939 212.94C140.955 213.056 140.979 213.177 140.988 213.305Z" fill="#1B3049"/>
<path d="M141.578 221.22C137.797 221.708 133.813 221.989 129.734 222.058C127.501 222.091 125.262 222.058 123.081 221.956C120.44 221.828 117.891 221.615 115.463 221.308C115.498 220.898 115.532 220.487 115.574 220.087C117.986 220.395 120.515 220.617 123.133 220.735C125.295 220.837 127.51 220.872 129.715 220.837C133.804 220.778 137.781 220.496 141.549 220C141.571 220.402 141.578 220.811 141.578 221.22Z" fill="#1B3049"/>
<path d="M141.434 228.01C141.417 228.428 141.398 228.838 141.374 229.247C137.544 229.741 133.498 230.032 129.36 230.101C127.129 230.127 124.891 230.092 122.709 229.99C120.196 229.869 117.768 229.673 115.449 229.384C115.423 228.975 115.397 228.563 115.39 228.154C117.742 228.452 120.212 228.658 122.761 228.779C124.924 228.88 127.138 228.916 129.344 228.88C133.515 228.821 137.584 228.53 141.434 228.01Z" fill="#1B3049"/>
<path d="M140.834 236.08C140.791 236.489 140.742 236.9 140.69 237.326C136.945 237.804 133.013 238.079 128.983 238.138C126.752 238.171 124.511 238.138 122.332 238.036C120.127 237.934 117.988 237.762 115.927 237.532C115.918 237.13 115.911 236.721 115.892 236.311C117.978 236.541 120.151 236.721 122.382 236.825C124.547 236.927 126.762 236.962 128.967 236.927C133.06 236.865 137.054 236.583 140.834 236.08Z" fill="#1B3049"/>
<path d="M139.936 244.194C139.901 244.603 139.867 245.015 139.841 245.433C136.243 245.878 132.472 246.124 128.607 246.186C126.373 246.219 124.134 246.186 121.953 246.084C119.859 245.989 117.822 245.829 115.865 245.616C115.882 245.213 115.891 244.804 115.898 244.395C117.867 244.608 119.911 244.771 122.005 244.873C124.17 244.967 126.385 245.001 128.59 244.975C132.496 244.911 136.31 244.646 139.936 244.194Z" fill="#1B3049"/>
<path d="M139.842 253.425C136.13 253.896 132.234 254.168 128.231 254.227C125.997 254.26 123.758 254.227 121.577 254.125C119.516 254.031 117.514 253.877 115.584 253.673C115.593 253.264 115.601 252.853 115.62 252.443C117.559 252.656 119.568 252.81 121.631 252.905C123.794 253.006 126.009 253.042 128.214 253.006C132.191 252.947 136.064 252.673 139.75 252.211C139.776 252.614 139.799 253.016 139.842 253.425Z" fill="#1B3049"/>
<path d="M141.398 261.206C137.115 261.838 132.549 262.204 127.854 262.273C125.622 262.299 123.382 262.263 121.202 262.162C119.218 262.067 117.294 261.923 115.439 261.726C115.406 261.36 115.413 260.967 115.43 260.513C117.311 260.709 119.253 260.853 121.255 260.948C123.417 261.05 125.632 261.085 127.837 261.05C132.421 260.981 136.867 260.631 141.04 260.025C141.126 260.333 141.22 260.631 141.322 260.939C141.348 261.026 141.374 261.121 141.398 261.206Z" fill="#1B3049"/>
<path d="M123.779 220.539C120.003 227.941 117.793 234.345 117.793 234.345L94.9636 227.884L93.8408 230.837C93.8408 230.837 119.075 244.165 121.924 243.169C124.774 242.173 132.612 223.03 132.612 223.03C132.612 223.03 127.555 213.139 123.779 220.539Z" fill="#FFE9BD"/>
<path d="M131.305 231.083C131.305 231.083 122.053 224.927 120.899 224.489C119.746 224.049 123.486 211.544 127.191 210.451C130.895 209.358 135.623 210.988 135.36 216.966C135.095 222.945 131.305 231.083 131.305 231.083Z" fill="#1B3049"/>
<path d="M123.715 186.004C128.098 186.004 131.651 183.449 131.651 180.298C131.651 177.147 128.098 174.592 123.715 174.592C119.333 174.592 115.78 177.147 115.78 180.298C115.78 183.449 119.333 186.004 123.715 186.004Z" fill="#1B3049"/>
</svg>
